<svg viewBox="0 0 1000 1000" xmlns="http://www.w3.org/2000/svg"><path d="m903 960.66h-285.23 19.76l180.4-2.09c33.35-2.9 56.85-35.61 44.18-66.58-2.19-5.35.1-6.84-2.61-12-28.36-53.4-77.53-96.9-133.25-122.17 1.38-.26 2.77-.45 4.19-.64a282.31 282.31 0 0 0 -32-13.63c-5.8-2.07-11.67-3.94-17.53-5.58-28.81-8.12-67.74-4.41-80 27.49-10.31 26.78 3.38 59.13 29.13 70.86l46.25 17.68c-.39-.58-.74-1.16-1.1-1.77l40.22 15.37a4.78 4.78 0 0 1 -2.25 8.67l-97.68 10.67c-14.08 1.42-31.71 7.31-42.09 17-7.57 7-13.95 16.53-13.89 28.59a149 149 0 0 0 -19 2.67c-9.57 2.06-19.31 5.61-20 11.44-1.36 11.7 15.27 14.08 25.75 14.08l-66.32-.26c7.12 0 8-.06 12.72-4.76s10-8.32 10-15.44l.58-22.82c0-4.7 1.12-8.5-3.58-8.5h-42a8.91 8.91 0 0 0 8.25-5 .25.25 0 0 0 .06-.13c2.1-3.9 2.58-9.51 2.19-14.82l.49-1.74 1.26-4.64 26.68-15.7a6.39 6.39 0 0 0 .58-.38c13.92-8.51 15.66-23.72 10.89-37.32-.1-.26-.16-.49-.26-.71-.22-.58-.42-1.13-.67-1.68a50.79 50.79 0 0 0 -4.71-8.86c-6.89-10.76-16.89-19.53-26.39-21.82a36.61 36.61 0 0 0 -8.12-.9c33.06-31 71.15-58.55 116.14-67.71a261.24 261.24 0 0 1 118.96 3.1c45.44 12.09 86.36 37.19 118.81 71.09 43.68 45.57 64.11 98.81 81.19 158.94z" fill="#353642"/><path d="m458.6 823.65a15.36 15.36 0 0 1 -7.28 7 35.92 35.92 0 0 1 -8.47 3c-4.84.81-6.55-2.25-9.64-5.25a22.62 22.62 0 0 0 -6-4.16 10 10 0 0 0 -8.54-.13 5.16 5.16 0 0 0 -3.06 4.71c.2 3.67 5.26 6.57 8.12 8.09a70.47 70.47 0 0 0 11.6 4.28c9.77 3-6.5 9.25-9.92 9.64a69.84 69.84 0 0 1 -22-.52 74.17 74.17 0 0 1 4.77 14.5c1.13 4.77 2.45 10.51 1.52 15.31-1.13 5.64-4.94 9.83-9.64 12.67l-18.27-76.22a54.17 54.17 0 0 1 43.34-1.42 12.86 12.86 0 0 0 13.57-3l1.87-1.81a13.52 13.52 0 0 1 7.8.62c4.43 1.67 12.63 7.04 10.23 12.69z" fill="#3fbdf1"/><path d="m477.36 908.88h-75.44a29 29 0 0 1 -28.84 25.91h-253.62a25.94 25.94 0 0 0 25.88 25.88h332a26 26 0 0 0 25.91-25.88v-17.4a8.51 8.51 0 0 0 -8.51-8.51z" fill="none" stroke="#000" stroke-miterlimit="10" stroke-width="4.83"/><path d="m360.86 739.7a28.82 28.82 0 0 1 4.71 10.24l35.74 149a28 28 0 0 1 .61 9.89 29 29 0 0 1 -28.84 25.91h-258.33a29.05 29.05 0 0 1 -28.23-22.27l-35.7-149a29 29 0 0 1 28.23-35.81h258.29a28.85 28.85 0 0 1 22.23 10.41z" fill="none" stroke="#000" stroke-miterlimit="10" stroke-width="4.83"/><ellipse cx="226.06" cy="842.14" fill="#d7e8f0" rx="27.93" ry="31.39" transform="matrix(.95371695 -.3007058 .3007058 .95371695 -242.74 106.93)"/><path d="m731.85 756.31c-22.79 3.81-40.31 14.23-52.07 35.8-10.53 19.3-11.76 42.85-.53 62l-45.85-17.58c-26.55-12.16-35.89-39.18-25.25-66.93 12.65-33.06 52.79-36.9 82.5-28.48 6.05 1.7 12.09 3.64 18.07 5.78q11.72 4.2 23.13 9.41z" fill="#353642"/><g fill="none" stroke-miterlimit="10"><path d="m197.88 727.68a142.52 142.52 0 0 1 71.74-49.28 213.6 213.6 0 0 1 -9-31.29c-23.62-114.88 50.25-227.19 165.1-250.88s227.2 50.15 250.88 165a217 217 0 0 1 4.4 39.09 188.43 188.43 0 0 1 25.13-7c100.37-20.75 198.57 43.83 219.29 144.22a185.32 185.32 0 0 1 -42.73 160.46" stroke="#9f9f9f" stroke-width="4.83"/><g stroke="#000"><path d="m448.23 908.89h7.09a13.13 13.13 0 0 0 10.63-5 .33.33 0 0 0 .07-.13 17.35 17.35 0 0 0 3.25-12.06l-.58-4.51-.48-3.64 1.74-1 27.26-16.08 1.84-1.06c13.31-7.83 14.27-22.43 9.05-36.26-.09-.25-.16-.48-.25-.71-.23-.58-.46-1.12-.68-1.67a63.84 63.84 0 0 0 -4.71-8.86c-6.89-10.77-16.88-19.53-26.39-21.82a36 36 0 0 0 -8.12-.9c-5.7 0-12 1.09-15.31 4.38 35.36-34.79 76.67-67.44 126.36-77.57a261.25 261.25 0 0 1 119 3.16c45.44 12.09 86.4 37.22 118.85 71.12 1.71 1.78 3.38 3.58 5 5.42 40.67 44.7 66.61 101.16 83 158.94" stroke-width="4.83"/><path d="m460.7 960.67h489.3" stroke-width="4.83"/><path d="m583.88 960.66h55.52" stroke-width="3.22"/><g stroke-width="4.83"><path d="m630.29 836.06c-25.76-11.73-39.44-44.08-29.14-70.85 12.28-31.91 51.21-35.62 80-27.5q8.82 2.47 17.53 5.58c64.73 23 123.55 70.75 155.67 131.25 2.71 5.12 4.87 10.38 7.06 15.74a49.63 49.63 0 0 1 -41.62 68.27l-180.39 2.11h-55.52a23.49 23.49 0 0 1 -22.24-15.92c-6.09-18 1.78-31.58 11.73-40.83 10.38-9.64 23.92-15.15 38-16.57l101.34-10.24a4.79 4.79 0 0 0 2.27-8.68z"/><path d="m600.08 907c-9.25 5.32-18.76 13.65-21.94 24.2-3.66 12.15 4.93 23.19 14.69 29.51"/><path d="m610 920.94c-8.63 8.21-16.11 18.62-11.12 31a23 23 0 0 0 6.48 8.76"/><path d="m626.93 937s-19.87 14.77-7.25 23.63"/><path d="m575.93 959.25.35 1.42h-32.06c-10.48 0-25-1.61-23.63-13.31s38.9-14.89 38.9-14.89"/></g></g></g><path d="m518.42 591.34-68.23 10.21 11.89 8.38 22.24 17.81c3.48 2.45 2.61 8.23 4.54 11.74a27.42 27.42 0 0 1 -43 26.14l-53.65-37.74a41.37 41.37 0 0 1 -13.79-16.14c-4.39-21.85 9.08-46.15 35-50l74.58-11.2-11-8.54-33.87-26.36a27.44 27.44 0 0 1 -7.12-8.25 27.44 27.44 0 0 1 44.09-25.39l60.42 47a40.32 40.32 0 0 1 11.67 14.28c4.12 21.12-9.06 44.35-33.77 48.06z" fill="#3fbdf1"/><g fill="none" stroke="#000" stroke-miterlimit="10"><g stroke-width="4.83"><path d="m468.22 883.54s-2.08-18.3-9.13-24.75"/><path d="m381.09 817.85a54.24 54.24 0 0 1 44-1.7 12.88 12.88 0 0 0 13.59-3l13.93-13.64"/><path d="m425.37 895.59 11.63 5.23a2 2 0 0 0 2.68-1.28l1.83-4.14"/></g><path d="m427.27 872.49a13.26 13.26 0 0 1 -1.9 13.7" stroke-width="3.22"/><g stroke-width="4.83"><path d="m453.65 908.88c1.83-2.71 1.82-9.26 1.35-11.89-.3-1.67-3.11-2.27-3.41-.59-.82 4.69-6.11 11.9-11 12.48"/><circle cx="430.17" cy="876.27" r="14.93"/><path d="m425.17 890.33-2.66 7.48a14.92 14.92 0 0 0 -19.07 9.06"/></g></g><circle cx="430.17" cy="876.27" fill="#fff" opacity=".53" r="12.64"/><path d="m400 893.77c4.7-2.84 8.5-7 9.63-12.66.94-4.81-.38-10.54-1.51-15.31a74 74 0 0 0 -4.77-14.5 69.84 69.84 0 0 0 22 .51c3.41-.38 19.69-6.6 9.92-9.63a69.18 69.18 0 0 1 -11.59-4.29c-2.88-1.49-7.93-4.39-8.11-8.07a5.13 5.13 0 0 1 3-4.73 10 10 0 0 1 8.54.15 22 22 0 0 1 6 4.16c3.1 3 4.79 6 9.65 5.23a34.88 34.88 0 0 0 8.45-3 15.37 15.37 0 0 0 7.3-7c2.42-5.63-5.8-11-10.26-12.61a13.56 13.56 0 0 0 -7.79-.64" fill="none" stroke="#000" stroke-miterlimit="10" stroke-width="4.83"/><path d="m518.42 591.34-68.23 10.21 11.89 8.38 15.38 10.8a27.45 27.45 0 1 1 -31.59 44.89l-53.65-37.74a41.37 41.37 0 0 1 -13.79-16.14c-11.41-23.69 1.93-55.24 31.74-59.69l59.17-8.86 7.66-1.19-33.87-26.36a27.44 27.44 0 1 1 33.71-43.31l60.42 47a39.58 39.58 0 0 1 14.89 23.94c4.16 21.13-9.02 44.36-33.73 48.07z" fill="none" stroke="#000" stroke-miterlimit="10" stroke-width="4.83"/><g fill="#d7e8f0"><path d="m368.66 707.33-.66-17.43-7.73 7.92a7.08 7.08 0 0 1 -10 .12 7.08 7.08 0 0 1 -.12-10l13.85-14.14a10.44 10.44 0 0 1 17.9 6.91l.65 17.78 5.7-6.43a7.07 7.07 0 0 1 10-.6 7.08 7.08 0 0 1 .61 10l-11.23 12.67a10.83 10.83 0 0 1 -18.97-6.8z"/><path d="m426.6 738.77 8.23-1.84-4.45-3a3.44 3.44 0 0 1 -.94-4.76 3.43 3.43 0 0 1 4.76-.93l7.94 5.31a5.05 5.05 0 0 1 -1.71 9.13l-8.43 1.9 3.57 2.15a3.42 3.42 0 0 1 1.16 4.7 3.43 3.43 0 0 1 -4.7 1.17l-7-4.23a5.23 5.23 0 0 1 1.57-9.6z"/><path d="m405.79 786.84.67-5.5-2.83 2.1a2.25 2.25 0 0 1 -3.15-.46 2.26 2.26 0 0 1 .46-3.15l5-3.75a3.32 3.32 0 0 1 5.28 3.06l-.68 5.62 2.11-1.74a2.25 2.25 0 0 1 3.17.31 2.25 2.25 0 0 1 -.31 3.17l-4.16 3.42a3.44 3.44 0 0 1 -5.56-3.08z"/></g><path d="m731.85 757-.42.71a7.11 7.11 0 0 0 -1-.52z" fill="#353642"/></svg>