<svg viewBox="0 0 1000 1000" xmlns="http://www.w3.org/2000/svg"><g fill="#3fbdf1"><path d="m666.26 878.63-19.76 18.65a5.21 5.21 0 0 0 -1.63 3.78v29.71a5.19 5.19 0 0 0 4.7 5.17l38.89 3.78 21.44-20.24a5.17 5.17 0 0 0 1.64-3.78v-29.89a5.2 5.2 0 0 0 -4.72-5.18l-36.51-3.39a5.22 5.22 0 0 0 -4.05 1.39z"/><path d="m664.19 873.45-23.19 21.89a6.1 6.1 0 0 0 -1.91 4.44v34.86a6.09 6.09 0 0 0 5.51 6.07l45.64 4.44 25.17-23.76a6.1 6.1 0 0 0 1.91-4.44v-35.08a6.1 6.1 0 0 0 -5.54-6.07l-42.84-4a6.09 6.09 0 0 0 -4.75 1.65z"/><path d="m786 679.77v29.88a5.22 5.22 0 0 1 -1.63 3.78l-21.46 20.24-38.91-3.78a5 5 0 0 1 -3-1.36c6.43-.78 11.84-3.77 13.5-7 2.55-5 1.87-13.72-9-15.24a45.61 45.61 0 0 1 -6.23-1.28v-10.01a5.15 5.15 0 0 1 1.63-3.77l19.75-18.67a5.3 5.3 0 0 1 4-1.38l36.51 3.4a5.19 5.19 0 0 1 4.84 5.19z"/><path d="m791.79 675.83v35.07a6.15 6.15 0 0 1 -1.93 4.46l-25.15 23.74-45.64-4.43a6.1 6.1 0 0 1 -5.51-6.08v-.14a25.53 25.53 0 0 0 7.5.08c6.43-.78 11.84-3.77 13.5-7 2.55-5 1.87-13.72-9-15.24a45.61 45.61 0 0 1 -6.23-1.28c-4.88-1.49-5.18-3.12-5.18-3.12l-.6.38v-8.5a6 6 0 0 1 1.9-4.43l23.2-21.9a6.14 6.14 0 0 1 4.75-1.65l42.84 4a6.13 6.13 0 0 1 5.55 6.04z"/><path d="m793.23 770.3-23.35 22a6.15 6.15 0 0 0 -1.93 4.47v35.11a6.14 6.14 0 0 0 5.55 6.12l46 4.47 25.35-23.92a6.15 6.15 0 0 0 1.93-4.47v-35.3a6.14 6.14 0 0 0 -5.58-6.12l-43.14-4a6.14 6.14 0 0 0 -4.83 1.64z"/><path d="m790.78 764.18-27.41 25.87a7.22 7.22 0 0 0 -2.26 5.24v41.2a7.22 7.22 0 0 0 6.52 7.18l53.94 5.24 29.74-28.08a7.16 7.16 0 0 0 2.26-5.24v-41.46a7.21 7.21 0 0 0 -6.57-7.13l-50.63-4.71a7.24 7.24 0 0 0 -5.59 1.89z"/><path d="m856.53 791.74-24.3 22.94a6.4 6.4 0 0 0 -2 4.65v36.53a6.4 6.4 0 0 0 5.78 6.37l47.83 4.65 26.37-24.88a6.4 6.4 0 0 0 2-4.65v-36.79a6.41 6.41 0 0 0 -5.81-6.37l-44.89-4.19a6.37 6.37 0 0 0 -4.98 1.74z"/><path d="m854 785.37-28.52 26.92a7.51 7.51 0 0 0 -2.35 5.46v42.88a7.49 7.49 0 0 0 6.77 7.46l56.1 5.46 31-29.22a7.51 7.51 0 0 0 2.35-5.46v-43.15a7.51 7.51 0 0 0 -6.81-7.47l-52.69-4.9a7.52 7.52 0 0 0 -5.85 2.02z"/><path d="m786.35 818.25-34.07 32.16a8.93 8.93 0 0 0 -2.81 6.52v51.22a9 9 0 0 0 8.09 8.92l67.06 6.52 37-34.91a9 9 0 0 0 2.81-6.52v-51.54a9 9 0 0 0 -8.14-8.92l-62.94-5.86a9 9 0 0 0 -7 2.41z"/><path d="m782.78 809.32-40 37.74a10.52 10.52 0 0 0 -3.3 7.65v60.11a10.51 10.51 0 0 0 9.5 10.47l78.69 7.65 43.4-41a10.52 10.52 0 0 0 3.3-7.65v-60.45a10.51 10.51 0 0 0 -9.54-10.47l-73.83-6.87a10.51 10.51 0 0 0 -8.22 2.82z"/></g><g fill="none"><g stroke-width="4.59"><path d="m546 377.49c28-21.24 70.41-40.31 127.15-30.42" stroke="#ccdde2" stroke-miterlimit="10"/><g stroke-linejoin="round"><path d="m560.22 394.09c24.92-17.31 58.86-30.6 103.12-27.75" stroke="#fff" stroke-dasharray="0 15.29" stroke-linecap="round"/><path d="m755.8 385.13c27.36 25.27 41.74 60.89 47 97.19a257 257 0 0 1 .09 72.81 36.39 36.39 0 0 0 -.53 4.29 35.66 35.66 0 0 1 5.48-1.95c22.62-5.81 46.68-6.75 68.57 2.19 18.21 7.43 33.71 20.46 45.55 36a138.59 138.59 0 0 1 27.61 72c4 50-19.91 90.32-55.77 118.76l-.41.33" stroke="#ccdde2"/><g stroke="#fff" stroke-linecap="round"><path d="m751.43 409.19c35.46 41.67 37.71 97.7 34.58 151.1-.07 1.17-.51 4.27-.92 7.42" stroke-dasharray="0 15.86"/><path d="m799.53 573.74c26.16-2.6 55.2-3.37 77.45 9.63 22 12.86 38.38 33.65 47.81 57.19 10.71 26.72 12.43 58 .46 84.62-13.43 29.8-35.67 51.13-60.84 71.1-.07.05 3 .73 6.2 1.45" stroke-dasharray="0 15.25"/></g></g></g><path d="m448.55 949.72c-.19.06-.38.17-.57.25"/><g stroke="#000" stroke-miterlimit="10" stroke-width="4.59"><path d="m344.3 880.92a61.21 61.21 0 0 1 -17.41 3.53c-84.43 5.19-163.66-41-219.46-92.71-2.55-2.36-5-4.78-7.36-7.23"/><path d="m425.52 847.75c4.88 7.46 16.33 4.48 16.33 4.48 63.86-13.1 45.23-97.65-8.79-136.89"/></g></g><path d="m499.9 646c-23.15 22.2-43.82 35.67-63.19 43.65l8-55.93c-87.25-52.18-110.47 6-110.47 6-3.34 5.46-4.89 70.24-5.33 92.35-.11 0-2.88 0-3 0-55-2.94-104.71-53.25-104.71-53.25 27.79-69.78 127-156 127-156 68.86-48.29 121.42-32.05 121.42-32.05-16.19 1.17 5.87 46 5.87 46 32.51 28.23 44.51-13.93 44.51-13.93 31.46 75.3-20.1 123.16-20.1 123.16z" fill="#353642"/><path d="m556.79 613.43s-5.71 73.36-55.34 70.93c0 0-18.61-20.13-18.14-35.44s42-110.92 42-110.92 26.92 67.14 31.48 75.43z" fill="#353642"/><path d="m104.63 788.83v.25l4.24 4s-1.76 1.63-4.24 4c-3.23 3-7.68 7.14-11 10.3-5.75 5.46-35.15 34.85-43 8.12 1.55-9.35 7.49-28.58 30.26-51.94 32.38-33.28 27.87-29.15 36-28.6 3.75.24 8.61 2.44 12.77 4.75-10.52 4.38-26.47 16.53-25.03 49.12z" fill="#3fbdf1"/><path d="m138.45 745.24s-31.83 3-33.82 43.59v.25c-.13 2.5-.13 5.13 0 7.93-3.23 3-7.68 7.14-11 10.3-5.75 5.46-35.15 34.85-43 8.12 1.55-9.35 7.49-28.58 30.26-51.94 32.38-33.28 27.87-29.15 36-28.6 3.75.24 8.61 2.44 12.77 4.75a101 101 0 0 1 8.79 5.6z" fill="#3fbdf1"/><g fill="none" stroke="#000" stroke-miterlimit="10" stroke-width="4.59"><path d="m436.5 691.34c36-22.57 93.76-51.47 93.62-116.35 0-15.41-1.59-28-5-39.92l-.33-1.14a55.9 55.9 0 0 0 -4.79-11.09"/><path d="m262.85 803.65c-8.33-7.09-15.85-13.93-20.85-18.65l-.08-.08c-3.94-3.67-6.3-6-6.3-6-3.35-4.57-6.33-9-9-13.26a.56.56 0 0 1 -.11-.22c-19.42-31.4-20.59-56.42-2.5-93.23a7.49 7.49 0 0 1 .36-.78c2-4 4.21-8.18 6.65-12.5 36.21-64 142.45-183.25 234.1-168.17"/><path d="m107.46 791.71c-19 23.58-32.33 31.95-41.34 33.8s-17.31-6.14-16-15.38c4.18-29.2 38.16-64.13 54.88-79.75a15.91 15.91 0 0 1 19.34-1.9l8.37 5.21c24.73 15.42 50.54 30.46 76.49 44.32 23.79 12.72 49.93 29.07 78.09 25.37"/><path d="m448.26 572.72a325.9 325.9 0 0 1 -.89 34.8c-3.17 41.89-11.73 83.21-16.44 124.93-3 26.7-4.84 53.52-5.2 80.39-.3 22.56-.36 39.77.31 62.33.43 14.52 8.64 23.79 21.14 30 10.53 5.22 17.87 4.16 24.43 14.69 13.49 21.7-13 23.24-23.78 20.38-30.24-8-74.73-12.39-92-42.46-13.77-24-15.52-39.69-19-66.51-3.8-29.06-7-58.24-7.68-87.56-1.05-47.21 2.61-123.15 19.53-167.8"/></g><g fill="#3fbdf1"><path d="m826 796.63-.16.16-3.75-.38.14-.13z"/><path d="m766.51 791.52 30.81 3.05-30.81-2.8z"/><path d="m826 796.63-.16.16-3.75-.38-.41.38-1.79-.16.41-.38.13-.14 1.8.17z"/><path d="m826 796.63-.16.16-3.75-.38-1.79-.16.13-.14 1.8.17z"/><path d="m747.33 850.13 45.55 4.45-45.55-4.09z"/><path d="m835.31 857.61-.24.24-5.55-.56-.6.56-2.65-.24.6-.56.2-.2 2.66.24z"/><path d="m835.31 857.61-.24.24-5.55-.56-2.65-.24.2-.2 2.66.24z"/></g><g fill="none" stroke="#000" stroke-width="4.59"><path d="m524.77 533.92s29.42 98.14 63.83 121c32.42 21.53 75.95 12.19 110.14.43 9.44-3.25 18.93-6.42 29-6.27 14.17.2 43.05 3.34 46.8 19.83" stroke-miterlimit="10"/><path d="m486.1 658.45c50.77 102.81 140.79 82.3 187.13 63.72a27.71 27.71 0 0 1 13.26-1.9c4.48.49 8 2.39 12.17 4 7.09 2.8 15.1 4.81 22.79 4.29s17.06-6.38 13.82-15.45c-2.58-7.23-10.62-6.71-16.78-8.1s-7.64-10.37-1.88-13.28a.5.5 0 0 0 .19-.11" stroke-miterlimit="10"/><g stroke-linecap="square" stroke-linejoin="round"><path d="m717.32 876.33-27.08 25.59-51.15-4.76 27.11-25.58z"/><path d="m690.24 901.92v43.24l-51.15-4.97v-43.03z"/><path d="m717.32 876.33v43.27l-27.08 25.56v-43.24z"/><path d="m874.79 814.67-46.34 43.79-87.5-8.15 20.48-19.34v10.91l60.25 5.87 31.89-30.12v-4.95z"/><path d="m828.45 858.45v73.97l-87.5-8.5v-73.6z"/><path d="m874.78 814.68v74.02l-46.33 43.72v-73.97z"/><path d="m853.57 766.67-31.89 30.12-60.25-5.59 31.92-30.13z"/><path d="m821.68 807.85v-11.06l-60.25-5.59v46.5"/><path d="m853.57 766.67v50.96l-31.89 30.12v-50.96z"/><path d="m854.46 784.61 1.37-1.29 63.64 5.92-33.71 31.87-9.45-.89"/><path d="m875.75 820.16 10.01.95v53.81l-10.97-1.06"/><path d="m919.46 789.24v53.86l-33.71 31.82v-53.83z"/><path d="m791.78 670.5-27.08 25.59-51.15-4.76 27.11-25.59z"/><path d="m713.54 728.31v6.06l51.15 4.97v-43.24l-47.89-4.46-3.26-.3v3.75 3.89"/><path d="m791.78 670.5v43.27l-27.08 25.56v-43.24z"/></g><path d="m530.12 485.09c4.65 6.23 12.81 7.47 18.22 3.18" stroke-miterlimit="10"/></g><path d="m604.05 423a25.59 25.59 0 0 1 -25.3 16 13.56 13.56 0 0 0 -1.89-6.21c-4.81-7.84-9.33 4.81-26.75-7.42-24.13-17-35.18-11-35.18-11-1 .52-1.79 6.54-2.06 7.59-1.65 6.1-3.29 12.17-5 18.26-1 3.72-2 7.41-3 11.1a18.42 18.42 0 0 0 -.89-2c-1.1-8.79-3.81-19.37-13.65-16.49a13.25 13.25 0 0 0 -5.31 3.16c-7.29 7.06-3.85 15.47 1.63 22.14a33.3 33.3 0 0 0 4.58 5.56c-1.37 2-6.95 10-6.95 10-.58.8-12.93-18.36-13.77-20.38a43.43 43.43 0 0 1 -.49-14.47c2.77-19.8 14.31-41.57 32-50.46 4.4-2.2 3.54-5.1 4.38-8.88a1 1 0 0 1 1.92-.26c4.2 6.42 16.68 7.76 16.68 7.76 42.85-4.31 56.16 17.13 64.46 21.85a16.88 16.88 0 0 0 11 1.87 6.66 6.66 0 0 0 3.72 5.84l-.52 2a6.74 6.74 0 0 0 .39 4.44z" fill="#3fbdf1"/><path d="m581.71 448.79-.03-.01" fill="none"/><path d="m578.72 439a25.59 25.59 0 0 0 25.28-15.95 33.76 33.76 0 0 0 1.82-5.88l-.32-.09a5.49 5.49 0 0 1 -1.32-.51 6.66 6.66 0 0 1 -3.72-5.84 6.39 6.39 0 0 1 .22-2l2.59-9.58s-8.67 4.6-16.8-.1-19.73-26.08-64.46-21.85c0 0-9.83-.91-14-7.45a1 1 0 0 0 -1.91.27c-.84 3.78-2.68 6.26-7.07 8.46-17.73 8.9-29.28 30.67-32 50.46a46.92 46.92 0 0 0 3.46 24.3c.84 2 13.19 21.18 13.77 20.38 0 0 5.58-8 6.95-10l.33-.44-.43-.39a48.26 48.26 0 0 1 -4.48-4.73c-5.48-6.67-8.92-15.08-1.63-22.14a13.25 13.25 0 0 1 5.31-3.16c9.84-2.88 12.55 7.7 13.65 16.49a23.47 23.47 0 0 1 .09 5.06l.8-3c1-3.69 2-7.38 3-11.1 1.67-6.09 3.31-12.16 5-18.26.27-1.05 1.1-7.07 2.06-7.59 0 0 11.05-5.94 35.18 11 17.42 12.23 21.94-.42 26.75 7.42a13.56 13.56 0 0 1 1.89 6.21 16.53 16.53 0 0 1 -.06 2.11.87.87 0 0 1 0 .28c-.14 1.53-.34 3.06-.54 4.55-2 14.38-5.9 29.13-13.57 41.6-9.3 15.11-29.86 28.29-47.56 17.88-5.51-3.25-10.23-7.87-14.45-12.65" fill="none" stroke="#000" stroke-miterlimit="10" stroke-width="4.59"/><ellipse cx="562.48" cy="468.05" rx="4.38" ry="3.62" transform="matrix(.45663217 -.88965559 .88965559 .45663217 -110.76 754.78)"/><ellipse cx="534.58" cy="462.88" rx="4.38" ry="3.62" transform="matrix(.45663217 -.88965559 .88965559 .45663217 -121.32 727.15)"/><g fill="none" stroke-width="4.59"><g stroke="#000" stroke-miterlimit="10"><path d="m542.56 473.31s8.53 6.72 9.93 1.31c.44-1.67 5.25-17.91 5.25-17.91s8.76-6.84 19.42.82"/><path d="m548.19 450.49s-13.92-9.82-25.52-.48"/><path d="m480.65 469.07-7.22 23.28-8.25-1.55c-5.19 8.66 1.5 36.65 10.35 46 25.25 26.76 40.78-4.13 40.78-4.13l3.69-9.86 5.35-14.26"/></g><g stroke="#ccdde2" stroke-linejoin="round"><path d="m699.35 397.74a18.08 18.08 0 0 1 6 13.4v2.86a14.5 14.5 0 0 0 15.95 14.37c7.47-.76 12.93-7.55 12.93-15.1v-2.14a18 18 0 0 1 5.87-13.34"/><path d="m699.35 397.74a18.08 18.08 0 0 1 6 13.4v2.86a14.5 14.5 0 0 0 15.95 14.37c7.47-.76 12.93-7.55 12.93-15.1v-2.14a18 18 0 0 1 5.87-13.34"/><path d="m699.35 397.74a19.16 19.16 0 0 0 -3.1-2.2 47.24 47.24 0 1 1 58.92-9.69 2 2 0 0 0 -.27.32 48.45 48.45 0 0 1 -11.79 9.45 15.31 15.31 0 0 0 -3 2.18"/><path d="m714.73 394.66c-3.05-5.54-8.19-12.88-11.81-18.11a80.27 80.27 0 0 1 -9.57-17.93 4.12 4.12 0 0 1 -.36-2.2 1.46 1.46 0 0 1 1.58-1.26c.67.13 1 .83 1.35 1.44a21.82 21.82 0 0 0 6 7.34c1.41 1.09 3.41 2 4.88 1a4.19 4.19 0 0 0 1.43-3.13 17.48 17.48 0 0 0 -3.1-11.9c-1-1.36-2.74-2.68-4.15-1.79s-1 3.09-.16 4.57a23 23 0 0 0 14.28 11.23 7.44 7.44 0 0 0 4.57.05 5.59 5.59 0 0 0 3.19-4.13 11 11 0 0 0 -.45-5.37c-.82-2.69-2.41-5.44-5.08-6.34a3.59 3.59 0 0 0 -2.6 0 3.36 3.36 0 0 0 -1.77 3.09 7.42 7.42 0 0 0 1.12 3.55 19.27 19.27 0 0 0 15.09 9.62 8.26 8.26 0 0 0 5.9-1.41 7.35 7.35 0 0 0 2.35-5.18 12.31 12.31 0 0 0 -2.33-8.21c-.35-.47-.88-1-1.45-.81s-.73.83-.8 1.4a17 17 0 0 0 3.64 12.62c1.56 1.91 3.93 3.57 6.33 3a5.24 5.24 0 0 0 3.61-4 10.1 10.1 0 0 0 -.54-5.56 7 7 0 0 0 -3.25 4.86c-.44 2-.41 4-.75 6-1.88 11.22-14.24 16.23-16.64 27"/><path d="m719.73 290.42-.47-28.42"/><path d="m665.52 316.86-19.67-20.51"/><path d="m774.13 318.14 20.11-20.09"/></g></g><circle cx="784.87" cy="576.34" fill="#3fbdf1" r="10.3"/></svg>