<svg viewBox="0 0 1000 1000" xmlns="http://www.w3.org/2000/svg"><g fill="none" stroke="#ccdde2" stroke-miterlimit="10" stroke-width="4.01"><path d="m590.45 444.97 65.61-79.11 65.61 79.11v306.35"/><g opacity=".81"><path d="m679.78 458.19h17.63v17.63h-17.63z"/><path d="m646.44 458.19h17.63v17.63h-17.63z"/><path d="m613.11 458.19h17.63v17.63h-17.63z"/></g><g opacity=".46"><path d="m679.78 499.14h17.63v17.63h-17.63z"/><path d="m646.44 499.14h17.63v17.63h-17.63z"/><path d="m613.11 499.14h17.63v17.63h-17.63z"/></g><g opacity=".25"><path d="m679.78 541.82h17.63v17.63h-17.63z"/><path d="m646.44 541.82h17.63v17.63h-17.63z"/><path d="m613.11 541.82h17.63v17.63h-17.63z"/></g><g opacity=".25"><path d="m679.78 578.49h17.63v17.63h-17.63z"/><path d="m646.44 578.49h17.63v17.63h-17.63z"/><path d="m613.11 578.49h17.63v17.63h-17.63z"/></g><path d="m746.08 703.3v-371.68h170.27v420.41"/></g><g fill="#d7e8f0"><path d="m763 365.86v21.75h21.75v-39.92h-21.75zm3.57-14.6h14.6v14.6h-14.6zm0 18.18h14.6v14.56h-14.6z"/><path d="m801.36 365.86v21.75h21.74v-39.92h-21.74zm3.57-14.6h14.6v14.6h-14.6zm0 18.18h14.6v14.56h-14.6z"/><path d="m838.66 365.86v21.75h21.74v-39.92h-21.74zm3.57-14.6h14.6v14.6h-14.6zm0 18.18h14.6v14.56h-14.6z"/><path d="m873.77 347.69v39.92h21.74v-39.92zm18.17 36.31h-14.6v-14.56h14.6zm0-18.17h-14.6v-14.6h14.6z"/><path d="m763 419.56v21.75h21.75v-39.92h-21.75zm3.57-14.6h14.6v14.6h-14.6zm0 18.17h14.6v14.61h-14.6z"/><path d="m801.36 419.56v21.75h21.74v-39.92h-21.74zm3.57-14.6h14.6v14.6h-14.6zm0 18.17h14.6v14.61h-14.6z"/><path d="m838.66 419.56v21.75h21.74v-39.92h-21.74zm3.57-14.6h14.6v14.6h-14.6zm0 18.17h14.6v14.61h-14.6z"/><path d="m873.77 419.56v21.75h21.74v-39.92h-21.74zm3.57-14.6h14.6v14.6h-14.6zm0 18.17h14.6v14.61h-14.6z"/><path d="m763 473.26v21.74h21.75v-39.91h-21.75zm3.57-14.6h14.6v14.6h-14.6zm0 18.18h14.6v14.6h-14.6z"/><path d="m801.36 473.26v21.74h21.74v-39.91h-21.74zm3.57-14.6h14.6v14.6h-14.6zm0 18.18h14.6v14.6h-14.6z"/><path d="m838.66 473.26v21.74h21.74v-39.91h-21.74zm3.57-14.6h14.6v14.6h-14.6zm0 18.18h14.6v14.6h-14.6z"/><path d="m873.77 473.26v21.74h21.74v-39.91h-21.74zm3.57-14.6h14.6v14.6h-14.6zm0 18.18h14.6v14.6h-14.6z"/><path d="m763 527v21.74h21.75v-39.95h-21.75zm3.57-14.6h14.6v14.6h-14.6zm0 18.17h14.6v14.6h-14.6z"/><path d="m801.36 527v21.74h21.74v-39.95h-21.74zm3.57-14.6h14.6v14.6h-14.6zm0 18.17h14.6v14.6h-14.6z"/><path d="m838.66 527v21.74h21.74v-39.95h-21.74zm3.57-14.6h14.6v14.6h-14.6zm0 18.17h14.6v14.6h-14.6z"/><path d="m873.77 527v21.74h21.74v-39.95h-21.74zm3.57-14.6h14.6v14.6h-14.6zm0 18.17h14.6v14.6h-14.6z"/><path d="m763 580.66v21.75h21.75v-39.92h-21.75zm3.57-14.59h14.6v14.59h-14.6zm0 18.17h14.6v14.6h-14.6z"/><path d="m801.36 580.66v21.75h21.74v-39.92h-21.74zm3.57-14.59h14.6v14.59h-14.6zm0 18.17h14.6v14.6h-14.6z"/><path d="m838.66 580.66v21.75h21.74v-39.92h-21.74zm3.57-14.59h14.6v14.59h-14.6zm0 18.17h14.6v14.6h-14.6z"/><path d="m873.77 580.66v21.75h21.74v-39.92h-21.74zm3.57-14.59h14.6v14.59h-14.6zm0 18.17h14.6v14.6h-14.6z"/></g><g fill="none" stroke="#ccdde2" stroke-miterlimit="10" stroke-width="4.01"><path d="m356.35 752.14v-168.29a100.62 100.62 0 0 0 -23.18-64.24 28.15 28.15 0 0 0 -43.33 0 100.62 100.62 0 0 0 -23.18 64.24v168.6"/><g opacity=".81"><path d="m283.24 556.57h12.05v12.05h-12.05z" transform="matrix(-1 0 0 -1 578.54 1125.19)"/><path d="m306.03 556.57h12.05v12.05h-12.05z" transform="matrix(-1 0 0 -1 624.1 1125.19)"/><path d="m328.81 556.57h12.05v12.05h-12.05z" transform="matrix(-1 0 0 -1 669.66 1125.19)"/></g><g opacity=".46"><path d="m283.24 584.56h12.05v12.05h-12.05z" transform="matrix(-1 0 0 -1 578.54 1181.17)"/><path d="m306.03 584.56h12.05v12.05h-12.05z" transform="matrix(-1 0 0 -1 624.1 1181.17)"/><path d="m328.81 584.56h12.05v12.05h-12.05z" transform="matrix(-1 0 0 -1 669.66 1181.17)"/></g><g opacity=".25"><path d="m283.24 613.73h12.05v12.05h-12.05z" transform="matrix(-1 0 0 -1 578.54 1239.51)"/><path d="m306.03 613.73h12.05v12.05h-12.05z" transform="matrix(-1 0 0 -1 624.1 1239.51)"/><path d="m328.81 613.73h12.05v12.05h-12.05z" transform="matrix(-1 0 0 -1 669.66 1239.51)"/></g><g opacity=".25"><path d="m283.24 638.79h12.05v12.05h-12.05z" transform="matrix(-1 0 0 -1 578.54 1289.63)"/><path d="m306.03 638.79h12.05v12.05h-12.05z" transform="matrix(-1 0 0 -1 624.1 1289.63)"/><path d="m328.81 638.79h12.05v12.05h-12.05z" transform="matrix(-1 0 0 -1 669.66 1289.63)"/></g><path d="m133.61 752.91v-282.84h116.38v282.44"/></g><g fill="#d7e8f0"><path d="m238.42 493.47v14.86h-14.86v-27.28h14.86zm-2.45-10h-9.97v10h10zm0 12.42h-9.97v10h10z"/><path d="m212.2 493.47v14.86h-14.86v-27.28h14.86zm-2.44-10h-10v10h10zm0 12.42h-10v10h10z"/><path d="m186.71 493.47v14.86h-14.86v-27.28h14.86zm-2.44-10h-10v10h10zm0 12.42h-10v10h10z"/><path d="m162.71 481.05v27.28h-14.86v-27.28zm-12.42 24.84h10v-10h-10zm0-12.42h10v-10h-10z"/><path d="m238.42 530.17v14.83h-14.86v-27.24h14.86zm-2.45-10h-9.97v10h10zm0 12.42h-9.97v10h10z"/><path d="m212.2 530.17v14.83h-14.86v-27.24h14.86zm-2.44-10h-10v10h10zm0 12.42h-10v10h10z"/><path d="m186.71 530.17v14.83h-14.86v-27.24h14.86zm-2.44-10h-10v10h10zm0 12.42h-10v10h10z"/><path d="m162.71 530.17v14.83h-14.86v-27.24h14.86zm-2.44-10h-10v10h10zm0 12.42h-10v10h10z"/><path d="m238.42 566.88v14.86h-14.86v-27.28h14.86zm-2.45-10h-9.97v10h10zm0 12.42h-9.97v10h10z"/><path d="m212.2 566.88v14.86h-14.86v-27.28h14.86zm-2.44-10h-10v10h10zm0 12.42h-10v10h10z"/><path d="m186.71 566.88v14.86h-14.86v-27.28h14.86zm-2.44-10h-10v10h10zm0 12.42h-10v10h10z"/><path d="m162.71 566.88v14.86h-14.86v-27.28h14.86zm-2.44-10h-10v10h10zm0 12.42h-10v10h10z"/><path d="m238.42 603.58v14.86h-14.86v-27.28h14.86zm-2.45-10h-9.97v10h10zm.03 12.42h-10v10h10z"/><path d="m212.2 603.58v14.86h-14.86v-27.28h14.86zm-2.44-10h-10v10h10zm0 12.42h-10v10h10z"/><path d="m186.71 603.58v14.86h-14.86v-27.28h14.86zm-2.44-10h-10v10h10zm0 12.42h-10v10h10z"/><path d="m162.71 603.58v14.86h-14.86v-27.28h14.86zm-2.44-10h-10v10h10zm0 12.42h-10v10h10z"/><path d="m238.42 640.28v14.86h-14.86v-27.28h14.86zm-2.45-10h-9.97v10h10zm0 12.42h-9.97v10h10z"/><path d="m212.2 640.28v14.86h-14.86v-27.28h14.86zm-2.44-10h-10v10h10zm0 12.42h-10v10h10z"/><path d="m186.71 640.28v14.86h-14.86v-27.28h14.86zm-2.44-10h-10v10h10zm0 12.42h-10v10h10z"/><path d="m162.71 640.28v14.86h-14.86v-27.28h14.86zm-2.44-10h-10v10h10zm0 12.42h-10v10h10z"/></g><path d="m436.06 444.05s-2.83 38.5-45.48 34.94c0 0 14.94 38.31 25.66 45.09l53.86 34.09 12.9-60.31z" fill="#2e2e2e"/><path d="m390.4 589-112.86 163.43-124.46.43v-2.28a21 21 0 0 1 19.58-20.94l34.34-2.29 100.14-180.78a72.23 72.23 0 0 1 103-26.38l.86.56 57.64 36.44-40.9 98.56-51.93-45.56" fill="#fff"/><path d="m772.09 684.19c-10.39 28.92-29.4 33.61-51.63 32.12-11.63-15.24-25.41-36-36.55-51.51q-19.42-27.15-38.9-54.22c-3.31-4.64-6.62-9.25-10-13.89v69.53a77.57 77.57 0 0 1 -.71 10.73c-63.34 54.13-153.81-13.79-166.15-23.6-.93-.71-1.39-1.11-1.39-1.11-5.91-42.83.47-75.22 1.83-99.71 1.86-32.72 7.92-43.12 13.3-53.18l2.23-5.64c4.18-7.79 4-9.73 4.56-10.1 0 0-.17-1.43-.17-1.43s2.17-2.44 2.17-2.5c12.22-20.17 21.63-37 41.86-49.13-7 5.16-11.84 17.66-4.42 24.49 8.63 7.95 20.38-1.45 27.46-7a110.2 110.2 0 0 0 23.54-24.27c2.07-3 4.67-6.19 4.27-10 14.66-.21 27.06 5 42.18 13.74 19.12 11.07 34.36 27.77 44.76 47.29z" fill="#2e2e2e"/><g fill="#3fbdf1"><path d="m589.4 374.26v.28a22 22 0 0 1 -22 22 21.43 21.43 0 0 1 -10.67-2.79 17.64 17.64 0 0 1 -2.66-1.7 2.74 2.74 0 0 1 .34-4.48c4.51-2.72 8.75-6.68 10.27-11.6a11.83 11.83 0 0 0 .46-4.67 11.47 11.47 0 0 0 -6.37-9.53 7.36 7.36 0 0 0 -1.76-.43c-1.7-.28-4-.25-4.52 1a29.73 29.73 0 0 0 1.83-19 26.66 26.66 0 0 0 -5.32-10.77 7.69 7.69 0 0 1 -8.88 7.85c-8.69-1-9.65-9.46-9.65-9.46s-.06.09-.06.15c-4.58 9.16-15.68 8.51-23.26 3.65a22.2 22.2 0 0 1 -6.74-6.52c-1.46-9.9 7.33-18.62 16.67-19.21.71-6.15 5.75-12.4 11.87-12.4a11.89 11.89 0 0 1 10.43 6.12 8.3 8.3 0 0 1 .43.9c2.78-3.4 7.18-7 11.54-7a14.71 14.71 0 0 1 13.88 9.9c0-.44 4-1.86 4.39-2a17.15 17.15 0 0 1 5-.68 17.62 17.62 0 0 1 14.6 8.47 14.69 14.69 0 0 1 .22 2.66 16.92 16.92 0 0 1 -1.83 7.67 11.5 11.5 0 0 1 3.72 2.26 11.79 11.79 0 0 1 4 8v.93a11.65 11.65 0 0 1 -2 6.55 17.72 17.72 0 0 1 4.05 2.17 17.43 17.43 0 0 1 7 11.26 17.82 17.82 0 0 1 .25 3 17.58 17.58 0 0 1 -15.23 17.42z"/><path d="m589.4 374.26v.28a22 22 0 0 1 -22 22 21.43 21.43 0 0 1 -10.67-2.79c4.51-2.72 8.75-6.68 10.27-11.59a12.47 12.47 0 0 0 -1.86-10.86 11.47 11.47 0 0 0 -6.37-9.53 7.36 7.36 0 0 0 -1.76-.43 28.63 28.63 0 0 0 -2.69-18 26.66 26.66 0 0 0 -5.32-10.77 7.69 7.69 0 0 1 -8.88 7.85c-8.69-1-9.65-9.46-9.65-9.46s-.06.09-.06.15c-4.58 9.16-15.68 8.51-23.26 3.65a22.2 22.2 0 0 1 -6.74-6.52c-1.46-9.9 7.33-18.62 16.67-19.21.71-6.15 5.75-12.4 11.87-12.4a11.89 11.89 0 0 1 10.43 6.12 8.3 8.3 0 0 1 .43.9c2.78-3.4 7.18-7 11.54-7a14.71 14.71 0 0 1 13.88 9.9c0-.44 4-1.86 4.39-2a17.15 17.15 0 0 1 5-.68 17.62 17.62 0 0 1 14.6 8.47 14.69 14.69 0 0 1 .22 2.66 16.92 16.92 0 0 1 -1.83 7.67 11.5 11.5 0 0 1 3.72 2.26 16.16 16.16 0 0 1 -1.4 3.93 12.27 12.27 0 0 1 5.42 4.05v.93a11.65 11.65 0 0 1 -2 6.55 17.72 17.72 0 0 1 4.05 2.17 12.44 12.44 0 0 1 -1.73 4 17.3 17.3 0 0 1 8.78 7.24 17.82 17.82 0 0 1 .25 3 17.58 17.58 0 0 1 -15.3 17.46z"/><path d="m532.6 957.14h-142.2v-2.75a21 21 0 0 1 20.22-21l33.56-1.39h79.24z"/><path d="m277.54 752.43-124.46-.31v-2.75a21 21 0 0 1 20.23-21l33.56-1.37 87.29 1.39z"/></g><g fill="none" stroke="#000" stroke-miterlimit="10" stroke-width="4.01"><path d="m483.52 751.72h66a85.76 85.76 0 0 0 84.81-74.72 77.81 77.81 0 0 0 .71-10.74v-69.55"/><path d="m507.49 652-38.69 1.33h-.65l-24.43.49a82.7 82.7 0 0 0 -16 1.89c-43.61 9.43-71.48 53.13-62.17 96.37a81.39 81.39 0 0 0 6.4 18.62l72.23 161.3-33.56 1.36a21 21 0 0 0 -20.22 21v2.75h142.2l-9.18-25.11-66.08-180.53"/><path d="m390.4 589.04-112.86 163.39"/><path d="m427.7 655.75-51.93-45.56"/><path d="m537.03 751.66-.34-.31"/><path d="m410.96 520.75-33.71-69.06"/><path d="m820.7 751.47c0 .06.06.09.09.16h-28.54"/><path d="m491.19 751.78c0-.15-.09-.31-.12-.43"/><path d="m583.4 414.68a69 69 0 0 1 30.74 6.32 120.55 120.55 0 0 1 53.51 49c13.64 23.79 24.68 49.46 36.8 74q22.78 46.26 45.62 92.48 11 22.31 22 44.63l15.56 31.51a35.7 35.7 0 0 0 13.08 12.62 36.17 36.17 0 0 0 17.57 4.58 32.32 32.32 0 0 1 29.32 18.71l1.36 2.94h-37.53"/><path d="m468.81 653.35c-4.41-28.28-3.48-56.75-1.25-85.19 4-50.83 19.46-101.76 60.91-134.64 1.07-.85 2.15-1.69 3.27-2.47"/><path d="m571.39 482.18c-.78 29.94 24.77 60.28 24.77 60.28s.06.06.06.09q19.44 27 38.82 54.16c3.34 4.64 6.65 9.25 10 13.88q19.49 27.1 38.9 54.22c11.06 15.56 21.49 31.89 33.12 47.19 3 3.92 6.06 7.76 9.28 11.5 4.11 4.8 8.35 10.27 13.36 14.14s10.82 7.48 16 11.56a52 52 0 0 1 11 12.81c3.22 5.5 3.56 11.72 6.31 17.22 4.82 9.72 16.73 8.11 20.81-1.17 5.66-12.87-6.71-40.7-6.71-40.7"/><path d="m950 751.63h-157.75"/><path d="m468.6 557.19-57.6-36.44-.86-.56a72.23 72.23 0 0 0 -103 26.38l-100.14 180.78-34.36 2.29a21 21 0 0 0 -19.58 20.94v2.28"/><path d="m362.93 397.44c4.76.93 6.56.62 10 1.3a1.23 1.23 0 0 0 1-2.14l-11.38-11a18.56 18.56 0 0 1 -6.12-10.27l-.1-.4a7.92 7.92 0 0 1 5.85-5.53 12.64 12.64 0 0 1 7.14.92c3.71 1.46 8.69 2.76 13.43 4.39a29 29 0 0 1 15.52 12.93l.44.78a487.84 487.84 0 0 0 46.6 67.23l37 45.47"/></g><path d="m368.84 456.35a9.92 9.92 0 0 1 -9.48-7l-9.52-29.35-8.4-27.73-10.95-35.7a9.09 9.09 0 0 1 9-11.75 9.08 9.08 0 0 1 8.37 6.27l15.09 46.35 15.35 45.91a9.93 9.93 0 0 1 -9.46 13z" fill="#3fbdf1"/><g fill="none" stroke="#000" stroke-miterlimit="10" stroke-width="4.01"><path d="m368.84 456.35a9.92 9.92 0 0 1 -9.48-7l-9.52-29.35-8.4-27.73-10.95-35.7a9.09 9.09 0 0 1 9-11.75 9.08 9.08 0 0 1 8.37 6.27l15.09 46.35 15.35 45.91a9.93 9.93 0 0 1 -9.46 13z"/><path d="m329.93 411.42s0 0 0 0a12.71 12.71 0 0 1 -6.65-2.2 10 10 0 0 1 -1.89-14.22 11.77 11.77 0 0 1 5.76-3.86 13.71 13.71 0 0 1 8.9.12 14.39 14.39 0 0 1 7.08 6.63"/><path d="m335.84 430.5a12.75 12.75 0 0 1 -6.74-2 10 10 0 0 1 -2.24-14.17 11.78 11.78 0 0 1 5.68-4 13.65 13.65 0 0 1 8.88-.1c2.87 1 5.7 2.78 7.09 5.43"/><path d="m354 432.9a12.58 12.58 0 0 0 -15.2-3.9 10.83 10.83 0 0 0 -4.83 4.09 9.1 9.1 0 0 0 3.12 12.66l1.36.73s8.16 3.28 21.77 4.85"/><path d="m444.84 751.81h46.35c15.22-.06 30.53-.09 45.84-.12 75.8-.19 151.88-.31 221-.34"/><path d="m792.15 751.32h56.76c34 .06 64.64.15 90.62.28"/><path d="m50 753.27c1.82 0 141.62-.62 315.53-1.15"/><path d="m583.4 413.78c.4 3.84-2.2 7.06-4.27 10a110.2 110.2 0 0 1 -23.54 24.27c-7.08 5.51-18.83 14.91-27.46 7-7.42-6.83-2.63-19.33 4.42-24.49l.09-.06"/><path d="m514.11 348.1s12.54 1.21 14.54 12"/><path d="m508.27 379.56a23 23 0 0 1 -8.77-.29 3.44 3.44 0 0 1 -2-5.31c3-4.21 6-8.37 9.31-12.33a3.55 3.55 0 0 0 1-1.84s-.13-13.19 3.34-23"/></g><ellipse cx="516.62" cy="359.11" rx="3.87" ry="3.29" transform="matrix(.20569181 -.97861682 .97861682 .20569181 58.93 790.83)"/><g fill="none" stroke="#000" stroke-width="4.01"><path d="m583.4 414.68c-4.61-13.37-6.73-20.2-6.73-20.2" stroke-linecap="round" stroke-linejoin="round"/><path d="m532.65 410.21-.07 46.14" stroke-miterlimit="10"/><g stroke-linecap="round"><path d="m503.67 379.85s3.22 26.54 16.1 31.57 25.67-10.49 25.67-10.49" stroke-linejoin="round"/><path d="m506.31 391.92a12.25 12.25 0 0 0 11.59 1.33" stroke-linejoin="round"/><path d="m538.61 302.38a11.65 11.65 0 0 0 -1.54-5.81 12 12 0 0 0 -22.39 5.81" stroke-miterlimit="10"/><path d="m532 320a17.72 17.72 0 0 0 -7.8-14.61c-12-8.08-29.29 4.26-25.86 18.17 1.2 4.85 4.69 8.58 8.8 11.21 7.57 4.86 18.68 5.53 23.24-3.64l.07-.15s1 8.44 9.65 9.46a7.72 7.72 0 0 0 8.89-7.85c6.87 8.33 7.89 20 3.51 29.75.79-1.76 5.11-1.07 6.28-.55 5.22 2.31 7.56 8.88 5.92 14.18-1.53 4.94-5.77 8.87-10.26 11.62a2.73 2.73 0 0 0 -.35 4.47 22 22 0 0 0 35.31-17.5v-.28a17.55 17.55 0 0 0 4-33.84 11.65 11.65 0 0 0 2-6.55 12 12 0 0 0 -12-12" stroke-linejoin="round"/></g><path d="m538.61 296.21c2.69-3.71 5.51-5.77 10.43-5.77a14.68 14.68 0 0 1 13.88 9.93c-.13-.4 4-1.88 4.41-2a17.31 17.31 0 0 1 5-.68 17.62 17.62 0 0 1 17.13 17.31 17.05 17.05 0 0 1 -1.83 7.67" stroke-linecap="square" stroke-linejoin="round"/></g><path d="m589.4 374.26v.28a22 22 0 0 1 -22 22 21.43 21.43 0 0 1 -10.67-2.79 17.64 17.64 0 0 1 -2.66-1.7 2.74 2.74 0 0 1 .34-4.48c4.51-2.72 8.75-6.68 10.27-11.6a11.83 11.83 0 0 0 .46-4.67 11.47 11.47 0 0 0 -6.37-9.53 7.36 7.36 0 0 0 -1.76-.43c-1.7-.28-4-.25-4.52 1a29.73 29.73 0 0 0 1.83-19 26.66 26.66 0 0 0 -5.32-10.77 7.69 7.69 0 0 1 -8.88 7.85c-8.69-1-9.65-9.46-9.65-9.46s-.06.09-.06.15c-4.58 9.16-15.68 8.51-23.26 3.65a22.2 22.2 0 0 1 -6.74-6.52c-1.46-9.9 7.33-18.62 16.67-19.21.71-6.15 5.75-12.4 11.87-12.4a11.89 11.89 0 0 1 10.43 6.12 8.3 8.3 0 0 1 .43.9c2.78-3.4 7.18-7 11.54-7a14.71 14.71 0 0 1 13.88 9.9c0-.44 4-1.86 4.39-2a17.15 17.15 0 0 1 5-.68 17.62 17.62 0 0 1 14.6 8.47 14.69 14.69 0 0 1 .22 2.66 16.92 16.92 0 0 1 -1.83 7.67 11.5 11.5 0 0 1 3.72 2.26 11.79 11.79 0 0 1 4 8v.93a11.65 11.65 0 0 1 -2 6.55 17.72 17.72 0 0 1 4.05 2.17 17.43 17.43 0 0 1 7 11.26 17.82 17.82 0 0 1 .25 3 17.58 17.58 0 0 1 -15.23 17.42z" fill="#3fbdf1"/><path d="m589.4 374.26v.28a22 22 0 0 1 -22 22 21.43 21.43 0 0 1 -10.67-2.79c4.51-2.72 8.75-6.68 10.27-11.59a12.47 12.47 0 0 0 -1.86-10.86 11.47 11.47 0 0 0 -6.37-9.53 7.36 7.36 0 0 0 -1.76-.43 28.63 28.63 0 0 0 -2.69-18 26.66 26.66 0 0 0 -5.32-10.77 7.69 7.69 0 0 1 -8.88 7.85c-8.69-1-9.65-9.46-9.65-9.46s-.06.09-.06.15c-4.58 9.16-15.68 8.51-23.26 3.65a22.2 22.2 0 0 1 -6.74-6.52c-1.46-9.9 7.33-18.62 16.67-19.21.71-6.15 5.75-12.4 11.87-12.4a11.89 11.89 0 0 1 10.43 6.12 8.3 8.3 0 0 1 .43.9c2.78-3.4 7.18-7 11.54-7a14.71 14.71 0 0 1 13.88 9.9c0-.44 4-1.86 4.39-2a17.15 17.15 0 0 1 5-.68 17.62 17.62 0 0 1 14.6 8.47 14.69 14.69 0 0 1 .22 2.66 16.92 16.92 0 0 1 -1.83 7.67 11.5 11.5 0 0 1 3.72 2.26 16.16 16.16 0 0 1 -1.4 3.93 12.27 12.27 0 0 1 5.42 4.05v.93a11.65 11.65 0 0 1 -2 6.55 17.72 17.72 0 0 1 4.05 2.17 12.44 12.44 0 0 1 -1.73 4 17.3 17.3 0 0 1 8.78 7.24 17.82 17.82 0 0 1 .25 3 17.58 17.58 0 0 1 -15.3 17.46z" fill="#3fbdf1"/><path d="m514.11 348.1s12.54 1.21 14.54 12" fill="none" stroke="#000" stroke-miterlimit="10" stroke-width="4.01"/><path d="m508.27 379.56a23 23 0 0 1 -8.77-.29 3.44 3.44 0 0 1 -2-5.31c3-4.21 6-8.37 9.31-12.33a3.55 3.55 0 0 0 1-1.84s-.13-13.19 3.34-23" fill="none" stroke="#000" stroke-miterlimit="10" stroke-width="4.01"/><ellipse cx="516.62" cy="359.11" rx="3.87" ry="3.29" transform="matrix(.20569181 -.97861682 .97861682 .20569181 58.93 790.83)"/><g fill="none" stroke="#000" stroke-width="4.01"><path d="m583.4 414.68c-4.61-13.37-6.73-20.2-6.73-20.2" stroke-linecap="round" stroke-linejoin="round"/><path d="m532.65 410.21-.07 46.14" stroke-miterlimit="10"/><g stroke-linecap="round"><path d="m503.67 379.85s3.22 26.54 16.1 31.57 25.67-10.49 25.67-10.49" stroke-linejoin="round"/><path d="m506.31 391.92a12.25 12.25 0 0 0 11.59 1.33" stroke-linejoin="round"/><path d="m538.61 302.38a11.65 11.65 0 0 0 -1.54-5.81 12 12 0 0 0 -22.39 5.81" stroke-miterlimit="10"/><path d="m532 320a17.72 17.72 0 0 0 -7.8-14.61c-12-8.08-29.29 4.26-25.86 18.17 1.2 4.85 4.69 8.58 8.8 11.21 7.57 4.86 18.68 5.53 23.24-3.64l.07-.15s1 8.44 9.65 9.46a7.72 7.72 0 0 0 8.89-7.85c6.87 8.33 7.89 20 3.51 29.75.79-1.76 5.11-1.07 6.28-.55 5.22 2.31 7.56 8.88 5.92 14.18-1.53 4.94-5.77 8.87-10.26 11.62a2.73 2.73 0 0 0 -.35 4.47 22 22 0 0 0 35.31-17.5v-.28a17.55 17.55 0 0 0 4-33.84 11.65 11.65 0 0 0 2-6.55 12 12 0 0 0 -12-12" stroke-linejoin="round"/></g><path d="m538.61 296.21c2.69-3.71 5.51-5.77 10.43-5.77a14.68 14.68 0 0 1 13.88 9.93c-.13-.4 4-1.88 4.41-2a17.31 17.31 0 0 1 5-.68 17.62 17.62 0 0 1 17.13 17.31 17.05 17.05 0 0 1 -1.83 7.67" stroke-linecap="square" stroke-linejoin="round"/></g></svg>