<svg viewBox="0 0 1000 1000" xmlns="http://www.w3.org/2000/svg"><g fill="none" stroke-width="4.72"><g stroke="#ccdde2" stroke-miterlimit="10"><path d="m684.31 219.58c19-10.57 48.61 11 61.7 23.11 15.3 14.08 27.64 32 37.13 50.45 43.09 83.76 65.74 183.41 30.33 274.17a222.4 222.4 0 0 1 -54.47 81.07c-13.46 12.67-41.16 24.62-45.2 44a29.49 29.49 0 0 0 1 14.41c5.35 17.76 21.5 30.07 33.84 43 59.25 62.21 16.41 158.65-46.94 200.21"/><path d="m219.67 546.18c18.5-19.65 42.14-32.93 65.91-45.15 25.74-13.23 51.07-26.55 74.47-43.73a368.93 368.93 0 0 0 40.33-34.25"/><path d="m189.64 795.07c-23.64-61.07-29.64-131.07-4.98-192.07"/></g><path d="m499.41 163.76v-65.46a17 17 0 0 0 -17-17h-216.77a17 17 0 0 0 -17 17v307.82a17 17 0 0 0 17 16.93h216.8a15.91 15.91 0 0 0 6.14-1.18" stroke="#000" stroke-linecap="round" stroke-linejoin="round"/></g><rect fill="#3fbdf1" height="321.01" rx="16.27" width="235.51" x="256.29" y="91.7"/><rect fill="#3fbdf1" height="60.1" rx="8.14" width="210.36" x="270.15" y="116.54"/><g fill="#d7e8f0"><circle cx="374.04" cy="135.64" r="6.22"/><path d="m356.67 163.76a17.37 17.37 0 0 1 34.74 0z"/><path d="m375.31 241.05a33.5 33.5 0 1 0 33.48 33.48 33.49 33.49 0 0 0 -33.48-33.48zm0 58.88a4.89 4.89 0 0 1 0-9.78 4.89 4.89 0 0 1 0 9.78zm6.2-37.65c-1.05 7.26-1.94 14.91-4.07 22-.52 1.68-3.71 1.68-4.23 0a124.77 124.77 0 0 1 -3.52-16.18c-.65-4-3-10.4-.75-14.28 1.94-3.44 7.45-3.87 10.63-2.07 3.94 2.25 2.43 6.92 1.94 10.53z"/></g><circle cx="375.31" cy="295.04" fill="#fff" r="4.89"/><path d="m381.51 262.28c-1.05 7.26-1.94 14.91-4.07 22-.52 1.68-3.71 1.68-4.23 0a124.77 124.77 0 0 1 -3.52-16.18c-.65-4-3-10.4-.75-14.28 1.94-3.44 7.45-3.87 10.63-2.07 3.94 2.25 2.43 6.92 1.94 10.53z" fill="#fff"/><g fill="none" stroke="#fff" stroke-miterlimit="10" stroke-width="4.72"><path d="m291.19 203.48h163.56"/><path d="m291.19 219.57h163.56"/><path d="m291.19 323.25h163.56"/></g><path d="m494.57 364.74c.62.48 1.7-201.7 1.7-201.7l-61.53-23.78s-45.74 112.11-42.97 113.24l12.35 5s3.05-2.41 10.12 15 58.03 75.09 80.33 92.24z" fill="#fff"/><path d="m329.18 338.48h87.58" fill="none" stroke="#fff" stroke-miterlimit="10" stroke-width="4.72"/><path d="m740.78 455.71c-.8 8.72-11.56 108.74-1.13 128.27 3.78 7.07-33.74.3-36-.22-34-8-65.84-22.75-95.64-40.69s-56.13-41.55-87.2-57.46c-5.74-2.94-18.45-9.38-14.69-17.81 6.4-14.36 14.26-34.18 14.88-51.71l-.19-23s-4.54-14.44 10.27-1.79 82.58 46 126.45 7.36 46.47-69.2 46.47-69.2-28.09-68.74-108.06-26.69l28.25-73s-3.87-4.91 8.37-4 34.94-5.14 37.75-27.57c0 0 .22-7.32 13.17 6.52s74.15 67.89 57.3 250.99z" fill="#2e2e2e"/><g fill="none" stroke="#000" stroke-miterlimit="10" stroke-width="4.72"><path d="m583.56 196.77a73.36 73.36 0 0 1 22.71-11.23"/><path d="m553.16 538.07-55 198.84-50 180.82-31.84 3a29.42 29.42 0 0 0 -26.72 29.27h98.47l71.32-122.92 53.05-91.45 82.94-143c2.4-4.17 4.73-8.34 7-12.6a.29.29 0 0 0 .06-.17"/><path d="m738.74 471c.75-4.86 1.41-9.72 2-14.61 0-.23 0-.43.06-.66a500.88 500.88 0 0 0 2.14-89.21.86.86 0 0 0 0-.26c-2.2-32.37-8.14-66.37-20-99.52a177.33 177.33 0 0 0 -12.73-27.64c-.37-.73-.79-1.45-1.25-2.17-1.58-2.76-3.28-5.45-5-8.11-2.33-3.51-4.8-6.92-7.39-10.17a108.34 108.34 0 0 0 -12.8-13.72.21.21 0 0 1 -.13-.13 95.44 95.44 0 0 0 -11-8.4s0 0 0 0c-.72-.49-1.44-.95-2.17-1.41a2.48 2.48 0 0 0 -.36-.23"/><path d="m612.44 735.63 77.34 214.37h-111.6a28.74 28.74 0 0 1 24.94-28.49l24.29-3.25s-32.66-43-68-91.19"/></g><path d="m626.16 224.7-33.52 86.56a21.13 21.13 0 0 1 -27.64 11.95l-79.4-32.14a3.13 3.13 0 0 1 -.1-.33c-1-4-11.26-42.34-23.7-42.34-9.55 0-5 18.91-1 29.61.46 1.15.89 2.23 1.28 3.15l-.62-.26-62.17-25.34 39.21-103.36 76.55 29.57z" fill="#d7e8f0"/><g fill="none" stroke="#000" stroke-miterlimit="10" stroke-width="4.72"><path d="m462.06 281.16c-4.17-9.55-10.81-32.76-.25-32.76 12.44 0 22.69 38.37 23.7 42.34l.1.33 79.39 32.15a21.14 21.14 0 0 0 27.65-12l37.35-96.5-118.72-45.89-76.54-29.57-43 113.24z"/><path d="m708.15 278.73c2.38 41.5-6.89 94.59-59.8 125.84-78.27 46.28-181.86-58.57-220.21-109.45a136.32 136.32 0 0 1 -15.95-27 62 62 0 0 1 -3.24-8.62"/><path d="m520.12 384.13s6 43.71-12.5 80.87l.08-.1s0 .07-.06.1c-28.4 53.27-69.06 138.25-46.38 200 7.71 21 21 46 36.89 71.92"/></g><path d="m657.83 130.83.06.28a22.15 22.15 0 0 1 -20.26 23.89 21.62 21.62 0 0 1 -10.93-1.91 18.41 18.41 0 0 1 -2.81-1.49 2.76 2.76 0 0 1 0-4.53c4.3-3.1 8.23-7.42 9.35-12.48a12.14 12.14 0 0 0 .08-4.73 11.56 11.56 0 0 0 -7.18-9 7.09 7.09 0 0 0 -1.81-.29c-1.73-.14-4 .08-4.45 1.36a29.82 29.82 0 0 0 .26-19.23 26.73 26.73 0 0 0 -6.25-10.33 7.75 7.75 0 0 1 -8.26 8.61c-8.81-.3-10.47-8.7-10.47-8.7s0 .1 0 .16c-3.84 9.57-15 9.83-23 5.58a22.35 22.35 0 0 1 -7.31-6c-2.27-9.81 5.82-19.29 15.15-20.65.2-6.24 4.75-12.92 10.89-13.43a12 12 0 0 1 11 5.29c.17.27.36.56.51.86 2.51-3.64 6.62-7.63 11-8a14.85 14.85 0 0 1 14.6 8.76c0-.43 3.85-2.19 4.24-2.35a17.33 17.33 0 0 1 20.32 6.21 15.59 15.59 0 0 1 .44 2.65 17.14 17.14 0 0 1 -1.2 7.85 11.33 11.33 0 0 1 3.91 2 11.82 11.82 0 0 1 4.69 7.67c.05.31.08.62.1.93a11.85 11.85 0 0 1 -1.44 6.75 17.67 17.67 0 0 1 12.25 12.55 18.85 18.85 0 0 1 .49 3 17.7 17.7 0 0 1 -13.97 18.72z" fill="#3fbdf1"/><path d="m657.83 130.83.06.28a22.15 22.15 0 0 1 -20.26 23.89 21.62 21.62 0 0 1 -10.93-1.91c4.3-3.1 8.23-7.43 9.34-12.49a12.56 12.56 0 0 0 -2.75-10.74 11.56 11.56 0 0 0 -7.18-9 7.09 7.09 0 0 0 -1.81-.29 28.75 28.75 0 0 0 -4.19-17.87 26.73 26.73 0 0 0 -6.25-10.33 7.75 7.75 0 0 1 -8.26 8.61c-8.81-.3-10.47-8.7-10.47-8.7s0 .1 0 .16c-3.84 9.57-15 9.83-23 5.58a22.35 22.35 0 0 1 -7.31-6c-2.27-9.81 5.82-19.29 15.15-20.65.2-6.24 4.75-12.92 10.89-13.43a12 12 0 0 1 11 5.29c.17.27.36.56.51.86 2.51-3.64 6.62-7.63 11-8a14.85 14.85 0 0 1 14.63 8.76c0-.43 3.85-2.19 4.24-2.35a17.33 17.33 0 0 1 20.32 6.21 15.59 15.59 0 0 1 .44 2.65 17.14 17.14 0 0 1 -1.2 7.85 11.33 11.33 0 0 1 3.91 2 16.14 16.14 0 0 1 -1.07 4 12.47 12.47 0 0 1 5.76 3.62c.05.31.08.62.1.93a11.85 11.85 0 0 1 -1.44 6.75 17.62 17.62 0 0 1 4.24 1.84 12.46 12.46 0 0 1 -1.4 4.17 17.52 17.52 0 0 1 9.41 6.54 18.85 18.85 0 0 1 .49 3 17.7 17.7 0 0 1 -13.97 18.77z" fill="#3fbdf1"/><path d="m580.12 110.79s12.68.18 15.59 10.88" fill="none" stroke="#000" stroke-miterlimit="10" stroke-width="4.72"/><path d="m576.85 142.85a23 23 0 0 1 -8.82.43 3.47 3.47 0 0 1 -2.41-5.17c2.64-4.47 5.36-8.89 8.32-13.14a3.47 3.47 0 0 0 .82-1.92s-1.22-13.23 1.45-23.38" fill="none" stroke="#000" stroke-miterlimit="10" stroke-width="4.72"/><ellipse cx="583.55" cy="121.63" rx="3.89" ry="3.31" transform="matrix(.12481375 -.99218019 .99218019 .12481375 390.03 685.44)"/><g fill="none" stroke="#000" stroke-width="4.72"><path d="m646.74 152.19c.27 2.65 12.16 21 22.91 41.26a.3.3 0 0 0 0 .1c.2.43.4.89.63 1.35" stroke-linecap="round" stroke-linejoin="round"/><path d="m603.85 171.59 3.74 26.62" stroke-miterlimit="10"/><g stroke-linecap="round"><path d="m572.27 143.52s5.42 26.36 18.75 30.35 24.9-12.64 24.9-12.64" stroke-linejoin="round"/><path d="m575.91 155.41a12.33 12.33 0 0 0 11.74.38" stroke-linejoin="round"/><path d="m600.94 62.89a11.8 11.8 0 0 0 -2-5.71 12 12 0 0 0 -22 7.69" stroke-miterlimit="10"/><path d="m595.78 81.09a17.87 17.87 0 0 0 -9-14c-12.71-7.11-29 6.7-24.45 20.38 1.6 4.76 5.41 8.22 9.75 10.52 8 4.25 19.2 4 23-5.58l.06-.15s1.66 8.39 10.47 8.7a7.78 7.78 0 0 0 8.28-8.62c7.58 7.8 9.56 19.46 6 29.57.65-1.82 5-1.49 6.26-1.07 5.42 1.89 8.31 8.3 7.11 13.74-1.13 5.09-5.06 9.39-9.34 12.51a2.75 2.75 0 0 0 0 4.52 21.92 21.92 0 0 0 13.73 3.4 22.15 22.15 0 0 0 20.26-23.88l-.06-.28a17.67 17.67 0 0 0 1.25-34.28 11.85 11.85 0 0 0 1.44-6.75 12.08 12.08 0 0 0 -13-11" stroke-linejoin="round"/></g><path d="m600.43 56.7c2.4-4 5.05-6.24 10-6.65a14.78 14.78 0 0 1 14.75 8.82c-.17-.39 3.85-2.22 4.26-2.38a17.29 17.29 0 0 1 5-1.1 17.74 17.74 0 0 1 18.61 16 17.14 17.14 0 0 1 -1.2 7.85" stroke-linecap="square" stroke-linejoin="round"/><path d="m669.65 193.46s9.34 31.06-44.06 32.74" stroke-miterlimit="10"/><path d="m392 504.65c-.09-22.71 22.23-28.82 32.92-28.62 66.25 1.26 76.24-105.88 76.24-105.88" stroke-linecap="round" stroke-linejoin="round"/><path d="m738.74 471s-7.82 77.14 0 103.1-37.15 5.59-37.15 5.59" stroke-miterlimit="10"/><g stroke-linecap="round" stroke-linejoin="round"><path d="m290.71 529.14h-51.99"/><path d="m476.99 529.14h-99.48"/><path d="m363.24 529.14h-58.73"/><path d="m361.73 504.65h-58.07"/><path d="m408 504.65h-31.35"/><path d="m487.69 504.65h-60.55"/><path d="m289.15 504.65h-10.27"/><path d="m359.81 502.45h13.43s15.39 14.53 0 31.16v11.62h-13.43"/><path d="m300.67 502.45s15.39 14.53 0 31.16v11.62"/><path d="m300.67 545.23h-13.43v-11.62c15.4-16.63 0-31.16 0-31.16h13.43"/><path d="m359.81 502.45s15.4 14.53 0 31.16v11.62"/><path d="m287.24 533.61h13.43"/><path d="m359.81 533.61h13.43"/><path d="m411.58 497.23a19.26 19.26 0 0 0 -3.58 7.42 46.5 46.5 0 0 0 -.95 12.15c.06 4 .56 8.1 4.36 10.2 5.71 3.19 12.57-1.37 12.87-7.91a57.17 57.17 0 0 1 2.86-14.44c.06-.23.13-.43.19-.62"/><path d="m427.33 504c4.76-1 11.85-3.61 15.46-10.34"/><path d="m394.85 529.14s3.74 9.86 13.15 11.06 3.46-11.06 3.46-11.06 3.9 8.64 8.62 8.93 8.8-4 7.17-8.93c0 0 1.44 7.93 8.42 7.06s4.1-7.06 4.1-7.06"/></g></g><g fill="#3fbdf1"><g opacity=".54"><path d="m287.51 669.59-6.75 97.48c-3.66 6.62-7.78 12.48-11.45 16.1-.49-.18-1-.36-1.47-.58-.9-.31-1.79-.67-2.64-1-13.68-6-24-17.17-27.1-29.78-2.72-11.09-.26-23.07-5.54-33.49-6.44-12.83-24-20.88-26.11-35.37-2-13.55 10.19-26 8.22-39.26-2.28-15-20.7-23.92-24.14-38.59-2.15-9.12-.23-19.58-1-29a191.31 191.31 0 0 0 -5.31-31.1c27.19-2 54.87 13 63.68 34.47 7.2 17.57 2.86 38.1 14.13 54.11 6.12 8.67 16.32 15.15 21.59 24.23a31.63 31.63 0 0 1 3.49 9.08c.05.22.05.45.09.62.05.36.09.63.13.9.09.78.18 1.18.18 1.18z"/><path d="m287.56 669.55h-.05s-.09-.4-.18-1.16a6 6 0 0 1 .18.94c.05.08.05.17.05.22z"/></g><path d="m377.39 631.54c-3.58 12.65-22.8 20.34-25.13 33.31-2.06 11.49 10.64 22.22 8.54 33.89-2.23 12.53-20.48 19.46-27.18 30.55-5.46 9-2.91 19.31-5.73 28.88-3.26 10.87-14 20.57-28.35 25.71-.89.32-1.74.63-2.64.9-.49.13-1 .31-1.52.44-4.74-3.89-10.15-10.73-14.58-18.11l6.75-97.48h.05c5.23-4.43 11.22-8.5 15.38-13.42 4.52-5.32 6.62-11.13 8-17.21h.02v-.67c2-9.62 2.15-19.68 6.67-28.8 9.16-18.56 37.91-31.48 66.22-29.78a144.27 144.27 0 0 0 -5.46 26.87c-.82 8.06 1.2 17.09-1.04 24.92z"/><path d="m311 638.25v.67h-.13c.07-.23.13-.45.13-.67z"/><path d="m311 638.25c0 .22-.09.44-.13.67-1.34 6.08-3.44 11.89-8 17.21-4.16 4.92-10.15 9-15.38 13.42 0 0 0-.14-.05-.18a6 6 0 0 0 -.18-.94c0-.27-.08-.54-.13-.9 0-.17 0-.4-.09-.62a31.63 31.63 0 0 0 -3.49-9.08c-5.27-9.08-15.47-15.56-21.59-24.23 0 0 2.77-45.7 26.15-59.61 22.21-13.15 22.89 56.65 22.89 64.26z"/><path d="m311 638.25v.67h-.13c.07-.23.13-.45.13-.67z"/><path d="m287.51 669.37v.22s-.09-.4-.18-1.16a6 6 0 0 1 .18.94z"/></g><g fill="none" stroke="#000" stroke-width="4.72"><g stroke-miterlimit="10"><path d="m285.43 669.6c5.21-4.44 11.25-8.56 15.43-13.47 11.72-13.84 7.21-31.52 14.73-46.69 9.15-18.54 38-31.46 66.24-29.76a141.31 141.31 0 0 0 -5.48 26.87c-.84 8.11 1.17 17.15-1 25-3.6 12.64-22.81 20.31-25.15 33.29-2.07 11.48 10.66 22.21 8.55 33.88-2.24 12.53-20.47 19.45-27.19 30.54-5.47 9-2.9 19.31-5.74 28.9-3.44 11.56-15.37 21.78-31 26.59-.5.17-1 .34-1.54.47-4.74-3.89-10.15-10.72-14.59-18.11"/><path d="m364.55 594.22c-42.19 45.41-62 141.16-69.75 190.55-.63 4.17-1.2 8-1.69 11.42"/><path d="m368.44 824-19.44 114.54a13.4 13.4 0 0 1 -13 11.46h-101.36a13.41 13.41 0 0 1 -13-11.64l-17.9-114.36z"/><path d="m386.88 811.24c-.55 7.22-6.27 12.78-13.13 12.78h-175c-6.79 0-12.46-5.44-13.11-12.58-.75-8.16 5.34-15.23 13.11-15.23h175c7.7 0 13.76 6.93 13.13 15.03z"/><path d="m267.23 783.19c7.51-7.46 16.7-24.06 20.78-37.63 3.35-11.19-2.56-22.7-3.91-34.17-2.12-18 6.81-37.29-2.6-53.57-5.24-9.08-15.44-15.54-21.56-24.24-11.28-16-6.95-36.5-14.16-54.07-8.78-21.51-36.46-36.46-63.64-34.51a193.55 193.55 0 0 1 5.26 31.13c.81 9.39-1.13 19.85 1 29 3.45 14.67 21.89 23.55 24.15 38.58 2 13.29-10.22 25.72-8.21 39.25 2.16 14.51 19.65 22.53 26.12 35.38 5.25 10.44 2.79 22.4 5.52 33.48 3.42 13.84 15.52 26 31.25 31.37z"/><path d="m198.73 561.86c40.5 52.6 59.56 163.5 67 220.75.64 5 1.21 9.51 1.66 13.58"/><path d="m259.94 633.58s2.78-45.7 26.15-59.6 22.91 64.02 22.91 64.02"/><path d="m285.43 669.6s-4.78-26.15 3.59-51.85"/></g><path d="m823.33 529.14h-87.49" stroke-linecap="round" stroke-linejoin="round"/><path d="m824.75 504.65h-86.11" stroke-linecap="round" stroke-linejoin="round"/><path d="m210.83 950h557.18" stroke-miterlimit="10"/></g></svg>