<svg viewBox="0 0 1000 1000" xmlns="http://www.w3.org/2000/svg"><g fill="#3fbdf1"><rect height="174.07" rx="8.63" width="239.71" x="560.81" y="655.19"/><rect height="157.77" rx="8.63" width="217.26" x="572.04" y="663.34"/><path d="m898.25 829.26h-80.25a17.47 17.47 0 0 1 -17.47-17.48v-125.13a8.45 8.45 0 0 1 8.63-8.45l44.64.4a8.47 8.47 0 0 1 6.28 3l54.08 64a47.16 47.16 0 0 1 13.34 32.9v21.5a29.24 29.24 0 0 1 -29.25 29.26z"/></g><circle cx="680.66" cy="742.23" fill="#d7e8f0" r="50.47"/><path d="m818 741.91v-42.53a4.75 4.75 0 0 1 4.75-4.75h23.87a4.77 4.77 0 0 1 3.77 1.86l32.71 42.51a4.75 4.75 0 0 1 -3.77 7.65h-56.55a4.75 4.75 0 0 1 -4.78-4.74z" fill="#fff"/><path d="m581.21 828.89v.34a39 39 0 0 0 78.08 0" fill="none" stroke="#ccdde2" stroke-miterlimit="10" stroke-width="4.57"/><path d="m818 829.23a39 39 0 1 0 78.07 0" fill="#3fbdf1"/><path d="m818.1 467.57c32.46-6.94 67.41 5.59 91.18 28.75s37 55.82 40.41 88.83c5.49 52.53-9.23 113.21-38.19 157.33" fill="none" stroke="#ccdde2" stroke-miterlimit="10" stroke-width="4.57"/><path d="m527.36 256.39c54.38-19.6 119.57-2.22 170.57 133 16.66 44.19 37.82 65 67.63 67.6" fill="none" stroke="#ccdde2" stroke-miterlimit="10" stroke-width="4.57"/><g fill="#2e2e2e"><path d="m319.53 321.38s60.7-7 61.07 67.49l169.92-49.48 26.68-8.39s-38.28-46.44-82.44-54.43a73.34 73.34 0 0 0 2.67 13.32c2.28 8-5.28 12.7-15.77 15.68s-31.73-14.65-35.38-30.2c0 0 5.24-4.73-14.28-1.34s-78.75 17.15-112.47 47.35z"/><path d="m56 682.88a11.45 11.45 0 0 0 5.39 1.37 11.33 11.33 0 0 0 8.83-4.25l38.3-46.95 30.91-38.79-25.3-14.19a11.36 11.36 0 0 0 -15.47 4.3l-47.17 82.83a11.42 11.42 0 0 0 4.51 15.68z"/><path d="m639 904.39 31.88 31.36a14.74 14.74 0 0 0 10.35 4.25h79.77a12.74 12.74 0 0 0 1.31-25.42l-44.26-4.58z"/></g><g fill="#3fbdf1"><path d="m492.12 273v2.16.55a140.18 140.18 0 0 1 48.9 23c2.37 1.74 4.69 3.5 7 5.36.06-7.46-.58-14.95-3-22a32.87 32.87 0 0 0 -10.57-15.43c-4.35-3.47-9.5-5.7-14.68-7.71s-10.26-3.77-15-6.48a32.63 32.63 0 0 1 -10.26-8.83 9.23 9.23 0 0 1 -1-9.23 5.45 5.45 0 0 1 -1.37-.27z"/><path d="m492.12 273v2.16.55a140.18 140.18 0 0 1 48.9 23c2.37 1.74 4.69 3.5 7 5.36.06-7.46-.58-14.95-3-22a32.87 32.87 0 0 0 -10.57-15.43c-4.35-3.47-9.5-5.7-14.68-7.71s-10.26-3.77-15-6.48a32.63 32.63 0 0 1 -10.26-8.83 9.23 9.23 0 0 1 -1-9.23 5.45 5.45 0 0 1 -1.37-.27z"/><path d="m248.47 441.5a73.26 73.26 0 0 0 21.8 10.69c3.35 1-4.57 4.74-1.13 5.41-13.61-32.12-3.9-81.5 39.16-126.56 7.33-7.68 24.19-17.41 32.5-24.17 13.37-10.87 28-12.28 42-18.8a172.29 172.29 0 0 1 19.24-7.52 175.78 175.78 0 0 1 35.9-7.88c2.77-.34 5.51-.58 8.28-.73a42.57 42.57 0 0 1 .4-14.32c2.55-12.94 7-20.37 15.1-30.57 5.08-6.42 13-21.77 2.43-27.06-6.66-3.32-7.27-10.11-4.14-14.25 2.65-3.54 8-5.15 14.62-1 4.57 2.92 10 3.11 15.22 1.68a33.78 33.78 0 0 0 10.36-9.38c7.67-11 7.94-27.65-4.05-35.72-6.55-4.41-14.89-5.48-22.72-4.63a49.87 49.87 0 0 0 -10.28 2.31.11.11 0 0 0 -.09 0c-14.16 7.64-24.3 21.77-29.17 37.69-2.86 9.41-6.09 18.73-9.87 27.86-3.1 7.49-5.26 16.6-12.18 21.71a27.35 27.35 0 0 1 -9.65 4.57c-13.06 8.28-31.18 3.5-45.46 1.74a72.7 72.7 0 0 0 -33.92 3.43c-12.18 6.15-22.65 16-31.15 28.77-14 21.16.82 51.67-22.65 68.36-7.07 5-15.26 8.07-23 12-11.08 5.64-20 13.64-23.29 26-6.57 24.76 5.06 55.36 25.74 70.37z"/></g><path d="m538 622.62 180.55 287.09-77-3.64-28.72-26.2h-32.83s-89.48-131.22-110-153.46 0-78.61 0-78.61z" fill="#fff"/><path d="m822.46 939.99h-555.41" fill="none" stroke="#000" stroke-miterlimit="10" stroke-width="4.57"/><path d="m512.49 167a70.92 70.92 0 0 1 3.65 9.13c1.46 5.09-.12 8.23 2.1 13.07.76 1.67 1.86 4.5 3 7.37.33-.67.64-1.22.82-1.65 8.71-19.39-2.74-28.74-8.25-31.94a28.72 28.72 0 0 1 -1.32 4.02z" fill="#3fbdf1"/><path d="m512.49 167a70.92 70.92 0 0 1 3.65 9.13c1.46 5.09-.12 8.23 2.1 13.07.76 1.67 1.86 4.5 3 7.37.33-.67.64-1.22.82-1.65 8.71-19.39-2.74-28.74-8.25-31.94a28.72 28.72 0 0 1 -1.32 4.02z" fill="#3fbdf1"/><g fill="none" stroke="#000" stroke-miterlimit="10" stroke-width="4.57"><path d="m519.82 401.25s0 0 0 0"/><path d="m430.15 686.44c-9.31 32.73-24.33 65.92-36.78 86.9a69.75 69.75 0 0 1 -91.1 26.76l-136.65-67.81v-30.69l-57.1-68.51-38.3 46.91a11.33 11.33 0 0 1 -8.83 4.21 11.42 11.42 0 0 1 -9.9-17l47.17-82.79a11.36 11.36 0 0 1 15.47-4.3l25.3 14.19 145 81.21a17.45 17.45 0 0 0 25.66-11.94l17.18-90"/><path d="m367.26 634.37 37.15 30.22a477.1 477.1 0 0 1 100.85 109l74.22 106.57h119.8"/><path d="m614.43 880.18 24.57 24.21 31.88 31.36a14.74 14.74 0 0 0 10.35 4.25h79.77a12.74 12.74 0 0 0 1.31-25.42l-44.26-4.58-213.66-339.75c-11-17.54-20.8-46.41-12.27-65.32 32.49-71.93 29.68-141.61 29.68-141.61"/><path d="m492.12 228v44.7 2.16.55c4.59 6.7 6.91 16.2 2.52 23.32-5.87 9.53-18.84 7.95-27.07 2.62a63.79 63.79 0 0 1 -6.91-5.18 39.63 39.63 0 0 1 -13.3-24.78 42.77 42.77 0 0 1 .39-14.31c2.57-12.93 7-20.36 15.13-30.58 5.08-6.41 13-21.77 2.41-27.06-12.39-6.18-3.81-24.27 10.48-15.23 11.08 7 27-1.73 33.58-11.14 7.67-11 7.95-27.65-4.05-35.72-6.55-4.41-14.89-5.48-22.71-4.63-23.85 2.62-40.81 21.26-47.6 43.42-2.86 9.41-6.09 18.73-9.86 27.86-3.11 7.5-5.27 16.6-12.18 21.71-13.15 9.84-32.21 4.69-47.1 2.87-31-3.81-56 9.92-73.08 35.62-14 21.16.82 51.67-22.66 68.36-7.06 5-15.25 8.07-23 12-11.09 5.63-20 13.64-23.3 26-6.57 24.84 5.06 55.45 25.73 70.46 9.47 6.88 20.55 11 32.06 13.24"/><path d="m553.31 309.82c.06-.57.09-1.12.11-1.66.52-9.81.46-20-2.74-29.39a32.91 32.91 0 0 0 -10.57-15.42c-4.37-3.47-9.51-5.72-14.67-7.72s-10.27-3.76-15-6.48a32 32 0 0 1 -10.25-8.83 9.23 9.23 0 0 1 -1.05-9.21"/><path d="m165.63 701.61v-92.64"/><path d="m482.51 218c3.59 5.13 8.46 10.67 14.6 12.68 7.95 2.58 13.3-4.16 16.15-10.73 1.71-3.91 2.88-8.07 4.26-12.11.45-1.33.72-2 2.25-2.08s3.12.24 4.68.24a.62.62 0 0 0 .52-1c-2.1-3.19-5.23-11.91-6.82-15.4-2.2-4.84-.61-8-2.09-13.06a75.56 75.56 0 0 0 -3.63-9.14"/><path d="m514.77 158.06s21.67 8.3 10.48 33.28c-.69 1.52-2.39 4.67-3.19 6.1"/><path d="m513.57 219.19a7.2 7.2 0 0 1 -7.92-5.26"/><path d="m517.24 185.73c-4.49-3.65-9.41 1-12.41 4.41"/><path d="m492.12 275.41a140.39 140.39 0 0 1 48.93 23c4.26 3.08 8.37 6.36 12.36 9.77 15.74 13.36 29.59 28.82 43.05 44.45"/><path d="m616.65 500.08a1.06 1.06 0 0 1 -.22-.18c-17.66-17.66-35.45-35.19-53.16-52.79-14.84-14.74-34.14-29.83-43.2-49.17"/><path d="m409.58 627.23c1.44-.46 2.81-.92 4.11-1.4a.11.11 0 0 0 .07 0"/></g><path d="m275.15 419.57 105.45-30.7 193.65-56.39a36.63 36.63 0 0 1 45.28 24.88l41.59 142.87a36.65 36.65 0 0 1 -24.85 45.3l-206.38 60.08-19.7 5.72-20 5.85-19.7 5.75-16 4.63-56.8 16.54a36.61 36.61 0 0 1 -45.28-24.88l-41.59-142.87a36.61 36.61 0 0 1 24.84-45.27l1.49-.43 1.25-.37 26.52-7.73z" fill="#fff"/><g fill="#3fbdf1"><path d="m291 423.3 97.7-28.44 179.44-52.25a33.93 33.93 0 0 1 42 23.05l38.52 132.34a34 34 0 0 1 -23 42l-191.25 55.68-18.25 5.32-18.57 5.41-18.25 5.34-14.84 4.25-60.73 18a33.92 33.92 0 0 1 -42-23.05l-38.5-132.41a33.94 33.94 0 0 1 23-42l1.38-.4 1.16-.33 32.71-9.8z"/><path d="m301.58 428 90.59-26.37 173-50.65a31.47 31.47 0 0 1 38.9 21.37l35.74 122.75a31.49 31.49 0 0 1 -21.35 38.92l-183.94 53.85-16.92 4.92-17.21 5-16.93 4.94-13.71 4-61.81 18.2a31.44 31.44 0 0 1 -38.94-21.37l-35.75-122.74a31.46 31.46 0 0 1 21.35-38.9l6.78-1.93 1.08-.32 30.33-9.08z"/><path d="m436.23 501.05-162.81 45.95a6.86 6.86 0 0 1 -8.47-4.75 6.52 6.52 0 0 1 -.27-1.85 6.91 6.91 0 0 1 5-6.61l162.81-45.92a12.83 12.83 0 0 0 -.09 6.88 13.09 13.09 0 0 0 3.83 6.3z"/></g><path d="m474.26 485.09a6.92 6.92 0 0 1 -5 6.64l-11.75 3.32a13.07 13.07 0 0 0 -3.71-13.22l11.75-3.31a6.88 6.88 0 0 1 8.46 4.75 6 6 0 0 1 .25 1.82z" fill="#d7e8f0"/><path d="m481.66 511.31a6.9 6.9 0 0 1 -5 6.61l-161.8 45.64a12.93 12.93 0 0 0 -2.13-13.64l160.19-45.22a6.89 6.89 0 0 1 8.46 4.75 6.31 6.31 0 0 1 .28 1.86z" fill="#d7e8f0"/><path d="m295.4 569-14.58 4.11a6.85 6.85 0 1 1 -3.75-13.11l13-3.66a13.52 13.52 0 0 0 .25 5.39 12.88 12.88 0 0 0 5.08 7.27z" fill="#3fbdf1"/><path d="m440.34 556.77-151.06 42.63a6.92 6.92 0 0 1 -8.46-4.75 6.08 6.08 0 0 1 -.25-1.83 6.93 6.93 0 0 1 5-6.64l150.84-42.53a13 13 0 0 0 3.93 13.12z" fill="#3fbdf1"/><path d="m490.15 537.52a6.86 6.86 0 0 1 -5 6.61l-23.69 6.67-21.1 6a13 13 0 0 1 -3.93-13.12l21.5-6.06 23.5-6.64a6.87 6.87 0 0 1 8.47 4.72 6.63 6.63 0 0 1 .25 1.82z" fill="#d7e8f0"/><path d="m457.51 495.05a13 13 0 0 1 -25.09-.34 13 13 0 0 1 9.32-15.86 13 13 0 0 1 12.06 3 13.07 13.07 0 0 1 3.71 13.22z" fill="#fff"/><path d="m450.53 488.81a8.35 8.35 0 0 1 -.84 4.58 13.32 13.32 0 0 1 -1.2 2c-.25.33-1.56 2.22-1.94 2.14-2.58-.46-6.27-2.47-7.46-5.16a5.52 5.52 0 0 1 -.37-1.32 3.3 3.3 0 0 1 5.37-3 3.37 3.37 0 0 1 6.44.7z" fill="#3fbdf1" opacity=".72"/><path d="m314.86 563.56a13 13 0 0 1 -24.54-1.86 13.52 13.52 0 0 1 -.25-5.39 13.05 13.05 0 0 1 9.56-10.44 12.89 12.89 0 0 1 13.1 4.08 12.93 12.93 0 0 1 2.13 13.64z" fill="#fff"/><path d="m308.44 555.79a8.34 8.34 0 0 1 -.85 4.58 11.59 11.59 0 0 1 -1.2 2c-.25.33-1.56 2.22-1.93 2.14-2.59-.46-6.27-2.47-7.46-5.17a5 5 0 0 1 -.37-1.32 3.3 3.3 0 0 1 5.37-3 3.4 3.4 0 0 1 2.26-2 3.44 3.44 0 0 1 4.18 2.77z" fill="#3fbdf1" opacity=".72"/><path d="m461.44 550.8a12.95 12.95 0 1 1 .15-7 13 13 0 0 1 -.15 7z" fill="#fff"/><path d="m454.52 544.44a8.45 8.45 0 0 1 -.85 4.58 12.55 12.55 0 0 1 -1.2 2c-.25.33-1.56 2.22-1.93 2.14-2.59-.46-6.28-2.47-7.47-5.16a5.47 5.47 0 0 1 -.37-1.33 3.3 3.3 0 0 1 5.37-3 3.38 3.38 0 0 1 6.45.71z" fill="#3fbdf1" opacity=".72"/><path d="m434.61 585.79c-8.67.48-18-12-20.85-15.11a5 5 0 0 0 -1.07-.85l-7.75-6.27 1.3 9.86c2.07 4.75 13 15.11 20.79 27s.37 14.49-3.8 16-8.53-6.37-6.83 2.19-8.4 8.68-14.7 7.61-8.56-8-7.13-2.56-3.29 9.41-7.55 9.59c-3.23.16-9.44-4.2-12.24-6.3-.64 3.44-2.95 9.9-11 6.46-10.69-4.57-21.07-31.88-29-59.83s-59.29-78.93-66.78-132.91c0-.09 0-.22 0-.31q-.6-6.12-.61-12.33a121.94 121.94 0 0 1 2.28-23.44 132.21 132.21 0 0 1 4.33-16.59l84.8 16.84c-.58.64-1.16 1.28-1.74 1.95-19.85 23.05-8.25 52.28 6.85 73.74 15.32 21.84 32.95 43.42 53.1 61a159.54 159.54 0 0 1 16.54 16.69l-1.1.61a65.37 65.37 0 0 0 4 6.76c5.99 8.26 6.87 19.71-1.84 20.2z" fill="#fff"/><g fill="none" stroke="#000" stroke-miterlimit="10" stroke-width="4.57"><path d="m380.6 388.87 193.65-56.39a36.63 36.63 0 0 1 45.28 24.88l41.59 142.87a36.65 36.65 0 0 1 -24.85 45.3l-206.38 60.08"/><path d="m354.44 627.56-56.75 16.54a36.61 36.61 0 0 1 -45.28-24.88l-41.59-142.87a36.61 36.61 0 0 1 24.84-45.27l1.49-.43 1.25-.37 26.52-7.73"/><path d="m410.19 611.33h-.03"/><path d="m370.43 622.93h-.03"/><path d="m381.22 568.16c2.79 15.22 15.47 31.71 28.92 43.13 3.91 3.32 12.55 7.36 17.24 3.57 10.12-8.16-7.18-21.6-11.95-27-5.79-6.56-10.47-14.25-12.21-22.92a2.49 2.49 0 0 1 .09-1.62 1.6 1.6 0 0 1 1.83-.57 4.47 4.47 0 0 1 1.7 1.12c5.48 5 10.37 10.53 15.33 16 3.51 3.91 12.64 8.76 17.12 3.78 9.72-10.81-17.79-36-24.83-42.18-20.13-17.6-37.79-39.18-53.11-61-15.1-21.46-26.7-50.69-6.85-73.74 10.36-12 25.7-17.24 39.4-24.33 22.1-11.4 26.65-30.4 26.65-30.4"/><path d="m368.38 583.63s11.44 32.61 35.74 42.76a10.53 10.53 0 0 0 9.12-.27c3-1.68 5.45-5 1.24-11.66"/><path d="m352.54 591.25c4.46 12.1 10.38 24.75 19.9 33.75 4.34 4.09 9.84 8.14 16 8.4 7.42.31 8-7.17 5-12.26a15.61 15.61 0 0 0 -2.32-3"/><path d="m372.44 625s-.54 13-11.23 8.41-21.1-31.89-29-59.85-59.55-79.09-66.88-133.2l.08.66c0-.12 0-.21 0-.33a122 122 0 0 1 1.64-36.11c23.15-117.16 179.23-132.66 179.23-132.66"/></g><path d="m677.53 519.35c-4.32 12.75-15 20.88-28.16 22.86-5.64.83-11.72 1.59-17-1-3.87-1.89-7.68-6.3-6.52-10.93a20.55 20.55 0 0 1 -5.11-.58c-2.29-.55-4.66-1.64-5.67-3.75s-.3-5.05 1.34-6.94a15 15 0 0 1 6.4-3.74 16.75 16.75 0 0 1 1.79-.55 40.9 40.9 0 0 1 -5.84-.37c-3.72-.48-7.89-2.07-9-5.63a7.39 7.39 0 0 1 1.8-6.91 14.24 14.24 0 0 1 6.36-3.78c.25-.06.46-.15.7-.21-4.41-.06-8.92-.94-10.87-5.12a8.25 8.25 0 0 1 1.65-8.92c3.9-4.38 9.74-5 15.25-5.42s12.21-.61 18.7-.73a9.25 9.25 0 0 0 8.65-11.78c-2.53-9-3.6-18.82 1.73-21.22 7.95-3.6 13.43 6.21 15.71 12.24 6.97 18.48 14.73 42.96 8.09 62.48z" fill="#fff"/><g fill="none" stroke="#000" stroke-miterlimit="10" stroke-width="4.57"><path d="m644 511.92c-6.43 1.37-12.94 2.77-19.46 2.83a17.48 17.48 0 0 0 -1.79.55 15 15 0 0 0 -6.4 3.74c-1.64 1.89-2.43 4.69-1.34 6.94s3.38 3.2 5.67 3.75a20.55 20.55 0 0 0 5.11.58 50.54 50.54 0 0 0 10.45-1.31c.58-.12 7.68-.94 8.23-1.07"/><path d="m618.55 497.85c-.24.06-.45.15-.7.21a14.24 14.24 0 0 0 -6.36 3.78 7.39 7.39 0 0 0 -1.8 6.91c1.16 3.56 5.33 5.15 9 5.63a40.9 40.9 0 0 0 5.84.37"/><path d="m649.4 497.18c-.49 0-.95 0-1.43 0l-23.24.52c-1.82 0-4 .18-6.18.12-4.41-.06-8.92-.94-10.87-5.12a8.25 8.25 0 0 1 1.65-8.92c3.9-4.38 9.74-5 15.25-5.42s12.22-.59 18.71-.73a9.25 9.25 0 0 0 8.68-11.8c-2.53-9-3.62-18.83 1.72-21.23 7.95-3.6 13.43 6.21 15.71 12.24 7 18.48 14.77 43 8.13 62.48-4.33 12.75-15 20.9-28.15 22.86-5.63.84-11.73 1.6-17-1-3.85-1.88-7.67-6.28-6.52-10.91"/></g><g opacity=".54"><path d="m465.23 444.79a22.73 22.73 0 0 0 -.79-3.41l-3.93-12.71c-1.2-3.89-2.53-8-5.59-10.68-5.67-5-14.41-3.13-21.66-.95l-17.79 5.34c-4.09 1.23-8.24 2.49-11.81 4.82s-6.55 5.95-7.11 10.18c-.42 3.12.5 6.24 1.41 9.26l3.66 12.2c1.21 4 2.55 8.22 5.7 11 5.61 4.88 14.18 3.05 21.32.94l18.2-5.37c10.98-3.28 20.16-9.15 18.39-20.62z" fill="#fff"/><path d="m440.27 446.28a6 6 0 0 0 -3.09-10l-5.64-1.28-5.63-1.28a6 6 0 0 0 -7.12 7.67l1.71 5.52 1.7 5.52a6 6 0 0 0 10.21 2.33l3.93-4.24z" fill="#3fbdf1"/></g><path d="m843.05 868.27h-49.03" fill="none" stroke="#ccdde2" stroke-miterlimit="10" stroke-width="4.57"/><circle cx="785.67" cy="507.44" fill="#3fbdf1" r="54.29"/><path d="m776.88 531.78a4.79 4.79 0 0 1 -3.4-1.41l-14-14a4.8 4.8 0 0 1 6.79-6.8l10.64 10.64 28.19-28.21a4.8 4.8 0 0 1 6.8 6.79l-31.63 31.63a4.79 4.79 0 0 1 -3.39 1.36z" fill="#fff"/></svg>