<svg viewBox="0 0 1000 1000" xmlns="http://www.w3.org/2000/svg"><g fill="none" stroke="#ccdde2" stroke-miterlimit="10" stroke-width="5.32"><path d="m282 395.17s14.72 37.13 63.42 38.95"/><path d="m402.6 427.63s28-7.34 46.39-35.45"/><path d="m816.07 937.15c2.8-1.74 20.33 0 23.63 0a107.7 107.7 0 0 0 21.39-2.05c88.28-17.7 96.12-147 84.95-233.83a293.91 293.91 0 0 0 -12.2-53.6c-16.53-51.08-46.15-98.4-82.33-137.24-13.45-14.43-29.69-27.14-38.51-45.23-16.14-33.13-3.51-71.55 4-105.17 10-45.12 14.19-94.25-35.08-116.7-103.5-47.18-218 37.49-218 37.49"/><path d="m123.7 777.73c-5.82 28.77-6.12 58.88 3.78 86.38 8.84 24.55 26.3 49.77 49.13 63.79a67.07 67.07 0 0 0 43.68 9.17"/><path d="m345.4 501.03v-96.27-2.84-22.95-8.55-46.54"/><path d="m408.89 483.68v-47.31a9.2 9.2 0 0 0 -6.29-8.74l-27.44-9.15v-94.6"/><path d="m345.4 404.76c7.87 2.23 21.48 5.21 29.74 3.47"/><path d="m345.4 379c9.79.78 22 1.63 29.76 3.65"/><path d="m345.4 401.92c8.8-1.24 21.64-3.94 29.76-7.45"/><path d="m345.4 370.42c17.13-4.75 25.61-10.61 29.76-15.5"/><path d="m196.84 346.83-37.17 3.02"/><path d="m192.16 330.44-36.82 2.98"/><path d="m596.47 297.67 161.11-13.09a8.36 8.36 0 0 1 9 7.66v.68a8.34 8.34 0 0 1 -7.69 8.33l-155.75 12.63"/><path d="m349.8 334.45-34.84 2.8"/><path d="m441.56 327-69.24 5.61"/><path d="m346.64 317.92-25.36 2.06"/><path d="m434.22 310.83-61.47 4.96"/><path d="m269.6 795.46c.67-.38 1.33-.77 2-1.17 6.1-3.69 6.9-9.07 1.84-13.81-21.6-20.22-46.68-37.52-74.18-48.62-24.06-9.72-52.46-15.8-78.42-12.57-12 1.5-42.06 7.43-34.29 26.08 1.67 4 4.83 7.18 8 10.14 41.91 38.98 119.92 71.42 175.05 39.95z"/><path d="m89.4 750.71c-39.76-47.39 9-178.24 29.83-233.65 8.94-23.84 9.4-49.7 7.91-74.88-.46-8.94-11.56-64.49 4.44-62.93 2.52.25 4.5 2.06 6.17 4a34 34 0 0 1 8.16 19.15 41.24 41.24 0 0 1 9.82-7.24 40.31 40.31 0 0 1 6.32-2.73 11.34 11.34 0 0 1 5.39-.88c5.78 1 7.52 8.62 6.31 14.4-2.05 10.46-10.6 14.51-16.14 22.63a24.15 24.15 0 0 0 -1.88 3.33c-4.18 8.66-3.69 19.23-3 28.74a104.57 104.57 0 0 0 9.22 35.11"/><path d="m260.3 673.92c10.18 32.74 16.11 66.75 16.46 101.2.07 3.58 0 7.13-.1 10.71v.42a16.56 16.56 0 0 1 -.08 2"/><path d="m155.73 431.91s-26.57-6.55-32-18.33"/><path d="m155.73 395.17s17.92-76-19.18-71-12.85 57.83-12.85 57.83"/><circle cx="137.69" cy="341.44" r="13.99"/><path d="m697.42 555.33a18.43 18.43 0 0 0 12.38 4.76c9.29 0 16.85-6.74 16.85-15q0-29.26-.07-58.5c0-11.59 2.48-33.62-16.78-33.62-13.2 0-16.89 10.39-16.85 20.25v10.75"/><path d="m697.42 431.79a17.48 17.48 0 0 0 12.38 5.28 16.8 16.8 0 0 0 16.81-16.81q0-32.67-.07-65.34c0-12.91 2.52-37.56-16.74-37.56-13.2 0-16.89 11.63-16.89 22.63v9"/></g><path d="m706.85 434.12h5.94v18.8h-5.94z" fill="#d7e8f0" transform="matrix(-1 0 0 -1 1419.63 887.04)"/><path d="m680.62 585.73c9.29 0 16.82-6.74 16.82-15.05q0-29.25-.07-58.49c0-11.58 2.5-33.62-16.75-33.62-13.19 0-16.89 10.41-16.88 20.25q.06 33.52.06 67.07c0 3.54 0 7.15 1.3 10.5 2.16 5.69 8.9 9.34 15.52 9.34z" fill="none" stroke="#ccdde2" stroke-miterlimit="10" stroke-width="5.32"/><path d="m680.61 462.74a16.82 16.82 0 0 0 16.82-16.82q0-32.67-.07-65.34c0-12.94 2.5-37.56-16.75-37.56-13.19 0-16.89 11.63-16.88 22.62q0 37.46.06 74.92c0 4 0 8 1.29 11.74 2.17 6.35 8.92 10.44 15.53 10.44z" fill="none" stroke="#ccdde2" stroke-miterlimit="10" stroke-width="5.32"/><path d="m677.65 459.77h5.94v18.8h-5.94z" fill="#d7e8f0" transform="matrix(-1 0 0 -1 1361.24 938.33)"/><path d="m682 343.25c-4.93-12.13-4.07-24.33-2-35.61.71-3.8 1.56-7.45 2.37-11a15.49 15.49 0 0 1 15-12h.07a15.4 15.4 0 0 1 10.36 4" fill="none" stroke="#ccdde2" stroke-miterlimit="10" stroke-width="5.32"/><path d="m713.17 305c-.25 8-3.37 12.38-3.37 12.38" fill="none" stroke="#ccdde2" stroke-miterlimit="10" stroke-width="5.32"/><g fill="#2e2e2e"><path d="m599.86 869.07a32.56 32.56 0 0 1 -2.83 9.22c-.18-3.65 2.83-9.22 2.83-9.22z"/><path d="m533.18 865.27c.85-7.66 5.81-18.09 10-30-3.33 10.99-8.48 22.16-10 30z"/><path d="m546 875.7c-2.49 1.35-5.71 2.52-9.37-.21a18 18 0 0 0 9.37.21z"/><path d="m544.92 826a18.58 18.58 0 0 0 -5.92-13.62c3.15 2.49 6.24 6.28 5.92 13.62z"/><path d="m550.52 874.1a21.46 21.46 0 0 0 3.48-2.16 23.08 23.08 0 0 0 -2.45 5.46c-.11-1.98-.46-2.94-1.03-3.3z"/><path d="m566.73 885.81c-4.29 2.52-9 3-12 .39 4.16 2.02 8.46 1.13 12-.39z"/><path d="m574.93 884.43c-.78-1-1.63-1.74-3-1.49.6-.39 1.1-.75 1.52-1 1.55-1.06 1.23.61 1.48 2.49z"/><path d="m579.43 888.11c4.29-.35 9.76-.81 14.05-4.93-.25.39-.46.86-.71 1.35-2.38 4.93-8.58 3.58-13.34 3.58z"/><path d="m598.27 880.91a5.89 5.89 0 0 0 -2.84 0 18.58 18.58 0 0 0 1.6-2.62 3 3 0 0 0 1.24 2.62z"/><path d="m602.77 881.87c-.78-.14-1.49-.32-2.13-.46 4.54-.25 9.4-.07 13.2-4.22-2.84 3.3-6.74 5.53-11.07 4.68z"/><path d="m615 875.7a18.75 18.75 0 0 0 1.25-2.17 18.85 18.85 0 0 1 -1.25 2.17z"/><path d="m618 869.21c-.21.69-.44 1.35-.67 2a18.18 18.18 0 0 0 .67-2z"/><path d="m616.26 873.53a25.1 25.1 0 0 0 1.06-2.36 18.35 18.35 0 0 1 -1.06 2.36z"/><path d="m618.31 840.58a2.66 2.66 0 0 0 -1.67-1.2l2.27-1.17a8.85 8.85 0 0 0 -.6 2.37z"/><path d="m781.9 766.55c-31.39 31.64-72.11 41.93-72.11 41.93 1.74 28-4.36 122.17-4.82 126.28s-23.1 2.73-23.1 2.73l-97.4-.14c3-.89 5.85-1.81 8.51-2.84 47.21-18 50.34-54.09 43.42-80.09-3.9-14.69-7.56-19-10.64-19.55 8.51-4 21.81-9.61 34.69-12.73 21.28-5.14 91.55-24.34 113.93-49.49a32.35 32.35 0 0 1 7.52-6.1z"/><path d="m773.5 567s-33.5-30.37-71.19 10.42c-26.57 28.77-27.64 50.72-25.93 61.19a24.94 24.94 0 0 1 1.88 6.74l3.37 2.27-2.31-.22c4.19 8.48 18.62 41.51.71 62.93-20.72 24.76-46.65 57-116.63 84.28 0 0-34.76-10.21-44.23 13.55 0 0 11.24-2 15.78 1.31-20.89-2.05-90-.46-90-.46s-42.88 6.35-53.49 45 3.59 46.79 24.73 71.58c4 4.65 11 8.52 20.11 11.57l-53.28-.07 4.51-7.84c5-12.21-7.13-14.55-7.13-14.55-12.35-1.06-9.16-8.3-9.16-8.3-13.12-82.5-10.42-206.12-6.59-237.48s-1.78-22.24-1.78-22.24c-9.89 10.71-67.46 22.24-67.46 22.24 27.2-16.46 36.6-38 41.32-88.82 4.61-49.38-21.85-67.57-23.38-68.6a.09.09 0 0 0 -.07 0l102.76-30.9 69.35-10.71c-1.06 3.27-2.87 2.42-6.35 2.91l-6.13.89a1.36 1.36 0 0 1 1.13.74 2.73 2.73 0 0 1 .14.78c.68 14.34 10 26.71 22.07 33.92 16.7 10 40.22 9.75 57.32.63 12.27-6.56 18.48-19.15 17.91-32.81 71.34 8.78 152.52 36.3 202.02 90.05z"/></g><g fill="#d7e8f0"><path d="m473.3 806.92 13.87 9.9-1.17-.75a64 64 0 0 0 -33-9.07z"/><path d="m573.4 878.68a3.7 3.7 0 0 1 -.35 1.35c-.05-1.78.39-2.77.35-1.35z"/><path d="m639.06 871.27a64.33 64.33 0 0 1 -64.31 64.31h-121.75a64.3 64.3 0 0 0 39.91-114.72 65.29 65.29 0 0 0 -5.75-4h56c1.7 2.8 4.11 10.14-1.84 26.32-8.16 22.13-12.31 31.21-1 33.16s13-9 13.66-4.36-7.49 8.51.71 14.26c7.34 5.14 16.46-1.88 18.34-6.17 0 3.15 1.49 8.76 9.61 8.26 12.77-.78 15-12.77 15-12.77a7.54 7.54 0 0 0 6.74 6.53c6.13.71 16.32-7.88 15.36-20.86s-4.72-23.55 3.9-26.39a6 6 0 0 0 2.8-1.77 63.71 63.71 0 0 1 12.62 38.2z"/></g><path d="m593.83 392.46a1.79 1.79 0 0 1 -.46 0c.43 2.09 1.21 4.32 1.74 6.56a18.28 18.28 0 0 1 .53 5.14c-.57 8.13-6.31 12.52-14.12 12.74a9.28 9.28 0 0 1 -5 9.22c-4.18 2.2-11 1.7-14.19-2.16-3.72-4.51-1.88-10.08.4-15 .81-1.74 1.63-3.37 2.3-4.86.82-1.85 1.53-3.69 2.16-5.57a150.55 150.55 0 0 0 5.15-21.25 160.32 160.32 0 0 0 2.94-22c-.49-1.81-.18-4.4-.89-6.28a15.53 15.53 0 0 0 -5.39-7.3c-5.11-3.76-11.89-3.51-17.31-6.84a28.79 28.79 0 0 1 -11.1-12.81c-.47-1.1-.89-2.52-1.53-3.76a5.05 5.05 0 0 0 -1.28-1.74c-2.45-2.05-3.86 1.56-5.35 3a14.7 14.7 0 0 1 -11.53 3.83 15.08 15.08 0 0 1 -4.54-1.34 16.13 16.13 0 0 1 -2.94-2.06 12.41 12.41 0 0 0 -3.66-2.48c-2.55-1-2.69 3.26-3.05 4.71-.71 2.63-1.95 4.76-4.43 6a10.44 10.44 0 0 1 -4.43 1.07 15.8 15.8 0 0 1 -5.29-.71 17.59 17.59 0 0 1 -4.65-2.17 1.65 1.65 0 0 0 -2.58 1.49c.49 13.87-12.49 18.7-17.81 20.08-2 22 4 46.36 16 65.23a17.12 17.12 0 0 1 -3.33 7.73c-8.77 2.2-18.88-.17-22.67-7.73-4-8-3.48-19.19 2.77-24.94-4.33-.66-5.55-7.07-3.06-10.83.21-.35.32-.56.17-.92-.53-1.45-6.9-2.65-8.64-3.21a17 17 0 0 1 -10.5-11c-3.69-12.17 5.67-25.15 17.38-28.1-3.48-6.13-8.09-11.1-10-18.19s-.82-14.51 4.61-19.8a18.25 18.25 0 0 1 16.75-4.56 21.61 21.61 0 0 1 4.54 4.47 15.75 15.75 0 0 1 -1.88-3.76 21.25 21.25 0 0 1 10 7.17c-4.57-6.85-2.87-16.18 2.28-22.21 6.2-7.27 18.4-8.87 26.92-5.14a13.05 13.05 0 0 1 1.77 1c.82 1 1.63 2 2.45 2.94a8 8 0 0 1 .32-.75 74.06 74.06 0 0 1 4.89 5.57c5.54-15.71 27.49-15.75 39.09-7.55a21.38 21.38 0 0 1 6.53 7.48 16.54 16.54 0 0 1 -.14 7.91c-.71 2.49-.14 4.37 1.45 4.9a5 5 0 0 0 3.55-.46c4.26-1.92 7.77-4.26 12.7-3.73 16.14 1.71 27.84 22.63 18.3 36.29a16.88 16.88 0 0 1 -1.91 2.38c-1.35 1.38-4.37 2.91-5 4.82a.2.2 0 0 0 0 .14c-1.2 4 7.7 4.93 10.08 6 20.94 8.75 16.5 51.99-9.11 53.34z" fill="#3fbdf1"/><g fill="none" stroke="#000" stroke-miterlimit="10" stroke-width="5.32"><path d="m472.91 473.63 6.13-.89a9.14 9.14 0 0 0 7.42-6.17 6.92 6.92 0 0 0 .42-1.74l.07-.49.78-5.89 5.29-32.74"/><path d="m562.33 424 .5 44.7v1.42a6.28 6.28 0 0 0 5.11 6.06l3.58.71"/><path d="m467.45 347.91c-2.45 26.39 6.7 56.22 23.87 75.87 32 36.65 59 0 59 0"/><path d="m575.6 356.09c-.93-1.75-.38-4.9-1.19-7.11a15.85 15.85 0 0 0 -5.41-7.28c-5.12-3.74-11.9-3.51-17.31-6.82a28.93 28.93 0 0 1 -11.15-12.88c-.74-1.68-1.32-4.26-2.78-5.48-2.45-2-3.87 1.55-5.38 3a14.45 14.45 0 0 1 -16.07 2.48c-2.43-1.19-4.1-3.59-6.63-4.54s-2.67 3.24-3.05 4.71c-.69 2.61-1.93 4.74-4.42 6-4.43 2.19-10.49.75-14.36-1.84a1.67 1.67 0 0 0 -2.6 1.51c.61 17.45-20.05 20.56-20.05 20.56"/><circle cx="496.59" cy="367.58" r="18.7"/><circle cx="545.07" cy="365.93" r="18.7"/><path d="m488.78 369.47s7.53 8.64 15.29 0"/><path d="m537.42 369.47s7.54 8.64 15.29 0"/><path d="m515.3 367.58s4.24-6.9 11.06-1.65"/><path d="m506.7 339.84s-19.41-14.84-35.7-.84"/><path d="m563.48 332.05s-23.05-8.05-34.18 10.27"/><path d="m482.84 412.54a14.81 14.81 0 0 1 -10.32 13.9c-9.58 2.84-19.72-4.36-23.87-12.66a17.56 17.56 0 0 1 1.17-18.34 2.32 2.32 0 0 0 -.83-3.26 12.55 12.55 0 0 1 -6.09-10.79 12.74 12.74 0 0 1 .3-2.72 2.39 2.39 0 0 0 -2.12-2.82 18.42 18.42 0 0 1 -2.9-.49 18.15 18.15 0 0 1 -11.28-11.77c-4-13.09 6.11-27.07 18.7-30.22-3.76-6.6-8.73-11.92-10.79-19.58s-.85-15.58 5-21.29c9.05-8.86 24.4-6.1 31.71 3.62-4.93-7.38-3.08-17.42 2.45-23.91 6.67-7.8 19.79-9.5 28.94-5.53 4.37 1.92 7.17 5.89 10.15 9.4 6-16.85 29.55-17 42-8.12 6.53 4.64 10.79 13.09 8.66 20.78-1.1 3.91.92 6.25 5 4.44 4.26-1.88 7.77-4.26 12.7-3.73 17.1 1.81 29.23 25.22 16.39 38.67-1.35 1.42-4.37 2.91-5 4.82-1.46 4.08 7.63 5.07 10 6.1 21.21 8.91 16.56 52.61-9.44 53.49.78 3.73 2.56 7.84 2.27 11.67-.57 8.13-6.31 12.52-14.12 12.77.57 3.66-1.7 7.45-5 9.19-4.18 2.23-11 1.7-14.19-2.16-5-6.1.15-14.09 2.7-19.9 3.76-8.52 5.6-17.7 7.31-26.82a158.11 158.11 0 0 0 3-22.91v-.32"/></g><path d="m279 159.92-7.62 29.69h.21l2.59-6.77 54.23-41.93 5.5-21.6zm19.75-61.92a11.27 11.27 0 0 0 -5.64 7.2l-11.18 43.48 55.37-42.78 8.37-32.9zm9.32 17c-.67 3.41-2.76 5.89-4.68 5.53s-2.91-3.47-2.2-6.91 2.77-5.93 4.69-5.54 2.87 3.42 2.19 6.86zm-28 72.4 1.6-.43a5 5 0 0 1 2-.39 5.07 5.07 0 0 1 4.93 6.17l-9.15 36.25 28.59-7.8 17.06-67.2z" fill="#d7e8f0"/><g fill="none" stroke="#000" stroke-miterlimit="10"><g stroke-width="5.32"><path d="m262.78 538.84c3.9-30.32 5.72-61.24 9.53-91.79l.62-4.78c1.07-8.26 2.33-16.52 3.87-24.69a10.54 10.54 0 0 1 .22-1.17c.88-4.84 1.85-9.64 3-14.45 3.27-14.39 11.57-24.92 19.67-36.64l.51-1.26a159 159 0 0 0 27.9-86.45c.19-11.18-.25-33.28-13.07-37.86-7.2-2.58-14.83 2.45-18.82 8.2a32.72 32.72 0 0 0 -4 7.67"/><path d="m377.46 937.1s0 0 0 0"/><path d="m198.54 389.35c-12.74 45.65-33.95 88.65-44.38 134.93-9.57 42.39-12.45 104.08 27.71 132.52 35.29 25 86.62 18.84 126.06 9.3a286.48 286.48 0 0 0 33.84-10.29c8.52-3.16 16.5-7.31 24.83-10.71 0 0-15.29 152.28 6 268.91"/><path d="m198.55 389.36 2.11-7.58a46.22 46.22 0 0 0 -1.92-30.38l-4.18-10c-2.73-8.32-3.58-12.35-.16-20.49a36.14 36.14 0 0 1 6.73-10.43c8.26-9.11 19.89-13.64 31.86-15.18s25.21-.34 34.85 7.42c6.54 5.28 12.7 17.82 8.46 26-3.11 6-9.68 7.7-15.28 5.56a13.52 13.52 0 0 1 -5.15-3.42c-6.6-6.92-21-8.33-25.94-1.61"/><path d="m203.89 289.28c-1-3.86-.85-8.74 1.45-15 3.3-8.95 12.91-14.83 22.28-18.69 3.42-1.42 6.82-2.58 9.83-3.49 10.22-3.15 21.43-4.81 32.28-3.71a61 61 0 0 1 10.84 2.07 47.64 47.64 0 0 1 11.62 5.13c9 5.49 15 13.85 18.67 24.82 3.17 9.46 4.4 20.71-3.46 26.62"/><path d="m277.62 321.23 2.79 5.57c3.49 3.83 8.33 6.25 15 4.59 13-3.24 14.3-14 12-24.32a47.49 47.49 0 0 0 -1.5-5.53c-3-9.09-7.77-16.41-14.37-21.75a44.16 44.16 0 0 0 -15.93-8.2 60.2 60.2 0 0 0 -14.52-2.33 85 85 0 0 0 -28.59 4c-9.24 2.83-21.87 7.7-28.6 16.06a21.3 21.3 0 0 0 -3.52 6.13c-2.07 5.62-2.42 10.18-1.69 13.86l.65 3.34"/></g><path d="m242.86 270.68v-.03" stroke-width="3.55"/></g><path d="m388.17 925.82a11.57 11.57 0 0 1 -11.53 11.25h-97.64a11.17 11.17 0 0 1 -6.17-1.85 11.5 11.5 0 0 1 11.48-11.22h97.69a11.72 11.72 0 0 1 6.17 1.82z" fill="#d7e8f0"/><path d="m388.17 925.82a11.57 11.57 0 0 1 -11.53 11.25h-97.64a11.17 11.17 0 0 1 -6.17-1.85 11.5 11.5 0 0 1 11.48-11.22h97.69a11.72 11.72 0 0 1 6.17 1.82z" fill="#d7e8f0"/><g fill="none" stroke="#000" stroke-width="5.32"><path d="m271.41 189.63 21.71-84.45a11.4 11.4 0 0 1 5.66-7.18l67-35.7-39.2 153.82-47.25 12.88" stroke-miterlimit="10"/><g stroke-linecap="round" stroke-linejoin="round"><path d="m254.3 329.44v.03l-3.14 12.51-24.45.06 3.2-12.76.04-.03"/><path d="m250.15 249.15 14.58-57.76 16.94-4.46a5 5 0 0 1 1.95-.41 5.09 5.09 0 0 1 4.93 6.19l-14.11 56.38"/><path d="m291.6 233.81-4.65 19.01"/><path d="m266.81 335.12-4.81 19.64"/><path d="m251.16 341.98 10.84 12.78h-24.1l-11.19-12.72z"/></g></g><ellipse cx="304.64" cy="114.24" rx="6.34" ry="3.51" transform="matrix(.1952615 -.98075122 .98075122 .1952615 133.13 390.73)"/><g fill="none" stroke="#000" stroke-miterlimit="10" stroke-width="5.32"><path d="m388.69 872.81a64.31 64.31 0 1 0 64.31-64.32 64.29 64.29 0 0 0 -64.31 64.32z"/><rect height="23.1" rx="11.55" transform="matrix(-1 0 0 -1 655.65 1851.11)" width="120.74" x="267.46" y="914.01"/><path d="m262.78 524.74c17.2-3.08 33.94-8 50.54-13.3 15.58-5 31.08-10.32 46.76-14.9 18.62-5.39 37.38-10.42 56.36-14.54 9.65-2.09 19.37-3.94 29.12-5.39 1.49-.21 3-.43 4.47-.6 3.51-.47 7.06-.89 10.61-1.28s7.3-.71 11-1.14a4.12 4.12 0 0 1 1.31 0 1.36 1.36 0 0 1 1.13.74 2.73 2.73 0 0 1 .14.78c.68 14.34 10 26.71 22.07 33.92 16.7 10 40.22 9.75 57.32.63 12.27-6.56 18.48-19.15 17.91-32.81 71.3 8.84 152.46 36.36 202 90.06l.21.22a174.76 174.76 0 0 1 32.6 50.12c23 54.48 12.13 122.09-36.47 159-24.79 18.84-54.69 31-85.24 39.87-21.53 6.32-49.83 9.37-68 23.24"/><path d="m554 869.9c-.28-.06-.59-.16-.88-.25"/><path d="m651.71 611.61c17.82 10.78 29.08 36.15 34.43 55.41 7.54 27.13-7.13 50.6-26.83 68.07-9.67 8.59-20.38 15.74-30.88 23.23-19.13 13.68-38.66 26.37-60.43 35.44-3.21 1.34-6.63.85-10 .2-4.26-.8-8.4-2.17-12.71-2.68-4.8-.56-8.89 1.12-13 3.54a79.14 79.14 0 0 0 -16.76 13.35l-62.53.33a64.31 64.31 0 0 1 0 128.62h121.76a64.3 64.3 0 0 0 50.69-103.86"/></g><path d="m470.24 873.92a17.57 17.57 0 0 1 -17.58 17.59 17.59 17.59 0 0 1 0-35.17 17.57 17.57 0 0 1 17.58 17.58z" fill="#d7e8f0"/><g fill="none" stroke="#000" stroke-miterlimit="10" stroke-width="5.32"><path d="m601.57 844.89a28.67 28.67 0 0 1 1.35 9.77 37.08 37.08 0 0 1 -1.54 10c-.32 1.1-.66 2.17-1 3.21-.16.41-.31.78-.47 1.16a32.94 32.94 0 0 0 -2.23 6.47c-.41 2.46.09 4.78 3 5.88a11 11 0 0 0 9.24-1.29c12.64-9.08 11-26.61 6.79-40.72-.94-3.15-2-6.13-3.11-8.8"/><path d="m598 873.86c-1.7 4.4-5 10-9 12.54 0 0-.06 0-.09.06a14 14 0 0 1 -11.88 1c-5.31-2.38-3.81-7.66-1.83-12.09.63-1.36 1.26-2.61 1.8-3.68 4.39-9.18 5.29-18.49 4.25-29.11"/><path d="m575.24 875.34c-1.06 2.63-5.45 9.19-9.76 11.55-3.22 1.77-7.87 1.67-10.77-.68-5.61-4.52-2.47-12.74.09-18.05 4.42-9.18 6.6-20.59 3.92-30.61"/><path d="m515.61 808.17c8.16 0 13.46.27 16 .47a9.54 9.54 0 0 1 3.33.83c18.27 8.81 4.08 41.64.2 49.68-2 4.21-4.69 13.55 1.51 16.34a12.8 12.8 0 0 0 10.74-.88 25.51 25.51 0 0 0 8.52-8.89s0-.06.06-.13"/><path d="m709.31 806.33c1.23 42.17.26 87.14-4.63 131.17"/><path d="m203.88 937.1h635.81"/><path d="m528.73 413.35s10.27 1 17.37-10.85"/></g><path d="m477.59 255.75c0 .19 79.28 1.89 79.28 1.89l-3.81 37.09s-3.6 4.82-19.19 9.63-45.42 7.86-50.9-12.07a149.88 149.88 0 0 1 -5.38-36.54z" fill="#fff"/><path d="m551.42 234.55c24.33-7.67 43.2-33.55 29.72-58.45-12.07-22.3-40.57-27.74-56.92-6.58 0 0-17.73-33.11-47.29-20.11-12.48 5.5-22.3 18.63-25.87 31.6-6.9 25.06 9.73 44.5 33 50.84 0 0 22.67 6.24 33.8-9.13 0 0 5.22 6.43 19.41 9.13" fill="none" stroke="#000" stroke-miterlimit="10" stroke-width="5.32"/><path d="m473.49 227.81 9.54 64.9a11 11 0 0 0 4.7 7.58c7.74 5.15 26.77 13.2 59-.5a11.24 11.24 0 0 0 6.76-9.19l6.1-59.42" fill="none" stroke="#000" stroke-miterlimit="10" stroke-width="5.32"/><path d="m597 878.29c-.18-3.65 2.83-9.22 2.83-9.22a32.56 32.56 0 0 1 -2.83 9.22z" fill="#2e2e2e"/><path d="m678.26 645.35 3.37 2.27-2.31-.22c-.67-1.34-1.06-2.05-1.06-2.05z" fill="#2e2e2e"/><path d="m536.65 875.49c-3.9-1.14-4.54-4.9-3.47-10.22-.5 4.4.35 7.88 3.47 10.22z"/><path d="m535.06 809.55a17.75 17.75 0 0 1 3.76 2.69c-1.35-1.06-2.7-1.91-3.76-2.69z"/><path d="m543.22 835.26a38.19 38.19 0 0 0 1.63-8 27 27 0 0 1 -1.63 8z"/><path d="m550.52 874.1a22.52 22.52 0 0 1 -4.5 1.6c1.98-1.06 3.54-2.24 4.5-1.6z"/><path d="m551.62 878.29c.11 3.83 1.28 6.42 3.09 7.91-3.94-1.88-4-5.61-3.16-8.8a6.3 6.3 0 0 1 .07.89z"/><path d="m568.54 884.6a7.69 7.69 0 0 1 3.34-1.66 29.84 29.84 0 0 1 -5.15 2.87 17.83 17.83 0 0 0 1.81-1.21z"/><path d="m579.43 888.11c-3.58.29-4.29-1.8-4.5-3.68 1.2 1.57 2.16 3.68 4.5 3.68z"/><path d="m595.39 880.91a14.24 14.24 0 0 1 -1.91 2.27 4.58 4.58 0 0 1 1.91-2.27z"/><path d="m598.34 880.91c.64.15 1.38.32 2.27.5a3.33 3.33 0 0 1 -2.27-.5z"/><path d="m625.76 834.87c-2.91 1.39-5.29 2.56-6.85 3.34a2.43 2.43 0 0 1 .82-1c1.63-.99 3.65-2.76 6.03-2.34z"/><path d="m573.4 878.68a3.7 3.7 0 0 1 -.35 1.35c-.05-1.78.39-2.77.35-1.35z" fill="#d7e8f0"/><g fill="none"><path d="m281.93 148.67-2.91 11.25"/><g stroke="#ccdde2" stroke-miterlimit="10" stroke-width="5.32"><path d="m116 353.39-57 4.61a8.36 8.36 0 0 1 -9-7.67 8.37 8.37 0 0 1 7.66-9l60.66-4.93"/><path d="m124.87 335.87h-.03"/><circle cx="360.27" cy="323.9" r="14.87"/><path d="m861.09 935.06v-287.43h72.75a293.91 293.91 0 0 1 12.2 53.6c11.17 86.83 3.33 216.13-84.95 233.83z"/><path d="m861.09 739.39h88.65"/><path d="m861.09 823.92h84.01"/></g></g></svg>