<svg viewBox="0 0 1000 1000" xmlns="http://www.w3.org/2000/svg"><g fill="#3fbdf1"><path d="m437.61 207.8a2.29 2.29 0 0 1 -.13-.27l.06-.06a2.36 2.36 0 0 1 .07.33z"/><path d="m437.85 209a6.4 6.4 0 0 1 -.2-1 1.78 1.78 0 0 1 .2 1z"/><path d="m454.37 718.65v-.1s0 .07 0 .1z"/><path d="m482.77 553.33c-.25.57-.46 1.13-.71 1.72-18.46 44.95-31.34 98.73-34.33 163.09-51.25-125.54-136.27-186.31-212-215.49 1.36-41.95 7.19-114.9 31-159.72 0 0 40.32 9.43 91.07 49.19 40.04 31.37 86.63 81.68 124.97 161.21z"/><path d="m490.33 552.65-1.73-.39c.25-.6.47-1.17.71-1.75.34.7.69 1.49 1.02 2.14z"/><path d="m454.37 718.65v-.1s0 .07 0 .1z"/><path d="m490.33 552.65-1.73-.39c.25-.6.47-1.17.71-1.75.34.7.69 1.49 1.02 2.14z"/><path d="m457.19 840.81c-.49 0-1 0-1.48 0-191.22 0-349.62-144.91-378-334.23-1.91-16.16-2.2-25.81-2.2-25.81s69-7 149 24.49c70.95 27.93 150.57 86.08 198.56 206.2v.09c.29.72.58 1.43.84 2.18 14.34 36.35 25.76 78.34 33.22 126.81.03.09.06.18.06.27z"/><path d="m454.37 718.65v-.1s0 .07 0 .1z"/><path d="m902.32 486.57c-18.27 214.43-192.22 382.8-404.32 383.66.12-9.74 3.17-119.81 69.61-219.6a343.12 343.12 0 0 1 116.45-109.15c1.33-.77 2.62-1.5 4-2.23 1.63-.93 3.3-1.82 5-2.71.43-.25.89-.48 1.36-.73 1.63-.86 3.26-1.72 4.93-2.55.86-.44 1.72-.89 2.62-1.3 1.78-.92 3.6-1.82 5.42-2.68s3.42-1.62 5.15-2.41l.61-.29c1.3-.61 2.59-1.18 3.91-1.75 1.64-.77 3.27-1.47 4.93-2.17 4.84-2.1 9.83-4.1 14.92-6l1.76-.67c2.15-.83 4.31-1.62 6.5-2.39 44-15.6 95.95-25.51 157.15-27.03z"/><path d="m613.65 387.09c-43.33 32.82-92.14 84.55-124.34 163.42-38.31-81.1-84.77-132.42-124.73-164.41 23.6-44 77.09-133.43 125.75-175.26 0 0 73.67 72.77 123.32 176.25z"/><path d="m740.8 505.23c-2.14.75-4.26 1.53-6.38 2.34l-1.72.66c-5 1.87-9.88 3.84-14.63 5.9-1.63.69-3.23 1.37-4.83 2.12-1.3.57-2.57 1.13-3.84 1.72l-.61.28c-1.69.78-3.38 1.56-5 2.38s-3.57 1.71-5.33 2.62c-.87.4-1.72.84-2.56 1.28-1.64.81-3.24 1.65-4.84 2.5-.45.25-.91.46-1.33.71-1.63.88-3.26 1.75-4.87 2.66-1.33.72-2.6 1.43-3.9 2.18a336.74 336.74 0 0 0 -114.29 107.07c-65.16 97.88-68.16 205.86-68.28 215.41l-.15-.28c-7.8-50.68-19.73-94.58-34.73-132.58l1.18-3.87-2.05 1.59s0 0 0-.06c2.93-64.38 15.53-118.21 33.61-163.14l1.69.37-1-2.09c31.59-77.37 79.47-128.11 122-160.3 50.09-37.9 92.79-50.17 92.79-50.17 22.78 28.16 27.98 114.3 29.07 160.7z"/></g><g fill="none" stroke="#ccdde2" stroke-miterlimit="10" stroke-width="3.97"><path d="m452.34 729.35v-.1s0 .06 0 .1z"/><path d="m489.3 551.49c-.26.61-.49 1.21-.75 1.85-19.49 48.46-33.08 106.51-36.25 175.94-54.1-135.43-143.87-201-223.86-232.47 1.43-45.26 7.59-123.95 32.75-172.31 0 0 42.57 10.17 96.16 53.07 42.28 33.84 91.47 88.12 131.95 173.92z"/><path d="m490.38 553.75-1.83-.41c.26-.64.49-1.24.75-1.85.36.74.7 1.51 1.08 2.26z"/><path d="m452.34 729.35v-.1s0 .06 0 .1z"/><path d="m490.38 553.75-1.83-.41c.26-.64.49-1.24.75-1.85.36.74.7 1.51 1.08 2.26z"/><path d="m159.51 715.14c-3.53-4.31-7-8.72-10.34-13.2a457.91 457.91 0 0 1 -86.26-203.65c-2.91-18.11-2.46-29.09-2.46-29.09s77.75-7.88 168 27.61c80 31.48 169.74 97 223.85 232.47v.11c.33.81.67 1.62.94 2.46 16.2 41 29.06 88.32 37.48 143v.31c-.57 0-1.11 0-1.68 0-111.57-.16-213.32-44.66-290.04-117.36-8-7.57-15.79-15.48-23.23-23.67" opacity=".9"/><path d="m452.34 729.35v-.1s0 .06 0 .1z"/><path d="m918.62 469.23c-19.33 226.85-203.33 404.94-427.72 405.85.13-10.3 3.36-126.74 73.63-232.31a363.12 363.12 0 0 1 123.21-115.46c1.41-.81 2.78-1.58 4.21-2.35 1.73-1 3.49-1.92 5.25-2.87.45-.27.94-.5 1.43-.77 1.73-.91 3.46-1.82 5.22-2.69.91-.48 1.82-1 2.77-1.39 1.89-1 3.81-1.91 5.74-2.82s3.61-1.72 5.44-2.56l.65-.31c1.37-.64 2.74-1.24 4.14-1.85 1.73-.81 3.45-1.55 5.21-2.29 5.12-2.22 10.4-4.34 15.78-6.36l1.86-.71c2.28-.87 4.56-1.72 6.88-2.52 46.61-16.54 101.57-26.98 166.3-28.59z" opacity=".9"/><path d="m620.83 378.62c-45.83 34.71-97.47 89.43-131.53 172.87-40.48-85.8-89.67-140.08-131.95-173.92 25-46.57 81.56-141.15 133-185.4.03 0 77.9 76.98 130.48 186.45z"/></g><g fill="#fff"><path d="m189.26 626.44s0 0 0 0a.66.66 0 0 0 0-.2c0-.07 0-.14 0-.27a1.23 1.23 0 0 1 0-.34 4.68 4.68 0 0 0 .14.71.21.21 0 0 1 -.14.1z"/><path d="m189.63 691.09a90.4 90.4 0 0 1 -5.89 14.45c-.68 1.31-1.35 2.59-2.09 3.87a65.52 65.52 0 0 1 -9.23 13.14c-.64-.21-1.28-.48-1.85-.71-.13 0-.24-.1-.34-.14-11.65-5.08-20.4-14.61-23-25.32-2.32-9.43-.23-19.63-4.71-28.48-5.52-10.9-20.4-17.72-22.26-30.04-1.68-11.52 8.69-22.09 7-33.37-1.92-12.77-17.61-20.34-20.51-32.8-1.85-7.74-.2-16.67-.87-24.65a162.13 162.13 0 0 0 -4.52-26.43c1.08-.07 2.16-.1 3.24-.14 22-.37 43.77 12 50.91 29.43 5.76 14.08 2.83 30.34 10.47 43.54a22.39 22.39 0 0 0 1.55 2.46 46.67 46.67 0 0 0 3.23 4l2.43 2.53c.4.4.84.77 1.24 1.21s.84.81 1.25 1.25c3.8 3.63 7.68 7.3 10.2 11.65a8.82 8.82 0 0 1 .61 1.18 7.88 7.88 0 0 1 .6 1.24 13.71 13.71 0 0 1 .58 1.35c.2.5.37 1 .53 1.55.24.81.48 1.58.64 2.39 0 .2 0 .37.07.54s0 .13 0 .2a.46.46 0 0 1 0 .2 2.24 2.24 0 0 0 .07.34v.07a1.43 1.43 0 0 0 .06.37v.27a.66.66 0 0 1 0 .2v.07l-2.59 37.58c1.66 9.09 5.81 18.15 3.18 27z"/><path d="m209.19 599.87c1.69-8.15 1.82-16.7 5.66-24.48 7.14-14.34 28-24.75 49.87-25.42h.4c2 0 4 0 6 .1a122.08 122.08 0 0 0 -4.61 22.86c-.74 6.9 1 14.62-.91 21.25-3.07 10.77-19.4 17.31-21.38 28.32-1.76 9.76 9.05 18.89 7.27 28.82-1.92 10.64-17.41 16.53-23.13 26-4.62 7.65-2.46 16.43-4.85 24.55-2.8 9.26-12 17.51-24.11 21.85-.78.27-1.48.54-2.26.78-.41.1-.88.27-1.28.37-.14-.1-.27-.24-.44-.37-3.91-3.33-8.29-8.95-11.92-15l.27-3.84a90.4 90.4 0 0 0 5.89-14.45c2.63-8.85-1.52-17.91-3-27l2.59-37.58.81-.67a8.09 8.09 0 0 0 .84-.71c4-3.23 8.32-6.33 11.41-10 3.84-4.51 5.63-9.46 6.77-14.65"/><path d="m209.09 600.41c0-.17.07-.33.1-.54"/><path d="m209.19 599.84c0 .21-.07.37-.1.54-1.14 5.19-2.93 10.14-6.77 14.65-3.09 3.67-7.4 6.77-11.41 10a8.09 8.09 0 0 1 -.84.71l-.81.7a.21.21 0 0 0 0-.13 3.44 3.44 0 0 0 -.11-.34 1.23 1.23 0 0 1 0-.34 0 0 0 0 0 0 0v-.07a2.24 2.24 0 0 1 -.07-.34.46.46 0 0 0 0-.2.23.23 0 0 0 0-.2 4.32 4.32 0 0 0 -.11-.54c-.16-.81-.4-1.58-.64-2.39-.16-.51-.33-1.05-.53-1.55a13.71 13.71 0 0 0 -.58-1.35 5 5 0 0 0 -.6-1.24 8.82 8.82 0 0 0 -.61-1.18c-2.52-4.35-6.4-8-10.2-11.65-.41-.44-.84-.88-1.25-1.25s-.84-.81-1.24-1.21l-2.43-2.53a46.67 46.67 0 0 1 -3.23-4s2.24-38.93 22.14-50.71c18.79-11.22 19.39 48.05 19.39 54.62z"/><path d="m209.09 600.41c0-.17.07-.33.1-.54"/><path d="m189.23 626.31v.16s0 0 0 0a.66.66 0 0 0 0-.2c0-.07 0-.14 0-.27a1.23 1.23 0 0 1 0-.34 4.68 4.68 0 0 0 0 .65z"/><path d="m256.58 562.43c-35.87 38.6-52.73 120-59.3 162-.54 3.55-1 6.79-1.44 9.71"/><path d="m259.89 757.79-16.5 97.36a11.4 11.4 0 0 1 -11 9.74h-86.26a11.39 11.39 0 0 1 -11-9.89l-15.22-97.21z"/><path d="m275.56 746.93a11.46 11.46 0 0 1 -11.16 10.86h-148.77a11.45 11.45 0 0 1 -11.15-10.69c-.63-6.94 4.54-13 11.15-13h148.77c6.54.05 11.69 5.9 11.16 12.83z"/><path d="m189.33 626.51a2.05 2.05 0 0 0 -.11-.64z"/><path d="m115.61 534.91c34.43 44.72 50.63 139 57 187.67.54 4.22 1 8.09 1.41 11.55"/><path d="m192.36 582.43c-4.31 13.27-4.52 26.67-4 35.16a73.7 73.7 0 0 0 .87 8.18"/></g><g fill="none" stroke="#ccdde2" stroke-miterlimit="10" stroke-width="3.97"><path d="m189.26 626.44s0 0 0 0a.66.66 0 0 0 0-.2c0-.07 0-.14 0-.27a1.23 1.23 0 0 1 0-.34 4.68 4.68 0 0 0 .14.71.21.21 0 0 1 -.14.1z"/><path d="m189.63 691.09a90.4 90.4 0 0 1 -5.89 14.45c-.68 1.31-1.35 2.59-2.09 3.87a65.52 65.52 0 0 1 -9.23 13.14c-.64-.21-1.28-.48-1.85-.71-.13 0-.24-.1-.34-.14-11.65-5.08-20.4-14.61-23-25.32-2.32-9.43-.23-19.63-4.71-28.48-5.52-10.9-20.4-17.72-22.26-30.04-1.68-11.52 8.69-22.09 7-33.37-1.92-12.77-17.61-20.34-20.51-32.8-1.85-7.74-.2-16.67-.87-24.65a162.13 162.13 0 0 0 -4.52-26.43c1.08-.07 2.16-.1 3.24-.14 22-.37 43.77 12 50.91 29.43 5.76 14.08 2.83 30.34 10.47 43.54a22.39 22.39 0 0 0 1.55 2.46 46.67 46.67 0 0 0 3.23 4l2.43 2.53c.4.4.84.77 1.24 1.21s.84.81 1.25 1.25c3.8 3.63 7.68 7.3 10.2 11.65a8.82 8.82 0 0 1 .61 1.18 7.88 7.88 0 0 1 .6 1.24 13.71 13.71 0 0 1 .58 1.35c.2.5.37 1 .53 1.55.24.81.48 1.58.64 2.39 0 .2 0 .37.07.54s0 .13 0 .2a.46.46 0 0 1 0 .2 2.24 2.24 0 0 0 .07.34v.07a1.43 1.43 0 0 0 .06.37v.27a.66.66 0 0 1 0 .2v.07l-2.59 37.58c1.66 9.09 5.81 18.15 3.18 27z"/><path d="m209.19 599.87c1.69-8.15 1.82-16.7 5.66-24.48 7.14-14.34 28-24.75 49.87-25.42h.4c2 0 4 0 6 .1a122.08 122.08 0 0 0 -4.61 22.86c-.74 6.9 1 14.62-.91 21.25-3.07 10.77-19.4 17.31-21.38 28.32-1.76 9.76 9.05 18.89 7.27 28.82-1.92 10.64-17.41 16.53-23.13 26-4.62 7.65-2.46 16.43-4.85 24.55-2.8 9.26-12 17.51-24.11 21.85-.78.27-1.48.54-2.26.78-.41.1-.88.27-1.28.37-.14-.1-.27-.24-.44-.37-3.91-3.33-8.29-8.95-11.92-15l.27-3.84a90.4 90.4 0 0 0 5.89-14.45c2.63-8.85-1.52-17.91-3-27l2.59-37.58.81-.67a8.09 8.09 0 0 0 .84-.71c4-3.23 8.32-6.33 11.41-10 3.84-4.51 5.63-9.46 6.77-14.65"/><path d="m209.09 600.41c0-.17.07-.33.1-.54"/><path d="m209.19 599.84c0 .21-.07.37-.1.54-1.14 5.19-2.93 10.14-6.77 14.65-3.09 3.67-7.4 6.77-11.41 10a8.09 8.09 0 0 1 -.84.71l-.81.7a.21.21 0 0 0 0-.13 3.44 3.44 0 0 0 -.11-.34 1.23 1.23 0 0 1 0-.34 0 0 0 0 0 0 0v-.07a2.24 2.24 0 0 1 -.07-.34.46.46 0 0 0 0-.2.23.23 0 0 0 0-.2 4.32 4.32 0 0 0 -.11-.54c-.16-.81-.4-1.58-.64-2.39-.16-.51-.33-1.05-.53-1.55a13.71 13.71 0 0 0 -.58-1.35 5 5 0 0 0 -.6-1.24 8.82 8.82 0 0 0 -.61-1.18c-2.52-4.35-6.4-8-10.2-11.65-.41-.44-.84-.88-1.25-1.25s-.84-.81-1.24-1.21l-2.43-2.53a46.67 46.67 0 0 1 -3.23-4s2.24-38.93 22.14-50.71c18.79-11.22 19.39 48.05 19.39 54.62z"/><path d="m209.09 600.41c0-.17.07-.33.1-.54"/><path d="m189.23 626.31v.16s0 0 0 0a.66.66 0 0 0 0-.2c0-.07 0-.14 0-.27a1.23 1.23 0 0 1 0-.34 4.68 4.68 0 0 0 0 .65z"/><path d="m256.58 562.43c-35.87 38.6-52.73 120-59.3 162-.54 3.55-1 6.79-1.44 9.71"/><path d="m259.89 757.79-16.5 97.36a11.4 11.4 0 0 1 -11 9.74h-86.26a11.39 11.39 0 0 1 -11-9.89l-15.22-97.21z"/><path d="m275.56 746.93a11.46 11.46 0 0 1 -11.16 10.86h-148.77a11.45 11.45 0 0 1 -11.15-10.69c-.63-6.94 4.54-13 11.15-13h148.77c6.54.05 11.69 5.9 11.16 12.83z"/><path d="m189.33 626.51a2.05 2.05 0 0 0 -.11-.64z"/><path d="m115.61 534.91c34.43 44.72 50.63 139 57 187.67.54 4.22 1 8.09 1.41 11.55"/><path d="m192.36 582.43c-4.31 13.27-4.52 26.67-4 35.16a73.7 73.7 0 0 0 .87 8.18"/><path d="m752.32 497.82c-2.32.8-4.6 1.65-6.88 2.52l-1.86.71c-5.38 2-10.66 4.14-15.78 6.36-1.76.74-3.48 1.48-5.21 2.29-1.4.61-2.77 1.21-4.14 1.85l-.65.31c-1.83.84-3.65 1.68-5.44 2.56s-3.85 1.85-5.74 2.82c-1 .44-1.86.91-2.77 1.39-1.76.87-3.49 1.78-5.22 2.69-.49.27-1 .5-1.43.77-1.76.95-3.52 1.89-5.25 2.87-1.43.77-2.8 1.54-4.21 2.35a363.12 363.12 0 0 0 -123.21 115.46c-70.27 105.57-73.5 222-73.63 232.31l-.17-.3c-8.41-54.65-21.28-102-37.45-143l1.27-4.17-2.21 1.72s0 0 0-.07c3.17-69.43 16.76-127.48 36.25-175.94l1.83.41c-.36-.75-.72-1.52-1.08-2.26 34.06-83.44 85.7-138.16 131.53-172.87 54-40.88 100.07-54.12 100.07-54.12 24.6 30.4 30.2 123.3 31.38 173.34z"/></g><g fill="#fff"><path d="m755.59 857q-10.76-2.16-21.08-5.16c-28.22-8.25-61-22.33-72.24-51.93a49.63 49.63 0 0 1 6.41-46.28 41.88 41.88 0 0 1 20.4-15.13c17.85-5.77 37.6 3.22 50.84 16.52s21.76 30.42 32.13 46.06c-9.38-21-18.9-42.61-20.19-65.57-1-17.9 3.86-37.31 16.2-50.76 11.36-12.38 37.92-22.07 53.56-13 10.32 6 14.44 18.76 16.21 30.56 4.86 32.29-1.38 65.1-7.59 97.16 4.17-17.14 8.65-34.44 17.15-49.9s21.53-29.12 38.22-34.85c11.69-4 25.57-3.57 35.36 4 9.13 7 13.21 18.93 14.47 30.39 2.1 19.22-2.42 38.71-10.2 56.4-29.03 66.03-109.54 63.49-169.65 51.49z"/><path d="m821.09 824.31s44.75 12.43 60.55-49.77"/><path d="m801.18 718.14c-12.44 28.2 0 112.81 0 112.81"/><path d="m759.71 822.39c-1.87-.32-19.82-2.83-35.12-9.86-11.85-5.44-22.12-13.6-22.12-25.54"/><path d="m728.18 787s-17.49 20.39-3.59 25.54"/><path d="m716.57 831.09c2.49-3.46 15.44 3.48 23.9-12.85"/><path d="m795.65 755.47c-4.42-3.32-16 0-17.7-26.55"/><path d="m797.58 780.35s19.36-7 19.36-22.15"/><path d="m839.19 824.67s10.1-26.07 14.25-37.68"/><path d="m870.55 799.76s11.09 8.79 24.36-5.31"/><path d="m870.55 787s-7.16-3.11-3.84-21"/></g><g fill="none" stroke="#ccdde2" stroke-miterlimit="10" stroke-width="3.97"><path d="m755.59 857c-7.24-1-14.21-3.15-21.08-5.16-28.22-8.25-61-22.33-72.24-51.93a49.63 49.63 0 0 1 6.41-46.28 41.88 41.88 0 0 1 20.4-15.13c17.85-5.77 37.6 3.22 50.84 16.52s21.76 30.42 32.13 46.06c-9.38-21-18.9-42.61-20.19-65.57-1-17.9 3.86-37.31 16.2-50.76 11.36-12.38 37.92-22.07 53.56-13 10.32 6 14.44 18.76 16.21 30.56 4.86 32.29-1.38 65.1-7.59 97.16 4.17-17.14 8.65-34.44 17.15-49.9s21.53-29.12 38.22-34.85c11.69-4 25.57-3.57 35.36 4 9.13 7 13.21 18.93 14.47 30.39 2.1 19.22-2.15 38.84-10.2 56.4-29.5 64.29-110.63 59.43-169.65 51.49z"/><path d="m821.09 824.31s44.75 12.43 60.55-49.77"/><path d="m801.18 718.14c-12.44 28.2 0 112.81 0 112.81"/><path d="m759.71 822.39c-1.87-.32-19.82-2.83-35.12-9.86-11.85-5.44-22.12-13.6-22.12-25.54"/><path d="m728.18 787s-17.49 20.39-3.59 25.54"/><path d="m716.57 831.09c2.49-3.46 15.44 3.48 23.9-12.85"/><path d="m795.65 755.47c-4.42-3.32-16 0-17.7-26.55"/><path d="m797.58 780.35s19.36-7 19.36-22.15"/><path d="m839.19 824.67s10.1-26.07 14.25-37.68"/><path d="m870.55 799.76s11.09 8.79 24.36-5.31"/><path d="m870.55 787s-7.16-3.11-3.84-21"/><path d="m873.6 631.43a147 147 0 0 1 23.77 26.07 106.3 106.3 0 0 1 20.44 59.12"/><path d="m561.73 278.88c18-10.84 36.77-20.47 56.73-27.27 49.77-17 105.26-13.23 144.69 24.08 34.18 32.31 50.34 80.31 53.64 126.31 0 .67.11 1.38.14 2.09 1.51 23.7.27 49.87.1 76.06"/><path d="m169.38 478.7c4.51-28.79-1-55.87-4-85.5-7.72-77.2 16.83-169.57 105.76-181.12 48.32-6.3 87.54 11.75 120.21 46.37 7.34 7.77 14.68 16.9 22.45 25.72"/><path d="m134.7 733.66s-67.35-29.66-60.61-85.39c1.88-15.73 9.29-29.8 18.65-42.73"/></g><path d="m743 770.82q-3.84-2.77-8-5.26c-27.66-16.37-65.35-22.72-96.95-24.62-1.93-.14-3.83-.24-5.71-.32a17.12 17.12 0 0 1 -7.14-1.91 16.57 16.57 0 0 1 -5.82-4.89 183.41 183.41 0 0 0 -5.58-18l-4.44-20a146.93 146.93 0 0 1 -3.89-17.61c-4.6-30.07-8-67.44-9.2-81.43a1.91 1.91 0 0 0 .45.13l13.73 4.4a.88.88 0 0 1 .15 0l4.87 1.43c18.88 5.36 38.69 9.38 58.36 9.81 18.54.39 38.88-2.65 54.72-12.91q2-1.26 3.88-2.7c12.22-9.2 20.71-23.32 25.52-37.65a163.53 163.53 0 0 0 5.55-82.29 145.45 145.45 0 0 0 -6.21-22.22c-7-19.25-17.11-37.29-25.79-56-2-4.36-4.86-8.93-5.21-13.77-.42-5.77 2.54-11.32 3.47-16.93a119 119 0 0 0 1.5-20.39 63.94 63.94 0 0 0 -4.57-23.64c-2.59-6.32-7.19-16.92-15.36-16.53-2.62-8.38-7-18.08-14.71-19.17a7.68 7.68 0 0 0 -5.68 1.38 26.07 26.07 0 0 0 -1.83-2.33c-3.22-3.62-9.31-6.88-14.2-5-9.7 3.84-5.26 17.19-.45 27.32a26 26 0 0 0 -7.54-.5c-5.65.5-12.19 2.78-14.38 8.22-1.19 3-.77 8.41 2.27 10.11 3.86 2.11 8.6.71 12.46 2.69 4.31 2.22 6 8.17 5.37 12.67a8 8 0 0 1 -2 4.76c-6.82 6.82-11.5-12-14.09-15.1-3.52-4.23-8.68-3.46-12.35.11-7.25 7-4.1 21.1-1.06 29.56 3.3 9.26 7.59 19 14.44 26.21 11.39 11.95 12.64 31 15.65 46.41 1.24 6.37 2.43 12.8 3.39 19.22 1.9 12.46 3 25 2 37.58a25.12 25.12 0 0 1 -28.82 23c-8.15-1.24-17.69-2.72-27.85-4.31 0 0 .08-.08.13-.1-13.85-4.71-26.1-5.29-38.29-5.93-34.39-5.32-65.27-10.32-65.27-10.32a3.08 3.08 0 0 1 -2.52-3l-.42-38.18c2.35 2.88 7.45 3.28 10.57 1.61a6.9 6.9 0 0 0 3.73-6.85 12.39 12.39 0 0 0 5.79-1.49 12 12 0 0 0 1.51-1 9.72 9.72 0 0 0 3.23-7 10.15 10.15 0 0 0 -.11-2.19c0-.27-.08-.53-.13-.82-.11-.56-.24-1.11-.4-1.7-.08-.34-.18-.68-.29-1-.26-1-.55-2-.77-3a1.38 1.38 0 0 0 .35 0 17.23 17.23 0 0 0 2.93-.42 15.52 15.52 0 0 0 2.67-.9 14.37 14.37 0 0 0 1.41-.72.57.57 0 0 0 .21-.13 16.22 16.22 0 0 0 2.19-1.61 7.69 7.69 0 0 0 .66-.61 15 15 0 0 0 1.11-1.16 18.72 18.72 0 0 0 1.25-1.64 5.33 5.33 0 0 0 .5-.77 24 24 0 0 0 3-7.22c.05-.24.11-.48.16-.71 2-9.52-1-20.39-9.36-23.94-1.67-.71-7.59-1.4-7.59-3.91a2 2 0 0 1 .08-.53.22.22 0 0 1 0-.11 3.19 3.19 0 0 1 .67-1c.13-.16.31-.32.47-.48.35-.31.74-.6 1.11-.9a11.06 11.06 0 0 0 1.09-.82 5.36 5.36 0 0 0 .42-.39c.26-.29.53-.58.77-.87a9 9 0 0 0 .66-.9c.21-.32.42-.64.61-1a5.83 5.83 0 0 0 .53-1 11.16 11.16 0 0 0 .74-1.85 13.88 13.88 0 0 0 .63-3.23c0-.39 0-.79 0-1.19 0-8.78-7.16-17.87-16.21-18.83a9.72 9.72 0 0 0 -4.33.51 19.31 19.31 0 0 0 -2 .82l-1 .47c-.68.32-1.37.66-2.08 1a5 5 0 0 1 -1.91.48 2.32 2.32 0 0 1 -.45-.06l-.29-.08a1.08 1.08 0 0 1 -.55-.31 1.54 1.54 0 0 1 -.43-.48s0 0 0 0a2.19 2.19 0 0 1 -.19-.58.08.08 0 0 1 0-.08 3.11 3.11 0 0 1 -.07-.71 5.09 5.09 0 0 1 .21-1.46 11.86 11.86 0 0 0 .42-3.17 8.92 8.92 0 0 0 -.08-1.16 14.54 14.54 0 0 0 -.24-1.59 16.78 16.78 0 0 0 -6.56-9.57c-9.17-6.48-26.36-6.51-31.1 5.5-.1.18-.15.37-.23.55-.61-.71-1.22-1.45-1.83-2.19a10.39 10.39 0 0 0 -1.32-.72c-6.35-2.77-15.44-1.58-20.07 3.84-3.84 4.5-5.1 11.45-1.69 16.55a16 16 0 0 0 -7.46-5.34 13.16 13.16 0 0 0 1.4 2.81 12.92 12.92 0 0 0 -.87-1.06c-.24-.27-.48-.51-.72-.74s-.58-.56-.87-.8-.61-.5-.92-.74c-5.95-4.36-14.71-4.81-20.26.64-4.34 4.26-5.24 10.15-3.7 15.86s5.23 9.68 8 14.6c-9.39 2.36-16.9 12.77-13.94 22.53a13.51 13.51 0 0 0 8.41 8.78 14.34 14.34 0 0 0 2.17.37 1.79 1.79 0 0 1 1.58 2.09 9.25 9.25 0 0 0 -.23 2 9.38 9.38 0 0 0 4.54 8 1.72 1.72 0 0 1 .61 2.43 13.12 13.12 0 0 0 -.87 13.67c3.09 6.19 10.66 11.56 17.8 9.44a10.46 10.46 0 0 0 5.63-4.15 2.48 2.48 0 0 0 .37-.5.51.51 0 0 1 .11-.16 12.75 12.75 0 0 0 2-5.1 64.94 64.94 0 0 0 5.89 7.93l1.3 1.45-3.95 24.36-.58 4.39a6.37 6.37 0 0 1 -6.3 5.48c-.87 0-1.77 0-2.64 0-1.77 0-3.52.05-5.26.1-5.29.13-10.56.37-15.82.69-4 .26-7.91.55-11.84.9-2 .16-3.92.34-5.9.55s-3.94.4-5.9.61c-3.83.43-7.69.87-11.53 1.38-4.63.61-9.23 1.24-13.86 1.9-7.24 1.06-14.46 2.22-21.71 3.47-7.06 1.22-14.09 2.49-21.15 3.78-9.92 1.83-19.94 3.36-30 5a18.81 18.81 0 0 1 -21.8-18c-1.13-33 17.56-93.19 17.56-93.19.43-4.68 6-8 9.26-10.66 9.33-7.37 14.84-20.57 18.06-31.68 2.28-7.93 4.44-19.25-2.27-25.75-3.68-3.57-8.84-4.34-12.35-.11-2.59 3.12-7.27 21.92-14.1 15.1a8 8 0 0 1 -2-4.76c-.59-4.49 1-10.44 5.36-12.67 3.86-2 8.6-.58 12.46-2.69 3-1.7 3.46-7.14 2.27-10.11-2.19-5.44-8.72-7.72-14.38-8.22a26 26 0 0 0 -7.54.5c4.81-10.13 9.26-23.48-.45-27.31-4.89-1.93-11 1.32-14.2 4.94a26 26 0 0 0 -1.82 2.33 7.74 7.74 0 0 0 -5.69-1.38c-7.75 1.09-12.08 10.79-14.7 19.18-8.09-.4-12.67 10-15.29 16.31a62.69 62.69 0 0 0 -4.65 22.88 124.76 124.76 0 0 0 1.76 24.94c.66 3.55 1.85 6.93 2.7 10.4.93 3.78-.08 7.53-1.45 11.08-5.37 13.59-12.94 26.31-18.62 39.8a275.16 275.16 0 0 0 -14.76 44.16c-7.06 29.83-8.51 61.46-.26 91.21 15.6 56.22 94.64 37.76 139.92 22 18.93-6.58 32-12.72 32-12.72s.1 4.36.1 11.74v1c-.05 10-.92 89.78-14.36 148.36l-.45.77c.11-.08.32-.08.45.63a9.19 9.19 0 0 1 -8.38 5.34c-32.18-.13-167.69 4.44-142 92 4.81 16.45 17.37 27 35 33.24 14 5 31.21 7.17 50.27 7.33h.13c-37.26 7.06-45.93 62.49-4.36 70.87 16 3.22 28.67-7.14 43.05-11.56a79.65 79.65 0 0 1 25.34-3.22 121.06 121.06 0 0 1 16.68 1.56 849.59 849.59 0 0 0 182.84 9.94c41.33-2.27 83.46-7.46 122.68-21.29 29.56-10.44 62-28.71 76.56-57a69.31 69.31 0 0 0 7.77-32.23c-.04-26.65-12.36-45.61-30.85-58.96z" fill="#fff"/><path d="m119.42 863.88-1.51-1.43" fill="none" stroke="#ccdde2" stroke-miterlimit="10" stroke-width="3.97"/><path d="m613.83 714.36-4.45-20.05a146.47 146.47 0 0 1 -3.88-17.61c-4.6-30.07-8-67.43-9.21-81.42l14.34 4.57-5-11.13s-16.47-55.43 16.48-79.84c-23.83-8.11-42.92-3.94-65.22-9.07-8.59-2-17.66-3.75-27.68-5.39l-7.25-1.27c-.29 19.7-14 24.17-25.28 26.31-27.77 5.32-47-14.94-46.2-32.58-30.83.35-61.3 4.42-91.81 9.6 3.94 11.56 12.24 46.2-11.11 87.16l3-.1c18.93-6.59 32-12.72 32-12.72s.11 4.36.11 11.74v1c-.05 9.94-.92 89.78-14.36 148.35-1 1.91-.22-.44 0 1.68a17.71 17.71 0 0 0 -1.66 5.17l.65-2.59c-3.62 5.19 5.44 11.48 18.53 14.65 34.22 8.36 222.85 23 233.5-12.06a11.54 11.54 0 0 0 .06-6.42 185.29 185.29 0 0 0 -5.56-17.98z" fill="#353642"/><path d="m367.31 927.29a79.88 79.88 0 0 0 -25.31 3.23c-14.39 4.41-27.08 14.78-43.06 11.55-41.57-8.38-32.89-63.81 4.37-70.87 3.57-.08 7.14-.1 10.68-.1h.24c17.16 0 33.88.45 47.6-4.29-1.29 1.19-34.72 30.84 5.48 60.48z" fill="#3fbdf1"/><path d="m521.93 493.11v.05c-.29 19.7-14 24.17-25.28 26.31-27.77 5.32-47-14.94-46.2-32.58" fill="none" stroke="#000" stroke-miterlimit="10" stroke-width="3.97"/><path d="m303.34 871.2c-37.26 7.06-45.94 62.49-4.37 70.87 16 3.23 28.67-7.14 43.06-11.55a79.88 79.88 0 0 1 25.33-3.23 121.21 121.21 0 0 1 16.64 1.61 849.56 849.56 0 0 0 182.84 10c41.33-2.28 83.45-7.46 122.67-21.29 29.57-10.45 62-28.72 76.56-57a69.26 69.26 0 0 0 7.77-32.24c0-26.68-12.35-45.64-30.8-59-2.57-1.85-5.24-3.59-8-5.26-27.66-16.37-65.34-22.72-96.94-24.62-1.93-.13-3.84-.24-5.71-.32a17 17 0 0 1 -7.14-1.9 16.4 16.4 0 0 1 -5.82-4.89 17 17 0 0 1 -3.07-6.61l-2.51-11.4-4.45-20.05-3.9-17.62c-4.6-30.07-8-67.43-9.21-81.42" fill="none" stroke="#000" stroke-miterlimit="10" stroke-width="3.97"/><path d="m651.17 844.31c-12.33 28.19-42.82 18.54-76.32-1.75-20.79-12.59-38.53-14.38-49-14 14.76-1.32 27.66-5.87 31.29-22.56 2.93-13.56-4.71-26-17.93-30 31.78-1.4 64.39 1 90.25 21 .02 0 34.06 19.09 21.71 47.31z" fill="#3fbdf1"/><path d="m539 427.8a1.31 1.31 0 0 1 -.34 0c.31 1.56.9 3.23 1.29 4.89a13.76 13.76 0 0 1 .4 3.84c-.42 6.05-4.71 9.33-10.53 9.49a6.91 6.91 0 0 1 -3.72 6.88c-3.12 1.64-8.23 1.27-10.58-1.62-2.78-3.35-1.4-7.51.29-11.18.61-1.29 1.22-2.51 1.72-3.62.61-1.38 1.14-2.75 1.61-4.15a113.53 113.53 0 0 0 3.86-15.84 120.44 120.44 0 0 0 2.19-16.43c-.37-1.34-.13-3.28-.66-4.68a11.66 11.66 0 0 0 -4-5.42c-3.8-2.8-8.86-2.62-12.9-5.1a21.42 21.42 0 0 1 -8.28-9.55c-.34-.82-.66-1.88-1.14-2.8a3.59 3.59 0 0 0 -.95-1.3c-1.82-1.53-2.88 1.17-4 2.22a11 11 0 0 1 -8.6 2.86 11.39 11.39 0 0 1 -3.39-1 11.66 11.66 0 0 1 -2.19-1.54 9.41 9.41 0 0 0 -2.73-1.85c-1.9-.71-2 2.43-2.27 3.52a6.35 6.35 0 0 1 -3.31 4.44 7.71 7.71 0 0 1 -3.3.79 11.48 11.48 0 0 1 -3.94-.53 13.16 13.16 0 0 1 -3.47-1.61 1.24 1.24 0 0 0 -1.93 1.11c.37 10.34-9.3 13.94-13.27 15a80.06 80.06 0 0 0 11.9 48.63 12.73 12.73 0 0 1 -2.49 5.77c-6.53 1.64-14.07-.14-16.9-5.77-3-6-2.59-14.31 2.07-18.59-3.23-.5-4.13-5.27-2.28-8.07.16-.27.23-.43.13-.69-.4-1.09-5.15-2-6.45-2.4a12.65 12.65 0 0 1 -7.84-8.2c-2.75-9.07 4.23-18.75 12.95-20.94-2.59-4.58-6-8.28-7.45-13.57s-.63-10.79 3.41-14.79a13.62 13.62 0 0 1 12.54-3.38 15.92 15.92 0 0 1 3.38 3.33 12 12 0 0 1 -1.4-2.8 15.83 15.83 0 0 1 7.46 5.34c-3.41-5.1-2.14-12.06 1.69-16.56 4.63-5.42 13.73-6.61 20.07-3.83a11.21 11.21 0 0 1 1.33.71c.6.75 1.21 1.49 1.82 2.2a4.49 4.49 0 0 1 .24-.56 53.75 53.75 0 0 1 3.65 4.16c4.12-11.72 20.49-11.75 29.14-5.64a16 16 0 0 1 4.87 5.58 12.4 12.4 0 0 1 -.11 5.9c-.53 1.85-.11 3.25 1.08 3.65a3.73 3.73 0 0 0 2.65-.34c3.17-1.43 5.79-3.18 9.47-2.78 12 1.27 20.75 16.87 13.64 27.05a12.46 12.46 0 0 1 -1.43 1.77c-1 1-3.25 2.17-3.75 3.6a.15.15 0 0 0 0 .11c-.9 3 5.74 3.67 7.51 4.44 15.68 6.61 12.37 38.85-6.76 39.85z" fill="#3fbdf1"/><g fill="none" stroke="#000" stroke-miterlimit="10" stroke-width="3.97"><path d="m266.4 346.49c-3.73-7.94-1-19.07 3.25-27.48 3.25-6.53.66-17-7.64-18.17-8.62-1.16-13.44 9.71-16.13 16.27a62.65 62.65 0 0 0 -4.66 22.89 125.67 125.67 0 0 0 1.83 24.94c.66 3.54 1.85 6.93 2.69 10.39.93 3.78-.08 7.54-1.45 11.08-5.37 13.59-12.93 26.31-18.62 39.8a276.45 276.45 0 0 0 -14.75 44.16c-7.06 29.83-8.52 61.46-.27 91.21 15.6 56.22 94.65 37.76 139.92 22 18.93-6.59 32-12.72 32-12.72s.11 4.36.11 11.74v1c.06 29.67-1.13 104.22-13.91 148.51a9.13 9.13 0 0 1 -8.83 6.59c-32.18-.13-167.68 4.44-142 91.95 8.68 29.56 42.29 40.19 85.23 40.56h.19c3.49 0 7.06 0 10.68-.1h.24a431.07 431.07 0 0 0 47.65-4.31c55.94-7.88 115.46-24.7 153.91-36.82a37.21 37.21 0 0 1 6.77-1.13c.95-.11 2-.19 3.18-.24h.1c10.45-.42 28.19 1.37 49 14 33.5 20.29 64 29.94 76.32 1.75s-21.73-47.36-21.73-47.36c-25.86-20-58.47-22.37-90.25-21-9.81.43-19.57 1.25-29 2q-56.61 4.51-113.24 9l-49.46 4"/><path d="m279.85 341.19s-5.39-10.89 1.28-27.92c2.75-7 5.92-15.47 4.62-23.14a10.91 10.91 0 0 0 -4.2-7.14 7.69 7.69 0 0 0 -5.69-1.37c-7.74 1.08-12.08 10.79-14.7 19.17"/><path d="m291.11 334.87s-5.12-8.67 1.86-22c1.17-2.22 3.15-5.77 5-9.81 4.82-10.13 9.26-23.48-.45-27.32-4.89-1.93-11 1.32-14.2 4.95a25.82 25.82 0 0 0 -1.82 2.32"/><path d="m298 303a25.66 25.66 0 0 1 7.54-.5c5.66.5 12.19 2.77 14.39 8.22 1.19 3 .76 8.41-2.28 10.1-3.86 2.12-8.59.72-12.45 2.7-4.31 2.22-6 8.17-5.37 12.67a8 8 0 0 0 2 4.76c6.82 6.82 11.5-12 14.09-15.1 3.52-4.23 8.67-3.47 12.35.1 6.72 6.5 4.55 17.81 2.26 25.75-3.21 11.11-8.72 24.31-18 31.67-3.32 2.62-8.84 6-9.26 10.68 0 0-18.69 60.15-17.57 93.18a18.81 18.81 0 0 0 21.79 18c10-1.63 20.06-3.16 30-5 7.06-1.29 14.09-2.56 21.15-3.78 31.39-5.34 62.73-9.49 94.46-9.63a6.35 6.35 0 0 0 6.3-5.47l.6-4.35 3.95-24.41"/><path d="m706.09 351.78c3.73-7.94 1-19.07-3.25-27.48-3.28-6.53-.66-17 7.64-18.17.29 0 .58-.05.85-.05 8.17-.4 12.77 10.21 15.36 16.53a63.91 63.91 0 0 1 4.58 23.64 120.14 120.14 0 0 1 -1.51 20.39c-.92 5.6-3.89 11.16-3.46 16.92.34 4.84 3.2 9.42 5.21 13.78 8.67 18.67 18.82 36.7 25.78 56a145.65 145.65 0 0 1 6.21 22.21 163.52 163.52 0 0 1 -5.5 82.28c-4.82 14.34-13.3 28.46-25.52 37.66q-1.9 1.43-3.89 2.7c-15.84 10.26-36.18 13.3-54.71 12.9-19.68-.42-39.48-4.44-58.37-9.81q-4.95-1.42-9.86-3c-3.44-1.09-6.85-2.2-10.26-3.36-3.57-1.24-7.14-2.49-10.68-3.81"/><path d="m711.33 306.08c-2.62-8.38-7-18.09-14.7-19.17a7.69 7.69 0 0 0 -5.69 1.37 10.91 10.91 0 0 0 -4.2 7.14c-1.3 7.67 1.87 16.13 4.62 23.14 6.67 17 1.27 27.93 1.27 27.93"/><path d="m690.94 288.28c-.56-.82-1.19-1.58-1.82-2.33-3.23-3.62-9.31-6.87-14.21-4.94-9.7 3.83-5.26 17.19-.44 27.32 1.9 4 3.88 7.59 5 9.81 7 13.35 1.85 22 1.85 22"/><path d="m674.47 308.33a26 26 0 0 0 -7.54-.51c-5.66.51-12.19 2.78-14.39 8.23-1.19 3-.76 8.41 2.28 10.1 3.86 2.12 8.59.71 12.45 2.7 4.31 2.22 6 8.17 5.37 12.67a8 8 0 0 1 -2 4.76c-6.82 6.82-11.5-12-14.09-15.1-3.52-4.24-8.67-3.47-12.35.1-7.25 7-4.1 21.1-1.06 29.57 3.31 9.25 7.59 19 14.44 26.2 11.4 12 12.64 31 15.66 46.41 1.24 6.38 2.43 12.8 3.38 19.23 1.9 12.45 3 25 2 37.58a25.13 25.13 0 0 1 -28.83 23c-44.72-6.85-131.27-20.76-131.27-20.76a3.06 3.06 0 0 1 -2.54-3l-.42-38.19"/><path d="m444.82 394.59c-1.83 19.67 5 41.91 17.8 56.57 23.88 27.31 44 0 44 0"/><path d="m525.45 400.69c-.7-1.3-.29-3.65-.89-5.3a11.77 11.77 0 0 0 -4-5.43c-3.82-2.79-8.87-2.62-12.9-5.08a21.62 21.62 0 0 1 -8.3-9.57c-.56-1.26-1-3.18-2.07-4.09-1.83-1.53-2.89 1.16-4 2.22a10.81 10.81 0 0 1 -12 1.86c-1.8-.89-3.05-2.68-4.93-3.39s-2 2.42-2.28 3.52a6.38 6.38 0 0 1 -3.29 4.45c-3.31 1.63-7.83.56-10.71-1.37a1.24 1.24 0 0 0 -1.94 1.12c.45 13-14.95 15.33-14.95 15.33"/><circle cx="466.55" cy="409.26" r="13.94"/><circle cx="502.68" cy="408.02" r="13.94"/><path d="m460.72 410.66s5.62 6.45 11.4 0"/><path d="m497 410.66s5.62 6.45 11.41 0"/><circle cx="486.29" cy="436.5" r="4.91"/><path d="m480.49 409.26s3.16-5.15 8.25-1.24"/><path d="m474.08 388.57s-14.47-11.06-26.6-.63"/><path d="m516.42 382.77s-17.19-6-25.49 7.65"/><path d="m456.3 442.77a11.05 11.05 0 0 1 -7.7 10.37c-7.14 2.11-14.7-3.25-17.8-9.44a13.11 13.11 0 0 1 .88-13.68 1.72 1.72 0 0 0 -.62-2.42 9.37 9.37 0 0 1 -4.54-8.05 9.64 9.64 0 0 1 .22-2 1.78 1.78 0 0 0 -1.58-2.1 14.75 14.75 0 0 1 -2.16-.36 13.53 13.53 0 0 1 -8.41-8.78c-3-9.76 4.55-20.18 13.94-22.53-2.8-4.92-6.51-8.89-8-14.6s-.63-11.61 3.7-15.87c6.75-6.61 18.2-4.55 23.64 2.7-3.67-5.5-2.3-13 1.83-17.82 5-5.82 14.75-7.09 21.58-4.13 3.25 1.43 5.34 4.39 7.56 7 4.44-12.56 22-12.64 31.34-6.06 4.86 3.47 8 9.76 6.45 15.5-.82 2.91.69 4.65 3.73 3.31s5.79-3.18 9.47-2.78c12.74 1.35 21.79 18.8 12.21 28.82-1 1.06-3.25 2.17-3.75 3.6-1.09 3 5.68 3.78 7.48 4.55 15.82 6.64 12.35 39.22-7 39.88.58 2.77 1.9 5.84 1.69 8.7-.42 6.05-4.71 9.33-10.53 9.52a6.9 6.9 0 0 1 -3.72 6.85c-3.12 1.66-8.23 1.27-10.58-1.62-3.76-4.54.1-10.49 2-14.83 2.8-6.35 4.18-13.2 5.45-20a118 118 0 0 0 2.24-17.09v-.24"/><path d="m50 863.88h203.23"/><path d="m764.62 863.88h185.38"/></g></svg>