<svg viewBox="0 0 1000 1000" xmlns="http://www.w3.org/2000/svg"><path d="m209.87 383c-2.8 4.68-8.66 6.66-13.7 7.67-6.44 1.32-13.1 1.67-19.62 2.25l-3.79.93a5.7 5.7 0 0 0 -3.76 7.15 114.52 114.52 0 0 0 9.62 23.22l-6 6c-1.7-2.3-1.78-6.33-4.06-5.94-2.19-2.19-4.79-3.26-7.48-.33-5.26 5.75-4.41 17.7 3.32 21l-1.73 8.61a13.27 13.27 0 0 1 -13 10.69l1.33-10.19c-9 4.55-19.21-5.29-18.5-13.4.46-5.56-.8-9.4-4.91-13.43-.27-.27 1.38-1.27 1.13-1.54-1.16-3.51-1.32-7.61-.17-9.93 2-4.14 7.89-6.56 5.18-11.08a21.63 21.63 0 0 1 -2.57-6.36 21.16 21.16 0 0 1 4.27-17c4-4.8 10.5-3.51 15.81-5.21 6.47-2 9.46-8.93 16.23-11.07 3.37-1.07 6.49-.58 9.86.19 2.85.66 5.67 1.4 8.47 2.28s5.26 1.61 8 .79c3.62-1 6.41-4.38 10.36-4.41a8.82 8.82 0 0 1 5.48 1.75c2.92 5.25 2.94 12.87.23 17.36z" fill="#3fbdf1"/><g fill="none" stroke-width="4.11"><path d="m86.11 518.4s-108.87-120.08 51.46-180a117.86 117.86 0 0 1 28.84-6.62c25.59-2.72 82.16-12.39 88.68-45.05" stroke="#ccdde2" stroke-miterlimit="10"/><path d="m543.13 350.3v-.03" stroke="#ccdde2" stroke-miterlimit="10"/><g stroke="#000"><path d="m257.47 566.51v-.03" stroke-miterlimit="10"/><path d="m172.35 429.42a28.61 28.61 0 0 0 -3.78-5.12c-2.19-2.19-4.79-3.26-7.48-.33-5.26 5.75-4.41 17.7 3.32 21l-1.73 8.61a13.27 13.27 0 0 1 -13 10.69" stroke-linecap="round" stroke-linejoin="round"/><path d="m144.84 502.37c.44-3.34 1.53-12.11 2.58-20.47 1-7.75 1.89-15.21 2.24-17.67l1.34-10.17" stroke-linecap="round" stroke-linejoin="round"/><g stroke-miterlimit="10"><path d="m206.58 402.16s-12.77.63-15.24 11.2"/><path d="m211.22 430.09c3.48-.09 8-.6 9.64-4.13l-8.8-9.71a14.07 14.07 0 0 1 -3.6-8.62c-.35-5.37.28-13.89-4.86-19.56"/></g></g></g><ellipse cx="201.23" cy="414.46" rx="3.89" ry="3.3" transform="matrix(.67055611 -.74185882 .74185882 .67055611 -241.16 285.8)"/><path d="m202.83 493.87-6.63-32.14" fill="none" stroke="#000" stroke-miterlimit="10" stroke-width="4.11"/><path d="m370.9 638.52-42.73 34.94c51.41 78.4 12.5 92.79 12.5 92.79a208 208 0 0 1 -22.83 3.07c-37.16 2.68-75.28-6.91-105.91-28.39-62-43.5-116-130.56-87.2-206.36a121.72 121.72 0 0 1 8.85-18.52 54.82 54.82 0 0 1 11.26-13.68 54 54 0 0 1 58-8.49 53.31 53.31 0 0 1 10.21 6.12c16.19 12.39 30.91 30 43.6 48.48a452.81 452.81 0 0 1 30.35 52.22c2.47 4.93 4.71 9.59 6.69 13.86 17.95-7.26 33-19.59 47-32.91-16.93 31.6 30.21 56.87 30.21 56.87z" fill="#353642"/><g fill="none" stroke="#000" stroke-miterlimit="10" stroke-width="4.11"><path d="m341 664.08c-.82.63-1.67 1.29-2.52 1.92"/><path d="m214.67 531.25q17 32.55 34 65.22c8.55 16.44 23 26.59 43.35 18.8 22.14-8.48 40-24.69 56.52-41.21s33.26-32.32 57.11-36.58c30.83-5.51 60 11.29 81 32.52a10.16 10.16 0 0 1 1.45 12.52 10.19 10.19 0 0 1 -15.24 2.41c-9.95-8.49-26.14-20.77-37.4-20.93"/><path d="m404.74 593.13c3.46 2.31 8.26 4.87 12.26 4.87"/><path d="m449.08 568.21c7.38 3.65 10.07 14.33 4.86 20.71a74.1 74.1 0 0 1 -24.28 19.64c-10.28 5.13-16.88 2-27-4.26"/><path d="m432 577.78s14.62 3.62 14.23 17.81a6.76 6.76 0 0 1 -.32 1.78"/><path d="m421.67 586.72s19.61 12.67 10.28 20.64"/></g><path d="m800.48 636.38c-23.1 63.49-87.77 65.28-95.17 65.28 3.1-6.53 3.94-18-2.85-38.1a39.23 39.23 0 0 0 -.47-45c.09-.08.14-.19.22-.27a54.45 54.45 0 0 0 9.59-1.45c11.16-2.66 33.16-8.5 50.62-16.72 11.84-5.59 25.65 3.37 24.64 16.44 0 .17 0 .33-.06.52a14.35 14.35 0 0 1 13.48 19.3z" fill="#3fbdf1"/><path d="m504.05 785.29c-7.78 13.35-19.89 24.72-31.59 34.64-41.19 34.86-95 52.56-149 53.25-54.18-.69-108.19-18.45-149.57-53-130.75-109.18-107.12-238.09-85.97-297.78a25.5 25.5 0 0 1 3-5.83 20.77 20.77 0 0 1 14.5-8.88c11.1 1.53 21.18 10.74 19.4 25 0 .55-.22 1.31-.27 1.86-28.78 75.8 25.24 162.86 87.2 206.36 28.11 19.73 62.53 29.43 96.73 28.8h.39q4.4-.09 8.79-.41c19.21-1.4 37.88-6 56.37-11.57 21.7-6.49 43.16-14.36 64.84-19.87 7.62-1.94 15.26-3.81 22.94-5.56a50.73 50.73 0 0 1 13.48-.93c26.63 1.8 45.34 25.48 28.76 53.92z" fill="#d7e8f0"/><path d="m510.63 785.29c-7.78 13.35-19.9 24.72-31.6 34.64-42.83 36.28-99.34 54-155.6 53.25-54.18-.69-108.19-18.45-149.57-53-130.72-109.18-107.09-238.09-85.94-297.78a25.5 25.5 0 0 1 3-5.83 20.77 20.77 0 0 1 14.5-8.88c11.1 1.53 21.18 10.74 19.4 25 0 .55-.22 1.31-.27 1.86-28.78 75.8 25.24 162.86 87.2 206.36 28.11 19.73 62.53 29.43 96.73 28.8h.39q7.73.12 15.37-.41c19.21-1.4 37.87-6 56.37-11.57 21.7-6.49 43.16-14.36 64.84-19.87 7.61-1.94 15.26-3.81 22.93-5.56a51.27 51.27 0 0 1 6.91-.93c29.94-2.01 53.26 23.18 35.34 53.92z" fill="#d7e8f0"/><path d="m332.46 873 13.16 18.62s79.63 3.1 123.21 39.68c8.06 6.77 3.24 19.92-7.28 19.92a11.13 11.13 0 0 1 -7.21-2.62c-10.29-8.64-49.6-35.8-138.52-36.62-86.64-.81-119.87 26-129.06 35.77a11.15 11.15 0 0 1 -8.14 3.47h-1.71c-10.8 0-15.37-13.64-6.84-20.26 36.38-28.29 117.93-37.31 117.93-37.31l13.92-21" fill="#353642"/><path d="m684.87 769.75s24.39 23.17 16.78 95a32.06 32.06 0 0 1 -5.2 14.34l-2.65 4a32.42 32.42 0 0 1 -18.45 13.28c-15.93 4.35-44.83 14.43-62.68 33.53-7.54 8.09-1.93 21.27 9.13 21.27a12.5 12.5 0 0 0 10.43-5.56c7.27-10.94 29.28-34.17 82.37-33.68 59.88.55 84 24.36 91.73 34.62a11.5 11.5 0 0 0 9.19 4.62 11.5 11.5 0 0 0 8.39-19.34c-23.35-25.37-51.91-34.83-67.67-38.34a32.47 32.47 0 0 1 -19.61-12.91 32.28 32.28 0 0 1 -5.89-17.34c-.88-22.27-1.34-76.33 13.75-93.47" fill="#353642"/><g fill="none" stroke="#000" stroke-miterlimit="10" stroke-width="4.11"><path d="m374.23 757.76c42.89-20.82 89.44-34.48 135.21-47.34 46.06-12.94 92.57-24.23 139.22-34.84 18.64-4.23 37.45-8 56-12.77"/><path d="m414.47 597.71h.03.02"/><path d="m409.66 595c-2.69 2.66-12.29 16.87-14.7 19.42a494 494 0 0 1 -42.12 40.12c-3.73 3.1-7.68 6.3-11.84 9.54-.82.63-1.67 1.29-2.52 1.92-28.2 21.4-65 42-99 28.8-.9-.33-1.78-.71-2.65-1.1-52.15-23.35-88.6-81.83-91.78-138.28-.11-1.84-.17-3.67-.19-5.48-.28-15.43 2-30.86 16.8-39"/><path d="m124.81 534.35.21-1.64c3.32-26.62-34.48-35.6-43.45-10.31-21.14 59.68-44.78 188.56 86 297.76 84.41 70.51 221.07 71 305.16-.23 11.7-9.91 23.81-21.3 31.6-34.65 19.71-33.76-10.39-60.83-44.34-52.52"/><path d="m332.46 873 13.16 18.62s79.63 3.1 123.21 39.68c8.06 6.77 3.24 19.92-7.28 19.92a11.13 11.13 0 0 1 -7.21-2.62c-10.29-8.64-49.6-35.8-138.52-36.62-86.64-.81-119.87 26-129.06 35.77a11.15 11.15 0 0 1 -8.14 3.47h-1.71c-10.8 0-15.37-13.64-6.84-20.26 36.38-28.29 117.93-37.31 117.93-37.31l13.92-21"/><path d="m288 599.1c33.38-9 47.13-56.09 52.67-87.75"/><path d="m256.62 548.51a54.68 54.68 0 0 0 42.83-31.92 12 12 0 0 0 -.3-10.8c-3.64-6.74-9.07-14.55-7.78-22.63.93-5.7 5.62-9.71 11-11a15.39 15.39 0 0 1 8.3.14 11.35 11.35 0 0 1 7.32 6.41c1.31 3.07-.25 6.11-2.66 8.11s-5.23 2.71-8.17 3.51c-.38.11-1.42.33-2.57.55"/><path d="m704.62 662.79s65.8-13.78 78.16-33.63a27.76 27.76 0 0 0 4.22-12"/><path d="m380.84 628.89c114.77-12.19 244.31-10.39 244.31-10.39h72.7a59.46 59.46 0 0 0 13.95-1.64c11.16-2.66 33.16-8.49 50.62-16.72 11.84-5.59 25.65 3.37 24.64 16.45 0 .16 0 .33-.06.52a14.35 14.35 0 0 1 13.48 19.26c-24.52 67.39-95.86 65.28-95.86 65.28-9.12.27-18.22.63-27.35 1.1-80.43 3.91-160.15 15.2-238.19 35.13-21.68 5.51-43.14 13.37-64.84 19.87-18.5 5.59-37.19 10.16-56.4 11.56-37.16 2.69-75.28-6.91-105.91-28.39-67.09-47.08-124.83-145.24-78.35-224.92 16.41-28.12 53.57-35.82 79.47-16 36.53 27.95 65.71 82.4 80.68 114.52"/><path d="m798.96 769.75h-159.72"/><path d="m607 737.49a32.36 32.36 0 0 1 32.26-32.27h159.74a32.36 32.36 0 0 1 32.27 32.27"/></g><path d="m834.41 748.93a20.76 20.76 0 0 1 -20.83 20.82h-189a18.14 18.14 0 0 1 2.74-36.17h189a20.76 20.76 0 0 1 17.08 8.91 21.07 21.07 0 0 1 1.01 6.44z" fill="#d7e8f0"/><g fill="none" stroke-width="4.11"><g stroke="#000"><g stroke-miterlimit="10"><path d="m834.41 748.93a20.76 20.76 0 0 1 -20.83 20.82h-189a20.83 20.83 0 1 1 0-41.65h189a20.83 20.83 0 0 1 19.82 14.39 21.07 21.07 0 0 1 1.01 6.44z"/><path d="m340.31 510.61-.38 3.21a6 6 0 0 1 -5.95 5.29h-20.77a6 6 0 0 1 -5.95-5.29l-2.68-23c1.15-.22 2.19-.44 2.57-.55 2.94-.8 5.79-1.48 8.17-3.51s4-5 2.66-8.11a11.35 11.35 0 0 0 -7.32-6.41 15.39 15.39 0 0 0 -8.3-.14l-.63-5.48a6 6 0 0 1 5.95-6.66h31.87a6 6 0 0 1 5.94 6.66l-.74 6.25"/><path d="m343.08 487.16-.03.22"/><path d="m341.52 500.37v-.09"/><path d="m341.82 500.37a.82.82 0 0 0 -.27 0 1.67 1.67 0 0 0 -.38 0 5.17 5.17 0 0 0 -.83 10.27 4.26 4.26 0 0 0 1.67 0 10.83 10.83 0 0 0 6.44-3.56 35.45 35.45 0 0 0 4.55-11.87.21.21 0 0 0 0-.13 38.91 38.91 0 0 0 .69-9.4c0-1.35-.17-2.69-.33-4a10.32 10.32 0 0 0 -8.61-8.77c-.11 0-.24 0-.35-.06-4.2-.52-10.09 1.07-11.18 5.81-1 4.28 3.64 7.95 7.45 8.28 0 0 1 .13 2.41.22 2.82.19 7.51.16 10.61-1.48a7.12 7.12 0 0 0 1.28-.85"/><path d="m346.2 487.39h-.69s-5.33 0-5.33 0h-2.35a6.22 6.22 0 0 0 -6.19 5.89 6.24 6.24 0 0 0 5.28 6.48c6.9 1.11 14.78 1.34 16.13-4.84"/><path d="m684.87 769.75s24.39 23.17 16.78 95a32.06 32.06 0 0 1 -5.2 14.34l-2.65 4a32.42 32.42 0 0 1 -18.45 13.28c-15.93 4.35-44.83 14.43-62.68 33.53-7.54 8.09-1.93 21.27 9.13 21.27a12.5 12.5 0 0 0 10.43-5.56c7.27-10.94 29.28-34.17 82.37-33.68 59.88.55 84 24.36 91.73 34.62a11.5 11.5 0 0 0 9.19 4.62 11.5 11.5 0 0 0 8.39-19.34c-23.35-25.37-51.91-34.83-67.67-38.34a32.47 32.47 0 0 1 -19.61-12.91 32.28 32.28 0 0 1 -5.89-17.34c-.88-22.27-1.34-76.33 13.75-93.47"/><path d="m634.17 601.86v1.62c0 11.09-8.94 13-16.66 13.19l-149.41 3.48c-6.55.16-12.06-5.56-12.2-12.72v-.3c0-7 5.16-12.85 11.62-13 0 0 83.59-2.36 148.31-4.14 1.24 3.92 4.24 6.94 8 9.31a18.25 18.25 0 0 0 10.34 2.56z"/><path d="m713.59 443.76a11.74 11.74 0 0 1 -1.22 5.26l-66.82 136.98a12.16 12.16 0 0 1 -8 6.43 12 12 0 0 1 -8.24-.84 12.2 12.2 0 0 1 -6.81-11 13.56 13.56 0 0 1 .12-1.68 12 12 0 0 1 1.1-3.57l66.81-137a12.12 12.12 0 0 1 23 5.35z"/></g><path d="m172.63 430.24c-.08-.28-.19-.55-.28-.82s-.22-.58-.3-.88" stroke-linecap="round" stroke-linejoin="round"/><path d="m172.63 430.25 2.05-2.06 3.92-3.97" stroke-linecap="round" stroke-linejoin="round"/><path d="m195.7 435.67s2.63 7.85 12.68 8.38" stroke-miterlimit="10"/><path d="m151 454.06c-9 4.55-19.21-5.29-18.5-13.4.46-5.56-.8-9.4-4.91-13.43-.27-.27-.52-.55-.76-.82a11.55 11.55 0 0 1 -1.9-12.83c1.87-4.35 5.9-6.9 3.1-11.59a22.35 22.35 0 0 1 -2.66-6.55 21.8 21.8 0 0 1 4.41-17.51c4.12-5 10.83-3.62 16.34-5.37 6.63-2.11 9.73-9.24 16.69-11.43 3.48-1.09 6.71-.6 10.19.19 2.93.69 5.87 1.46 8.72 2.36s5.45 1.67 8.3.82c3.73-1.09 6.6-4.52 10.66-4.55s7.18 2.36 9 5.7c2.88 5.24 2.9 12.86.19 17.38-2.8 4.68-8.66 6.66-13.7 7.67-6.44 1.32-13.1 1.67-19.62 2.25l-3.79.93a5.7 5.7 0 0 0 -3.76 7.12 114.52 114.52 0 0 0 9.62 23.22" stroke-miterlimit="10"/><path d="m178.6 455.21s19.84 14.53 31.15 6.52 4.92-31.49 4.92-31.49" stroke-linecap="round" stroke-linejoin="round"/><g stroke-miterlimit="10"><path d="m318.79 449.93s-8.43-5.7-3.07-11.52-1.78-13.5-1.78-13.5"/><path d="m326.57 450.92s5.58-3.77 2-7.63 1.19-9 1.19-9"/></g></g><g stroke="#ccdde2" stroke-miterlimit="10"><circle cx="365.02" cy="286.68" r="109.92"/><circle cx="365.02" cy="286.68" r="60.37"/><circle cx="365.02" cy="286.68" r="10.35"/><path d="m386.45 252.12-15.98 25.76"/><path d="m365.02 226.31v10.74"/><path d="m425.39 286.68h-10.18"/><path d="m365.02 347.06v-10.44"/><path d="m304.64 286.68h9.18"/></g></g><circle cx="470.37" cy="428.54" fill="#3fbdf1" r="40.9"/><path d="m483.82 414.88a14.31 14.31 0 0 0 -2.3-3.66 10.32 10.32 0 0 0 -13.49-2 10.64 10.64 0 0 0 -4.8 8.15 10.57 10.57 0 0 0 -12 16.39c2.93 3.82 7.91 6.33 12.42 7.79a36.75 36.75 0 0 0 7.27 1.54c1.25.14 8.38 1.1 9 0 4.45-6.96 7.61-19.71 3.9-28.21z" fill="#fff"/><g opacity=".72"><circle cx="572.31" cy="389.09" fill="#3fbdf1" r="22.52"/><path d="m582.08 393.08a7.66 7.66 0 0 0 1.38-1.93 5.68 5.68 0 0 0 -1.79-7.3 5.84 5.84 0 0 0 -5.15-.74 5.82 5.82 0 0 0 -10.86-2.68 14.21 14.21 0 0 0 -1.37 8 20.33 20.33 0 0 0 .74 4c.19.67 1.19 4.5 1.87 4.62 4.47.75 11.63-.3 15.18-3.97z" fill="#fff"/></g><rect fill="#3fbdf1" height="57.92" rx="16.44" transform="matrix(.42751565 -.90400795 .90400795 .42751565 -148.19 804.23)" width="57.92" x="531.9" y="490.15"/><path d="m586.29 524.16-7.75 16.39a14.32 14.32 0 0 1 -19 6.81l-19.66-9.3a14.32 14.32 0 0 1 -6.8-19l.52-1.1c5.34-4.26 14.57-10 17.94-2.19 4.85 11.28 11.16 7.64 19.22 2.92 6.73-3.98 14.81-5.31 15.53 5.47z" fill="#fff"/><circle cx="555.84" cy="500.69" fill="#fff" r="6.05"/><path d="m659.06 421.19a25.39 25.39 0 0 1 2.59 7 26.38 26.38 0 0 1 -8.08 24.79c-2.68 2.37-6.09 4.22-8.8 6.7a13.88 13.88 0 0 0 -4.2 6.43 5.38 5.38 0 0 1 -1 2.35c-1.58 1.7-3.13-1-4.5-1.46a9.47 9.47 0 0 0 -6.73.33 26.27 26.27 0 0 1 -28.9-42.62c4.19-4.27 9.67-7 15-9.78 4.66-2.47 9.3-5.1 14.36-6.58 11.86-3.55 24.52 2.36 30.26 12.84z" fill="#3fbdf1"/><g fill="#fff"><circle cx="611.3" cy="446.38" r="5.7"/><circle cx="626.65" cy="438.17" r="5.7"/><circle cx="641.05" cy="430.47" r="5.7"/></g><path d="m467.26 246.27s37.53 116.08 182 109.81c48-6 105.13 0 156 67 77.33 101.92 46.28 215.46 11.14 287.53" fill="none" stroke="#ccdde2" stroke-miterlimit="10" stroke-width="4.11"/><g opacity=".54"><path d="m676.09 291.86a35.68 35.68 0 0 1 -.81 5.2l-4.5 19.52c-1.38 6-2.93 12.28-7.21 16.66-8 8.16-21.3 6.29-32.42 3.82l-27.3-6.06c-6.27-1.39-12.64-2.82-18.26-5.93s-10.5-8.2-11.8-14.49c-1-4.64.07-9.44 1.09-14.06l4.12-18.74c1.37-6.14 2.91-12.62 7.34-17.09 7.89-7.95 21-6.14 31.9-3.77l27.96 6.08c16.86 3.64 31.23 11.46 29.89 28.86z" fill="#3fbdf1"/><path d="m638.44 292.38a9.09 9.09 0 0 1 -3.53 15.35l-8.32 2.55-8.32 2.55a9.1 9.1 0 0 1 -11.53-10.74l2-8.48 1.95-8.47a9.09 9.09 0 0 1 15.06-4.62l6.37 5.93z" fill="#fff"/></g><path d="m86.48 951.17h863.52" fill="none" stroke="#000" stroke-miterlimit="10" stroke-width="4.11"/></svg>