<svg viewBox="0 0 1000 1000" xmlns="http://www.w3.org/2000/svg" xmlns:xlink="http://www.w3.org/1999/xlink"><clipPath id="a"><path d="m277.14 637.65h227.77v312.19h104.41c3.12-.42-3.11.51 0 0 99.68.16 176.13-76.73 163.68-187.31-11.7-104.14-71.46-174.07-139.74-244.29-30.1-30.94-52.69-106.49-31.93-133.86l5.6-51.53.18-1.1c5.15-33 21.42-61.88 20.25-95.94-1-28.33-9.74-56-23.63-80.64-27.54-48.81-76.32-87.8-131.24-99.17-33.24-6.87-68-8.54-101.38-1.55-98.22 20.63-155.18 131.82-129.49 225.76 9.38 34.39 20.53 68.44 35.56 100.79z"/></clipPath><g clip-path="url(#a)"><path d="m656.4 1203.44v-546.82h250.5v618.5" fill="none" stroke="#ccdde2" stroke-miterlimit="10" stroke-width="4.82"/><g fill="#d7e8f0"><path d="m681.3 707v32h32v-58.73h-32zm5.26-21.48h21.44v21.48h-21.44zm0 26.73h21.44v21.48h-21.44z"/><path d="m737.72 707v32h32v-58.73h-32zm5.28-21.47h21.48v21.47h-21.48zm0 26.73h21.48v21.48h-21.48z"/><path d="m792.6 707v32h32v-58.73h-32zm5.26-21.48h21.48v21.48h-21.48zm0 26.73h21.48v21.48h-21.48z"/><path d="m844.26 680.27v58.73h32v-58.73zm26.74 53.47h-21.49v-21.48h21.49zm0-26.74h-21.49v-21.47h21.49z"/><path d="m681.3 786v32h32v-58.72h-32zm5.26-21.48h21.44v21.48h-21.44zm0 26.73h21.44v21.48h-21.44z"/><path d="m737.72 786v32h32v-58.72h-32zm5.28-21.47h21.48v21.47h-21.48zm0 26.73h21.48v21.48h-21.48z"/><path d="m792.6 786v32h32v-58.72h-32zm5.26-21.48h21.48v21.48h-21.48zm0 26.73h21.48v21.48h-21.48z"/><path d="m844.26 786v32h32v-58.72h-32zm5.25-21.48h21.49v21.48h-21.49zm0 26.73h21.49v21.48h-21.49z"/><path d="m681.3 865v32h32v-58.72h-32zm5.26-21.48h21.44v21.48h-21.44zm0 26.74h21.44v21.48h-21.44z"/><path d="m737.72 865v32h32v-58.72h-32zm5.28-21.47h21.48v21.47h-21.48zm0 26.74h21.48v21.48h-21.48z"/><path d="m792.6 865v32h32v-58.72h-32zm5.26-21.48h21.48v21.48h-21.48zm0 26.74h21.48v21.48h-21.48z"/><path d="m844.26 865v32h32v-58.72h-32zm5.25-21.48h21.49v21.48h-21.49zm0 26.74h21.49v21.48h-21.49z"/><path d="m681.3 944v32h32v-58.72h-32zm5.26-21.48h21.44v21.48h-21.44zm0 26.73h21.44v21.48h-21.44z"/><path d="m737.72 944v32h32v-58.72h-32zm5.28-21.46h21.48v21.46h-21.48zm0 26.73h21.48v21.48h-21.48z"/><path d="m792.6 944v32h32v-58.72h-32zm5.26-21.48h21.48v21.48h-21.48zm0 26.73h21.48v21.48h-21.48z"/><path d="m844.26 944v32h32v-58.72h-32zm5.25-21.48h21.49v21.48h-21.49zm0 26.73h21.49v21.48h-21.49z"/><path d="m681.3 1023v32h32v-58.72h-32zm5.26-21.48h21.44v21.48h-21.44zm0 26.73h21.44v21.48h-21.44z"/><path d="m737.72 1023v32h32v-58.72h-32zm5.26-21.48h21.48v21.48h-21.46zm0 26.73h21.48v21.48h-21.46z"/><path d="m792.6 1023v32h32v-58.72h-32zm5.26-21.48h21.48v21.48h-21.48zm0 26.73h21.48v21.48h-21.48z"/><path d="m844.26 1023v32h32v-58.72h-32zm5.25-21.48h21.49v21.48h-21.49zm0 26.73h21.49v21.48h-21.49z"/></g><path d="m519.3 433.75v-273.53h250.49v496.42" fill="none" stroke="#ccdde2" stroke-miterlimit="10" stroke-width="4.82"/><g fill="#d7e8f0"><path d="m544.2 210.6v32h32v-58.74h-32zm5.26-21.48h21.48v21.48h-21.48zm0 26.73h21.48v21.48h-21.48z"/><path d="m600.63 210.6v32h32v-58.74h-32zm5.25-21.48h21.48v21.48h-21.48zm0 26.73h21.48v21.48h-21.48z"/><path d="m655.51 210.6v32h32v-58.74h-32zm5.25-21.48h21.48v21.48h-21.48zm0 26.73h21.48v21.48h-21.48z"/><path d="m707.16 183.86v58.72h32v-58.72zm26.73 53.47h-21.47v-21.48h21.47zm0-26.73h-21.47v-21.48h21.47z"/><path d="m544.2 289.6v32h32v-58.73h-32zm5.26-21.48h21.48v21.48h-21.48zm0 26.73h21.48v21.48h-21.48z"/><path d="m600.63 289.6v32h32v-58.73h-32zm5.25-21.48h21.48v21.48h-21.48zm0 26.73h21.48v21.48h-21.48z"/><path d="m655.51 289.6v32h32v-58.73h-32zm5.25-21.48h21.48v21.48h-21.48zm0 26.73h21.48v21.48h-21.48z"/><path d="m707.16 289.6v32h32v-58.73h-32zm5.26-21.48h21.47v21.48h-21.47zm0 26.73h21.47v21.48h-21.47z"/><path d="m544.2 368.6v32h32v-58.73h-32zm5.26-21.48h21.48v21.48h-21.48zm0 26.74h21.48v21.48h-21.48z"/><path d="m600.63 368.6v32h32v-58.73h-32zm5.25-21.48h21.48v21.48h-21.48zm0 26.74h21.48v21.48h-21.48z"/><path d="m655.51 368.6v32h32v-58.73h-32zm5.25-21.48h21.48v21.48h-21.48zm0 26.74h21.48v21.48h-21.48z"/><path d="m707.16 368.6v32h32v-58.73h-32zm5.26-21.48h21.47v21.48h-21.47zm0 26.74h21.47v21.48h-21.47z"/><path d="m544.2 447.61v32h32v-58.74h-32zm5.26-21.48h21.48v21.48h-21.48zm0 26.73h21.48v21.48h-21.48z"/><path d="m600.63 447.61v32h32v-58.74h-32zm5.25-21.48h21.48v21.48h-21.48zm0 26.73h21.48v21.48h-21.48z"/><path d="m655.51 447.61v32h32v-58.74h-32zm5.25-21.48h21.48v21.48h-21.48zm0 26.73h21.48v21.48h-21.48z"/><path d="m707.16 447.61v32h32v-58.74h-32zm5.26-21.48h21.47v21.48h-21.47zm0 26.73h21.47v21.48h-21.47z"/><path d="m600.63 526.61v32h32v-58.74h-32zm5.25-21.48h21.48v21.48h-21.48zm0 26.73h21.48v21.48h-21.48z"/><path d="m655.51 526.61v32h32v-58.74h-32zm5.25-21.48h21.48v21.48h-21.48zm0 26.73h21.48v21.48h-21.48z"/><path d="m707.16 526.61v32h32v-58.74h-32zm5.26-21.48h21.47v21.48h-21.47zm0 26.73h21.47v21.48h-21.47z"/></g></g><path d="m275.14 381c-15-32.38-26.15-66.43-35.56-100.82-25.69-93.91 31.27-205.1 129.49-225.69 33.37-7 68.14-5.32 101.38 1.55 54.91 11.33 103.7 50.32 131.25 99.13 13.89 24.6 22.67 52.31 23.64 80.64 1.17 34.06-15.1 62.95-20.25 95.94l-.18 1.1" fill="none" stroke="#ccdde2" stroke-miterlimit="10" stroke-width="4.82"/><path d="m607.28 949.84c3.11-.42-3.12.51 0 0 99.72.16 176.13-76.73 163.72-187.31-11.71-104.14-71.46-174.07-139.75-244.29-30.09-30.94-52.68-106.49-31.93-133.86" fill="none" stroke="#ccdde2" stroke-miterlimit="10" stroke-width="4.82"/><path d="m225.65 550.49c0 2.12.07 4.24.13 6.32 1.22 37.19 10.05 61.64 15.38 73.19a34.52 34.52 0 0 1 -1.76-15.39 102.79 102.79 0 0 1 1.67-10.5 107.69 107.69 0 0 1 27.46-51.78l.13-.12c1.83-1.9 3.24-3.18 4-3.86l.34-.35.35-.28 155.09-147.55a173.51 173.51 0 0 0 1.84-19.17c7.8 1.19 16.34 2.09 25.69 2.7 7.35.45 15.26.71 23.67.74 77.31.26 110.52 12.2 123.4 19.24a4.85 4.85 0 0 0 7.19-4.24v-64.11c-9-4.85-20.1-8.22-33.85-9.41-37.13-3.21-77.92-3-112.73-17.92-26-11.15-49.47-33.41-76-44.65-13-5.49-26.6-8.32-41.63-6-16.83 2.63-31 10.15-43 20.46-.16.12-.29.29-.45.41-13.71 11.92-24.54 27.43-32.92 43.3-26.43 49.94-42.17 114.08-43.55 171.25v.64c0 2.57-.06 5.11-.06 7.65z" fill="#2e2e2e"/><path d="m321.28 146.47v15.13h110.29v-15.13a31.74 31.74 0 0 0 -.19-3.56 35.26 35.26 0 0 0 -35.14-31.7h-39.7a35.24 35.24 0 0 0 -35.26 35.26z" fill="#2e2e2e"/><g fill="#3fbdf1"><path d="m472.94 610 15.28 38.51h96a10.22 10.22 0 0 0 7.23-3 10.39 10.39 0 0 0 3-7.26 10.24 10.24 0 0 0 -8.16-10l-43.59-8.93-5.78-22.1z"/><path d="m610.16 926.18-31-42v-28.59h-51.29a1.3 1.3 0 0 0 -1.07 2l59.2 85.83a14.84 14.84 0 0 0 12.21 6.41 14.84 14.84 0 0 0 11.95-23.65z"/><path d="m329.44 183.47a99.82 99.82 0 0 1 4.43 29.33c21.68 0 25.76-10.57 24.09-18.92-1.86-9.28.93-22.23 13.87-24.09s9.29 18.53 7.75 42.59a49.33 49.33 0 0 0 2.53 15.22 31.46 31.46 0 0 0 14.3 17.51 41.84 41.84 0 0 0 21.13 5.23s12.65-31.47 3.82-34.07-29.13-25.18-24.51-53c.1-.61.2-1.15.33-1.7h-70.95a66.55 66.55 0 0 0 3.21 21.9z"/></g><g fill="none" stroke="#000" stroke-miterlimit="10" stroke-width="4.82"><path d="m226.17 492.8v.64c0 2.57-.06 5.11-.06 7.65l-.35 49.52c0 2.09.06 4.15.12 6.2"/><path d="m241.17 604.06a96.66 96.66 0 0 0 81.45 44.48h178c16.54 0 24.76 8.22 24.76 18.34v264.12a18.85 18.85 0 0 0 18.85 18.85h65.09"/><path d="m610.16 926.18-31-42v-28.59h-51.29a1.3 1.3 0 0 0 -1.07 2l59.2 85.83a14.84 14.84 0 0 0 12.21 6.41 14.84 14.84 0 0 0 11.95-23.65z"/><path d="m429.17 547.74 20.27 3.05"/><path d="m569.72 571.6c42.33 16.42 67 56.73 61.92 100.25l-21.29 183.74h-85"/><path d="m427.26 494.92 12.3 31 9.86 24.89 23.52 59.19 15.28 38.51h96a10.22 10.22 0 0 0 7.23-3 10.39 10.39 0 0 0 3-7.26 10.24 10.24 0 0 0 -8.16-10l-43.59-8.93-5.78-22.1 39.6-7.1-6.77-18.53-57.4-157c-12-33-56.85-40.09-82.28-15.87l-1.48 1.41-160.7 152.87"/><path d="m331.36 648.54a78.93 78.93 0 0 0 71.56-45.61l26.24-55.17 10.4-21.84"/><path d="m352.17 343.29s12.24 27.82 78.21 37.74q11.7 1.79 25.69 2.7 11 .67 23.67.74c77.31.26 110.52 12.2 123.4 19.24a4.86 4.86 0 0 0 7.2-4.24v-28.3c5.87 3.92 10.18 9.73 13.29 16.32 3.89 8 6 17.24 7.13 25.69a140.6 140.6 0 0 1 1.32 20.14 6.27 6.27 0 0 0 1.83 4.43 6.14 6.14 0 0 0 4.43 1.86 6.27 6.27 0 0 0 6.2-5.23c3-17.7 8.93-75.67-34.2-99.05-9-4.85-20.11-8.22-33.86-9.41-37.12-3.21-77.91-3-112.73-17.92-26.05-11.15-49.49-33.44-76-44.65-12.95-5.49-26.6-8.32-41.63-6-16.83 2.63-31 10.15-43 20.46-13.94 12-24.9 27.68-33.38 43.71-26.43 49.94-42.17 114.08-43.55 171.25v.64c0 2.57-.06 5.11-.06 7.65"/><path d="m382.22 227.8-.09-.2c-1.85-3.68-3-8.61-2.54-15.21 1.52-24.08 5.23-44.46-7.74-42.6s-15.74 14.82-13.85 24.08c1.67 8.36-2.39 19-24.08 18.94"/><path d="m421.36 216.27c1.71-6.26 16.54-5.38 9.89-18.94-3.79-7.74-4-20.93-1.62-35.73"/><path d="m326.23 161.6a67.32 67.32 0 0 0 3.2 21.87 99.25 99.25 0 0 1 4.45 29.34l-.36 17.51a50.31 50.31 0 0 1 -22.19 41 56.76 56.76 0 0 0 -8.7 6.92"/><path d="m379.59 212.39a48.71 48.71 0 0 0 2.54 15.21c8.49 24.28 35.4 22.73 35.4 22.73s12.67-31.46 3.83-34.06-29.13-25.18-24.5-53c.09-.59.21-1.16.33-1.7"/><path d="m431.66 142.9h.18"/><path d="m472.94 610.03 63.94-12.78"/><path d="m610.34 371.17v-35.84"/><path d="m623.65 387.47c-5.66 9.8-4.34 29.62 1.79 29.23 2.12-.16 3.89-1.61 5.34-3.53"/><path d="m431.84 161.6v-15.12a35.28 35.28 0 0 0 -35.31-35.28h-39.7a35.26 35.26 0 0 0 -35.29 35.28v15.12h149.74"/><path d="m402.19 161.6c.7-41.07-22.69-49.46-25.49-50.32a.86.86 0 0 0 -.55 0c-2.8.86-26.19 9.25-25.49 50.32"/></g><path d="m384.33 111a7.91 7.91 0 0 0 -15.81 0z"/><path d="m396.41 245.09-8.64 18.25" fill="none" stroke="#000" stroke-miterlimit="10" stroke-width="4.82"/><path d="m426.88 177s-13.49-2.43-18.63 8" fill="none" stroke="#000" stroke-miterlimit="10" stroke-width="4.76"/><ellipse cx="418.32" cy="188.5" rx="4.16" ry="3.54" transform="matrix(.82055111 -.57157316 .57157316 .82055111 -32.68 272.9)"/><g fill="none" stroke="#000" stroke-miterlimit="10"><path d="m409.4 218.53s5.13 7.23 15.6 4.65" stroke-width="4.76"/><g stroke-width="4.82"><path d="m273.42 547.74s-29.42 23.86-33.93 66.84c-1.86 17.73 9.3 33.95 27.13 33.95h58.49"/><path d="m245.29 637.65s-20.44-31.41-19.52-94"/><path d="m428.55 400.17a173.19 173.19 0 0 0 1.83-19.17"/></g></g><path d="m243.69 607.77s-1.15-2.15-2.52.86-6.94 27.87 10.2 35.11 53.13 3.11 53.13 3.11-42.5-9.02-60.81-39.08z"/></svg>