<svg viewBox="0 0 1000 1000" xmlns="http://www.w3.org/2000/svg"><g fill="none" stroke-width="5.4"><g stroke="#ccdde2" stroke-miterlimit="10"><path d="m182.76 190.4c.33-.39.72-.75 1.08-1.12 70.48-70 184.37-79 275.31-50.44 44.46 13.95 79.34 53.15 121.14 72.6 13.91 6.45 28.57 10.7 44.6 11.14 41.94 1.15 81.11-26.58 122.94-23.39 53.4 4 84.85 58 92.45 106 12.54 79.37-23.78 165.49-69 228.9-24.82 34.84-52.75 67-79.55 100.24-20.79 25.87-34.49 65-7 91.88 36.5 35.67 47.73-43.27 90.76-25.25 107.13 44.85 94.91 141 70.59 182.16-22.2 37.65-65 62.91-108.64 66.48a127 127 0 0 1 -20.82 0"/><path d="m375.85 691.44v.33c0 7.35 32.54 35.38 37.44 40.57"/><path d="m274.6 949.24c-9.87.33-19.2.29-28.06-.07-102.54-12.59-179.67-216.83-59.02-278.83"/></g><path d="m390.9 419.93v-206.93a22.64 22.64 0 0 0 -22.61-22.61h-289a22.64 22.64 0 0 0 -22.56 22.61v410.29a22.6 22.6 0 0 0 22.61 22.57h289a21.32 21.32 0 0 0 8.18-1.57" stroke="#000" stroke-linecap="round" stroke-linejoin="round"/></g><rect fill="#3fbdf1" height="427.84" rx="18.62" width="313.89" x="66.87" y="204.24"/><rect fill="#3fbdf1" height="80.1" rx="9.31" width="280.36" x="85.35" y="237.35"/><circle cx="223.81" cy="262.8" fill="#d7e8f0" r="8.29"/><path d="m200.67 300.29a23.15 23.15 0 1 1 46.29 0z" fill="#d7e8f0"/><g fill="none" stroke="#fff" stroke-miterlimit="10" stroke-width="5.4"><path d="m113.39 353.21h217.99"/><path d="m113.39 374.67h217.99"/><path d="m113.39 512.85h217.99"/><path d="m164.02 533.14h116.73"/></g><path d="m168.63 455.77-17.39 18.48a15.67 15.67 0 1 1 -22.83-21.48l17.38-18.48z" fill="#3fbdf1"/><path d="m186 437.27-17.39 18.5-22.84-21.48 17.4-18.49a15.72 15.72 0 0 1 22.16-.68 15.75 15.75 0 0 1 .67 22.15z" fill="#d7e8f0"/><path d="m253.59 425.23c-.74-3.58 6.6-9.5 9-10.79 8.93-4.68 22.67-1.15 27.56 7.79 11.23 20.5-20.32 49.72-36.61 56.94-1.87-1.5-46.44-34.84-36-56.18s33.46-10.5 36.05 2.24z" fill="#d7e8f0"/><path d="m219.96 461.77h24.29" fill="none" stroke="#fff" stroke-linecap="round" stroke-linejoin="round" stroke-width="5.4"/><path d="m232.1 473.91v-24.29" fill="none" stroke="#fff" stroke-linecap="round" stroke-linejoin="round" stroke-width="5.4"/><path d="m701.21 467.23s-56.1-30.23-92.28-37.54c0 0-.25 5.4-6.27 18.73s-23.78 52.72-23.78 52.72l-26.66-20.25.4 30.19-73.14 78.12-46.23-101.2 6.16-28.47-26.34 10.09-14.07-50.2s-69.36 15.6-129.1 63.67-76.85 123-82.4 187.25 1.12 132 86 154.89c0 0 39.88 10 72.35-3.38 10.12-4.18 24.82-8.08 40.24-11.5l-.5.18s-7 24.29-27.28 37.51c0 0 35.53 27 96.24 38.77s189 18.81 253.66-37.29 67.3-148.59 67.3-148.59 21-178.57-74.3-233.7zm-332.21 157.82a11.23 11.23 0 1 1 11.6-11.28 11.48 11.48 0 0 1 -11.6 11.28zm246.53 102.95c-1.7 8.64-10.81 63.3-33.33 69.72s-44.75-7.54-97.28-2.09c0 0-11.32.43-27 1.83-32.75-38.37.22-93.06.22-93.06s74.44-22.67 109.93-6.31 49.19 21.25 47.46 29.91z" fill="#3fbdf1"/><path d="m678 879.31v70.3c-113.5 0-267.06-.18-378-.32-1.37-36.18-3.53-119.41 5.65-120 11.75-.72 24.18-8.25 38.52 8.87s74.37 47.74 158.46 54.94 155-12.61 170.75-21.18c.01.01 4.62-8.21 4.62 7.39z" fill="#3fbdf1"/><path d="m369 593.22c11.66 0 21.15 9.24 21.15 20.6s-9.49 20.6-21.15 20.6-21.14-9.24-21.14-20.6 9.48-20.6 21.14-20.6m0-7.21c-15.66 0-28.35 12.45-28.35 27.81s12.69 27.81 28.35 27.81 28.35-12.45 28.35-27.81-12.7-27.82-28.35-27.82z" fill="#fff"/><path d="m512.18 460.49-18.18 20.43a5.65 5.65 0 0 1 -8.11-1.08l-12.79-27.52 24.9-19.79z" fill="#3fbdf1"/><path d="m500.65 473.43 7.71 30.97-22.5 28.57-16.8-37.26 12.45-25.24" fill="#3fbdf1"/><path d="m577.23 251.59c-4 .9-7.5 4-10.17 7.31a49.77 49.77 0 0 0 -6.26 10.1s-8.44-36-12-67.23c-1.19-10.16-4.75-15.6-9.08-18.34-8.93-5.66-21 .39-21 .39l-40.1 21.84a65.4 65.4 0 0 1 -24.9 7.78 53.73 53.73 0 0 1 -12.29 0c-22.09-10.92-22.41-54 4.43-54.3a25.82 25.82 0 0 1 2.27 2.41q-.58-1.19-1.08-2.37a27.8 27.8 0 0 1 4.47.5c2.2.43 4.25 2.7 5.62 4.29-7.13-13.84.47-31.28 14.52-36.57 8.54-3.21 18.09-2.6 27-.72 1.41.28 2.81.61 4.22 1 22.34 6.74 41.9 18.45 56.35 38 18.29 24.73 22.86 56.04 18 85.91z" fill="#2e2e2e"/><g fill="none" stroke="#000" stroke-linejoin="round" stroke-width="5.4"><path d="m322.54 625.61c-24.47 109 69.46 90.74 191.52 69.25 43.61-7.67 80.72 11.26 102.22 28.92"/><path d="m399 419.41c-55.47 13.65-120.91 46.76-156.91 91.7-47.13 58.75-57 136.87-55.93 210 1 71.45 75.87 120.8 143.83 105.36"/><path d="m427.73 392.72h.04"/><path d="m622.28 629.63s2 47.29-6 94.15c-3.63 21.39-9.34 42.69-18.25 59.37a28.41 28.41 0 0 1 -24.38 14.85 236.1 236.1 0 0 1 -27.37-1.09c-78.38-7.36-151.84 8.79-205.41 26.54q-5.4 1.77-10.86 3c33.79 30.66 120.72 87.34 285.08 62.76 221-33 151.93-324.83 151.93-324.83-6-31.44-24.74-60.63-47.27-82.74-25.52-25-75-41.53-108.64-52"/><path d="m492.9 374.7s-67.24-12-58.23-91.3c4-35.28 11.71-56.86 19-70"/><path d="m556.58 353.84c12.42-18.56 10.52-43.2 14.42-49.4 6-9.62 30-39.63 15.6-50.44-3.32-2.49-6.49-3-9.37-2.42-9.69 2.16-16.43 17.41-16.43 17.41s-8.43-36-12-67.24-30.09-17.94-30.09-17.94l-40.1 21.83a65.19 65.19 0 0 1 -24.9 7.79 55.1 55.1 0 0 1 -13.76-.11c-31-4-33-62.69 2.56-56 2.2.43 4.25 2.7 5.62 4.29-7.14-13.84.47-31.28 14.52-36.57 8.54-3.21 18.09-2.6 27-.72 27.82 5.87 52.35 18 69.58 41.36 18.3 24.75 22.88 56.06 18 85.93"/><path d="m484.5 300.22h-14.41l.94-11.42 3.85-46.23"/><path d="m471 288.8h-39.58a10.58 10.58 0 0 1 -10.58-10.58v-35.64h66.9v35.64a10.59 10.59 0 0 0 10.59 10.58h39.25a10.59 10.59 0 0 0 10.59-10.58v-35.64h-60.43"/><path d="m484.5 314s10.21 3.6 21.62-13.82"/><path d="m479.07 592.7 74.52-82.7-1.36-29.12 25.77 22.21 33.11-73.41.09-.19a129.76 129.76 0 0 1 -22.53-16.81q-4.75-4.46-9-9.32a129.88 129.88 0 0 1 -9.34-11.94l-2.33-3.29"/><path d="m527.95 478.02-15.34-21.13-16.36-21.56 34.34-20.78 37.44-26.42 11.61 15.23 3.9 5.13-9.47 12.13-73.95 94.92v.04l-13.99 17.39"/><path d="m456.23 466 40-30.64-49.14-49.11-18.62 17.56 57.65 129.19-7.05 59.71-45.81-104.71 6.13-28.46-26.34 10.06-15.29-49.67a130 130 0 0 0 46.57-30.83l2.78-2.88"/><path d="m512.61 460.49-18.21 20.43a5.64 5.64 0 0 1 -8.1-1.08l-12.8-27.52"/><path d="m501.08 473.43 7.72 30.97"/><path d="m481.94 470.47-12.45 25.24"/><path d="m568 388.13-11.42-34.33a37.4 37.4 0 0 1 -11.75 10.67"/><path d="m454.96 353.8-7.85 32.42"/></g><circle cx="509.24" cy="266.14" r="5.26"/><circle cx="463.37" cy="266.14" r="5.26"/><g fill="none" stroke="#000" stroke-linejoin="round" stroke-width="5.4"><path d="m610.23 430s35.38 13.58 3.6 68.49c-10 17.22-15.42 27.42-18.19 33.26"/><path d="m535.16 652.65s-13.83-6.19-13.41-10 28.24-94.8 47.56-106.58 31.7-1.62 31.7-1.62 18.76 10.16 13.11 36.69-40.25 89.9-40.25 89.9l-13.57-4.64"/><path d="m385.6 423.22s-20.1 66-16 164.29"/><ellipse cx="368.99" cy="613.82" rx="30.03" ry="28.91" transform="matrix(.99998806 -.0048869 .0048869 .99998806 -3.01 1.82)"/><path d="m678.04 949.61v-80.03-2.05"/><path d="m300.69 949.32v-120.09-.04"/><path d="m157.22 949.07s59.34.11 142.79.22c111 .14 264.53.32 378 .32 87.48 0 151.11-.18 153-.54"/></g><circle cx="539.55" cy="653.73" fill="#fff" r="7.31"/><circle cx="556.66" cy="655.15" fill="#fff" r="7.31"/><circle cx="789.44" cy="204.24" fill="#3fbdf1" r="120.62"/><path d="m789 50a154.24 154.24 0 0 0 -133.57 77.12 154.18 154.18 0 0 0 0 154.23 154.24 154.24 0 0 0 133.57 77.12 154.24 154.24 0 0 0 133.57-77.12 154.23 154.23 0 0 0 0-154.23 154.24 154.24 0 0 0 -133.57-77.12z" fill="#3fbdf1"/><g fill="#fff"><path d="m824.79 165.15-4.12-2.9 41.81-59.99 4.12 2.9z"/><path d="m738.72 262.65h21.17v13.37h-21.17z" transform="matrix(.57314745 -.81945226 .81945226 .57314745 99.13 728.97)"/><path d="m831.87 180.85-57.1 81.63c-3 4.35-8.09 6.08-11.29 3.85l-16.22-11.33c-3.19-2.23-3.29-7.56-.25-11.92l57.1-81.63c3-4.35 8.09-6.09 11.29-3.85l16.22 11.34c3.19 2.22 3.29 7.55.25 11.91z"/><path d="m762 300.7a9.54 9.54 0 0 1 -4.55 3.59 5 5 0 0 1 -4.67-.42l-37-25.91c-2.6-1.82-2.66-6.22-.19-9.75a9.56 9.56 0 0 1 4.57-3.61 5.1 5.1 0 0 1 4.65.45l37 25.91c2.55 1.81 2.63 6.19.19 9.74z"/></g><circle cx="838.98" cy="434.29" fill="#d7e8f0" r="43.23"/><circle cx="825.07" cy="422.85" fill="#fff" r="13.91"/><circle cx="145.79" cy="827.04" fill="#d7e8f0" r="43.23"/><circle cx="705.17" cy="396.28" fill="#d7e8f0" r="21.61"/><circle cx="134.89" cy="814.76" fill="#fff" r="13.91"/><circle cx="861.02" cy="836.38" fill="#d7e8f0" r="21.61"/><circle cx="697.47" cy="391.07" fill="#fff" r="7.7"/><circle cx="852.03" cy="831.91" fill="#fff" r="5.37"/><circle cx="351.62" cy="124.66" fill="#d7e8f0" r="21.61"/><circle cx="348.34" cy="122.74" fill="#fff" r="7.7"/><circle cx="795.76" cy="646.42" fill="#fff" r="80.04"/><circle cx="795.76" cy="646.42" fill="#3fbdf1" r="61.64"/><path d="m795 633.94c-.73-3.58 6.6-9.5 9.05-10.79 8.94-4.68 22.67-1.15 27.57 7.79 11.22 20.5-20.33 49.73-36.61 56.94-1.88-1.5-46.45-34.84-36-56.18s33.41-10.49 35.99 2.24z" fill="#fff"/></svg>