<svg viewBox="0 0 1000 1000" xmlns="http://www.w3.org/2000/svg"><g fill="none" stroke="#ccdde2" stroke-miterlimit="10" stroke-width="5.21"><path d="m725.21 671.77a35.82 35.82 0 0 1 -3.64-.62"/><path d="m235.72 288.51s-39.72-196.67 140.6-235.02a154.61 154.61 0 0 1 32.3-3.49c34.47 0 66.15 12.73 92.65 38.31 15.35 14.85 25.93 33 37.36 50.44 7.17 11 14.73 21.7 24 31.22 25.62 26.31 60.33 37.5 94.08 50 29.68 10.93 58.6 22.89 79.88 47 27.08 30.64 55 62.93 69.31 101.86a303.19 303.19 0 0 1 13.54 50.17c7.75 42.5 8.06 85.91-1.34 128.14-10.16 45.71-36.7 88.75-71.6 119.73"/><path d="m755.5 610.91-9.79 54.75a6.63 6.63 0 0 1 -6.54 5.47h-51.17a6.65 6.65 0 0 1 -6.56-5.56l-9-54.66z"/><path d="m764.81 604.8a6.65 6.65 0 0 1 -6.63 6.11h-88.28a6.64 6.64 0 0 1 -6.61-6 6.64 6.64 0 0 1 6.61-7.29h88.28a6.66 6.66 0 0 1 6.63 7.18z"/><path d="m716.8 597.61c0-2.8 7.13-37.73 1.22-68.71-3.24-17-10.41-32.79-24.82-41.44"/><path d="m718 528.9s1.63-23.53 22-25.16"/><path d="m720.18 564.81a31.84 31.84 0 0 1 19.82-5.72"/><path d="m720.18 548.1s-14.77-17.5-38.38-3.66"/><path d="m709.78 541.06s-33.27-30.4-39.78 10.7c0 0 9.36 6.11 23.2 0s16.58-10.7 16.58-10.7z"/><path d="m725.34 510.91s-1.21-13.68 14.66-18.16 24.83 14.25 24.83 14.25-12.23 13.52-39.49 3.91z"/><path d="m729 559.07s-.54-13.83 17.91-11 21.44 18.59 21.44 18.59-30.23 11.08-39.35-6.16"/><path d="m706.78 500.25c0 1-13.88-1.24-14.76-1.5-6.72-2-11.49-6.66-14.63-12.82-1-1.91-6.56-12.62-5-14.48.02 0 33.03-10.62 34.39 28.8z"/></g><path d="m617.73 344.47-29.3 32.75h-20.1l-30.45 19.45a45.71 45.71 0 0 0 -35.93 8.74c-13.31 10-54.32 50.54-75.12 55-5-11.93-11.43-23.32-15-28.38l145.5-70 6.67-17.56 42.19-17z" fill="#d7e8f0"/><path d="m402.32 671.29-61.17-.46a114.8 114.8 0 0 1 -59.33-17 178.35 178.35 0 0 0 37.35-4h2.61c14.34-.61 27-10.32 35.32-22s13.35-25.35 19.48-38.36 13.89-25.85 25.93-33.71c1.15-.76 2.34-1.45 3.53-2.11a465.86 465.86 0 0 1 54.57-.3c-16.22 7.65-73.02 40.09-58.29 117.94z" fill="#3fbdf1"/><path d="m469.82 510.78s-6 18.27 13.05 25.43 17.32-.28 17.3 12.47c0 0 3.84 5.52-4.08 5.7s-39.57-4.78-51.56-3.2-34 .61-12.6-5.68 35.37-16.66 37.89-34.72z" fill="#3fbdf1"/><path d="m357.91 447.47a18.88 18.88 0 0 1 9.35 6c4.46 5 11.75 10.8 12.9 25.88s7.33 19.76 8.69 21.06.36 6-8.56 5.17-34.9-4.9-33.75-35.39c0-.04-.78-17.46 11.37-22.72z" fill="#2e2e2e"/><path d="m321.47 650.48a178.35 178.35 0 0 1 -37.35 4c-.16-.12-.35-.19-.5-.31a190.78 190.78 0 0 1 -31.22-3.37c-41.23-7.87-149.57-181.41-57.53-235.1 0 0 2.8-.85 7.63-2 5.26 6.67 12.58 11.88 22.17 15.07a49.38 49.38 0 0 0 -9.43 11.12c-7.18 11.51-8.94 25.62-8.48 39.2.92 28.76 10.89 56.53 23.74 82.3 14.65 29.42 33.75 57.49 60.44 76.67 9.06 6.44 19.48 12.04 30.53 12.42z" fill="#d7e8f0"/><path d="m251.78 277.35s-.5 2.42 5.78 2.87 32.93 1.66 35.81 31-12.56 66.3-3.52 68.52 28.66 7.4 34.46 3.8 38-24.25 74.14-10.28c0 0 5.7 5.58 5.84-10.2s2.21-41.32-8.66-37.82-18-2.41-21.15 11.42-30.92 1.83-30.92 1.83-17.48-14.49-26.95-42.49-33.61-27.5-41.47-26.37-23.36 7.72-23.36 7.72z" fill="#2e2e2e"/><g fill="none" stroke="#000" stroke-linecap="round" stroke-linejoin="round" stroke-width="5.21"><path d="m664.93 890c-6.83-3.72-6.68-9-10.55-13.65l-5.63 11.91a14.6 14.6 0 0 0 6.25 14.8l53.6 45.11a10.65 10.65 0 0 0 16.6-8.82 10.27 10.27 0 0 0 -.57-3.42l-106.43-316.29a70.08 70.08 0 0 0 -35.36-40.5c-29.84-14.8-89.84-33.53-171.39-26.4"/><path d="m654.38 876.38c-37.55-51.32-92-136.46-102.49-169.22-11-34.13-41.84-35.47-71.64-34.74l-136.8-1a114.77 114.77 0 0 1 -59.83-17.26"/><path d="m577.13 576.42c-.23-28.76-.08-87 .07-133 .12-38.81-44.29-61.44-75.28-38-13.46 10.12-28.38 20.52-44.53 38.08"/><path d="m505.18 508.69s-8.18 22.94-4.18 46.37"/><path d="m387.7 371.47h-.11c-30.14-5.45-52 3.33-66.92 14.69"/><path d="m202.5 413.66c-4.83 1.18-7.63 2-7.63 2-92 53.69 16.3 227.23 57.53 235.1a190.78 190.78 0 0 0 31.22 3.37c24.58.69 40.69-3.57 40.69-3.57"/><path d="m267.74 461.71 56.57 118.89 12.22-16.3-51.41-102.59z"/><path d="m297.73 486.87 52.73-25.35v-.04l16.8-8.05"/><path d="m537.85 396.67 30.49-19.45h20.1l29.3-32.75-11.54-16.99-42.19 16.99-6.71 17.53-145.51 70.03"/><path d="m429.2 462.36 28.19-18.87"/><path d="m383.33 493.04-15.41 10.32-46.37 31.03"/><path d="m433.61 402.11c-.73-23.2-10.28-46.52-19.67-67.42a119.59 119.59 0 0 0 -5.45-10.69"/><path d="m367.92 285.83c8.09 23.55 19.25 67.65-14.85 57-46-14.38-22.05-84.87-85.33-72.14a1.83 1.83 0 0 1 -.42.07.14.14 0 0 0 -.08 0h-.08"/><path d="m246.57 281.07c24.81-3.87 66.5 1.88 38.54 96.11"/><path d="m402.85 375.11a121 121 0 0 0 -1.76-49.86"/><path d="m499.88 539.1s-33.82-.68-32.14-20.24"/><path d="m467.17 552.17s-79.7 29.11-62.54 119.7"/><path d="m357.91 447.47a25 25 0 0 0 -9.82 13.2 36.07 36.07 0 0 0 17.45 41.85c6.79 3.45 14.39 4.06 21.21 1.07a18.86 18.86 0 0 0 3.45-2"/><path d="m457.38 443.49a198.39 198.39 0 0 1 9.62 28.15 6.39 6.39 0 0 1 .27 1c.39 1.5.73 3 1.08 4.56.38 1.81.76 3.57 1.11 5.37.08.58.19 1.15.27 1.73a1 1 0 0 1 0 .31c.07.42.15.84.23 1.3.07.73.19 1.5.34 2.3a.63.63 0 0 0 0 .27"/><path d="m343.55 392c12-11.46 27.81-20.74 44-20.55h.11c1.27 0 2.61.07 3.88.23 10.81 1.15 20 8.32 27.76 15.91a167.12 167.12 0 0 1 23.9 29.31"/><path d="m469.78 484.3a1 1 0 0 1 0 .31c.07.42.15.84.23 1.3 1.61 12.77 1.53 24.55-3.95 36.36-4.64 10-15 16.3-24.93 20.09-12.16 4.65-25.43 6.91-36.32 14-12 7.86-19.79 20.71-25.93 33.71s-11.12 26.66-19.48 38.36-21 21.4-35.32 22c-12 .46-23.4-5.45-33.18-12.46-26.69-19.18-45.79-47.25-60.44-76.67-12.85-25.77-22.82-53.54-23.74-82.3-.46-13.58 1.3-27.69 8.48-39.2a49.38 49.38 0 0 1 9.43-11.12"/><path d="m404.63 671.87h-243.32"/><path d="m781.66 671.87h-145.74"/></g><g fill="#3fbdf1"><path d="m460.53 219.86v59.46a29.12 29.12 0 0 1 -18.06 27c-14.23 5.8-33.07 12.32-64.22 13.43v-42.4c8.46 3.39 18.22 1.23 25-4.88 1.45-1.3 2.87-2.56 4.2-3.67 5.21-4.51 9.44-7.42 11.57-6.61 4.42 1.63 5 1.63 7.72-12.69 2-10.31 18.68-21.71 22.7-40.66a40.09 40.09 0 0 0 .68-12 51.93 51.93 0 0 0 -3.49-14.33 71.77 71.77 0 0 0 -11-19l8.65 8.86c.8.84 1.57 1.67 2.28 2.54 10.61 12.38 13.97 28.34 13.97 44.95z"/><path d="m449.85 206.52c-.1.8-.25 1.58-.4 2.32-1.92-.13-7.41.64-13.71 4.29a0 0 0 0 0 0 0 40.4 40.4 0 0 0 -11.46 9.87c-4.81 6-27.91 32.17-47.08 53.81l-7.1 8a10.78 10.78 0 0 1 -16.5-.44l-47.17-59.1a19.67 19.67 0 0 1 2.32-26.86l42.55-38 1.7-1.41c.83-.61 1.66-1.2 2.48-1.77 26.59-16.82 52.74-15.06 72-2.09l8.18 8.39a71.77 71.77 0 0 1 11 19c3.59 9.17 4.24 17.07 3.19 23.99z"/><path d="m435.64 163.54-8.18-8.39-.46-.47a.64.64 0 0 1 .19.13l.77.68a64 64 0 0 1 7.47 7.78c.06.09.15.18.21.27z"/></g><path d="m378.25 277.35a11.28 11.28 0 0 1 -1.05-.5" fill="none"/><path d="m433 159.31a.59.59 0 0 1 .19.13 64.68 64.68 0 0 1 8.24 8.46c.06.09.16.18.22.27z" fill="#3fbdf1"/><g fill="none" stroke="#000" stroke-linecap="round" stroke-linejoin="round" stroke-width="5.21"><path d="m357.13 299.48c5-5.65 12.23-13.77 20-22.63 19.24-21.64 42.34-47.85 47.15-53.85 10-12.35 22.11-14.39 25.17-14.2"/><path d="m377.17 276.85a11.28 11.28 0 0 0 1.05.5c8.46 3.39 18.22 1.23 25-4.88 7.13-6.42 13.09-11.3 15.77-10.28 4.42 1.63 5 1.63 7.72-12.69 2-10.31 18.68-21.71 22.7-40.66 1.57-7.48 1.2-16.12-2.81-26.31a72 72 0 0 0 -11-19c-.07-.09-.16-.18-.22-.27a64.68 64.68 0 0 0 -8.24-8.46.64.64 0 0 0 -.19-.13c-21.06-17.87-52.67-21.08-84.1 2.5-.56.44-1.11.9-1.64 1.36l-42.54 38a19.63 19.63 0 0 0 -2.32 26.83l60.73 76.07"/><path d="m421.74 226.62s4.24-.63 8.49 3.23"/></g><ellipse cx="418.9" cy="234.8" rx="4.61" ry="2.89" transform="matrix(.65117168 -.75893046 .75893046 .65117168 -32.07 399.83)"/><g fill="none" stroke="#000" stroke-linecap="round" stroke-linejoin="round" stroke-width="5.21"><path d="m427 154.68 8.65 8.86 8.64 8.86c12.38 12.69 16.24 29.71 16.24 47.46v66.93a29.12 29.12 0 0 1 -18.06 27c-14.23 5.8-33.07 12.32-64.22 13.43v-49.87"/><path d="m407.44 268.79s-6.93 2.33-9-6.93"/><path d="m321.75 255.17-8.46 10.22a7.05 7.05 0 0 1 -6.16 2.5c-5.78-.56-11.57-.82-17.34-.82-87.25 0-144.55 158.05-47.94 164.92 94.69 6.71 132.32 2.57 139 51.77 1.57 11.59 8.59 23 21.74 18.57 16.38-5.49 26.77-25.28 24.17-41.92-2.65-16.92-15.42-31.07-28.35-41.35-25.42-20.13-56.53-28.68-87.75-35-10.12-2-42.3-4.68-32.1-22.06"/></g><g fill="#d7e8f0"><path d="m416.06 530.16h-2.74v-3.4h2.74a3.5 3.5 0 0 0 3.5-3.5v-23.33l24.56-10.52v26a7 7 0 0 1 -7 7h-3.21v-3.41h3.21a3.59 3.59 0 0 0 3.59-3.59v-20.85l-17.71 7.62v21.08a6.91 6.91 0 0 1 -6.94 6.9z"/><circle cx="411.53" cy="528.46" r="3.69"/><circle cx="434.01" cy="521.09" r="3.69"/></g><g fill="#3fbdf1"><g opacity=".54"><path d="m641.1 320.66-4.25 1.78-2.22-5.29 4.26-1.78a5.9 5.9 0 0 0 3.16-7.72l-16.15-38.57 4.38.07c.74 0 18.22.47 29.1 15l-4.59 3.44c-6.06-8.07-14.73-11-20-12.06l12.54 30a11.64 11.64 0 0 1 -6.23 15.13z"/><circle cx="632.95" cy="320.97" r="6.21"/></g><g opacity=".46"><path d="m498 355.87h-4.63v-5.75h4.63a5.93 5.93 0 0 0 5.92-5.92v-39.45l41.53-17.75v44a11.84 11.84 0 0 1 -11.83 11.82h-5.43v-5.82h5.43a6.07 6.07 0 0 0 6.07-6.07v-35.26l-30 12.88v35.65a11.68 11.68 0 0 1 -11.69 11.67z"/><circle cx="490.32" cy="352.99" r="6.23"/><circle cx="528.35" cy="340.53" r="6.23"/></g><path d="m682.23 402.14-1.9 2.24-2.78-2.38 1.9-2.24a3.75 3.75 0 0 0 -.43-5.29l-19.08-16.2 8.45-27.41 21.27 18.06a7.52 7.52 0 0 1 .87 10.58l-2.24 2.63-2.78-2.37 2.23-2.62a3.85 3.85 0 0 0 -.44-5.43l-17-14.48-6.11 19.81 17.24 14.64a7.41 7.41 0 0 1 .8 10.46z"/><circle cx="677.69" cy="404.67" r="3.95"/><circle cx="687.28" cy="381.15" r="3.95"/><path d="m756.43 459.61-5.55-1.86 2.32-6.91 5.55 1.87a7.49 7.49 0 0 0 9.49-4.71l15.92-47.32 57-4.59-17.75 52.77a15 15 0 0 1 -19 9.41l-6.41-2.19 2.32-6.91 6.52 2.2a7.71 7.71 0 0 0 9.74-4.83l14.23-42.3-41.24 3.32-14.39 42.77a14.79 14.79 0 0 1 -18.75 9.28z"/><circle cx="748.39" cy="453.07" r="7.89"/><circle cx="799.05" cy="453.47" r="7.89"/><path d="m625.27 467-3.08-1.7 2.11-3.83 3.08 1.7a4.5 4.5 0 0 0 6.11-1.76l15.4-27.91 2 2.66c.34.45 8.34 11.11 4.84 24.46l-4.23-1.12a25.14 25.14 0 0 0 -2.26-17.65l-12 21.67a8.88 8.88 0 0 1 -11.97 3.48z"/><circle cx="621.23" cy="462.26" r="4.74"/><path d="m541.77 487.73-4.19 2-3.17-6.73a16.49 16.49 0 0 1 -6.51 2 11.54 11.54 0 0 1 -10.09-4.38c-2.11-2.58-3.44-6-4.06-10.5-1.22-8.78.54-17.47 2.86-24.9l-2.61-5.58c-.76-1.6-2-4.28-1-7a6 6 0 0 1 9.64-2c3 3.18 1.27 7.87.52 9.87-.51 1.39-1 2.86-1.54 4.39l7.21 15.32c4-2.81 9.58-1.92 13.05 2.06 3.18 3.64 3.35 8.66.46 13.42a19.64 19.64 0 0 1 -4 4.67zm-22.14-36.12a48.19 48.19 0 0 0 -1.29 17.85c.5 3.61 1.5 6.29 3.06 8.19a7 7 0 0 0 6.17 2.69 12.23 12.23 0 0 0 4.87-1.54l-4.08-8.67c-.08.42-.15.86-.2 1.31l-4.61-.54a20.45 20.45 0 0 1 2-6.8zm11.21 12.91 5.38 11.48a14.26 14.26 0 0 0 2.12-2.69c.86-1.41 2.59-5 0-8-1.63-1.86-4.57-3-6.9-1.3a4.27 4.27 0 0 0 -.6.51zm-13-30.78a.89.89 0 0 0 -.5.47c-.31.84.28 2.22.86 3.45l.58 1.24c.63-1.71 1.37-4.1.46-5.06a1.16 1.16 0 0 0 -1-.2 1.55 1.55 0 0 0 -.41.1z" opacity=".56"/><path d="m729.19 363.14-5-3.65 5.83-8a22 22 0 0 1 -6.45-6.36 15.37 15.37 0 0 1 -1.31-14.58c1.67-4.11 4.84-7.85 9.68-11.43 9.49-7 20.77-10.49 30.93-12.52l4.82-6.58c1.4-1.91 3.73-5.09 7.54-5.67a7.94 7.94 0 0 1 8.5 10c-1.79 5.54-8.39 6.49-11.2 6.9-2 .28-4 .6-6.11 1l-13.32 18.19c5.82 2.88 8.35 10 5.91 16.56-2.24 6-8 9.44-15.41 9.08a26.27 26.27 0 0 1 -8-1.71zm28.12-48.88c-7.47 2-15.12 5-21.68 9.86-3.9 2.88-6.39 5.75-7.62 8.79a9.26 9.26 0 0 0 .78 8.92 16.11 16.11 0 0 0 4.89 4.71l7.54-10.29q-.81.27-1.65.6l-2.3-5.73a27.14 27.14 0 0 1 9.19-2zm-7.95 21.32-9.93 13.57a20 20 0 0 0 4.49.77c2.2.1 7.51-.18 9.32-5.06 1.14-3.08.55-7.22-2.88-8.9a6.92 6.92 0 0 0 -1-.38zm27.7-34.81a1.3 1.3 0 0 0 -.87-.29c-1.18.18-2.42 1.75-3.49 3.21l-1.07 1.47c2.4-.34 5.66-1 6.21-2.68a1.58 1.58 0 0 0 -.44-1.34 2.55 2.55 0 0 0 -.34-.37z"/></g></svg>