<svg viewBox="0 0 1000 1000" xmlns="http://www.w3.org/2000/svg" xmlns:xlink="http://www.w3.org/1999/xlink"><clipPath id="a"><path d="m104.18-65s-88.92-88.86-38.93-161.07 166.66-134.18 118.05-251.8 38.33-178.34 123.25-172.51 313.76 58.38 373.01-26.62 307.13 15.59 265.82 315.22-265.82 296.78-265.82 296.78z"/></clipPath><path d="m950 863.68h-128.44v13.7a64.22 64.22 0 1 0 128.44 0z" fill="#d7e8f0"/><path d="m395 249.83-.21-127.31a64.25 64.25 0 0 1 64.21-64.24h426.76" fill="none" stroke="#ccdde2" stroke-miterlimit="10" stroke-width="4.46"/><path d="m821.55 876.41v-12.74-624.38-116.77" fill="none" stroke="#ccdde2" stroke-miterlimit="10" stroke-width="4.46"/><path d="m821.56 224.4h128.44v-101.88a64.22 64.22 0 1 0 -128.44 0v116.77" fill="#d7e8f0"/><g fill="none" stroke="#ccdde2" stroke-miterlimit="10" stroke-width="4.46"><path d="m821.56 224.4h128.44v-101.88a64.22 64.22 0 1 0 -128.44 0v116.77"/><path d="m821.54 863.68v12.74a64.23 64.23 0 0 0 64.23 64.22"/><path d="m488.92 940.65h-29.88"/><path d="m821.56 863.67h128.44v12.74a64.26 64.26 0 0 1 -64.24 64.24h-310.07"/><path d="m749.68 340.7h-103.76"/><path d="m749.68 380.93h-103.76"/><path d="m749.68 421.17h-103.76"/><path d="m749.68 461.4h-103.76"/><path d="m749.68 501.64h-103.76"/><path d="m749.68 541.87h-103.76"/><path d="m749.68 676.28h-103.76"/><path d="m749.68 695.04h-103.76"/><path d="m749.68 713.8h-103.76"/><path d="m749.68 732.56h-103.76"/><rect height="499.08" rx="20.3" width="194.89" x="599.48" y="287.95"/><path d="m645.92 247.84h-82.09"/><path d="m645.92 200.58h-68.84"/><path d="m645.92 224.21h-78.46"/><path d="m645.92 176.94h-92.87"/></g><circle cx="720.72" cy="192.85" fill="#d7e8f0" r="12.71"/><path d="m688.52 244.65a32.21 32.21 0 0 1 64.41 0z" fill="#d7e8f0"/><rect fill="none" height="86.53" rx="9.18" stroke="#ccdde2" stroke-miterlimit="10" stroke-width="4.46" width="86.53" x="677.46" y="169.13"/><path d="m723.86 822 9.42 19.07a3.52 3.52 0 0 0 2.63 1.92l21.09 3.06a3.5 3.5 0 0 1 1.94 6l-15.23 14.85a3.49 3.49 0 0 0 -1 3.1l3.59 21a3.5 3.5 0 0 1 -5.08 3.69l-18.83-9.89a3.48 3.48 0 0 0 -3.26 0l-18.82 9.89a3.51 3.51 0 0 1 -5.09-3.69l3.6-21a3.5 3.5 0 0 0 -1-3.1l-15.28-14.9a3.5 3.5 0 0 1 1.94-6l21-3.06a3.53 3.53 0 0 0 2.64-1.92l9.46-19.02a3.5 3.5 0 0 1 6.28 0z" fill="#d7e8f0"/><g fill="none" stroke="#ccdde2" stroke-miterlimit="10" stroke-width="4.46"><path d="m457.73 869.93h178.98"/><path d="m457.73 895.03h178.98"/><path d="m396 255.6c-5.4 27.7-17.36 150.2-28.09 267.3a10.19 10.19 0 0 1 -1.11.74c-.78.49-1.56 1-2.37 1.43 0 0-.06 0-.1.07a.09.09 0 0 0 -.06 0l-1.46.81-.59.3c-.62.32-1.2.61-1.82.87l-.19.1c-.49.23-1 .46-1.53.65l-.78.36c-.62.23-1.27.49-1.89.71l-1.66.59a6.34 6.34 0 0 0 -.81.26c-.52.16-1 .32-1.56.45-.19.07-.39.1-.58.17-.69.19-1.4.36-2.12.52s-1.3.29-2 .42a1.11 1.11 0 0 1 -.29.07.46.46 0 0 1 -.2 0c-.71.13-1.43.26-2.11.36-.13 0-.26 0-.42.06-.85.13-1.69.23-2.54.29s-1.76.17-2.67.2-1.82.06-2.73.06a56.54 56.54 0 0 1 -12.72-1.39 57.51 57.51 0 0 1 -42.69-41.38c-.22-1-.45-2-.65-3a55.89 55.89 0 0 1 -1.17-11.48 57.36 57.36 0 0 1 -.87 10.05c-.26 1.49-.59 2.93-1 4.39a57.26 57.26 0 0 1 -110.82 0 53.71 53.71 0 0 1 -1.33-6.89 57.22 57.22 0 0 1 -.49-7.55 62 62 0 0 1 -.52 7.74 58.81 58.81 0 0 1 -1.33 6.7 57.36 57.36 0 0 1 -53 42.75c-.81 0-1.62.06-2.43.06a57.23 57.23 0 0 1 -57.17-57.19v-.09h-.13v-54.88a47.73 47.73 0 0 1 47.76-47.76h228.51a11 11 0 0 0 0-22h-94a19.54 19.54 0 0 1 -19.53-19.47v-55.92a19.52 19.52 0 0 1 19.48-19.48z"/><path d="m681.8 940.43-575.39 1.19a19.52 19.52 0 0 1 -19.47-19.46v-393.48a57 57 0 0 0 20.42 3.76c.81 0 1.61 0 2.42-.06a57 57 0 0 0 39.22-17.87"/><path d="m287.63 505.26a57.36 57.36 0 0 0 36 25.76"/><path d="m358.14 861.77h-112.39"/><path d="m124.53 861.17a19.51 19.51 0 0 1 -14.74-18.89v-309.88a57.18 57.18 0 0 0 39.21-17.9"/><path d="m287.63 505.26a57.36 57.36 0 0 0 36 25.76"/><path d="m178 733.65a38.93 38.93 0 0 1 -13-29v-95a39.13 39.13 0 0 1 39-39h89.82a39.13 39.13 0 0 1 39 39v95a39.13 39.13 0 0 1 -39 39h-54.19"/><path d="m575.17 622.15c2.84-6.83 5.58-12.23 7.2-15.27a3.21 3.21 0 0 0 -1.26-4.32l-17.18-7.24a4.39 4.39 0 0 0 -6.55 3.82c0 15-4.3 29.13-19.3 29.13s-19.31-14.13-19.31-29.13v-.65a4.39 4.39 0 0 0 -6.24-4l-17.53 6.51a3.22 3.22 0 0 0 -1.26 4.82l.24.33a91.75 91.75 0 0 1 8.83 91.59l-6.19 13.6a6.31 6.31 0 0 0 5.75 8.92h76.25a6.31 6.31 0 0 0 5.65-9.11l-6.47-13.06a91.74 91.74 0 0 1 -2.63-75.94z"/><path d="m510.93 665.47h57.67"/><path d="m523.93 665.48c.27 9.82.1 35.1-8 54.74"/><path d="m563.53 720.22c-8.09-19.64-8.25-44.92-8-54.74"/><path d="m539.77 720.22v-54.74"/><path d="m303.38 640.21-18.65 10.79-5.15-6.36 4.21 66.75a8.36 8.36 0 0 1 -8.35 8.82h-55.88a8.36 8.36 0 0 1 -8.34-8.9l5-68.66-5.1 6.35-16.67-10.79c0-.13 0-.25 0-.37.71-14.52 15.22-33.66 29.76-33.66h10.33a16.14 16.14 0 0 1 .79 1.79c4.59 12.44 24 12 27.9-.47.14-.46.29-.91.45-1.32h6.53c16.29 0 30.48 19.49 33.08 35.56.05.18.07.33.09.47z"/></g><g fill="#d7e8f0"><path d="m260.58 319.83c-8.34 0-12.93-6.26-12.93-13.72 0-7.82 5.11-14.05 13.37-14.05 8.66 0 13.05 6.43 13.05 13.61 0 8.66-5.19 14.16-13.45 14.16zm.36-5.7c3.47 0 5.5-3.36 5.5-8.22 0-4.63-2.07-8.14-5.58-8.14s-5.59 3.51-5.59 8.18 2.12 8.18 5.59 8.18z"/><path d="m277.89 316.38v-18.6a5.28 5.28 0 0 1 5.29-5.28 5.27 5.27 0 0 1 4.69 2.86l2.79 5.4a76.44 76.44 0 0 1 4.23 9.42h.11a101.24 101.24 0 0 1 -.55-11.3v-3.37a3 3 0 0 1 3-3h.55a3 3 0 0 1 3 3v20.87a3 3 0 0 1 -3 3h-2.7a3 3 0 0 1 -2.68-1.64l-3.75-7.3c-1.48-2.84-3.23-6.47-4.51-9.7h-.16c.2 3.63.28 7.66.28 12v3.61a3 3 0 0 1 -3 3h-.56a3 3 0 0 1 -3.03-2.97z"/><path d="m309 292.5h1.19a3 3 0 0 1 3 3v14.85a3 3 0 0 0 3 3h4.31a3 3 0 0 1 3 3 3 3 0 0 1 -3 3h-11.5a3 3 0 0 1 -3-3v-20.84a3 3 0 0 1 3-3.01z"/><path d="m334.32 296.11v19.67a3.62 3.62 0 0 1 -3.62 3.62 3.62 3.62 0 0 1 -3.61-3.62v-19.67a3.61 3.61 0 0 1 3.61-3.61 3.62 3.62 0 0 1 3.62 3.61z"/><path d="m339.26 316.1v-18.89a4.71 4.71 0 0 1 4.74-4.71h.93a4.7 4.7 0 0 1 4.18 2.55l2.95 5.71a78 78 0 0 1 4.23 9.42h.12a101.16 101.16 0 0 1 -.56-11.3v-3.09a3.29 3.29 0 0 1 3.3-3.29 3.29 3.29 0 0 1 3.29 3.29v18.9a4.71 4.71 0 0 1 -4.71 4.71 4.71 4.71 0 0 1 -4.19-2.56l-3.27-6.38c-1.48-2.84-3.24-6.47-4.51-9.7h-.16c.2 3.63.28 7.66.28 12v3.33a3.3 3.3 0 0 1 -3.3 3.3 3.3 3.3 0 0 1 -3.32-3.29z"/><path d="m381.36 308.54h-4.27a2.47 2.47 0 0 0 -2.47 2.48 2.47 2.47 0 0 0 2.47 2.47h5.43a2.91 2.91 0 0 1 2.91 2.91v.08a2.91 2.91 0 0 1 -2.91 2.92h-12.65a2.48 2.48 0 0 1 -2.48-2.48v-22.34a2.48 2.48 0 0 1 2.48-2.48h12.13a2.91 2.91 0 0 1 2.91 2.91v.09a2.91 2.91 0 0 1 -2.91 2.9h-5a2.35 2.35 0 0 0 -2.35 2.35 2.35 2.35 0 0 0 2.35 2.35h4.39a2.91 2.91 0 0 1 2.91 2.92 2.91 2.91 0 0 1 -2.94 2.92z"/><path d="m397 315.52a3 3 0 0 1 3.75-2.18 15.5 15.5 0 0 0 4 .55c2.48 0 3.67-.84 3.67-2.2s-1.19-2-4.23-3.07c-4.54-1.63-7.58-4.11-7.58-8.1 0-4.75 4-8.42 10.82-8.42a20.62 20.62 0 0 1 4.38.44 2.93 2.93 0 0 1 2.16 3.64 2.92 2.92 0 0 1 -3.49 2.14 13.78 13.78 0 0 0 -3.13-.35c-2.2 0-3.39.79-3.39 2 0 1.36 1.43 1.88 4.82 3.15 4.83 1.8 7 4.36 7 8.11 0 4.62-3.6 8.57-11.46 8.57a21.55 21.55 0 0 1 -5.24-.67 3 3 0 0 1 -2.08-3.53z"/><path d="m421.9 298.57h-.8a3 3 0 0 1 -3-3 3 3 0 0 1 3-3h15a3 3 0 0 1 3 3 3 3 0 0 1 -3 3h-.92a3 3 0 0 0 -3 3v14.76a3 3 0 0 1 -3 3h-1.18a3 3 0 0 1 -3-3v-14.73a3 3 0 0 0 -3.1-3.03z"/><path d="m453.06 319.83c-8.34 0-12.93-6.26-12.93-13.72 0-7.82 5.11-14.05 13.37-14.05 8.66 0 13.05 6.43 13.05 13.61 0 8.66-5.19 14.16-13.45 14.16zm.36-5.7c3.47 0 5.51-3.36 5.51-8.22 0-4.63-2.08-8.14-5.59-8.14s-5.59 3.51-5.59 8.18 2.12 8.18 5.59 8.18z"/><path d="m470.38 295.2a2.59 2.59 0 0 1 2.32-2.59c1.79-.18 4-.31 6.38-.31 4.11 0 7.06.56 9.1 2.11a6.93 6.93 0 0 1 2.63 5.83 7.23 7.23 0 0 1 -4.59 6.51v.12c1.76.79 2.76 2.51 3.43 4.82.29 1 .59 2.13.87 3.23a3.57 3.57 0 0 1 -3.45 4.48h-.07a3.55 3.55 0 0 1 -3.42-2.54c-.3-1-.63-2.21-1-3.69-.72-3.19-1.72-3.87-3.95-3.87h-1.16v6.52a3.57 3.57 0 0 1 -3.47 3.58 3.57 3.57 0 0 1 -3.57-3.58zm7.14 8.91h1.88c2.71 0 4.27-1.31 4.27-3.31s-1.32-3.15-3.71-3.15a12.48 12.48 0 0 0 -2.44.16z"/><path d="m509 308.54h-4.3a2.48 2.48 0 0 0 -2.48 2.48 2.48 2.48 0 0 0 2.48 2.47h5.42a2.91 2.91 0 0 1 2.88 2.91v.08a2.92 2.92 0 0 1 -2.92 2.92h-12.61a2.47 2.47 0 0 1 -2.47-2.48v-21.59a3.07 3.07 0 0 1 3.07-3.08h11.49a2.92 2.92 0 0 1 2.92 2.92v.08a2.91 2.91 0 0 1 -2.92 2.91h-5.06a2.28 2.28 0 0 0 -2.28 2.28 2.27 2.27 0 0 0 2.28 2.27h4.5a2.92 2.92 0 0 1 2.91 2.92 2.91 2.91 0 0 1 -2.91 2.91z"/></g><g fill="none" stroke="#ccdde2" stroke-miterlimit="10" stroke-width="4.46"><path d="m184.61 781.63c3.13-2.54 6.77-4.88 9.29-7.69 7.06-7.9 4.34-18 8.87-26.64 5.51-10.57 22.85-17.95 39.88-17a77.87 77.87 0 0 0 -3.3 15.33c-.5 4.63.71 9.79-.62 14.27-2.17 7.22-13.74 11.59-15.15 19-1.24 6.55 6.42 12.67 5.15 19.33-1.34 7.15-12.33 11.1-16.37 17.42-3.3 5.14-1.75 11-3.46 16.49-2.07 6.6-9.25 12.44-18.66 15.18l-.93.27a43.09 43.09 0 0 1 -8.79-10.34"/><path d="m232.25 738.62c-25.4 25.91-37.35 80.54-42 108.72-.38 2.38-.72 4.56-1 6.52"/><path d="m234.59 869.74-11.69 65.34a7.92 7.92 0 0 1 -7.81 6.54h-61.09a7.94 7.94 0 0 1 -7.83-6.64l-10.77-65.24z"/><path d="m245.7 862.45a7.94 7.94 0 0 1 -7.91 7.29h-105.37a7.94 7.94 0 0 1 -7.9-7.18 7.94 7.94 0 0 1 7.9-8.69h105.37a7.94 7.94 0 0 1 7.91 8.58z"/><path d="m155.31 766.42c9.33 28.27 14.7 59.69 17.44 79.69a8.32 8.32 0 0 0 .88.3 43.41 43.41 0 0 0 6.9-9.18 61.79 61.79 0 0 0 5.63-12.3c2-6.4-1.52-13-2.36-19.5-1-7.89 2-16.19.84-23.85 0-.23-.08-.49-.15-.76 0-.11 0-.27-.08-.42a16.63 16.63 0 0 0 -2.17-5.52c-3.16-5.18-9.3-8.88-13-13.83-6.78-9.14-4.19-20.83-8.53-30.85a25.85 25.85 0 0 0 -5.41-7.89c-7.62-7.84-20.34-12.68-32.91-11.81a105.87 105.87 0 0 1 3.2 17.75c.45 5.38-.69 11.36.57 16.54 2.09 8.38 13.22 13.44 14.55 22 1.22 7.58-6.13 14.71-4.95 22.4 1.33 8.3 11.84 12.88 15.73 20.19 3.16 5.94 1.68 12.8 3.35 19.12a12.13 12.13 0 0 0 .46 1.49s3.09 11.84 17.44 16.11"/><path d="m173.74 853.84c-.26-2.32-.6-4.87-1-7.69-2.74-20-8.11-51.42-17.44-79.69-5.91-17.94-13.41-34.62-22.89-46.28"/><path d="m169.26 761.08s1.67-26.08 15.74-34 13.77 36.53 13.77 36.53"/><path d="m184.61 781.63s-2.88-14.92 2.16-29.59"/><rect height="36.99" rx="15.5" width="271.2" x="86.94" y="399.19"/></g><path d="m497.11 204.63s-39.2.42-64.25 38.07-34.54 83.12-32.94 138.3l-2.79 115.62s41.57 5.45 55.59-13.53c0 0 3.12-15.72 26.51-29.15z" fill="#3fbdf1"/><path d="m469.61 737.83 13.73 12v6.89l-4 1.37s-19 1.95-17.49-1.5 7.76-18.76 7.76-18.76z" fill="#2e2e2e"/><path d="m417.74 856.54-37 83.89h-94a13.2 13.2 0 1 1 0-26.39 59.62 59.62 0 0 0 58.55-48.27l1.8-9.23c.11-.54 70.65 0 70.65 0z"/><path d="m672.4 853-47.69 80.95a13.2 13.2 0 1 1 -22.71-13.41 59.67 59.67 0 0 0 -11.81-74.95c-3.31-2.93-6-5.31-7.52-6.64l49.29-42.39z"/><path d="m682.15 786.87h-199v-273.47h-.05c-2.44-41.48-19.28-47-19.28-47l9-7.11c-25.55-118.34-3-205 21-254.66a247.14 247.14 0 0 1 25.34-41.91c.11-.15.23-.27.32-.41a7.42 7.42 0 0 1 13.32 4.47l.12 32.6c40.81-1.69 64.76 44.76 74.6 78.26 10.45 35.64 10.19 74.63 2.55 110.48a177 177 0 0 1 -13.82 40.55z" fill="#2e2e2e"/><path d="m452.72 166.34-44.33 53.88 16.55-.09-27.2 29.7c-7.63 2.41-50.62 508.24-50.62 508.24h19.13l50.68-260.81a64 64 0 0 1 -19.8-.67l2.87-143.19c2-45.95 20.46-118.87 66.53-141.72l.17-.09c1.11-22.47 6.94-37.19 6.94-37.19-11.89 2.65-20.92-8.06-20.92-8.06z" fill="#2e2e2e"/><g fill="none" stroke="#000" stroke-miterlimit="10" stroke-width="4.46"><path d="m416.93 497.26-69.81 359.28-1.8 9.23a59.62 59.62 0 0 1 -58.55 48.23 13.2 13.2 0 1 0 0 26.39h94l37-83.89 65.34-148.07"/><path d="m483.1 513.41v273.45h199.06l-85.92-358.13"/><path d="m532.89 199.38-38.6 34 38.6-.81 1.11 137.11a80 80 0 0 1 -28.07 61.45l-31.64 27c-36.49-164.58 18.43-260.73 45.17-295.83a7.41 7.41 0 0 1 13.31 4.48l.12 32.6c40.82-1.69 64.77 44.76 74.61 78.26 10.45 35.64 10.18 74.63 2.55 110.48-4.67 21.85-13.21 43.25-26.13 61.59-12.07 17.07-28.06 30.74-43.3 44.94-5.4 5-11 9.78-16.78 14.37l-40.76 31.61"/></g><path d="m523.72 140.22a16.58 16.58 0 0 1 -13.64 7 50.37 50.37 0 0 1 -6.91-.38c-2.67-.35-4.12-1.08-2.29-2.41a13.19 13.19 0 0 0 1.62-1.43 25.47 25.47 0 0 0 6.53-12c1.14-5.05 0-10-3.94-12.71a10.68 10.68 0 0 0 -3.08-1.45 23.69 23.69 0 0 0 -5.46-1c-.93-.06-1.89-.09-2.84-.09-1-6.09-3.28-14.66-7.93-18.23a7.89 7.89 0 0 0 -8.07-.93c-7 2.67-17.39 4.73-22.93 3.66a2.33 2.33 0 0 1 -.64-1.28 50.06 50.06 0 0 1 2.67-5.63 47.9 47.9 0 0 1 3.6-5.37c9.93-12.65 27.29-18.6 43-15.64a37 37 0 0 1 7.32 2.14c7.22 3.86 12.28 10 15.56 17.42 9.01 24.85 3 40.35-2.57 48.33z" fill="#3fbdf1"/><g fill="none" stroke="#000" stroke-miterlimit="10"><g stroke-width="4.46"><path d="m523.78 786.87 58.84 52.13c1.54 1.33 4.21 3.71 7.52 6.64a59.67 59.67 0 0 1 11.86 74.9 13.2 13.2 0 1 0 22.76 13.38l47.64-80.92-40.49-56.41-7-9.69"/><path d="m483.08 750.88-13.47-11.94"/><path d="m452.73 166.33-44.35 53.9 16.55-.1-27.18 29.69c-.45.13-1 2.14-1.75 5.78-5.4 27.7-17.36 150.2-28.09 267.3-11.05 120.44-20.81 235.17-20.81 235.17h19.15"/><path d="m483.08 758.07h-21.88"/><path d="m483.08 513.4c-16.48-.38-24.29-7.26-27.78-15.15-4.9-11.18-1.07-24.3 8.51-31.85l10.51-8.27"/><path d="m452.72 485.33s-27.78 16.84-55.59 11.26l2.87-143.19c2.41-54.14 27.54-145.72 93.84-148.77"/><path d="m486.42 169.42s-38.81 24.33-41-31.55c-.66-17.1.09-37.36 11.18-51.44 9.93-12.66 27.29-18.61 43-15.65 13 2.47 21.28 10.45 25.95 21"/></g><path d="m483.08 513.81a1.76 1.76 0 0 0 0-.41c-2.43-41.48-19.27-47-19.27-47" stroke-width="2.97"/><g stroke-width="4.46"><path d="m472.27 174.7-5.8 36.98"/><path d="m453 91.8c-10.45 12.08 11.93 9.32 24 4.7 10.42-4 14.51 10.37 16 19.28"/><path d="m519.14 144.07v18.65"/></g><g stroke-width="2.97"><ellipse cx="458.53" cy="127.53" rx="6.12" ry="13.97"/><ellipse cx="441.06" cy="127.53" rx="6.12" ry="13.97"/></g></g><ellipse cx="458.53" cy="127.53" rx="6.12" ry="13.97"/><ellipse cx="441.06" cy="127.53" rx="6.12" ry="13.97"/><g fill="none" stroke="#000" stroke-miterlimit="10" stroke-width="4.46"><path d="m464.05 121.51a135.66 135.66 0 0 1 18.61-4.73c6-1 12.72-1.87 18.62-.06 6.42 2 8.42 8 7 14.17a25.67 25.67 0 0 1 -6.49 12.11 13.29 13.29 0 0 1 -1.64 1.45c-3.16 2.32 3.43 2.79 9.2 2.79a16.61 16.61 0 0 0 13.65-7c5.57-8 11.58-23.48 2.55-48.42"/><path d="m498.89 116.14a10.61 10.61 0 0 0 -5.89 10.36"/><path d="m890.91 941.72h-768.51"/></g><g clip-path="url(#a)"><path d="m910.68-367.62c-9.5 15.08-21.54 28.25-37 37.46a86.75 86.75 0 0 1 -29.5 10.91c-23.54 4.13-48.33-1.08-70.12-12a139 139 0 0 1 -20.41-12.5 158 158 0 0 1 -14.13-11.83c-2-1.91-3.95-3.87-5.83-5.91a114.46 114.46 0 0 1 -14.25-18.88 92.88 92.88 0 0 1 -11.87-30.16m237.81 345.53v-430.15h-787v428.22l257.62 1.25 17.79.08 114 .58m-389.39 143.62h1.79l-1.79-2.17z" fill="none" stroke="#ccdde2" stroke-miterlimit="10" stroke-width="5.77"/></g></svg>