<svg viewBox="0 0 1000 1000" xmlns="http://www.w3.org/2000/svg"><path d="m826.64 796.11h-119v12.69a59.5 59.5 0 1 0 119 0z" fill="#d7e8f0"/><g fill="none" stroke="#ccdde2" stroke-miterlimit="10" stroke-width="4.52"><path d="m371.83 867.41a59.22 59.22 0 0 1 -30.33-8.31"/><path d="m312.51 149.2-.19-39.69a59.52 59.52 0 0 1 59.51-59.51h395.3"/><path d="m707.65 807.9v-11.8-578.41-108.18"/></g><path d="m707.65 203.89h119v-94.38a59.5 59.5 0 1 0 -119 0v108.18" fill="#d7e8f0"/><g fill="none" stroke="#ccdde2" stroke-miterlimit="10" stroke-width="4.52"><path d="m707.65 203.89h119v-94.38a59.5 59.5 0 1 0 -119 0v108.18"/><path d="m707.64 796.11v11.8a59.5 59.5 0 0 0 59.5 59.5"/><path d="m399.5 867.41h-27.67"/><path d="m707.65 796.1h119v11.8a59.53 59.53 0 0 1 -59.51 59.51h-287.26"/><path d="m641.07 311.63h-96.13"/><path d="m641.07 348.9h-96.13"/><path d="m641.07 386.18h-96.13"/><path d="m641.07 423.45h-96.13"/><path d="m641.07 460.72h-96.13"/><path d="m641.07 497.99h-96.13"/><path d="m641.07 622.51h-96.13"/><path d="m641.07 639.89h-96.13"/><path d="m641.07 657.27h-96.13"/><path d="m641.07 674.65h-96.13"/><rect height="462.34" rx="20.58" width="180.55" x="501.93" y="262.76"/></g><path d="m531.39 341.88s53.22 92.4 32.38 134.92c0 0-15.31 29.87-49.19 26.9s-16.58-71.22-47.06-89.29 17.26-93 17.73-92.41 46.14 19.88 46.14 19.88z" fill="#fff"/><g fill="none" stroke="#ccdde2" stroke-miterlimit="10" stroke-width="4.52"><path d="m544.94 225.61h-76.04"/><path d="m544.94 181.82h-63.77"/><path d="m544.94 203.72h-72.68"/><path d="m544.94 159.93h-86.03"/></g><path d="m535.65 350.79c-51.76-8.57-66 42.16-66 42.16s15.18 29.24 15.56 30.83c1.3 17.59-14.9 18.56-14.9 18.56l-57.22 12-23.41-36.72s-17.43-117.47-22-117.4-2-1.81-2-1.81c4.5-3.65 2.14-20.83 2.14-20.83-.66-7.34 11.62-10.1 24.17-13.85s6.36 3.93 4.26 13.85-4.39 32 20.62 34.06 27.24-9.58 33.47-20c4.3-7.19 2.16-16.9.44-22.21a180 180 0 0 1 33.64 15.76c1.66 1 3.25 2 4.82 3.15 22.48 15.42 35.17 38.24 46.41 62.45z" fill="#2e2e2e"/><path d="m256.08 500.74s-2.31 1.24 5.45 1.29 96.67-6.42 167.09 31.43c0 0 21.49 11 29.39 27.72 0 0 2.15 2.08 6.44-8.07s14.88-42.34 14.88-42.34 2.81-2.69-3.13-3-78-8.73-108.33-17.34-62.15-12.92-66.43-22.18l1-5.84s-36.95-2.41-37.91 3.59-8.45 34.74-8.45 34.74z" fill="#2e2e2e"/><ellipse cx="420.23" cy="195.89" fill="#d7e8f0" rx="11.6" ry="11.88" transform="matrix(.72896863 -.68454711 .68454711 .72896863 -20.19 340.79)"/><ellipse cx="387" cy="190.81" fill="#d7e8f0" rx="11.61" ry="11.89" transform="matrix(.72896863 -.68454711 .68454711 .72896863 -25.72 316.67)"/><path d="m402.84 246.33s-1.06 5.93-3.29 16.07c-5.51-.1-12.13 5-17.55 4.92-2.3-15.53 1.08-27.53 4.86-35.48 4.14 10.31 10.77 13.6 15.98 14.49z" fill="#3fbdf1"/><path d="m491.77 289.71c-10.82-6.37-21.92-14.4-34.22-17.82l-7-3.18s-.53-1.33-.55-1.35c-1.3-3.63-3.49-8.46-4.1-12.25a45.75 45.75 0 0 1 -.22-13.57c1-6.7 4.55-20.8 10.34-25.11 4.83-3.57 6.75-2.73 9.61-8.45 2-4.08 3-11-.6-14.17-4-3.48-5.86-1.8-10.82-1.46-18.87 1.29-29.2-12.58-35.64-28.43a30.87 30.87 0 0 0 -3.81-7.51c-2-2.55-4.81-3.2-7.08-5.29a3.31 3.31 0 0 1 -1.09-3.55 4.51 4.51 0 0 1 1.24-1.48 38.59 38.59 0 0 1 15.72-8.22 56.6 56.6 0 0 1 28 0 44.69 44.69 0 0 1 23.62 19.25c7.68 13 9.21 26.37 4.29 39.45-5 13.41-10.69 29.16-2.41 42.46 11.03 17.67 17.64 30.06 14.72 50.68z" fill="#3fbdf1"/><g fill="none" stroke="#000" stroke-width="4.52"><g stroke-miterlimit="10"><path d="m410.49 246.07a19 19 0 0 1 -7.65.26c-5.21-.89-11.85-4.18-16-14.49a41.08 41.08 0 0 1 -2-6.49c-2-8.45-2.61-20.19-.79-36.47.35-3.12.83-6.29 1.46-9.45a85.72 85.72 0 0 1 4.74-16.08s0 0 0-.06c5.23-12.65 14.07-23.19 28.51-26.91a56.31 56.31 0 0 1 32.76 1.47 44.69 44.69 0 0 1 23.62 19.25c7.68 13 9.21 26.37 4.29 39.45-5 13.41-10.69 29.16-2.41 42.46 11 17.69 17.64 30.08 14.77 50.7"/><path d="m377.59 267.82c-3.59-20.28 2.53-34.8 7.23-42.47"/><path d="m385.5 179.42s9.49-9.34 19.69 6.18"/></g><path d="m406.6 227.88c3.52 3 8.95 2.15 12.31-1.31 3.64-3.77 5.62-9.18 7-14.15.1-.35.19-.71.27-1.07-5.69 6.77-15.06 7.33-23.21 7a14.85 14.85 0 0 0 1.73 7.05 8.29 8.29 0 0 0 1.9 2.48z" stroke-linecap="round" stroke-linejoin="round"/><g stroke-miterlimit="10"><path d="m415.07 177.36s3.29-5 13.86-.91 10.52 10.16 10.52 10.16"/><path d="m390.39 189.21s5-2.34 8.81.27"/><path d="m416.94 192.33s5-2.35 8.81.26"/><path d="m402.84 246.33s-2.2 11.2-4.43 21.34c-.32 1.44-.62 2.86-.92 4.26-1.47 6.83-2.66 12.9-2.76 14.75-.79 15.35 13.47 24.67 27.51 24.95 19.69.38 31.76-17.59 30.47-36-1.12-3.38-2.25-6.77-3.36-10.15-1.43-4.34-3.33-8.58-4.07-13.13a44.22 44.22 0 0 1 .16-13.49c1-6.67 2.6-16.61 8.39-20.92 4.82-3.56 9.83-5.85 12.69-11.56 2.05-4.08 2.12-9.42-1.52-12.58-4-3.48-10.59-3.27-15.56-2.93-32 2.29-36.35-30.19-44.85-35-7-3.95-12.53 4.27-14.29 7.33l-.07.13a.1.1 0 0 1 0 .08c-.32.57-.48.91-.48.91"/><path d="m403.61 193.35s-3.67 10.82-3.46 12.46 4.14.62 4.14.62"/><ellipse cx="420.23" cy="195.89" rx="13.08" ry="13.4" transform="matrix(.72896863 -.68454711 .68454711 .72896863 -20.19 340.79)"/><ellipse cx="387" cy="190.81" rx="13.08" ry="13.4" transform="matrix(.72896863 -.68454711 .68454711 .72896863 -25.72 316.67)"/></g></g><path d="m386.71 181.39a10.08 10.08 0 0 1 1.44.11 9.75 9.75 0 0 1 8.18 10.79 9 9 0 0 1 -9 8 10.08 10.08 0 0 1 -1.44-.11 9.77 9.77 0 0 1 -8.18-10.8 9 9 0 0 1 9-7.94m0-2.26a11.34 11.34 0 0 0 -11.28 9.92 11.93 11.93 0 0 0 11.86 13.44 11.33 11.33 0 0 0 11.28-9.91 12 12 0 0 0 -10.08-13.31 10.85 10.85 0 0 0 -1.78-.14z" fill="#fff"/><path d="m407.1 193.88-6.97-1.06" fill="none" stroke="#000" stroke-miterlimit="10" stroke-width="4.52"/><path d="m314.57 392.57v-34.44h-77.13c-.24 0-.46 0-.7 0l-.44.05a.06.06 0 0 0 -.05 0c-.15 0-.29.06-.44.09a1.82 1.82 0 0 0 -.4.11 1.77 1.77 0 0 0 -.38.15c-.06 0-.11 0-.17.05s-.31.13-.46.21a3.73 3.73 0 0 0 -.54.31 2.39 2.39 0 0 0 -.44.29 4.1 4.1 0 0 0 -.64.53 3.72 3.72 0 0 0 -.59.6 7.07 7.07 0 0 0 -.49.66 5.36 5.36 0 0 0 -.4.69 3.71 3.71 0 0 0 -.31.75s0 0 0 0a6.39 6.39 0 0 0 -.22.78 6.85 6.85 0 0 0 -.16 1.37l-.39 20.72a4 4 0 0 0 0 .7.78.78 0 0 0 0 .31v.09a1.38 1.38 0 0 0 0 .2 1.72 1.72 0 0 0 .09.36 1.55 1.55 0 0 0 .13.48 6.91 6.91 0 0 0 .56 1.37 7.36 7.36 0 0 0 .74 1.08 5.42 5.42 0 0 0 .46.49 6.48 6.48 0 0 0 .49.44l.31.25c.17.11.33.22.52.33a5.6 5.6 0 0 0 .69.37 5.08 5.08 0 0 0 .77.29 6.85 6.85 0 0 0 2 .31h14.82l4.55-1.83c2.9 0 6.15-1.52 9.06-1.52l2.91 3.73z" fill="#d7e8f0"/><path d="m437.59 365v20.74a6.85 6.85 0 0 1 -6.85 6.85h-116.16v-34.45h116.16a6.85 6.85 0 0 1 6.85 6.86z" fill="#3fbdf1"/><path d="m314.57 392.57h11.68v70.16h-70.63a27.45 27.45 0 0 1 -7.57-.7c-.25-.07-.51-.16-.77-.25l-.14-.06a8.94 8.94 0 0 1 -4.72-3.74.09.09 0 0 0 0-.06l-.22-.36c2.06.49 4.15.89 6.23 1.2a10.62 10.62 0 0 0 1.24.19c1 .14 2 .25 3.05.36a1.29 1.29 0 0 0 .39 0l1.62.14a14.84 14.84 0 0 0 1.63.09s0 0 0 0a.19.19 0 0 0 .15 0c.6 0 1.19.06 1.79.08a1 1 0 0 0 .38 0 1.57 1.57 0 0 0 .53 0c1.12.06 2.25.06 3.38 0 1.58 0 3.15-.07 4.7-.16a29.61 29.61 0 0 0 3.64-.42 10.1 10.1 0 0 0 1.24-.26 7.86 7.86 0 0 0 1-.27l.17-.06a10.2 10.2 0 0 0 1.84-.84c2.36-1.37 4.15-4 3.69-6.72a6.11 6.11 0 0 0 -1.82-3.27c-.08-.07-.15-.15-.24-.22l-.07-.05a8.21 8.21 0 0 0 -1.56-1.08 18 18 0 0 0 -5.18-1.68l-.66-.13c.33.05.67.09 1 .15h.22a27.14 27.14 0 0 0 7.89.2l.5-.05.2-.06a10.22 10.22 0 0 0 6.9-4.69 5.58 5.58 0 0 0 .35-.79 2.07 2.07 0 0 0 .15-.34 6.7 6.7 0 0 0 .31-2.27 5.36 5.36 0 0 0 -.06-.82 7.35 7.35 0 0 0 -2.87-4.95 4.94 4.94 0 0 0 -.84-.53 10.18 10.18 0 0 0 -3.63-1h-.24c-.67-.08-1.39-.11-2.06-.15-5.23-.27-10.44-.57-15.66-.84h-.57l-7.69-.4-4.64-.26h-.31l-4.13-.22c.46 0 .92.05 1.37.09h.39l1.59.09c4.47.27 8.95.53 13.42.69h.57s0 0 .09 0c.9 0 1.81.06 2.71.09h.2c2.32.06 4.62.09 6.94.09a19.83 19.83 0 0 0 7-.89 8.38 8.38 0 0 0 2.87-1.79 1.41 1.41 0 0 0 .29-.31 5.71 5.71 0 0 0 1.56-2.85 6 6 0 0 0 -.48-3.64 1.79 1.79 0 0 0 -.2-.42 8 8 0 0 0 -2-2.45 15.41 15.41 0 0 0 -6.74-2.85c-1.41-.29-2.81-.53-4.24-.69a.13.13 0 0 0 -.09 0 54.11 54.11 0 0 0 -5.68-.35h-.51c-1 0-2.1 0-3.15 0-5 .15-9.88 1.08-14.83 1a.76.76 0 0 1 0-.47 1.85 1.85 0 0 1 .19-.31 1.83 1.83 0 0 1 .69-.48 49.17 49.17 0 0 1 4.88-1.27 33.73 33.73 0 0 0 4.88-1.94c.53-.26 1.06-.55 1.59-.82a.59.59 0 0 0 .11-.08 32.09 32.09 0 0 0 5.64-4l.44-.38c.27-.24.55-.48.8-.73a14.12 14.12 0 0 0 3.42-4.61 7.21 7.21 0 0 0 .42-1.39 3.58 3.58 0 0 0 .09-.45 5.06 5.06 0 0 0 .06-.79c0-.25-.12-2.42-.16-2.67" fill="#d7e8f0"/><path d="m424.24 392.57v58.19a11.33 11.33 0 0 1 -.07 1.3l-22.17 4.58c-6.61 1.39-9.41.29-10.81-3.1-5.15-12.39-18.86-12-18.86-12l-10.83-.05c-1.74 0-3.45-.22-5.17-.33a7.92 7.92 0 0 0 -8.39 7.85 7.9 7.9 0 0 0 5.32 7.46l8.33 1.66a2.2 2.2 0 0 1 1.54 3.16 4.85 4.85 0 0 1 -1.87 1.43h-35v-70.15z" fill="#3fbdf1"/><g fill="none" stroke="#000" stroke-miterlimit="10" stroke-width="4.52"><path d="m302.53 358.13h12.04 11.68"/><path d="m267.86 392.59h162.87a6.55 6.55 0 0 0 2.67-.55 6.69 6.69 0 0 0 2.17-1.48 6.81 6.81 0 0 0 2-4.84v-20.72a6.85 6.85 0 0 0 -6.85-6.85h-193.28c-.24 0-.46 0-.7 0l-.44.05a6.54 6.54 0 0 0 -1.9.63c-.18.09-.36.2-.54.31a2.4 2.4 0 0 0 -.44.29 5.63 5.63 0 0 0 -.64.53 6.67 6.67 0 0 0 -.59.6 7.07 7.07 0 0 0 -.49.66c-.15.22-.27.46-.4.69s-.22.5-.31.75a6.39 6.39 0 0 0 -.22.78 6.85 6.85 0 0 0 -.16 1.37l-.37 20.74v.33a2.06 2.06 0 0 0 0 .35v.4a1.38 1.38 0 0 0 0 .2c0 .11.06.25.09.36s.08.33.13.48a6.91 6.91 0 0 0 .54 1.33 7.36 7.36 0 0 0 .74 1.08c.15.16.3.33.46.49a6.48 6.48 0 0 0 .49.44l.31.25c.17.11.33.22.52.33a7.55 7.55 0 0 0 .69.37 5.08 5.08 0 0 0 .77.29 6.49 6.49 0 0 0 2.06.33h14.69"/><path d="m242.1 457.52c.09.12.18.25.29.38a10.24 10.24 0 0 0 1.09 1.28 7.75 7.75 0 0 0 .84.77 0 0 0 0 0 0 0c.3.23.61.47.92.67a5.26 5.26 0 0 0 1 .6c.3.17.59.31.9.46l.14.06a6 6 0 0 0 1.1.4 7.36 7.36 0 0 0 1 .25 2.1 2.1 0 0 0 .42.09 7.24 7.24 0 0 0 .95.15 7.9 7.9 0 0 0 1.2.07h109.26a4.85 4.85 0 0 0 1.87-1.43 2.21 2.21 0 0 0 -1.54-3.16l-8.33-1.66a7.9 7.9 0 0 1 -5.32-7.46 7.92 7.92 0 0 1 8.39-7.85c1.72.11 3.43.31 5.17.33l10.83.05s13.71-.4 18.86 12c1.4 3.39 4.2 4.49 10.81 3.1l22.22-4.58a11.33 11.33 0 0 0 .07-1.3v-58.15h-109.67"/></g><path d="m430.26 304.21v13.37a4.42 4.42 0 0 1 -4.42 4.42h-104.19v-22.21h104.19a4.42 4.42 0 0 1 4.42 4.42z" fill="#3fbdf1"/><path d="m321.65 299.79v22.21h-50a4.43 4.43 0 0 1 -4.42-4.49l.24-13.39a4.41 4.41 0 0 1 4.42-4.33z" fill="#d7e8f0"/><path d="m421.65 322v28.41a7.75 7.75 0 0 1 -7.73 7.73h-84.73v-36.14z" fill="#3fbdf1"/><path d="m329.19 322v36.14h-47.94a7.74 7.74 0 0 1 -7.73-7.73v-28.41z" fill="#d7e8f0"/><g fill="none" stroke="#000" stroke-miterlimit="10" stroke-width="4.52"><path d="m314.57 358.14v34.44"/><path d="m326.25 392.58v70.16"/><path d="m430.26 304.21v13.37a4.42 4.42 0 0 1 -4.42 4.42h-104.19v-22.21h104.19a4.42 4.42 0 0 1 4.42 4.42z"/><path d="m321.65 299.79v22.21h-50a4.43 4.43 0 0 1 -4.42-4.49l.24-13.39a4.41 4.41 0 0 1 4.42-4.33z"/><path d="m421.65 322v28.41a7.75 7.75 0 0 1 -7.73 7.73h-84.73v-36.14z"/><path d="m329.19 322v36.14h-47.94a7.74 7.74 0 0 1 -7.73-7.73v-28.41z"/></g><path d="m377.12 237.16v13.37a4.42 4.42 0 0 1 -4.42 4.47h-75v-22.26h75a4.42 4.42 0 0 1 4.42 4.42z" fill="#3fbdf1"/><path d="m250.57 232.73h47.17v22.22h-47.17z" fill="#d7e8f0"/><path d="m368.52 255v37.54a7.75 7.75 0 0 1 -7.73 7.73h-55.5v-45.27z" fill="#3fbdf1"/><path d="m305.29 255v45.27h-47.94a3.13 3.13 0 0 1 -.62 0v-45.27z" fill="#d7e8f0"/><g fill="none" stroke="#000" stroke-miterlimit="10" stroke-width="4.52"><path d="m377.12 237.16v13.37a4.42 4.42 0 0 1 -4.42 4.47h-75v-22.26h75a4.42 4.42 0 0 1 4.42 4.42z"/><path d="m297.74 232.74v22.26h-50a4.42 4.42 0 0 1 -4.42-4.49l.24-13.4a4.4 4.4 0 0 1 4.42-4.32z"/><path d="m368.52 255v37.54a7.75 7.75 0 0 1 -7.73 7.73h-55.5v-45.27z"/><path d="m305.29 255v45.27h-47.94a7.74 7.74 0 0 1 -7.73-7.73v-37.54z"/></g><path d="m360.55 191.15v8.78a2.9 2.9 0 0 1 -2.91 2.9h-49.21v-14.58h49.21a2.9 2.9 0 0 1 2.91 2.9z" fill="#3fbdf1"/><path d="m277.45 188.25h30.98v14.58h-30.98z" fill="#d7e8f0"/><path d="m354.9 202.83v24.65a5.09 5.09 0 0 1 -5.08 5.07h-36.43v-29.72z" fill="#3fbdf1"/><path d="m281.98 202.82h31.41v29.72h-31.41z" fill="#d7e8f0"/><g fill="none" stroke="#000" stroke-miterlimit="10" stroke-width="4.52"><path d="m360.55 191.15v8.78a2.9 2.9 0 0 1 -2.91 2.9h-49.21v-14.58h49.21a2.9 2.9 0 0 1 2.91 2.9z"/><path d="m308.43 188.25v14.58h-32.83a2.91 2.91 0 0 1 -2.9-3l.16-8.79a2.9 2.9 0 0 1 2.9-2.84z"/><path d="m354.9 202.83v24.65a5.09 5.09 0 0 1 -5.08 5.07h-36.43v-29.72z"/><path d="m313.39 202.83v29.72h-31.48a5.08 5.08 0 0 1 -5.07-5.07v-24.65z"/></g><path d="m351.91 153.66v7.34a2.44 2.44 0 0 1 -2.43 2.43h-41.11v-12.2h41.11a2.43 2.43 0 0 1 2.43 2.43z" fill="#3fbdf1"/><path d="m283.46 151.23h24.92v12.19h-24.92z" fill="#d7e8f0"/><path d="m347.19 163.42v20.58a4.26 4.26 0 0 1 -4.24 4.24h-30.44v-24.82z" fill="#3fbdf1"/><path d="m312.51 163.42v24.83h-26.29a4.19 4.19 0 0 1 -3.35-1.65h4.24v-23.18z" fill="#d7e8f0"/><g fill="none" stroke="#000" stroke-miterlimit="10" stroke-width="4.52"><path d="m351.91 153.66v7.34a2.44 2.44 0 0 1 -2.43 2.43h-41.11v-12.2h41.11a2.43 2.43 0 0 1 2.43 2.43z"/><path d="m308.37 151.23v12.19h-27.43a2.43 2.43 0 0 1 -2.42-2.47l.13-7.34a2.42 2.42 0 0 1 2.42-2.38z"/><path d="m347.19 163.42v20.58a4.26 4.26 0 0 1 -4.24 4.24h-30.44v-24.82z"/><path d="m312.51 163.42v24.83h-26.3a4.25 4.25 0 0 1 -4.21-4.25v-20.58z"/><path d="m300.56 925.4q-17.28 1.47-34.57 2.91a10.83 10.83 0 0 0 -9.99 10.85 10.84 10.84 0 0 0 10.86 10.84l92.14-.1a2.36 2.36 0 0 0 2.27-3 988.45 988.45 0 0 1 -34.93-241.2"/><path d="m474.1 441.17v-.02"/><path d="m452.78 551.84c-1.21 5.28-2.45 10.55-3.76 15.81-.35 1.42-.72 2.85-1.08 4.25-13.89 54.34-34.6 108.87-24.19 163.86 14.25 75.24 62.61 155.24 98.25 211 .82 1.3-11.21 3.25-12.75 3.24-27.53-.24-65.22-.47-94.35-.71a10.43 10.43 0 0 1 -10.35-10.4v-.18a10.42 10.42 0 0 1 8.7-10.32c10.89-1.81 26.1-3.62 32.93-5.42l-13.56-15.48c-23.62-28.4-49.62-57.49-66.91-90.39-27.11-51.69-42.64-109.1-47.25-167.24-2.52-31.59-.53-63.38 7-94.16"/><path d="m368.52 272.27a105.68 105.68 0 0 1 13.39-5.65 99.27 99.27 0 0 1 14.33-3.76s.05 0 .09 0l1.18-.22c.39-.07.77-.13 1.16-.18s.6-.11.89-.15"/><path d="m265.37 462.74q-3.89 14.88-7.42 29.87-4.84 20.67-8.86 41.49c-13 67.88-18.58 137.81-8.86 206.5a559.64 559.64 0 0 0 22.62 97q7.81 23.67 17.72 46.57c1.88 4.31 16.32 41.25 19.95 41.25"/><path d="m436.79 503.47a4 4 0 0 1 .62.09l1 .14c7.75 1.21 15.69 2.25 23.66 3 55.43 5.26 111.21-3.05 106.31-60.23-3-35.79-15-56.42-29.41-88.45q-1.65-3.64-3.31-7.23c-11.24-24.21-23.93-47-46.33-62.48-1.57-1.1-3.16-2.14-4.82-3.15a180 180 0 0 0 -33.64-15.76l-.17-.05"/><path d="m457.86 370.25 25.67 49.29a14.79 14.79 0 0 1 -1.53 16.17c-4.31 5.46-10.94 6.41-17.34 8l-40.5 8.35-22.16 4.58c-6.61 1.39-9.41.29-10.81-3.1-5.15-12.39-18.86-12-18.86-12l-10.83-.05c-1.74 0-3.45-.22-5.17-.33a7.92 7.92 0 0 0 -8.39 7.85 7.9 7.9 0 0 0 5.32 7.46l8.33 1.66a2.21 2.21 0 0 1 1.54 3.16 4.85 4.85 0 0 1 -1.87 1.43h-56.12a4.26 4.26 0 0 0 -3.7 5.47c1 4.31 5.95 6.72 9.81 7.83 28.5 8.26 57.11 14.91 86.28 20.36q20.39 3.81 40.87 7.3"/><path d="m251.76 392.59c-8.84 4-17.43 3.82-21.54 12.92a70.79 70.79 0 0 0 -5.61 31.21c.78 13.08 9.43 20.16 23 21.91a79 79 0 0 0 16.89 1c3.38-.18 7-.16 10.11-1.59 4.13-1.86 6.19-7.31 2.19-10.56-2.08-1.7-4.93-2.32-7.56-2.85 2.92.15 5.7.26 8 .31 4.75.13 9.56-3.14 9.56-8.24 0-5.48-4.5-7.25-9.17-7.49l-33.56-1.73 22.16 1.07c5.13.26 14.52 1.15 16.53-5.19a6.69 6.69 0 0 0 -2.58-7.49c-4-2.79-9.42-3.19-14.1-3.45a99.29 99.29 0 0 0 -20.47.52c.63-.17-1.15 0-.57-.17 5.47-1.72 8.25-2 13-5.12"/><path d="m251.76 392.59c.89-.4 2-.93 3.18-1.44.34-.15.71-.29 1.07-.44s.7-.27 1.06-.4l1.06-.35.53-.16c.22-.08.46-.13.68-.19l.38-.07a13 13 0 0 1 1.3-.26 9.59 9.59 0 0 1 2-.07l.46.06a1 1 0 0 1 .33.05c.22 0 .44.09.65.15a3.83 3.83 0 0 1 .72.27 4.78 4.78 0 0 1 1.06.68 1.92 1.92 0 0 1 .29.27 6.43 6.43 0 0 1 .84 1.06s5.59 7.6-9.79 16.22"/><path d="m269.63 444.73s-16.95-1.71-19.47-1.89"/><path d="m255.67 502.55s139.33-9.15 197.11 49.29c2.93 2.41 12.68 14.36-4.84 20.07"/><path d="m480.07 508s-11.62 44-23.24 58.2"/></g><path d="m451.37 550.44s12.28 7.22 3.48 17.95l-7.43 3.52 5.22-19.47z"/><path d="m493.12 526.36c5.77-60.42-8.83-79.24-19.9-85l.88-.24c38.88-5.24 47 69.15 48.36 86.41z" fill="#d7e8f0"/><path d="m492.49 531.11c5.77-60.42-8.2-84-19.27-89.72l.88-.24c38.88-5.24 47.25 72.69 48.6 90z" fill="#d7e8f0"/><path d="m405.53 531.66h31.53v183.37h-31.53z" fill="#fff"/><path d="m474.1 441.15c44-5.92 48.6 90 48.6 90h-30.21c5.1-93.79-34.46-86-34.46-86 1.34-.21 16.07-4 16.07-4z" fill="none" stroke="#000" stroke-miterlimit="10" stroke-width="4.52"/><path d="m445.36 539.79h146.89v174.69h-146.89z" fill="#3fbdf1"/><path d="m437.59 530.54h154.66v183.94h-154.66z" fill="#fff"/><path d="m594.13 538v169.63c0 4.81-4.7 8.71-10.51 8.71h-168.93c-5.81 0-10.52-3.9-10.52-8.71v-169.63c0-4.81 4.71-8.71 10.52-8.71h168.93c5.81-.04 10.51 3.86 10.51 8.71z" fill="#3fbdf1"/><path d="m585.1 546.08v154.53a7.87 7.87 0 0 1 -7.81 7.93h-125.43a7.87 7.87 0 0 1 -7.81-7.93v-154.53a7.87 7.87 0 0 1 7.81-7.93h125.43a7.87 7.87 0 0 1 7.81 7.93z" fill="#3fbdf1"/><g fill="none" stroke="#000" stroke-miterlimit="10" stroke-width="4.52"><path d="m437.58 531.11h154.67v183.37h-154.67z"/><path d="m406.06 531.11h30.88v183.37h-30.88z"/><path d="m406.06 714.48 15.24-21.89 15.64 21.89"/><path d="m421.5 531.11-.2 161.48"/><path d="m467.52 506.7v24.41"/></g><path d="m492.83 508s-23.27-.4-27.52-1.61c0 0 2.21-2.73 2.21 7.09s-.87 17.59 1.2 17.59 22.73-.57 22.73-.57 1.65-1.48 1.34-6 .04-16.5.04-16.5z"/><path d="m173.36 949.95h653.28" fill="none" stroke="#000" stroke-miterlimit="10" stroke-width="4.52"/><circle cx="614.24" cy="174.66" fill="#d7e8f0" r="11.78"/><path d="m584.41 222.65a29.83 29.83 0 1 1 59.66 0z" fill="#d7e8f0"/><rect fill="none" height="80.16" rx="9.3" stroke="#ccdde2" stroke-miterlimit="10" stroke-width="4.52" width="80.16" x="574.16" y="152.69"/><path d="m617.15 757.5 8.72 17.67a3.25 3.25 0 0 0 2.45 1.77l19.49 2.83a3.25 3.25 0 0 1 1.8 5.54l-14.11 13.75a3.27 3.27 0 0 0 -.93 2.88l3.33 19.41a3.25 3.25 0 0 1 -4.71 3.43l-17.44-9.17a3.23 3.23 0 0 0 -3 0l-17.44 9.17a3.25 3.25 0 0 1 -4.71-3.43l3.33-19.41a3.24 3.24 0 0 0 -.93-2.88l-14.11-13.75a3.25 3.25 0 0 1 1.8-5.54l19.5-2.83a3.23 3.23 0 0 0 2.44-1.77l8.72-17.67a3.25 3.25 0 0 1 5.8 0z" fill="#d7e8f0"/><path d="m485.25 801.9h66.22" fill="none" stroke="#ccdde2" stroke-miterlimit="10" stroke-width="4.52"/></svg>