<svg viewBox="0 0 1000 1000" xmlns="http://www.w3.org/2000/svg"><path d="m119.98 558.33h104.74v142.65h-104.74z" fill="#3fbdf1"/><circle cx="140.98" cy="579.41" fill="#d7e8f0" r="8.8"/><circle cx="140.98" cy="677.25" fill="#d7e8f0" r="8.8"/><g fill="none" stroke="#ccdde2" stroke-miterlimit="10" stroke-width="4.48"><path d="m626.44 923.65c22.36-7.66 41.29-17.55 57.88-30.36a191 191 0 0 0 34.68-35.06c6.73-8.71 14.42-21.87 22.36-38.45"/><path d="m806.57 565.91c3.4-47.75 1.3-95.72-9.3-139.51-21.65-89.14-78.64-160.9-196.53-177.61"/><path d="m264.93 424.08c-1.26-9.76-2.56-19.49-3.73-29.19-24.2-197.71 128.86-191.28 128.86-191.28"/><path d="m206.06 703c-9.76 7.51-20 14.61-29.93 22-26.07 19.59-44.81 42.72-53.68 74.53-10.47 37.63-5.74 80.5 21.34 110.15 27.83 30.45 71.08 39.47 110.7 39.47h63"/></g><path d="m138.36 657.41v-56.64c12.89 0 23.34-9.06 23.34-20.24v-1.53h63v98.62h-60.1c0-11.35-10.77-20.48-23.87-20.23z" fill="#d7e8f0"/><g fill="#3fbdf1"><path d="m195.91 629a29.5 29.5 0 0 0 29.5 29.5v-59a29.49 29.49 0 0 0 -29.5 29.5z"/><rect height="74.32" rx="8.45" transform="matrix(-1 0 0 -1 706.31 1790.75)" width="102.34" x="301.99" y="858.22"/><path d="m260.26 932.53h34.26a7.47 7.47 0 0 0 7.47-7.46v-53.42a3.62 3.62 0 0 0 -3.69-3.65l-19.06.17a3.62 3.62 0 0 0 -2.68 1.28l-23.09 27.33a20.17 20.17 0 0 0 -5.7 14v9.19a12.49 12.49 0 0 0 12.49 12.56z"/></g><circle cx="353.16" cy="895.37" fill="#d7e8f0" r="21.55"/><path d="m292.13 893.71v-15.1a1.69 1.69 0 0 0 -1.68-1.69h-8.45a1.7 1.7 0 0 0 -1.33.66l-11.67 15.1a1.69 1.69 0 0 0 1.34 2.72h20.08a1.69 1.69 0 0 0 1.71-1.69z" fill="#d7e8f0"/><path d="m395.61 932.37v.15a16.67 16.67 0 1 1 -33.33 0" fill="#3fbdf1"/><path d="m294.52 932.52a16.67 16.67 0 1 1 -33.34 0" fill="#3fbdf1"/><path d="m832.77 573.64v228.19a18 18 0 0 1 -17.91 17.95h-274.78l8.5-44.88c23-96.77 30.61-203.55 32.43-234.53-.16 3.77-.31 7.54-.53 11.27.87 1.24 1.83 2.44 2.81 3.62.41.46.84.92 1.27 1.39s1 1.05 1.48 1.54c.34.37.71.71 1.09 1.08l.43.4c.43.41.89.81 1.36 1.21.18.18.37.34.58.52.44.34.87.68 1.3 1.05s1.11.84 1.67 1.27c.59.43 1.17.83 1.76 1.21s1.2.77 1.82 1.14 1.33.8 2 1.17c.43.22.86.46 1.3.68a1.77 1.77 0 0 0 .24.12q2 1 4.08 1.86c.71.28 1.39.52 2.1.77 1.42.49 2.84 1 4.33 1.33l2.22.52c.74.16 1.51.28 2.28.4s1.49.25 2.23.34h.06c.53.07 1.05.13 1.55.16s1 .09 1.48.12h.18c.5.06 1 .06 1.49.1h1.66a51 51 0 0 0 10.51-1.08 52.62 52.62 0 0 0 35.31-25.56 51.68 51.68 0 0 0 5.22-12.82 16.67 16.67 0 0 0 .4-1.66 53.6 53.6 0 0 0 1.3-11.62 54.84 54.84 0 0 0 .89 9.82c.25 1.15.5 2.32.81 3.46a52.7 52.7 0 0 0 102 0 56.94 56.94 0 0 0 1.23-6.45 54.8 54.8 0 0 0 .44-6.83 50.92 50.92 0 0 0 .46 6.95 49.17 49.17 0 0 0 1.23 6.33 52.82 52.82 0 0 0 49.7 39.42z" fill="#d7e8f0"/><path d="m853.8 569.84v305.53a18 18 0 0 1 -17.91 17.92h-307.54c2.25-21.69 6.45-46.4 11.58-73.51h274.93a18 18 0 0 0 17.91-17.95v-228.19h1.3a6.69 6.69 0 0 0 .77 0 51.94 51.94 0 0 0 18.96-3.8z" fill="#3fbdf1"/><g fill="#d7e8f0"><rect height="26.22" rx="12.67" width="26.22" x="257" y="553.59"/><rect height="26.22" rx="12.67" width="26.22" x="305.62" y="553.59"/><rect height="26.22" rx="12.67" width="26.22" x="354.24" y="553.59"/><rect height="26.22" rx="12.67" width="26.22" x="257" y="594.08"/><rect height="26.22" rx="12.67" width="26.22" x="305.62" y="594.08"/><rect height="26.22" rx="12.67" width="26.22" x="354.24" y="594.08"/><rect height="26.22" rx="12.67" width="26.22" x="257" y="634.57"/><rect height="26.22" rx="12.67" width="26.22" x="305.62" y="634.57"/><rect height="26.22" rx="12.67" width="26.22" x="354.24" y="634.57"/></g><path d="m407.86 773a18 18 0 0 1 -12.17 4.73h-152.83a18.12 18.12 0 0 1 -18.13-18v-317.55a18.13 18.13 0 0 1 18.13-18.1h142.88l2.69 5c-8.59 22.24-13.87 51.74-13.16 90.81 1.67 91.11 18.1 178.65 32.59 253.11z" fill="none" stroke="#ccdde2" stroke-miterlimit="10" stroke-width="4.48"/><path d="m377.37 475.44h-117.49a6 6 0 0 0 -6 6v44a6 6 0 0 0 6 6h115.7z" fill="#d7e8f0"/><path d="m376.32 481.39h-109.42c-3 0-5.55 2.12-5.55 4.72v34.7c0 2.6 2.5 4.72 5.55 4.72h107.75z" fill="#3fbdf1"/><rect fill="#d7e8f0" height="23.35" rx="5.78" transform="matrix(-1 0 0 -1 638.53 1389.15)" width="130.72" x="253.9" y="682.9"/><path d="m376.32 693.66a3.46 3.46 0 0 1 -1.2 2.6 23.36 23.36 0 0 0 -7.63 17.26v94a19.24 19.24 0 0 1 -19.25 19.24h-1.42c-8.49 0-16.83-6.79-18-15.19a20.43 20.43 0 0 0 -40.64 3v52.6c-2.5.37-7.94 1.12-8.9 1.12s-16.12 17.42-22.7 25.08h-83.4a8.78 8.78 0 0 1 -8.78-8.78v-72.44a20.43 20.43 0 0 1 20.45-20.42h43.43a18.94 18.94 0 0 0 19-19v-59.21a23.37 23.37 0 0 1 23.35-23.35h102.23a3.48 3.48 0 0 1 3.46 3.49z" fill="#d7e8f0"/><path d="m589.78 568.82a4.55 4.55 0 0 1 1.61-.68 4.07 4.07 0 0 0 -1.61.68z" fill="#3fbdf1"/><path d="m615.33 318.81h88.89a18 18 0 0 1 17.91 17.92v51.52a18 18 0 0 1 -17.91 17.91h-91.86a10 10 0 0 0 -9 5.56c5.64-21.9 12.64-56.83 11.97-92.91z" fill="#d7e8f0"/><path d="m886.76 470.35v50.59a52.71 52.71 0 0 1 -33 48.9 51.94 51.94 0 0 1 -19 3.8 6.69 6.69 0 0 1 -.77 0c-.43 0-.87 0-1.3 0a52.82 52.82 0 0 1 -49.7-39.42 49.17 49.17 0 0 1 -1.23-6.33 50.92 50.92 0 0 1 -.46-6.95 54.8 54.8 0 0 1 -.44 6.83 56.94 56.94 0 0 1 -1.23 6.45 52.7 52.7 0 0 1 -102 0c-.31-1.14-.56-2.31-.81-3.46a54.84 54.84 0 0 1 -.89-9.82 53.6 53.6 0 0 1 -1.3 11.62 16.67 16.67 0 0 1 -.4 1.66 51.68 51.68 0 0 1 -5.16 12.78 52.62 52.62 0 0 1 -35.27 25.55 51 51 0 0 1 -10.51 1.08h-1.66c-.5 0-1 0-1.49-.1-.06 0-.12 0-.18 0-.5 0-1-.06-1.48-.12s-1-.09-1.55-.16h-.06c-.74-.09-1.51-.21-2.23-.34s-1.54-.24-2.28-.4l-2.22-.52c-1.49-.37-2.91-.84-4.33-1.33-.71-.25-1.39-.49-2.1-.77q-2.09-.84-4.08-1.86a1.77 1.77 0 0 1 -.24-.12c-.44-.22-.87-.46-1.3-.68-.68-.37-1.36-.74-2-1.17s-1.2-.74-1.82-1.14-1.17-.78-1.76-1.21c-.56-.43-1.11-.83-1.67-1.27s-.86-.71-1.3-1.05c-.21-.18-.4-.34-.58-.52-.47-.4-.93-.8-1.36-1.21l-.43-.4c-.38-.37-.75-.71-1.09-1.08-.52-.49-1-1-1.48-1.54s-.86-.93-1.27-1.39c-1-1.18-1.94-2.38-2.81-3.62.22-3.73.37-7.5.53-11.27.06-1.17.12-2.19.15-3.15.22-6 .4-12.08.53-18.13.68-37.19-4.08-65.67-11.92-87.5l6.76-12.82c10.29 8.4 18.41 14.92 20.08 15.9 0 0 5.21-17.7 8.39-29.56 0 .18 7.36.86 7.36 1.05l21.44-1.05c0 5.56-3.06 19 14.05 21.29h195a43.94 43.94 0 0 1 43.87 43.96z" fill="#d7e8f0"/><g fill="#3fbdf1"><path d="m571 434.82s13.6 41.66 10.26 107.56c0 0 12.09 19.82 43 19.82 28.7 0 42.5-19.54 50.1-45a1.65 1.65 0 0 1 3.16 0c4.11 13.94 17.48 47.77 50.73 49.75 32.86 2 47.24-33.14 51.94-48.45a1.65 1.65 0 0 1 3.18.09c3.32 13.28 14.4 41 49.52 45.37a2.61 2.61 0 0 0 .68 0 45.07 45.07 0 0 0 16.62-3.33 46.19 46.19 0 0 0 28.89-42.86v-44.42a38.53 38.53 0 0 0 -38.53-38.53z"/><path d="m639.83 659.4v57.41a37.18 37.18 0 0 1 -37.07 37.07h-49.94c2.93-15 6-30.46 9-46.46.49-2.65 1-5.31 1.51-8q1.11-6 2.22-12.13c.93-5.22 1.89-10.48 2.78-15.76 2.78-16 5.44-32.43 7.85-49.17h26.62a37.18 37.18 0 0 1 37.03 37.04z"/><rect height="131.56" rx="35.8" transform="matrix(-1 0 0 -1 1465.78 1376.22)" width="127.64" x="669.07" y="622.33"/></g><g fill="none" stroke="#fff" stroke-miterlimit="10" stroke-width="4.48"><path d="m563.29 699.39h47.87v-6.14a14.19 14.19 0 0 0 -14.16-14.18h-2.81v8.77a1.87 1.87 0 0 1 -3.74 0v-8.77h-3v8.77a1.87 1.87 0 0 1 -3.73 0v-8.77h-10.42"/><path d="m609.49 733.41a4 4 0 0 1 -1.21 2.84 4 4 0 0 1 -2.81 1.17h-49.69c.49-2.65 1-5.31 1.51-8h48.18a4.05 4.05 0 0 1 4.02 3.99z"/><path d="m567.29 709.07a8.2 8.2 0 0 1 -7.78 8.19c.93-5.22 1.89-10.48 2.78-15.76a8.21 8.21 0 0 1 5 7.57z"/><path d="m581.48 707.19v10.64a1.87 1.87 0 1 1 -3.73 0v-10.64a1.87 1.87 0 0 1 3.73 0z"/><path d="m588.2 707.19v10.64a1.87 1.87 0 1 1 -3.73 0v-10.64a1.87 1.87 0 0 1 3.73 0z"/><path d="m761 661.49c2.16-5.19 4.24-9.3 5.48-11.62a2.44 2.44 0 0 0 -1-3.28l-13.06-5.5a3.33 3.33 0 0 0 -5 2.9c0 11.41-3.28 22.15-14.68 22.15-11.41 0-14.68-10.74-14.68-22.15v-.49a3.34 3.34 0 0 0 -4.75-3l-13.31 4.91a2.44 2.44 0 0 0 -1 3.66l.18.25a69.79 69.79 0 0 1 6.82 69.62l-4.7 10.34a4.8 4.8 0 0 0 4.37 6.78h58a4.79 4.79 0 0 0 4.3-6.92l-4.97-9.94a69.77 69.77 0 0 1 -2-57.71z"/><path d="m712.17 694.43h43.85"/><path d="m722.05 694.44c.21 7.46.07 26.69-6.06 41.62"/><path d="m752.16 736.06c-6.15-14.93-6.27-34.16-6.06-41.62"/><path d="m734.1 736.06v-41.62"/></g><path d="m483.53 949.19h175.07v-.56a17.52 17.52 0 0 0 -17.52-17.51h-.3a17.48 17.48 0 0 1 -17.49-17.51v-20.33h-94.94s-8.84 45.23-12.31 52.18a7.49 7.49 0 0 1 -10 3.86z" fill="#3fbdf1" opacity=".54"/><g fill="#fff"><path d="m625.73 352.39c-7.59 0-12.29 5.71-12.29 12.91 0 6.88 4.23 12.63 11.89 12.63 7.6 0 12.39-5.07 12.39-13 .03-6.65-4.02-12.54-11.99-12.54zm-.06 20.29h-.09c-3.18 0-5.16-3.09-5.13-7.51s1.95-7.53 5.13-7.53 5.16 3.21 5.16 7.47c0 4.48-1.89 7.57-5.07 7.57z"/><path d="m659 370.45c-.65-2.13-1.54-3.7-3.18-4.44v-.13a6.62 6.62 0 0 0 4.23-6 6.29 6.29 0 0 0 -2.41-5.34c-1.88-1.45-4.6-1.95-8.4-1.95-2.19 0-4.2.13-5.87.28a2.4 2.4 0 0 0 -2.13 2.38v19a3.29 3.29 0 0 0 6.58 0v-6h1.08c2 0 3 .65 3.61 3.58.31 1.36.62 2.47.9 3.4a3.26 3.26 0 0 0 3.15 2.32h.06a3.3 3.3 0 0 0 3.18-4.11c-.25-1.04-.52-2.09-.8-2.99zm-9.45-7h-1.73v-5.8a12.33 12.33 0 0 1 2.25-.16c2.2 0 3.4 1.08 3.4 2.91s-1.39 3.07-3.89 3.07z"/><path d="m677.87 372.09h-5a2.27 2.27 0 1 1 0-4.54h3.92a2.69 2.69 0 1 0 0-5.37h-4.11a2.1 2.1 0 1 1 0-4.2h4.67a2.66 2.66 0 0 0 2.68-2.66v-.09a2.68 2.68 0 0 0 -2.68-2.69h-10.6a2.83 2.83 0 0 0 -2.81 2.84v19.89a2.28 2.28 0 0 0 2.29 2.26h11.64a2.67 2.67 0 0 0 2.66-2.69v-.06a2.67 2.67 0 0 0 -2.66-2.69z"/></g><path d="m553.18 623.09v51.21a9.27 9.27 0 0 1 -9.27 9.26h-130.56a9.44 9.44 0 0 1 -2.68-.4.56.56 0 0 1 -.06-.21 8.66 8.66 0 0 1 -.62-3.25v-51.21a42.39 42.39 0 0 1 40.37-42.41c.71 0 1.39-.06 2.1-.06h64.15a16.67 16.67 0 0 1 1.73.06 41.41 41.41 0 0 1 8.22 1.11 42.22 42.22 0 0 1 15.59 7.36 42.22 42.22 0 0 1 11.03 28.54z" fill="#d7e8f0"/><path d="m596.93 435.44a18.29 18.29 0 0 1 -1.73-1.23c-3.21-2.38-10-7.85-18.16-14.52-21.74-17.73-53.22-44-53.22-44l-1.05 3.83-4.23 15.35s0 0-.06 0c-40.48 21.27-72.18 2.86-73.48 2.13l-3.21-13.5-.87-3.65-56.61 41.58-17.61 13c-9.17-25.27-62.7-185.55 41.24-231.43 13.56 11.62 41.41 29.16 73.82 25.82 1.63-.15 3.27-.37 4.84-.58a87.86 87.86 0 0 0 16.53-3.24l.18-.06c26.32-7.73 44.36-25.61 46.74-28 111.87 54.06 46.88 238.5 46.88 238.5z" fill="#3fbdf1"/><path d="m522.13 135.34s-3.77.22-7.79.16c-4.54 0-9.36-.44-9.2-1.89.21-2 3.92-9.39 4.11-14.45.06-2-.41-3.56-1.77-4.36-3.58-2-17.69-14.64-25.51-23.32-.52-.59-1-1.14-1.48-1.7-2.22-2.56-3.65-4.66-3.8-5.77-.62-4.88-8.43 18.68-19.58 26.78 0 0-5.56 10-10.94 10.65a16.85 16.85 0 0 1 4 8.28 19.1 19.1 0 0 1 .25 2.25 6.27 6.27 0 0 1 0 .75c0 6.95-9 5.25-12.51 4.44-2.69-.61-8.44-2.41-11-5.65v-27.64s7-47.75 56.62-50a60.61 60.61 0 0 1 27.7 7.32.73.73 0 0 1 .13.09c10.22 8 19.15 21.53 20.38 44.7-.01.02 4.01 29.36-9.61 29.36z" fill="#3fbdf1"/><g fill="none"><g stroke="#000" stroke-miterlimit="10"><g stroke-width="4.48"><path d="m406.89 194.86s31.48 33.63 72.57 33.63 70.85-31.85 70.85-31.85"/><path d="m440.94 379.85 4.06 17.15 32.93 139.49a27.37 27.37 0 0 1 .71 5.71.06.06 0 0 0 0 .09.15.15 0 0 0 0 .16s0 0 0 .06v15.47h-22a8.78 8.78 0 0 1 -6.37-2.68 8.92 8.92 0 0 1 -1.88-3 7.32 7.32 0 0 1 -.43-1.45 7.91 7.91 0 0 1 -.19-1.76v-4.76a20.56 20.56 0 0 0 -2.44-9.73l-31.44-58.37-25.39-47.17-2.69-5-1.42-2.63"/><path d="m523.81 375.72-44.27 160.28a26.42 26.42 0 0 0 -.94 7v15h24.06a8.89 8.89 0 0 0 8.89-8.89v-5.39a20.59 20.59 0 0 1 2.55-9.91l62.9-114.13"/><path d="m553.7 623.09v51.21a9.27 9.27 0 0 1 -9.26 9.26h-130.62a8.46 8.46 0 0 1 -3.21-.61 9.21 9.21 0 0 1 -6-8.65v-51.21a42.47 42.47 0 0 1 32.56-41.3c.65-.15 1.26-.28 1.91-.4s1.55-.28 2.35-.37a30.48 30.48 0 0 1 3.46-.34h.11c.71 0 1.39-.06 2.1-.06h64.15a16.57 16.57 0 0 1 1.73.06 39.8 39.8 0 0 1 8.22 1.11 42.47 42.47 0 0 1 32.5 41.3z"/></g><g stroke-width="2.98"><path d="m511.56 546.63h4.51a5.08 5.08 0 0 1 5.1 5.07v30.08"/><path d="m437.15 581.78v-30.08a5.08 5.08 0 0 1 5.07-5.07h5.5"/><path d="m509.06 555.25h1.67a2.22 2.22 0 0 1 2.22 2.23v23.19"/><path d="m445 580.67v-23.22a2.2 2.2 0 0 1 2.19-2.2h3.06"/></g></g><path d="m490.8 908.35c-.1-1-.41-2.84-.53-4a.42.42 0 0 0 0-.19"/></g><path d="m529.73 898.87a131.5 131.5 0 0 1 -1.85 14.64c-2.16 11.83-6.74 27.49-16.19 34.72-3.21-1.94-10-8.65-14.67-31.32a14.79 14.79 0 0 0 13.38 6.95 17.51 17.51 0 0 0 1.79-.15c13.4-2.04 17.11-22.24 17.54-24.84z"/><path d="m469.08 898.87a131.5 131.5 0 0 1 -1.85 14.64c-2.16 11.83-6.73 27.49-16.18 34.72-3.22-1.94-10-8.65-14.67-31.32a14.78 14.78 0 0 0 13.37 6.95 17.27 17.27 0 0 0 1.79-.15c13.46-2.04 17.11-22.24 17.54-24.84z"/><g fill="none"><path d="m493.24 908.22c-.09-1-.4-2.84-.52-4a.33.33 0 0 0 0-.19"/><g stroke="#000" stroke-miterlimit="10"><path d="m425.54 103.06a53.1 53.1 0 0 1 106.19-.24v.24" stroke-width="4.48"/><path d="m472.49 155.82s0 0 .06 0a55.23 55.23 0 0 0 6.09.34c.71 0 1.39 0 2.1-.06h.18" stroke-width="2.98"/><g stroke-width="4.48"><path d="m447.07 119.85a68.8 68.8 0 0 0 5.06 17c3.8 8.13 10.2 16.84 20.36 19h.06a23.9 23.9 0 0 0 7.91.34 1 1 0 0 0 .28-.06h.18c12.67-1.67 19.92-11.25 24-20.76a66 66 0 0 0 5.13-19.4c-18.53-7.1-32.77-32.97-32.77-32.97s-16.16 29.28-30.21 36.85z"/><path d="m527.1 908.35c.09-1.11.49-3.39.58-4.5 7-87.68 51.46-230.63 54.27-383.95.68-37.19-4.07-65.67-11.92-87.51"/><path d="m489.63 898.59-6.58-215.03"/><path d="m489.67 898.87c.21 3.59 2.78 39.54 19.33 50.32 0 0 12.08-2.28 18.17-41.47"/><path d="m527.69 903.81c-2.41 9.57-6.65 20.38-18.69 20-14.85-.43-18.87-22.3-19.33-25a1.9 1.9 0 0 1 0-.28"/><path d="m388.43 429.05c-8.59 22.24-13.87 51.74-13.16 90.81 1.67 91.14 18.1 178.68 32.59 253.14 9.88 50.72 18.87 95.35 21.68 130.87a.84.84 0 0 0 0 .25c.12 1.11.46 3.46.62 4.72a2.86 2.86 0 0 0 .06.53"/><path d="m474.13 683.56-6.62 216.24"/><path d="m467.53 898.87c-.21 3.59-2.78 39.54-19.33 50.32 0 0-12-1.64-18.1-40.83"/></g><path d="m429.51 903.81c2.41 9.57 6.66 20.38 18.69 20 14.85-.43 18.87-22.3 19.33-25a1.9 1.9 0 0 0 0-.28" stroke-width="2.98"/><g stroke-width="4.48"><path d="m425.54 101.33v23.36a12.14 12.14 0 0 0 12.14 12.13h14.45"/><path d="m531.73 102.83v21.27c0 6.2-5 11.23-8.15 11.23h-17.45"/><path d="m457.11 145.23-2.17 33.65a5 5 0 0 1 -4.45 4.6c-176.9 19.55-85.24 252-85.24 252l75.67-55.6-19.33-76.48"/><path d="m499.21 145.23 3.84 34.77a5 5 0 0 0 4.25 4.35c169.39 24.71 89.6 251.09 89.6 251.09-5.16-3.09-73.11-59.73-73.11-59.73l20.6-72.06"/></g><path d="m445 397s32.26 19.66 73.55-2.07" stroke-width="2.98"/><path d="m447.07 119.85a44 44 0 0 1 -8.23 3.2" stroke-width="4.48"/><path d="m510.08 115.94a53.33 53.33 0 0 0 7.12 2" stroke-width="4.48"/><g stroke-width="2.98"><circle cx="441.94" cy="153.72" r="8.49"/><circle cx="513.64" cy="153.72" r="8.49"/></g></g></g><path d="m450.44 153.72a8.5 8.5 0 0 1 -14.49 6 8.5 8.5 0 0 1 13.71-9.57 8 8 0 0 1 .78 3.57z"/><path d="m522.13 153.72a8.49 8.49 0 0 1 -14.48 6 8.5 8.5 0 0 1 13.71-9.57 8.18 8.18 0 0 1 .77 3.57z"/><path d="m441.94 145.23v-23.21" fill="none" stroke="#000" stroke-miterlimit="10" stroke-width="4.48"/><path d="m513.64 145.23v-28.14" fill="none" stroke="#000" stroke-miterlimit="10" stroke-width="4.48"/><path d="m450.19 555.25h-3a2.2 2.2 0 0 0 -2.19 2.2v23.22a42 42 0 0 0 -7.82 1.11v-30.08a5.08 5.08 0 0 1 5.07-5.07h5.47v2.44a8.83 8.83 0 0 0 2.47 6.18z"/><path d="m509.06 555.25h3a2.2 2.2 0 0 1 2.19 2.2v23.22a41.76 41.76 0 0 1 7.81 1.11v-30.08a5.07 5.07 0 0 0 -5.06-5.07h-5.47v2.44a8.88 8.88 0 0 1 -2.47 6.18z"/><path d="m658.6 949.19h-404.11" fill="none" stroke="#000" stroke-miterlimit="10" stroke-width="4.48"/><circle cx="489.68" cy="113.74" r="3.2"/><circle cx="464.47" cy="113.74" r="3.2"/><path d="m448 107.69c1.86-.09 28.7 0 28.7 0l-4.52 14.83h-16.66z" fill="#3fbdf1"/><path d="m477.45 107.69c1.85-.09 28.7 0 28.7 0l-7.61 14.83h-16.61z" fill="#3fbdf1"/><g fill="none" stroke-miterlimit="10"><g stroke="#000" stroke-width="2.98"><path d="m448 107.69c1.86-.09 28.7 0 28.7 0l-4.52 14.83h-16.66z"/><path d="m477.45 107.69c1.85-.09 28.7 0 28.7 0l-7.61 14.83h-16.61z"/><path d="m470.71 135.33s9.14 3 11.58-1.71"/></g><g stroke-width="4.48"><path d="m526.83 908.36c.1-1.11.5-3.4.59-4.51q.38-4.77.93-9.76c2.25-21.68 6.45-46.39 11.58-73.51 2.16-11.52 4.48-23.51 6.89-35.89 2.93-14.95 6-30.46 8.95-46.46.5-2.65 1-5.31 1.52-8q1.11-6 2.22-12.14c.93-5.22 1.89-10.47 2.78-15.75 2.78-16 5.44-32.43 7.85-49.17 1.6-11 3.09-22.15 4.38-33.42 2.63-22 4.7-44.48 6-67.27.59-10.78 1-21.66 1.21-32.56.68-37.19-4.08-65.67-11.92-87.5l6.76-12.82c10.29 8.4 18.41 14.92 20.08 15.91 0 0 2.5-7.11 5.68-19 .34-1.27.71-2.59 1.08-4 5.62-21.9 12.67-56.84 12-92.91-1.11-59.8-23.41-122.84-108.32-135.23a5 5 0 0 1 -4.23-4.35" stroke="#000"/><g stroke="#fff"><path d="m339.45 724.44h-66.63"/><path d="m339.45 741.26h-66.63"/><path d="m339.45 758.08h-66.63"/><path d="m339.45 774.91h-66.63"/><path d="m258.04 819.08h-66.63"/><path d="m258.04 835.03h-66.63"/><path d="m258.04 850.99h-66.63"/><path d="m258.04 866.95h-66.63"/><path d="m339.45 791.73h-66.63"/><path d="m339.44 809.37h-16.06"/></g></g></g><path d="m346.82 826.72h-58.68v-12.23a20.43 20.43 0 0 1 40.64-3c1.22 8.44 9.55 15.23 18.04 15.23z" fill="#3fbdf1"/></svg>