<svg viewBox="0 0 1000 1000" xmlns="http://www.w3.org/2000/svg"><g fill="none" stroke="#ccdde2" stroke-miterlimit="10" stroke-width="5.05"><path d="m177.21 457.45c32.91-46 82.23-66.85 82.23-66.85 1.61-.67-5.25-63.69-5.39-68.16-2.08-73.62 10.13-150.22 65.47-203.38 69.18-66.41 194.7-80.17 274.06-24.22-1-.74 26.11-22.11 28.4-23.48a109.85 109.85 0 0 1 48.78-15.51c69.44-5 133.12 49.56 159.17 115.56s20.07 216.38-27.72 259.75"/><path d="m147.54 537.25a167.13 167.13 0 0 1 13.79-52.45q1.06-2.37 2.22-4.64"/><path d="m233.36 728.69c-8-7.27-15.41-14.67-22.2-22.11"/></g><path d="m900 512.48c.06 5 0 10.1-.24 15.21-1.42 31.61-8.19 64.28-25.11 90.9a118.6 118.6 0 0 1 -10.28 14c-36-4.75-41.37-41.47-83-62.23-49.87-24.93-131.53-16-131.53-16l40.23-37.11c-2.15-111.76-84.2-104.9-84.2-104.9l-4.17 10.21q4.75-13.87 9.61-25.87l.18-.42c38-94.38 77.37-106.08 108-119.71a98.28 98.28 0 0 1 22.33-2.66c78.31-.42 124.27 79.33 144.37 143.53 5 16 12.69 50.22 13.72 88.7.02 2.06.09 4.21.09 6.35z" fill="#2e2e2e"/><path d="m944 931.36c-6.08 8.37-16.11 12.93-26.45 12.93h-118.8a32.73 32.73 0 0 1 -24.39-10.39c-.06 0 0 0 0 0a13.85 13.85 0 0 1 -1.18-1.36 31.11 31.11 0 0 1 -6.71-16.08c-.6-5.41 3.42-10.22 8.86-10a8.53 8.53 0 0 1 8.16 7.7c0 .43.09.85.15 1.27a14.19 14.19 0 0 0 3.11 6.62 14.46 14.46 0 0 0 11.55 5.11h119.76a14.85 14.85 0 0 0 11.37-5 14.15 14.15 0 0 0 2.72-13.72l-53.49-159.05a29 29 0 0 0 -1.55-3.56 38.35 38.35 0 0 0 -35.11-21.94c-22.52.27-51.11.33-53.8.33-59.93-.22-87.2-.22-102.2.18a25 25 0 0 1 5.44-9.94s.06-.06.06-.09a21 21 0 0 1 14-6.59c22.22-1.82 44.22-5.14 65.59-10.94 37.71-10.22 73.68-27.75 98.67-55.94a131.88 131.88 0 0 0 27-47.06 186.94 186.94 0 0 0 8.22-42.52q.58-6.84.72-13.78v-.21c0-1.06.06-2.15.06-3.21a149.31 149.31 0 0 0 -.9-19.73 25.15 25.15 0 0 1 17.44 7.22 17.58 17.58 0 0 1 .9 3.33 19.56 19.56 0 0 1 .27 3.26v129.35a66.73 66.73 0 0 1 -19.79 47.51c-10.4 10.3-13.36 25.93-8.43 39.68l53.16 158.18a31.15 31.15 0 0 1 -4.41 28.44z" fill="#3fbdf1"/><path d="m211.17 927.37v-362.63h22.19v362.78z" fill="#2e2e2e"/><g fill="none" stroke="#000" stroke-miterlimit="10" stroke-width="5.05"><path d="m649.85 554.31c15.89-1.69 34.27-3.69 51.92-3.29"/><path d="m563.29 570.33c-28.14 7.1-55.52 17.35-78.88 34.39-39.2 28.56-57.12 81.84-41.1 128 0 .06 63 181.79 63 181.79h-16.58a27.06 27.06 0 0 0 -19.22 8c-4.93 4.9-7.36 13.07-7.36 20.57h149.23l-56.71-185.5a30.49 30.49 0 0 1 29.26-39.5c32.31.91 62.32 2.15 95 .73"/><path d="m900.23 529.2v-.2c-1.45-39-3.41-77.48-14.08-111.6-20.1-64.2-66.06-143.95-144.37-143.53a98.28 98.28 0 0 0 -22.33 2.66c-51.62 12.27-87.47 65.16-108 119.71l-.18.42q-2.94 7.85-5.44 15.66a72.79 72.79 0 0 1 -4.17 10.21 70.26 70.26 0 0 1 -69.18 38.75c-94.8-8.62-219.74-13.54-259.09 53.07"/><path d="m745.1 456.66c-13.8 16.66-28.33 32.75-43.35 48.31-30.75 31.88-57.28 65.74-105 68-38.07 1.83-74.31-12.78-110.31-22.91-38.51-10.83-58-19.49-93.89-30.43a116.27 116.27 0 0 0 -31.86-5l-36.13.28"/><path d="m604.18 916.85a26.49 26.49 0 0 1 10.94-2.32h16.62s-34.74-67.53-62.52-112.48"/><path d="m627 718.96 116.2 225.33h-131.44-23.84"/><path d="m944 931.36c-6.08 8.37-16.11 12.93-26.45 12.93h-118.8c-9.85 0-19.46-4.08-25.6-11.78a31.11 31.11 0 0 1 -6.71-16.08c-.6-5.41 3.42-10.22 8.86-10a8.53 8.53 0 0 1 8.16 7.7 14.07 14.07 0 0 0 3.26 7.89 14.92 14.92 0 0 0 11.55 5.11h119.79a14.85 14.85 0 0 0 11.37-5 14.15 14.15 0 0 0 2.72-13.72l-53.49-159.02a38.55 38.55 0 0 0 -36.66-25.5c-22.52.27-51.11.33-53.8.33-66.73-.21-93-.21-106.92.3a1.65 1.65 0 0 1 -1.64-1.66 25 25 0 0 1 6.36-16.74.15.15 0 0 0 .06-.1 21.06 21.06 0 0 1 14-6.58c22.22-1.82 44.22-5.14 65.59-10.94 37.71-10.22 73.68-27.75 98.67-55.94a131.88 131.88 0 0 0 27-47.06 186.94 186.94 0 0 0 8.19-42.5q.59-6.86.72-13.78v-.22c0-1.05.06-2.14.06-3.2a149.23 149.23 0 0 0 -.9-19.73c10.88-.06 21.85 7.85 23.75 18.89a19.56 19.56 0 0 1 .27 3.26v129.33a66.73 66.73 0 0 1 -19.79 47.51c-10.4 10.3-13.36 25.93-8.43 39.68l53.16 158.18a31.15 31.15 0 0 1 -4.35 28.44z"/><rect height="27.47" rx="13.73" width="336.97" x="50" y="537.26"/><rect height="15.38" rx="7.69" width="140.53" x="152.75" y="929.09"/><path d="m193.86 524.93v1.38c.2 9.49 9.13 10.94 16.83 11l148.86-.1c6.52 0 11.9-5 11.91-11.14v-.26c-.12-6-5.36-10.89-11.8-10.9 0 0-83.28-.3-147.78-.49-1.16 3.38-4.1 6-7.77 8.14a20.8 20.8 0 0 1 -10.25 2.37z"/><path d="m112 391.23a8.88 8.88 0 0 0 1.31 4.47l69 115.89a12 12 0 0 0 8 5.34 13.81 13.81 0 0 0 8.19-.89c4.23-1.88 6.67-5.67 6.59-9.51a10 10 0 0 0 -.15-1.44 9.44 9.44 0 0 0 -1.16-3l-69-115.89c-3-5.07-10.34-7.06-16.24-4.45-4.21 1.84-6.65 5.63-6.54 9.48z"/><path d="m298.58 514.91s8.31-7.91 27.42-20.47"/><path d="m366.34 384.91-30.29 33.59a12.29 12.29 0 0 1 -16.88 1.31 12.3 12.3 0 0 1 -.8-18.39l5.54-5.36c.21-.3.45-.57.69-.85l4-4.41 34.4-37.38a37.13 37.13 0 0 1 33.55-11.64l.51.09"/><path d="m409 394h-30.3a13 13 0 0 1 -13-13 13 13 0 0 1 13-13h43"/><path d="m385.77 394c-.42 5.31-2.45 9.24-5.44 12-7.7 7-21.82 6.23-31.64 1.42"/><path d="m328.65 390.78c-8.71-10.49-6.92-24.75-.15-35.78 27.95-45.64 81.23-17.53 116.26 2.14a475.13 475.13 0 0 1 59.63 39.86c16.68 13 32.12 28.56 52.16 36.38 12 4.69 26.17 5.81 38.11.4"/><path d="m380.33 405.92a657.69 657.69 0 0 1 60.44 50.47"/></g><path d="m637.51 160.58c5.06 4.62 12.83 4.87 19.26 4.25 8.22-.75 16.36-2.74 24.41-4.42l4.89-.25h.07a7.14 7.14 0 0 1 7.07 7.21 143.51 143.51 0 0 1 -3.14 31.41l9.37 5.07c1.21-3.38-.15-8.25 2.72-8.62 1.84-3.43 4.58-5.66 8.88-3.11 8.42 5 11.74 19.69 3.63 26.42l5.2 9.72a16.66 16.66 0 0 0 19.54 8.12l-5.31-11.74c12.46 2.21 21.18-13.34 17.38-22.83-2.59-6.52-2.46-11.59 1-17.93.23-.43-2.12-1-1.92-1.44.12-4.65-1.17-9.63-3.41-12-3.94-4.24-11.87-5-10.25-11.44a27.14 27.14 0 0 0 .79-8.59 26.61 26.61 0 0 0 -11.29-18.91c-6.56-4.31-13.9-.4-20.91-.51-8.51-.09-14.61-7.31-23.53-7.42-4.44-.07-8 1.66-11.8 3.81-3.18 1.83-6.31 3.74-9.35 5.81s-5.74 3.86-9.37 3.87c-4.73.06-9.3-2.94-14.06-1.54a11 11 0 0 0 -6 4.1c-1.51 7.38 1.22 16.51 6.13 20.96z" fill="#3fbdf1"/><g fill="none" stroke="#000" stroke-width="5.05"><path d="m699.48 202.75a36 36 0 0 1 2.68-7.54c1.84-3.43 4.59-5.66 8.88-3.11 8.42 5 11.74 19.69 3.63 26.42l5.2 9.72a16.66 16.66 0 0 0 19.54 8.12" stroke-linecap="round" stroke-linejoin="round"/><path d="m734.1 224.62 5.29 11.76c1.33 2.81 5.14 11.45 9.13 20.43 2.84 6.43 5.8 13.05 8 17.92" stroke-linecap="round" stroke-linejoin="round"/><g stroke-miterlimit="10"><path d="m648.41 182.39s15.59-3.88 22.4 7.94"/><path d="m653 217.68c-4.2 1.15-9.85 2.18-13.09-1.48l7.06-14.86a17.74 17.74 0 0 0 1.2-11.68c-1.54-6.59-5.39-16.6-1.26-25.29"/></g></g><ellipse cx="659.31" cy="195.24" rx="4.15" ry="4.88" transform="matrix(.5162344 -.85644734 .85644734 .5162344 151.74 659.12)"/><g fill="none"><g stroke="#000" stroke-width="5.05"><path d="m686.24 291.32-3.7-41.06" stroke-miterlimit="10"/><path d="m699.44 203.83c0-.36 0-.73 0-1.09a11.37 11.37 0 0 0 0-1.16" stroke-linecap="round" stroke-linejoin="round"/><path d="m699.45 203.84-3.22-1.73-6.16-3.35" stroke-linecap="round" stroke-linejoin="round"/><path d="m673.67 218.74s-.31 10.4-12.2 14.68" stroke-miterlimit="10"/><path d="m734.1 224.62c12.46 2.21 21.18-13.34 17.38-22.83-2.59-6.52-2.46-11.59 1-17.93.23-.43.42-.85.62-1.27 2.57-5.67 1.66-11.29-2.38-16.11-3.83-4.56-9.6-6.16-7.94-12.81a27.83 27.83 0 0 0 .82-8.85 27.33 27.33 0 0 0 -11.6-19.45c-6.74-4.47-14.33-.42-21.59-.53-8.74-.13-15.05-7.57-24.22-7.68-4.59 0-8.29 1.71-12.19 3.93-3.28 1.89-6.53 3.88-9.63 6s-6 4-9.68 4c-4.88 0-9.59-3-14.47-1.6s-7.78 5.44-8.74 10.12c-1.56 7.34 1.17 16.51 6.08 21 5.06 4.62 12.83 4.87 19.26 4.25 8.22-.75 16.36-2.74 24.41-4.42l4.89-.25h.07a7.14 7.14 0 0 1 7.07 7.21 143.51 143.51 0 0 1 -3.14 31.41" stroke-miterlimit="10"/><path d="m701.33 236s-18.58 24.68-35.09 19.15-17.35-36.08-17.35-36.08" stroke-linecap="round" stroke-linejoin="round"/><path d="m211.17 927.37v-362.63h22.19v362.78" stroke-miterlimit="10"/></g><path d="m239.66 351.61s.12.1.35.26"/></g><circle cx="231.59" cy="317.91" fill="#3fbdf1" r="35.82"/><path d="m217.58 327.15a12.36 12.36 0 0 1 -2.76-2.59 9 9 0 0 1 .55-11.93 9.3 9.3 0 0 1 7.81-2.75 9.25 9.25 0 0 1 16.11-7.53c2.79 3.16 4.1 7.86 4.59 12a32.19 32.19 0 0 1 .1 6.51c-.09 1.09-.48 7.38-1.5 7.78-6.74 2.58-18.23 3.14-24.9-1.49z" fill="#fff"/><path d="m466.13 322.31-.21.11" fill="none"/><circle cx="484.32" cy="326.08" fill="#3fbdf1" r="19.2"/><path d="m483 317.18a6.18 6.18 0 0 1 1.89-.75 4.84 4.84 0 0 1 5.66 3 5 5 0 0 1 -.45 4.42 5 5 0 0 1 0 9.53 12.13 12.13 0 0 1 -6.87-.5 17.51 17.51 0 0 1 -3.18-1.44c-.51-.29-3.48-1.91-3.43-2.5.29-3.88 2.64-9.58 6.38-11.76z" fill="#fff"/><path d="m335.45 304.18a28.85 28.85 0 0 0 7.13 4.37 29.68 29.68 0 0 0 29.11-3.55c3.2-2.44 6-5.81 9.31-8.26a15.62 15.62 0 0 1 8-3.24 6.17 6.17 0 0 0 2.81-.59c2.22-1.38-.4-3.67-.63-5.29a10.68 10.68 0 0 1 1.83-7.35 29.55 29.55 0 0 0 -40.76-41.16c-5.63 3.69-9.81 9.16-14.05 14.39-3.74 4.61-7.65 9.15-10.39 14.42-6.44 12.39-2.68 27.65 7.64 36.26z" fill="#3fbdf1"/><g fill="#fff"><circle cx="373.64" cy="256.93" r="6.41"/><circle cx="361.24" cy="272.09" r="6.41"/><circle cx="349.61" cy="286.32" r="6.41"/></g><path d="m535 226.29a17.18 17.18 0 0 1 -8.86 11.85l-53.46 28.4a17.36 17.36 0 0 1 -23.52-7.2l-42.61-80.23a17.38 17.38 0 0 1 7.19-23.49l53.5-28.39c8.05-4.28 19.16-1 23.48 7.19l42.62 80.2a17.11 17.11 0 0 1 1.66 11.67z" fill="#3fbdf1" opacity=".46"/><path d="m519.13 220.21-52.13-19.87a3 3 0 0 1 -1.85-3.42l12.09-55.61a3 3 0 0 1 5.55-.77l40.04 75.46a3 3 0 0 1 -3.7 4.21z" fill="#fff"/><path d="m597 282.12a9 9 0 0 1 3.74 6.82l2 31.79a9.14 9.14 0 0 1 -8.57 9.7l-47.71 2.94a9.15 9.15 0 0 1 -9.68-8.56l-1.95-31.81a9.38 9.38 0 0 1 8.55-9.68l47.7-3a9 9 0 0 1 5.92 1.8z" fill="#3fbdf1" opacity=".46"/><path d="m590.66 288.4-20.88 20.67a1.58 1.58 0 0 1 -2 .14l-24-17.9a1.57 1.57 0 0 1 .85-2.82l44.88-2.77a1.57 1.57 0 0 1 1.15 2.68z" fill="#fff"/><g opacity=".46"><path d="m273 456.81a60.45 60.45 0 0 1 -9.47.8c-30.38 0-29.36-28.17-29.36-28.17l25.17 5.44a15.37 15.37 0 0 1 1.46-14.36c5.76-8.42 19.14-4.09 19.14-4.09l8.32-5.36-1.8 10 11.15-1.88-5.73 6.63c7.7 7.4 17.51 29.93-6.15 41.64s-33.87-2.32-33.87-2.32l11.67-7.52z" fill="#3fbdf1"/><path d="m259.36 434.88 20.53 4.75" fill="none"/></g><circle cx="272.5" cy="425.62" fill="#fff" r="3.64"/><path d="m335.95 944.29h416.27" fill="none" stroke="#000" stroke-miterlimit="10" stroke-width="3.15"/></svg>