<svg viewBox="0 0 1000 1000" xmlns="http://www.w3.org/2000/svg"><path d="m124.04 938h751.92" fill="none" stroke="#000" stroke-miterlimit="10" stroke-width="4.86"/><circle cx="651.34" cy="266.22" fill="#ccdde2" r="10.25"/><circle cx="683.48" cy="246.01" fill="#ccdde2" r="12.7"/><path d="m686 238.71c34.06-6.83 74-3.1 121.36 22.14 101.77 54.26 134.24 150.07 141.49 231.29 3.4 38-.49 76.33-13.21 112.26-5.37 15.22-12.53 30.85-21.94 44" fill="none" stroke="#ccdde2" stroke-miterlimit="10" stroke-width="4.86"/><path d="m621.76 265.32c-11.33 7-21.72 14.47-31.34 21.56-46.84 34.64-74.74 60.27-97-24.21-45-170.89-314.35-96.85-330.44-4.83s109.61 69.21-46.16 212.06 9.59 247.18 9.59 247.18" fill="none" stroke="#ccdde2" stroke-miterlimit="10" stroke-width="4.86"/><path d="m839.13 910.35-96.23-.42-18.61 28.07h140.93l4.25-14c0-15.77-14.64-13.56-30.34-13.65zm-247.92 1.75-91.91-.27-14.55 26.17h153l3.07-16.73c0-13.34-36.3-9.07-49.61-9.17zm238.15-540.77c-3.67-26.23-8.31-27.17-22-52.77-8.95-16.56-29.6-24.56-48.18-27.68-2-.33-3.91-.55-5.86-.75a72.73 72.73 0 0 0 -13 .13 106.74 106.74 0 0 0 -30.94 8.06c1.39 17.81-.52 36.23-11.75 49-15.92 18.22-52.5 22.38-64.53-2.35q-4.67 3.54-9.42 7.48c-.68.55-1.33 1.07-2 1.65-37.06 30.82-59.38 73.11-89.4 126-26.38 41.83-27.19 61.54-39.92 109.19 22.11-11.17 46-10.75 67.85-2.07 31-64 56.78-92.85 74.94-117.15 4.73 6.64 9.68 15.83 19.52 37.06l-48.84 42.2c12.49 11.14 29.39 27.76 39.91 52.29l51.5-31-.1.17-1.26 2.26 41.78-26.4 23.15-17.95c8.24-6.38 19.77-15.32 26.39-23.37l26-34.92s12.32-27.68 12.35-27.68c6.77-17.84 4.73-12.29 6.77-25.53 3.05-19.45.07-24.27-2.96-45.87z" fill="#2e2e2e"/><path d="m510.7 709-109.65 128.21c-42.44 65-101 99-173.5 99l-61.81.54a101.3 101.3 0 0 1 -101.29-101.31 119.52 119.52 0 0 1 35.07-84.68c22-22.07 55.71-38.51 87.52-34.8 28.46 3.32 61.91 24.07 83 42.89 26.8 23.91 130.05-36.68 168.78-55.78 15.38-7.58 29-12.22 40.77-24.71 3.73-4 0 3 3.7-1-1 3.11-.94 3.79-.34 5.59 4.13 11.97 15.82 22.2 27.75 26.05z" fill="#3fbdf1"/><path d="m537.9 675.19s-25.34-1-19-21.33c0 0 9.79-10.69 13.83-8.64s7.07 10.95 5.46 19.65-.29 10.32-.29 10.32z" fill="#3fbdf1"/><g fill="none" stroke="#000" stroke-miterlimit="10" stroke-width="4.86"><path d="m554 684.34c-4.69 1.1-9.61 1.36-13.14-1.62-8-6.73.29-20.26-3.17-30.17-3-8.48-8.77-9.09-14.83-14.79-7.09-6.67-1.74-14.37 3.86-19.91a304.83 304.83 0 0 1 26.25-23l102-87.76"/><path d="m559 590.05c39.84-96.89 105-147.32 105-147.32"/><path d="m602 713.62-117.06 224.38h143.5a13 13 0 0 0 12.95-13 13 13 0 0 0 -12.95-12.95h-45.32l190.11-301.42"/></g><path d="m593.45 641.81c.19-1.59 8.67 1.5 9.2 1.81 8.5 5 10.89 16.62 11.85 25.6a101.47 101.47 0 0 1 .31 20.17c-.37 4.06-1.59 8-1.85 12-.53 8.2 4.09 11.17 11.63 7.6 17.61-8.33 27.92-21.68 42.49 9.07 0 0 14.31 10.94 13.83-15.17s-10.59-79.56-77.15-74.58c0 .02-9.3 5.1-10.31 13.5z" fill="#3fbdf1"/><path d="m655.37 596.52-40.4 72.67" fill="none" stroke="#000" stroke-miterlimit="10" stroke-width="4.86"/><path d="m671.13 208.92a11.89 11.89 0 0 1 -4.17 5.89c-7.58 5.5-10.65-12.43-11.33-2.56s-10.55 10.68-32.57 20.81c-5.69 2.63-7.7 7.32-7.51 12.89-3.23 6.54 2.51 15.76 6.82 24.41-2.66-.65-7.62 1.19-9.15 5.76-1.23.9.1 0-.71 2.79-5.21 17.64 26.13 22.92 26.13 22.92l4 14.62-5.47 1.39 3.1.22c-1 5.08-22.58-7.42-24.55-8.59-18.48-11-36.53-28.4-37.37-49.6a37.35 37.35 0 0 1 .59-7.35.13.13 0 0 1 0-.1c.68-4.14 1.62-8.25 1.2-12.52 0-.1 0-.3-.07-.56v-.12c-.39-3.18-2-15-3.4-15.38a6.65 6.65 0 0 0 1.36.26c4.53.61 9.55-2.24 12.5-4.31a13.37 13.37 0 0 0 3.82-4.24c18.48-31.72 31.14-16.18 41.82-18.61 10.94-2.46 25.09-9.1 25.09-9.1 5.21 3.86 9.13 12.72 9.87 21.08z" fill="#3fbdf1"/><g fill="none" stroke="#000" stroke-miterlimit="10" stroke-width="4.86"><path d="m510.7 709-104.61 120.75c-45.17 69.19-113.83 108.25-190.97 108.25h-49.67a107.81 107.81 0 0 1 -107.81-107.81 127.42 127.42 0 0 1 127.42-127.42 127.44 127.44 0 0 1 63.62 17 83.83 83.83 0 0 0 66.73 7.81l165.59-51.38"/><path d="m709.62 298.32a107.55 107.55 0 0 1 30.75-8.06 72.73 72.73 0 0 1 13-.13c2 .17 4 .42 6.06.75a73.44 73.44 0 0 1 22.57 7.91c16.79 9 29.6 23.87 37.3 41.29 19.12 43.3 40.25 144-118.12 228.28l-4 2.43q-44.86 27-89.76 54c-5.09 3.08-10.49 6.44-12.89 11.88-2.55 5.8-1.13 12.53-2.29 18.74-2.89 15.32-19.69 23.15-34.54 27.84-1.2.39-2.46.75-3.73 1.07a19.19 19.19 0 0 1 -2.2 11.65c-3.72 6.64-10.81 10.85-18.19 12.76-20.62 5.37-44.32-7.35-51.24-27.52-4-11.58-2.85-24.24-1.17-36.38 11.2-81.21 40.38-158.4 86.61-226.18 15.88-23.28 31.77-46.67 53.94-64.54.68-.58 1.33-1.1 2-1.65q4.71-3.74 9.49-7.38l.13-.1c3.3-2.52 11.36-9.29 14.72-11.72a8.56 8.56 0 0 0 1-.87c4.69-4.4 2.82-12.33-3.07-15l-4.47-2"/><path d="m538.2 676.2c-28.66-4.68-18.68-23.79-18.68-23.79l13.41-9"/><path d="m691.73 301.29 17.89-3c1.39 17.81-.52 36.23-11.75 49-15.92 18.23-52.5 22.37-64.54-2.36"/><path d="m671.13 208.92a11.89 11.89 0 0 1 -4.17 5.89c-7.58 5.5-10.65-12.43-11.33-2.56s-10.55 10.68-32.57 20.81c-5.69 2.63-7.7 7.32-7.51 12.89.33 11.59 10.17 26.83 15.41 34.18-2.88-3.56-7.25-8.19-11.13-9.09-2.66-.65-5.08.51-6.61 5.08-.19.58-.35 1.16-.51 1.84-4.5 19.17 25.7 23 25.7 23l3.53 12.78.74 2.69c-.26 1.62-2.43 1.88-5.47 1.39-7.22-1.1-19.23-6.44-20.72-7.25a76.29 76.29 0 0 1 -27.49-25.92 66.6 66.6 0 0 1 -7.93-17.5c-2-7.22-1.86-13.8-1.5-21.24.27-5.58.66-11.19.47-16.78a14.56 14.56 0 0 0 -2.29-7.62c6.76-.24 11.07-5.6 14.42-11 18-38.27 32.21-21.4 43.34-24.64s25.35-11 25.35-11c8.14 5.72 13.96 23.53 10.27 34.05z"/><path d="m667 214.68s44.83 41.92 26.83 82.17c-4.42 9.88-13.07 17.39-23.88 17.9h-.4"/><path d="m667.41 256.61s10.1 10.84 11.16 11.91c3.45 3.45-5.4 6.89-5.4 6.89"/><path d="m682 279.34c-.14.45-1.51 1.14-1.86 1.39a42.59 42.59 0 0 1 -5 3 43.7 43.7 0 0 1 -11 3.85c-3.13.63-5.92 2.16-5.59 5.91l.44 4.82s18.33-3.51 23.01-18.97z"/><path d="m653.41 243.56s-16.41-.56-20.78 13.05"/><circle cx="651.34" cy="266.22" r="15"/><circle cx="683.48" cy="246.01" r="15"/></g><path d="m683.47 235.82a10.19 10.19 0 1 1 -5.41 1.57 10.13 10.13 0 0 1 5.41-1.57m0-2.43a12.62 12.62 0 1 0 10.69 5.9 12.59 12.59 0 0 0 -10.69-5.9z" fill="#fff"/><path d="m664.04 258.23 6.74-4.24" fill="none" stroke="#000" stroke-miterlimit="10" stroke-width="4.86"/><circle cx="625.27" cy="287.01" r="2.9"/><g fill="none" stroke="#000" stroke-width="4.86"><g stroke-miterlimit="10"><path d="m646.73 268.03 9.54-6.11"/><path d="m677.73 249.06 9.55-6.11"/><path d="m691.73 301.29 8.46 13.47"/><path d="m578.71 656.1s4.32 16.3-5.13 20.55"/><path d="m560.18 682.52s10.8-9.84 6.09-19.67"/><path d="m548.32 685.46s8.7-8.74 5.25-14.2"/><path d="m551.75 696s-8.82 3.54-27.71-4.28"/><path d="m531.2 709c-1.37-.37-13.49-.2-20.5-9.64"/><path d="m567.46 681.46s3.32 17.6-14.69 16.39"/><path d="m592.86 645.58s26.41-1.08 12.92 46.13 11.33 32.71 33.45 17.3 23.26 19.12 36.18 12.1 8.87-104.08-74.89-91.69"/><path d="m829 910.26h-34.8"/><path d="m584.3 911.83h-34.8"/><path d="m482.32 681.23-113.65 99.77c-28.82 27.87-62.32 30.21-85.38 19.42"/><path d="m487.84 691.71-48.23 60.02"/><path d="m498.07 701.64-23.93 39.72"/></g><path d="m644.08 682.52c-27-47.22-50.63-40.71-50.63-40.71s28.95-.1 31.16 59.83" stroke-linecap="square" stroke-linejoin="bevel"/><path d="m594.51 636.69s16.66-3.49 27.45 0" stroke-miterlimit="10"/></g><path d="m192.65 596.74a3.75 3.75 0 0 0 .39.17" fill="#3fbdf1"/><circle cx="177.33" cy="567.13" fill="#3fbdf1" r="34.46"/><path d="m166.38 579a12.25 12.25 0 0 1 -3.18-1.78 8.69 8.69 0 0 1 -2.2-11.22 8.9 8.9 0 0 1 6.66-4.37 8.91 8.91 0 0 1 13.31-10.76c3.33 2.31 5.64 6.4 7.06 10.14a31 31 0 0 1 1.59 6c.17 1 1.26 7 .4 7.61-5.74 3.98-16.34 7.16-23.64 4.38z" fill="#fff"/><path d="m397.41 517.07-.16.15" fill="#3fbdf1"/><circle cx="415.27" cy="516.39" fill="#3fbdf1" r="18.48"/><path d="m412 508.37a6.49 6.49 0 0 1 1.59-1.13 4.64 4.64 0 0 1 6 1.48 4.74 4.74 0 0 1 .6 4.22 4.78 4.78 0 0 1 2.19 8.91 11.71 11.71 0 0 1 -6.53 1.12 16.83 16.83 0 0 1 -3.3-.61c-.55-.16-3.69-1-3.79-1.54-.64-3.67.24-9.54 3.24-12.45z" fill="#fff"/><path d="m271.17 530.32a27.84 27.84 0 0 0 7.67 2.44 28.58 28.58 0 0 0 26.37-10c2.42-3 4.25-6.8 6.79-9.86a15.09 15.09 0 0 1 6.73-4.88 5.73 5.73 0 0 0 2.49-1.2c1.75-1.8-1.22-3.33-1.81-4.79a10.29 10.29 0 0 1 0-7.29 28.44 28.44 0 0 0 -47.58-29c-4.4 4.75-7 10.82-9.8 16.68-2.42 5.17-5 10.32-6.37 15.87-3.16 12.99 3.88 26.36 15.51 32.03z" fill="#3fbdf1"/><g fill="#fff"><circle cx="295.93" cy="477.37" r="6.16"/><circle cx="287.85" cy="494.39" r="6.16"/><circle cx="280.27" cy="510.36" r="6.16"/></g><path d="m751.73 378.36s13.25 53.3-96.85 128.75c-9.88-21.23-16.83-33.11-21.55-39.75" fill="none" stroke="#000" stroke-miterlimit="10" stroke-width="4.86"/><path d="m820.34 456.42s4.47 24.29 12 43.52c4.1 10.42 36.85 65.23 66 113.28 28.9 47.62 36.8 135.95-1.45 193.88l-70 103.25h30.33a13.61 13.61 0 0 1 13.64 13.65 13.61 13.61 0 0 1 -13.73 13.62l-129.41.38 83.73-152.1a125.45 125.45 0 0 0 -1.34-123.33l-53.53-92.42" fill="none" stroke="#000" stroke-miterlimit="10" stroke-width="4.86"/><path d="m439.58 411.47a16.48 16.48 0 0 1 -5.58 13.11l-43.37 38.88a16.71 16.71 0 0 1 -23.63-1.29l-58.34-65.1a16.74 16.74 0 0 1 1.3-23.6l43.41-38.88c6.53-5.85 17.65-5.39 23.6 1.3l58.37 65.11a16.44 16.44 0 0 1 4.24 10.47z" fill="#3fbdf1" opacity=".46"/><path d="m423.34 409.46-53.34-6.46a2.86 2.86 0 0 1 -2.52-2.76l-1.48-54.79a2.87 2.87 0 0 1 5-2l54.87 61.25a2.86 2.86 0 0 1 -2.53 4.76z" fill="#fff"/><path d="m376.06 581a8.68 8.68 0 0 1 5.07 5.51l9.18 29.24a8.79 8.79 0 0 1 -5.76 11l-43.88 13.76a8.8 8.8 0 0 1 -11-5.76l-9.17-29.25a9 9 0 0 1 5.75-11l43.85-13.8a8.69 8.69 0 0 1 5.96.3z" fill="#3fbdf1" opacity=".46"/><path d="m371.56 588.3-14.73 24.12a1.5 1.5 0 0 1 -1.83.58l-26.6-11.14a1.51 1.51 0 0 1 .14-2.83l41.28-12.95a1.5 1.5 0 0 1 1.74 2.22z" fill="#fff"/><g fill="#3fbdf1" opacity=".46"><path d="m254.39 672.54a58.75 58.75 0 0 1 -8.66 2.94c-28.37 7-33.93-19.54-33.93-19.54l24.76-.73a14.82 14.82 0 0 1 -1.95-13.75c3.44-9.19 16.94-8.24 16.94-8.24l6.53-6.93.62 9.75 10-4.33-3.82 7.52c8.91 5.13 23.27 23.9 3.88 40.3s-32.17 5.66-32.17 5.66l9.16-9.71"/><path d="m236.56 655.21 20.28-.31"/></g><circle cx="246.7" cy="643.53" fill="#fff" r="3.51"/></svg>