<svg viewBox="0 0 1000 1000" xmlns="http://www.w3.org/2000/svg"><g fill="none" stroke="#ccdde2" stroke-miterlimit="10" stroke-width="4.68"><path d="m734.5 319a72.17 72.17 0 0 1 54.7-25 51.88 51.88 0 0 1 10.77.89"/><path d="m636 252.79a110.92 110.92 0 0 1 164 42.12 72.11 72.11 0 0 1 61.62 71.39v.7c-.33 31.45-27.4 56.18-58.89 56.18h-201.73a56.78 56.78 0 0 1 -56.57-51.28 52.07 52.07 0 0 1 -.33-5.63"/><path d="m734.5 319a72.17 72.17 0 0 1 54.7-25 51.88 51.88 0 0 1 10.77.89"/><path d="m729.63 944.19c24.89 0 46.93-8.07 66.09-21.08a168.3 168.3 0 0 0 32.21-29c17.68-20.28 31.71-44.46 42-68 16.63-38.1 28.72-78.48 32.67-118.43"/><path d="m695.31 423.21q11.67 9.68 23.48 18.67c40.81 31 87.5 49.69 124.45 86.81a203.89 203.89 0 0 1 43.87 64.54"/><path d="m253.47 488.81a276.4 276.4 0 0 0 4-45.38"/><path d="m254.82 232.86c7.84-33.92 22.95-65.1 49.43-88.25 33.89-29.61 84.75-36.56 127.08-24.41 47.67 13.7 69.67 52.73 91.67 93.27.86 1.61 1.74 3.22 2.63 4.8"/><path d="m160.47 944.19c-79 0-97.41-99.79-83.32-159.43 18.94-80.28 88.39-146 138.38-209.57a185.91 185.91 0 0 0 18.94-29.38"/></g><path d="m627 328.32c-10.15.63-18.94-.1-23.81-3.26-19.76-12.77-27.33-14.91-39-17.42a16.22 16.22 0 0 0 -15 4.65s0 .06-.06.06c-7.18 5.47-14.2 12-15.22 20.58-.43 3.59.43 9.82 5.76 10.31 2.47.23 4.38-1.12 5.9-2.86.63 4.51 1.75 9.15 4 12.58 3.13 4.71 8.36 7.08 13.4 9.22 5.5 2.34 11.1 4.38 16.76 6.32 10.31 3.52 20.78 6.65 31.32 9.42a110.92 110.92 0 0 1 -18.77 24.57 355.83 355.83 0 0 0 -67.28-46.49q-40.32-22.38-76.47-40.74c84.63-4.68 55.06-100.61 55.06-100.61l23.94 3.89s4.47 69.74 44.28 78.46c43.76 9.65 46-44.92 46.46-52.36l14.16 6.39s6.39 15.45-5.43 77.29z" fill="#2e2e2e"/><path d="m553.69 75.08a24.53 24.53 0 0 0 -4.77 14.79c-.1 13.73-5 4.34-9.58 19.39a80.5 80.5 0 0 0 -2.41 12.35c-2 15.74-1.91 35.17-1.91 35.17s-7 18.64-18.93 26.51c-.83.56-1.68 1.12-2.54 1.68-1.91 1.35-3.85 2.74-5.73 4.25a59.87 59.87 0 0 0 -7.9 7.31c-4.32 4.87-7.31 10.37-7.48 16.6a20.85 20.85 0 0 0 .2 3.42s-5.07-.26-13.24-.16c-2.86 0-6.12.06-9.68.2a0 0 0 0 0 -.07 0c-5 .19-10.54.52-16.43 1-15.77 1.45-34 4.48-50.09 10.44-38.53 14.29-64.87 33.46-64.87 33.46l-7.26-.49a105.54 105.54 0 0 1 -.82-18.54c1-21.64 9.68-49.43 44.69-60.89 60.33-19.69 61.74-30.82 61.74-30.82s.17-.17.5-.53c0 0 0 0 .06-.07a8.73 8.73 0 0 0 2.44-2.66.25.25 0 0 0 0-.1.13.13 0 0 0 .07 0 .27.27 0 0 0 .13-.13c2-1.55 18-14.62 25.55-31.94.73-1.68 1.52-3.56 2.41-5.6a.11.11 0 0 1 0-.07c8.25-13.92 21.6-33.85 41.6-41.61 12.28-4.77 26.15-3.29 37.63 3.15l.17.1c2.24 1.15 4.48 2.47 6.52 3.79z" fill="#3fbdf1"/><path d="m347.84 479c36.39 58.75 147.86 85.32 187.87 93.16-74 83.45-113.87 185.54-113.87 185.54l58.05 73.5a11 11 0 0 0 18.22-11.89l-21.28-50.58 137.23-168.06a71.25 71.25 0 0 0 -3.43-94c-35.69-37.74-98.73-89.32-200.29-127.81" fill="none" stroke="#000" stroke-linejoin="round" stroke-width="4.68"/><path d="m647.65 128c-.59 6.19-2.21 9.55-3.06 5.34-2-9.82-11-19.86-12.58-21.24-.14-.1-.27-.23-.5-.4-2.5-2-11-7.93-12.22-3.62-1.31 4.68-14.68 14.06-24.4 19.76a23 23 0 0 0 -10.8 16.2l-1.51-.69s-6-2.9-14.46.59-7 19.79 4.41 25.89c1.61.85 2.93 1.64 4 2.33a12.61 12.61 0 0 0 1.78 1.32s.06 0 .09.07c3.92 3.16 1.78 4.21 1.78 4.21-5 10.38-15 8-19.92 6.13-18.74-16-19.89-51.9-16.63-62 3.49-10.77 16.69-39.45 50.75-41.69 15-1 24.73.86 32 4.31 5.31 4.08 9.32 9.18 14.2 14.35 6.94 7.47 7.89 20.87 7.07 29.14z" fill="#3fbdf1"/><path d="m365.49 500.29-176 370.88a15.44 15.44 0 0 0 -1 9.71l18.51 48.78a18.6 18.6 0 0 0 18.14 14.52h33.07a8.93 8.93 0 1 0 0-17.85h-11.97l-6.94-38.7 217.94-336.63" fill="none" stroke="#000" stroke-linejoin="round" stroke-width="4.68"/><path d="m560.91 183.98-25.88 48.47" fill="none" stroke="#000" stroke-linejoin="round" stroke-width="4.68"/><path d="m601.05 558.09c-73.58 17.58-164.44-30.09-164.44-30.09-293.56-138.75-367.54-240.15-385.16-289.58a19.74 19.74 0 0 1 13.7-15.33c49.74-15.21 175.06-16.29 462 139.61 0 0 76.09 37.32 111.95 96.53a.6.6 0 0 1 .07.14 140.12 140.12 0 0 1 6 12.71 63.61 63.61 0 0 1 -44.12 86.01z" fill="#3fbdf1"/><path d="m484.55 477.35c-39.59 9.45-88.49-16.19-88.49-16.19-49.53-23.41-98.82-49.33-142.6-82.54-22-16.67-55-41.34-63.42-69.1-1-3.33-.69-7.28 1.69-9.81 1.83-1.94 4.53-2.75 7.11-3.39 37.87-9.33 77.58 3.12 113.28 15.37 46.4 15.92 88.82 39 132.69 60.52 0 0 40.94 20.08 60.27 52 1.19 2.24 2.27 4.51 3.23 6.84 7.79 19.11-3.78 41.52-23.76 46.3z" fill="#d7e8f0"/><path d="m601.05 558.09c-73.57 17.58-164.43-30.09-164.43-30.09-40.08-18.93-76.07-37.18-108.34-54.67l-79.17-45.84c-141.84-88.17-185.31-153.49-197.98-189.93a19.8 19.8 0 0 1 13.13-25.56c30.2-8.9 88-12.42 192.19 21.4l79.86 29.74c33.69 14 71 31.22 112.17 52.13q36.15 18.4 76.52 40.73a355.83 355.83 0 0 1 67.34 46.5c21.11 18.7 41.76 42.35 52.92 69.58a63.62 63.62 0 0 1 -44.21 86.01z" fill="none" stroke="#000" stroke-miterlimit="10" stroke-width="4.68"/><path d="m287.41 455.94s5-3.35 6.95-11.45 3.72-21.82 5.4-18.11 7.28 16.12 12.78 14.47 10.83-.77 7.06-17.53-12.92-23.09-11.87-34.05 5.46-37.69 29-51.64 59.21-36.05 94.89-37.9-12.62-33.68-12.62-33.68l-69.91-12.36s-41.43 25.36-70.42 70-36.67 57.54-40.67 92.71c0 0-2 15.84 4.84 18.09s35.39 16.25 35.39 16.25z" fill="#fff"/><g fill="none" stroke="#000" stroke-linejoin="round" stroke-width="4.68"><g stroke-linecap="round"><path d="m483.78 303.39c-13.93-4.08-28.68-5.13-43.14-4.38a189 189 0 0 0 -86.48 26.35c-11.62 7-22.62 15.54-31.28 26.11a72.76 72.76 0 0 0 -9.88 15.32c-4.61 9.81-7.12 19.56-3.86 30.23 2.57 8.33 7.41 15.77 9.85 24.17 1.48 5 4.05 14.1-.95 18-9.62 7.51-16.83-8.82-19.1-14.91a.49.49 0 0 0 -1 .09c-.72 7.65-4.28 33.2-13.21 33.66-10.67.53-10.6-4.84-10.2-8.53s-9.69 10.47-14.1-7.05c0 0-13 5.83-13.37-6.61-12.68 3.45-9.48-15.68-8.73-22.83 4-38.63 27.3-71.85 49.73-102.22 36.42-49.36 90.79-81.73 151.35-91.51a292.82 292.82 0 0 1 101.8 1.51"/><path d="m632.24 298.39a131.13 131.13 0 0 1 -3.36 29.8"/><path d="m608.39 377.23a216.86 216.86 0 0 1 -17.25 24.27"/></g><path d="m545.56 340.38c-1.51 1.74-3.42 3.09-5.89 2.86-5.34-.49-6.2-6.72-5.77-10.31 1-8.62 8-15.11 15.22-20.58 0 0 0 0 .06-.06"/><path d="m644.75 135c.63 5.73.89 11.46 1.38 17.19l.2 3c.26 18.61-3 31.65-6.88 40.6a20.61 20.61 0 0 1 -27.1 10.64l-13.05-5.66"/><path d="m491.46 214.66c1.26-27.24 50.25-30.41 43.6-79"/><path d="m577.39 172.71c-8.88-3.88-18.34-15.35-12.66-25 6.32-10.69 19.36-3.69 19.36-3.69.4-7.8 15.35-21.5 21.9-24.53 4.71-2.21 13-8 14.09-13.6 0 0 19.57 4.24 24.51 27.43 1.68 7.87 5.89-17.72-2.47-32-8.27-14.02-23.62-24.32-39.59-25.78-9.71-.89-16.73.1-26.38 3.06-11.39 3.46-21.9 9.65-29.47 18.68-11.8 13.83-13.73 33.68-9.8 51 3.33 14.69 11.45 33.85 27.87 37 4.81.92 9-.93 12.51-4.06 2.43-2.15 5.93-6.34 1.16-8.11z"/><path d="m322 257.78c-6.25-40.27 13-83.94 52.53-87.79 74.79-7.28 89-49.4 97.71-70.44s42.76-66.06 88.5-30.5c0 0 14.82-.62 15.41 9.55"/><path d="m631.33 140.53s10.34-12.32 15.11 2.9"/><path d="m620.5 135.39a13.72 13.72 0 0 0 -16.23-2.4c-2.34 1.24-4.42 3.41-6.29 5.25"/></g><g fill="#3fbdf1" opacity=".76"><path d="m624.13 149.15-5.22 14.68-17 3.34-9.19-22.59s18.58-8.51 31.41 4.57z"/><path d="m628.43 150s18.78-12.07 28.56-2.11l-8.68 18.57-17.4-2.2z"/></g><g fill="none" stroke-width="4.68"><g stroke="#000" stroke-linejoin="round"><path d="m627.81 147.76c.33.67 4.47 24.6 1.39 26.45-1.72 1-7.68-1.66-7.68-1.66"/><path d="m688.15 316.6s-35.07 10.24-61.15 11.72c-10.15.63-18.94-.1-23.81-3.26-19.76-12.77-27.34-14.91-39-17.42a16.25 16.25 0 0 0 -18.28 9.65c-2 4.91-1.42 11.33-1 16.5.49 6.06 1.28 14 4.71 19.17 3.13 4.71 8.36 7.08 13.4 9.22 5.5 2.34 11.1 4.38 16.76 6.32 10.31 3.52 20.78 6.65 31.32 9.42q7.46 2 15 3.72a387.33 387.33 0 0 0 52.4 8.73c15.05 1.31 30.79 1.77 45.57-1.75 10.51-2.47 21.51-7.64 25.79-18.24a28.67 28.67 0 0 0 1.94-10.67c0-34.75-36.55-60.7-62.63-77.26a512.78 512.78 0 0 0 -56.65-31.38c-4.71-2.24-9.41-4.38-14.16-6.39-3.09-1.35-6.19-2.6-9.28-3.86a9.66 9.66 0 0 1 -5.8-11.46l6.49-24.1"/><path d="m609.68 179.33s2.9 9.33 13.15 9.88"/><path d="m624.35 149.18-5.22 14.68-17 3.34-9.19-22.59s18.58-8.51 31.41 4.57z"/><path d="m628.65 150s18.78-12.07 28.55-2.11l-8.68 18.57-17.4-2.2"/><path d="m624.35 149.18s1.78-3.23 4.3.8"/><path d="m560.74 69.05s-14.55 5-11.38 25.28"/><path d="m845.21 944.19h-689.27"/></g><g stroke="#ccdde2" stroke-miterlimit="10"><path d="m728.06 472s30.55-38 73.12 0c0 0 10.91-40.06 62.21-34.29"/><path d="m111.84 567.23s22.76-8.79 31.63 18.34c0 0 14.77-14.6 35.51.76"/><path d="m669 521.19s22.92-28.54 54.84 0c0 0 8.19-30.05 46.66-25.73"/><path d="m236.69 481.68a26.17 26.17 0 0 0 -5.38-.45 36.18 36.18 0 0 0 -36.21 36.15"/><path d="m108.74 517.38c0 .94.06 1.91.15 2.81a28.41 28.41 0 0 0 28.3 25.63h100.86c15.75 0 29.29-12.36 29.44-28.08v-.36a36 36 0 0 0 -30.8-35.7 55.54 55.54 0 0 0 -102.86 7.5 28.44 28.44 0 0 0 -25.09 28.2z"/><path d="m236.69 481.68a26.17 26.17 0 0 0 -5.38-.45 36.18 36.18 0 0 0 -36.21 36.15"/><path d="m827.93 894.13-41.82-174.83"/><path d="m948.24 670.53c-3.21-12.07-10.13-24.13-16.07-32.59a181.71 181.71 0 0 0 -54-50.45c-39.69-23.65-81.44-30.16-126.52-20-86.39 19.38-125.65 113.56-122.65 181.34a20.9 20.9 0 0 0 14.24 18.44c9 3.08 15.94-.85 23.11-6 13.53-9.66 34.28-25.3 51.59-15.85 17.73 9.69 49.06 17.65 59.7-5.84 2.51-5.54 2.43-12.15 5.75-17.37 5.09-8 13-3.3 19.79.31s13.83 6.73 21.39 7.8 15.67-.13 21.83-4.62c5.45-4 8.87-10.06 13-15.39s9.86-10.31 16.6-10.31c3.78 0 7.37 1.49 10.91 2.78 16 5.86 41.23 13.67 55.36 0 8.88-8.67 8.94-21.06 5.97-32.25z"/><path d="m325.23 754.93c26.18 64.51 38 129.39 132 116.25 133.21-18.61 254.1-37.18 338.47 51.93"/><path d="m96.48 910.67c23.16-92.51 84.41-295.31 162.79-245a135.55 135.55 0 0 1 20.25 15.87"/></g></g></svg>