<svg viewBox="0 0 1000 1000" xmlns="http://www.w3.org/2000/svg" xmlns:xlink="http://www.w3.org/1999/xlink"><clipPath id="a"><path d="m306 574.51c31.11-33.36 11.56-92.53 56.18-121.39 101-65.33 273.1-85.86 273.1-85.86l-1.82-.45c.6.12 1.19.27 1.82.45 49.18 12.8 96.45 43.4 137.29 100.38 20.87 29.12 37.3 62 43.94 97.47 8.25 44.06-.74 88.23-20.69 127.53 0 0-19.29 33.88-37 49.77-8.63 8.19-17.68 15.9-26 24.32 0 0-17.35 16.32-35.69 53.71-7.56 13.9-15.87 27.24-28.61 37.24-21.7 17.09-52.42 19.68-78.8 11.49-32-9.94-66.32-34.74-77.61-67.37-12.44-36-28.4-72-71.06-76.5-37.05-3.87-72.85 15.7-109.65 2.05-60.28-22.35-25.93-98.92-25.4-152.87"/></clipPath><g clip-path="url(#a)" opacity=".38"><g fill="none"><path d="m660.71 557.92-.09 2.25h14.91l-.09-2.3a29.34 29.34 0 0 1 .09-3.51h-14.92a28.17 28.17 0 0 1 .1 3.56z"/><path d="m566.94 557.92-.09 2.25h14.91l-.1-2.3a31.58 31.58 0 0 1 .09-3.51h-14.91a32.49 32.49 0 0 1 .1 3.56z"/><path d="m473.16 557.92-.09 2.25h14.93l-.09-2.3a29.34 29.34 0 0 1 .09-3.51h-14.93a30.18 30.18 0 0 1 .09 3.56z"/><path d="m379.39 557.92-.09 2.25h14.91l-.09-2.3a29.34 29.34 0 0 1 .09-3.51h-14.92a28.17 28.17 0 0 1 .1 3.56z"/><path d="m754.48 557.92-.09 2.25h14.91l-.09-2.3a29.34 29.34 0 0 1 .09-3.51h-14.92a28.17 28.17 0 0 1 .1 3.56z"/></g><g fill="#d7e8f0"><path d="m379.3 560.17-.3 7.48h.15v11.83h15.78v-1.86l-.72-17.45z"/><path d="m372 537.8a26.56 26.56 0 0 1 7.31 16.56h14.92a26.38 26.38 0 0 1 6.21-15.36 26.91 26.91 0 0 1 20.4-9.29h4.56l.88-21.56a26.56 26.56 0 0 0 -26.71-28.23h-25.57a26.54 26.54 0 0 0 -26.72 28.17l.88 21.62h4.58a26.88 26.88 0 0 1 19.26 8.09z"/><path d="m473.07 560.17-.3 7.48h.15v11.83h15.78v-1.86l-.71-17.45z"/><path d="m465.76 537.8a26.67 26.67 0 0 1 7.31 16.56h14.93a26.38 26.38 0 0 1 6.21-15.36 26.93 26.93 0 0 1 20.4-9.29h4.57l.87-21.56a26.56 26.56 0 0 0 -26.7-28.23h-25.63a26.54 26.54 0 0 0 -26.72 28.16l.89 21.62h4.57a26.91 26.91 0 0 1 19.3 8.1z"/><path d="m566.85 560.17-.31 7.48h.15v11.83h15.78v-1.86l-.71-17.45z"/><path d="m559.53 537.8a26.56 26.56 0 0 1 7.31 16.56h14.91a26.51 26.51 0 0 1 6.25-15.36 26.93 26.93 0 0 1 20.4-9.29h4.6l.87-21.56a26.56 26.56 0 0 0 -26.7-28.23h-25.67a26.54 26.54 0 0 0 -26.72 28.17l.88 21.62h4.57a26.91 26.91 0 0 1 19.3 8.09z"/><path d="m660.62 560.17-.3 7.48h.15v11.83h15.77v-1.86l-.71-17.45z"/><path d="m653.3 537.8a26.56 26.56 0 0 1 7.31 16.56h14.92a26.38 26.38 0 0 1 6.23-15.36 26.91 26.91 0 0 1 20.4-9.29h4.56l.88-21.56a26.56 26.56 0 0 0 -26.71-28.23h-25.62a26.54 26.54 0 0 0 -26.72 28.17l.88 21.62h4.57a26.88 26.88 0 0 1 19.3 8.09z"/><path d="m754.39 560.17-.3 7.48h.15v11.83h15.78v-1.87l-.72-17.44z"/><path d="m747.07 537.8a26.56 26.56 0 0 1 7.31 16.56h14.92a26.38 26.38 0 0 1 6.23-15.36 26.91 26.91 0 0 1 20.4-9.29h4.57l.87-21.56a26.56 26.56 0 0 0 -26.7-28.23h-25.67a26.54 26.54 0 0 0 -26.72 28.17l.89 21.62h4.57a26.88 26.88 0 0 1 19.33 8.09z"/><path d="m848.16 560.17-.3 7.48h.14v11.83h15.78v-11.83h22.22a7.61 7.61 0 0 0 7.61-7.31l.15-3.85a10.64 10.64 0 0 1 -7.76 3.68z"/><path d="m840.85 537.8a26.56 26.56 0 0 1 7.31 16.56h37.84a7.62 7.62 0 0 0 7.61-7.3l1.57-38.92a26.56 26.56 0 0 0 -26.7-28.23h-25.66a26.52 26.52 0 0 0 -26.72 28.17l.9 21.62h4.57a26.91 26.91 0 0 1 19.28 8.1z"/></g><g fill="none"><path d="m660.71 657.49-.09 2.25h14.91l-.09-2.31a29.17 29.17 0 0 1 .09-3.5h-14.92a28.12 28.12 0 0 1 .1 3.56z"/><path d="m566.94 657.49-.09 2.25h14.91l-.1-2.31a31.4 31.4 0 0 1 .09-3.5h-14.91a32.42 32.42 0 0 1 .1 3.56z"/><path d="m473.16 657.49-.09 2.25h14.93l-.09-2.31a29.17 29.17 0 0 1 .09-3.5h-14.93a30.12 30.12 0 0 1 .09 3.56z"/><path d="m379.39 657.49-.09 2.25h14.91l-.09-2.31a29.17 29.17 0 0 1 .09-3.5h-14.92a28.12 28.12 0 0 1 .1 3.56z"/><path d="m754.48 657.49-.09 2.25h14.91l-.09-2.31a29.17 29.17 0 0 1 .09-3.5h-14.92a28.12 28.12 0 0 1 .1 3.56z"/></g><g fill="#d7e8f0"><path d="m379.3 659.74-.3 7.47h.15v11.84h15.78v-1.87l-.72-17.44z"/><path d="m372 637.36a26.61 26.61 0 0 1 7.31 16.57h14.92a26.41 26.41 0 0 1 6.23-15.38 27 27 0 0 1 20.4-9.29h4.56l.88-21.56a26.56 26.56 0 0 0 -26.71-28.22h-25.59a26.54 26.54 0 0 0 -26.72 28.17l.88 21.61h4.58a26.93 26.93 0 0 1 19.26 8.1z"/><path d="m473.07 659.74-.3 7.47h.15v11.84h15.78v-1.87l-.71-17.44z"/><path d="m465.76 637.36a26.72 26.72 0 0 1 7.31 16.57h14.93a26.41 26.41 0 0 1 6.23-15.38 27 27 0 0 1 20.4-9.29h4.57l.87-21.56a26.56 26.56 0 0 0 -26.7-28.22h-25.65a26.54 26.54 0 0 0 -26.72 28.17l.89 21.61h4.57a27 27 0 0 1 19.3 8.1z"/><path d="m566.85 659.74-.31 7.47h.15v11.84h15.78v-1.87l-.71-17.44z"/><path d="m559.53 637.36a26.61 26.61 0 0 1 7.31 16.57h14.91a26.54 26.54 0 0 1 6.25-15.38 27 27 0 0 1 20.4-9.29h4.6l.87-21.56a26.56 26.56 0 0 0 -26.7-28.22h-25.67a26.54 26.54 0 0 0 -26.72 28.17l.88 21.61h4.57a27 27 0 0 1 19.3 8.1z"/><path d="m660.62 659.74-.3 7.47h.15v11.84h15.77v-1.87l-.71-17.44z"/><path d="m653.3 637.36a26.61 26.61 0 0 1 7.31 16.57h14.92a26.41 26.41 0 0 1 6.23-15.38 27 27 0 0 1 20.4-9.29h4.56l.88-21.56a26.56 26.56 0 0 0 -26.71-28.22h-25.62a26.54 26.54 0 0 0 -26.72 28.17l.88 21.61h4.57a26.93 26.93 0 0 1 19.3 8.1z"/><path d="m754.39 659.74-.3 7.47h.15v11.84h15.78v-1.87l-.72-17.44z"/><path d="m747.07 637.36a26.61 26.61 0 0 1 7.31 16.57h14.92a26.41 26.41 0 0 1 6.23-15.38 27 27 0 0 1 20.4-9.29h4.57l.87-21.56a26.56 26.56 0 0 0 -26.7-28.22h-25.67a26.54 26.54 0 0 0 -26.72 28.17l.89 21.61h4.57a26.93 26.93 0 0 1 19.33 8.1z"/><path d="m848.16 659.74-.3 7.47h.14v11.84h15.78v-11.84h22.22a7.61 7.61 0 0 0 7.61-7.3l.15-3.86a10.62 10.62 0 0 1 -7.76 3.69z"/><path d="m840.85 637.36a26.61 26.61 0 0 1 7.31 16.57h37.84a7.63 7.63 0 0 0 7.61-7.31l1.57-38.92a26.56 26.56 0 0 0 -26.7-28.22h-25.66a26.52 26.52 0 0 0 -26.72 28.17l.88 21.61h4.57a27 27 0 0 1 19.3 8.1z"/></g><g fill="none"><path d="m660.71 757.05-.09 2.26h14.91l-.09-2.31a29.39 29.39 0 0 1 .09-3.51h-14.92a28.22 28.22 0 0 1 .1 3.56z"/><path d="m566.94 757.05-.09 2.26h14.91l-.1-2.31a31.65 31.65 0 0 1 .09-3.51h-14.91a32.56 32.56 0 0 1 .1 3.56z"/><path d="m473.16 757.05-.09 2.26h14.93l-.09-2.31a29.39 29.39 0 0 1 .09-3.51h-14.93a30.23 30.23 0 0 1 .09 3.56z"/><path d="m379.39 757.05-.09 2.26h14.91l-.09-2.31a29.39 29.39 0 0 1 .09-3.51h-14.92a28.22 28.22 0 0 1 .1 3.56z"/><path d="m754.48 757.05-.09 2.26h14.91l-.09-2.31a29.39 29.39 0 0 1 .09-3.51h-14.92a28.22 28.22 0 0 1 .1 3.56z"/></g><g fill="#d7e8f0"><path d="m379.3 759.31-.3 7.47h.15v11.83h15.78v-1.86l-.72-17.44z"/><path d="m372 736.93a26.58 26.58 0 0 1 7.31 16.56h14.92a26.38 26.38 0 0 1 6.23-15.37 27 27 0 0 1 20.4-9.29h4.56l.88-21.56a26.56 26.56 0 0 0 -26.71-28.22h-25.59a26.54 26.54 0 0 0 -26.72 28.17l.88 21.61h4.58a26.93 26.93 0 0 1 19.26 8.1z"/><path d="m473.07 759.31-.3 7.47h.15v11.83h15.78v-1.86l-.71-17.44z"/><path d="m465.76 736.93a26.69 26.69 0 0 1 7.31 16.56h14.93a26.38 26.38 0 0 1 6.23-15.37 27 27 0 0 1 20.4-9.29h4.57l.87-21.56a26.56 26.56 0 0 0 -26.7-28.22h-25.65a26.54 26.54 0 0 0 -26.72 28.17l.89 21.61h4.57a27 27 0 0 1 19.3 8.1z"/><path d="m566.85 759.31-.31 7.47h.15v11.83h15.78v-1.86l-.71-17.44z"/><path d="m559.53 736.93a26.58 26.58 0 0 1 7.31 16.56h14.91a26.51 26.51 0 0 1 6.25-15.37 27 27 0 0 1 20.4-9.29h4.6l.87-21.56a26.56 26.56 0 0 0 -26.7-28.22h-25.67a26.54 26.54 0 0 0 -26.72 28.17l.88 21.61h4.57a27 27 0 0 1 19.3 8.1z"/><path d="m660.62 759.31-.3 7.47h.15v11.83h15.77v-1.86l-.71-17.44z"/><path d="m653.3 736.93a26.58 26.58 0 0 1 7.31 16.56h14.92a26.38 26.38 0 0 1 6.23-15.37 27 27 0 0 1 20.4-9.29h4.56l.88-21.56a26.56 26.56 0 0 0 -26.71-28.22h-25.62a26.54 26.54 0 0 0 -26.72 28.17l.88 21.61h4.57a26.93 26.93 0 0 1 19.3 8.1z"/><path d="m754.39 759.31-.3 7.47h.15v11.83h15.78v-1.87l-.72-17.43z"/><path d="m747.07 736.93a26.58 26.58 0 0 1 7.31 16.56h14.92a26.38 26.38 0 0 1 6.23-15.37 27 27 0 0 1 20.4-9.29h4.57l.87-21.56a26.56 26.56 0 0 0 -26.7-28.22h-25.67a26.54 26.54 0 0 0 -26.72 28.17l.89 21.61h4.57a26.93 26.93 0 0 1 19.33 8.1z"/><path d="m848.16 759.31-.3 7.47h.14v11.83h15.78v-11.83h22.22a7.61 7.61 0 0 0 7.61-7.31l.15-3.85a10.62 10.62 0 0 1 -7.76 3.69z"/><path d="m840.85 736.93a26.58 26.58 0 0 1 7.31 16.56h37.84a7.62 7.62 0 0 0 7.61-7.3l1.57-38.92a26.56 26.56 0 0 0 -26.7-28.22h-25.66a26.52 26.52 0 0 0 -26.72 28.17l.88 21.61h4.57a27 27 0 0 1 19.3 8.1z"/></g><g fill="none"><path d="m660.71 856.62-.09 2.25h14.91l-.09-2.3a29.34 29.34 0 0 1 .09-3.51h-14.92a28.17 28.17 0 0 1 .1 3.56z"/><path d="m566.94 856.62-.09 2.25h14.91l-.1-2.3a31.58 31.58 0 0 1 .09-3.51h-14.91a32.49 32.49 0 0 1 .1 3.56z"/><path d="m473.16 856.62-.09 2.25h14.93l-.09-2.3a29.34 29.34 0 0 1 .09-3.51h-14.93a30.18 30.18 0 0 1 .09 3.56z"/><path d="m379.39 856.62-.09 2.25h14.91l-.09-2.3a29.34 29.34 0 0 1 .09-3.51h-14.92a28.17 28.17 0 0 1 .1 3.56z"/><path d="m754.48 856.62-.09 2.25h14.91l-.09-2.3a29.34 29.34 0 0 1 .09-3.51h-14.92a28.17 28.17 0 0 1 .1 3.56z"/></g><g fill="#d7e8f0"><path d="m379.3 858.87-.3 7.48h.15v11.83h15.78v-1.86l-.72-17.45z"/><path d="m372 836.5a26.56 26.56 0 0 1 7.31 16.56h14.92a26.38 26.38 0 0 1 6.23-15.37 26.91 26.91 0 0 1 20.4-9.29h4.56l.88-21.56a26.56 26.56 0 0 0 -26.71-28.23h-25.59a26.54 26.54 0 0 0 -26.72 28.17l.88 21.62h4.58a26.88 26.88 0 0 1 19.26 8.1z"/><path d="m473.07 858.87-.3 7.48h.15v11.83h15.78v-1.86l-.71-17.45z"/><path d="m465.76 836.5a26.67 26.67 0 0 1 7.31 16.56h14.93a26.38 26.38 0 0 1 6.23-15.37 26.93 26.93 0 0 1 20.4-9.29h4.57l.87-21.56a26.56 26.56 0 0 0 -26.7-28.23h-25.65a26.54 26.54 0 0 0 -26.72 28.17l.89 21.62h4.57a26.91 26.91 0 0 1 19.3 8.1z"/><path d="m566.85 858.87-.31 7.48h.15v11.83h15.78v-1.86l-.71-17.45z"/><path d="m559.53 836.5a26.56 26.56 0 0 1 7.31 16.56h14.91a26.51 26.51 0 0 1 6.25-15.37 26.93 26.93 0 0 1 20.4-9.29h4.6l.87-21.56a26.56 26.56 0 0 0 -26.7-28.23h-25.67a26.54 26.54 0 0 0 -26.72 28.17l.88 21.62h4.57a26.91 26.91 0 0 1 19.3 8.1z"/><path d="m660.62 858.87-.3 7.48h.15v11.83h15.77v-1.86l-.71-17.45z"/><path d="m653.3 836.5a26.56 26.56 0 0 1 7.31 16.56h14.92a26.38 26.38 0 0 1 6.23-15.37 26.91 26.91 0 0 1 20.4-9.29h4.56l.88-21.56a26.56 26.56 0 0 0 -26.71-28.23h-25.62a26.54 26.54 0 0 0 -26.72 28.17l.88 21.62h4.57a26.88 26.88 0 0 1 19.3 8.1z"/><path d="m754.39 858.87-.3 7.48h.15v11.83h15.78v-1.87l-.72-17.44z"/><path d="m747.07 836.5a26.56 26.56 0 0 1 7.31 16.56h14.92a26.38 26.38 0 0 1 6.23-15.37 26.91 26.91 0 0 1 20.4-9.29h4.57l.87-21.56a26.56 26.56 0 0 0 -26.7-28.23h-25.67a26.54 26.54 0 0 0 -26.72 28.17l.89 21.62h4.57a26.88 26.88 0 0 1 19.33 8.1z"/><path d="m848.16 858.87-.3 7.48h.14v11.83h15.78v-11.83h22.22a7.62 7.62 0 0 0 7.61-7.31l.15-3.85a10.64 10.64 0 0 1 -7.76 3.68z"/><path d="m840.85 836.5a26.56 26.56 0 0 1 7.31 16.56h37.84a7.62 7.62 0 0 0 7.61-7.3l1.57-38.92a26.56 26.56 0 0 0 -26.7-28.23h-25.66a26.52 26.52 0 0 0 -26.72 28.17l.9 21.62h4.57a26.91 26.91 0 0 1 19.28 8.1z"/></g></g><path d="m361.31 265.58h-68.26a21.35 21.35 0 0 0 -21.36 21.35v68.25a21.37 21.37 0 0 0 21.36 21.37h68.26a21.37 21.37 0 0 0 21.35-21.37v-68.25a21.35 21.35 0 0 0 -21.35-21.35zm-21.31 76.42a16.66 16.66 0 0 1 -12 4.64 16.47 16.47 0 0 1 -11.28-3.92 14.79 14.79 0 0 1 -3.6-4.61 4.42 4.42 0 0 1 3.55-6.26 4.77 4.77 0 0 1 5 2.63 7 7 0 0 0 1.57 2.3 6.57 6.57 0 0 0 4.72 1.89 6.49 6.49 0 0 0 5-2.25 8.85 8.85 0 0 0 2-6.11 8.16 8.16 0 0 0 -1.96-5.71 6.23 6.23 0 0 0 -4.75-2.13h-.05a3.62 3.62 0 0 1 -3.72-4.07v-.16a3.5 3.5 0 0 1 2.79-3 7.13 7.13 0 0 0 3.57-1.55 6 6 0 0 0 2-4.77 5.17 5.17 0 0 0 -5.5-5.55 5.76 5.76 0 0 0 -4.21 1.71 6.42 6.42 0 0 0 -1.38 2.06 4.14 4.14 0 0 1 -4.51 2.3h-.12a4.4 4.4 0 0 1 -3.33-6.1 12.4 12.4 0 0 1 1.14-2 12.72 12.72 0 0 1 5.2-4.28 17.59 17.59 0 0 1 7.48-1.55q7.1 0 11.37 4.52a11.83 11.83 0 0 1 3.52 8.35q0 6.61-7.22 10.54a11.7 11.7 0 0 1 6.9 4.16 11.93 11.93 0 0 1 2.58 7.76 15.07 15.07 0 0 1 -4.76 11.16z" fill="#d7e8f0"/><path d="m479 265.58h-68.23a21.37 21.37 0 0 0 -21.37 21.35v68.25a21.39 21.39 0 0 0 21.37 21.37h68.23a21.37 21.37 0 0 0 21.35-21.37v-68.25a21.35 21.35 0 0 0 -21.35-21.35zm-22.58 72a4.54 4.54 0 1 1 0 9.08h-20.76a6.48 6.48 0 0 1 -5.66-9.66.21.21 0 0 0 .06-.1q2.79-4.61 11-12.23 6.62-6.17 8.12-8.36a10.68 10.68 0 0 0 2-6 6.77 6.77 0 0 0 -1.76-5 6.65 6.65 0 0 0 -11.16 2.54 4.59 4.59 0 0 1 -4.77 3.27l-.57-.07a4.55 4.55 0 0 1 -3.82-6.1 12.83 12.83 0 0 1 4.22-6 18.33 18.33 0 0 1 11.49-3.52q7.56 0 11.87 4.07a13.32 13.32 0 0 1 4.32 10.13 17.75 17.75 0 0 1 -1.23 6.57 27.19 27.19 0 0 1 -3.92 6.53 65.35 65.35 0 0 1 -6.42 6.51c-3.08 2.84-5 4.71-5.87 5.65a15.7 15.7 0 0 0 -2 2.71z" fill="#d7e8f0"/><g fill="none" stroke-miterlimit="10" stroke-width="4.47"><g stroke="#ccdde2"><path d="m758.68 742.38c-8.63 8.19-17.68 15.9-26 24.32"/><path d="m633.29 366.78c.6.12 1.19.27 1.82.45 49.18 12.8 96.45 43.4 137.29 100.38 20.87 29.12 37.3 62 43.94 97.47 8.25 44.06-.74 88.23-20.69 127.53"/><path d="m697 820.41c-7.56 13.9-15.87 27.24-28.61 37.24-21.7 17.09-52.42 19.68-78.8 11.49-32-9.94-66.32-34.74-77.61-67.37-12.44-36-28.4-72-71.06-76.5-37.09-3.84-72.9 15.71-109.7 2.08-71.77-26.58-9.37-130.12-29.59-180.76-8.3-20.81-24.68-32.84-44.44-41-36.8-15.3-85.23-17.36-114.82-38.31-51.37-36.4-65.32-108.28-74.84-165.48a629.62 629.62 0 0 1 -.12-203.09"/></g><g stroke="#000"><path d="m263 95.27-2.48 5.24c-1.23 2.62-2.43 5.29-3.55 8a232.06 232.06 0 0 0 -13.05 40.91 227.21 227.21 0 0 0 -4.62 30.42c-.15 1.77-.27 3.55-.36 5.32a224.29 224.29 0 0 0 .17 30.78c0 .38 0 .78.07 1.17h-77.68a188.38 188.38 0 0 0 1.62-19.64c0-1.66.07-3.36.07-5 0-4.55-.16-9.11-.52-13.63a170.86 170.86 0 0 0 -2.67-20.48c-.85-4.53-1.88-9.05-3.12-13.51a180.79 180.79 0 0 0 -17.32-42.15l-1-1.85-3.16-5.58z"/><path d="m263 95.27-2.48 5.24c-1.23 2.62-2.43 5.29-3.55 8a232.06 232.06 0 0 0 -13.05 40.91 65.73 65.73 0 0 1 -22 3.74 72 72 0 0 1 -7.24-.38 66.48 66.48 0 0 1 -58.61-57.47z"/><path d="m263 95.27-2.48 5.24c-1.23 2.62-2.43 5.29-3.55 8a232.06 232.06 0 0 0 -13.05 40.91 227.21 227.21 0 0 0 -4.62 30.42c-1.41.07-2.82.1-4.24.1a104.51 104.51 0 0 1 -69.22-26.09 107.53 107.53 0 0 1 -9-9 180.79 180.79 0 0 0 -17.32-42.15l-1-1.85-3.16-5.58z"/><path d="m139.16 95.27h123.84l-2.48 5.24c-1.23 2.62-2.43 5.29-3.55 8a232.06 232.06 0 0 0 -13.05 40.91 227.21 227.21 0 0 0 -4.62 30.42"/><path d="m239 185.12a224.29 224.29 0 0 0 .17 30.78 103 103 0 0 1 -26-4.17 104.66 104.66 0 0 1 -50.49-32.95 170.86 170.86 0 0 0 -2.68-20.42c-.85-4.53-1.88-9.05-3.12-13.51a180.79 180.79 0 0 0 -17.32-42.15l-1-1.85"/><path d="m201.34 95.27a104.81 104.81 0 0 1 -20.61 43.48 102.7 102.7 0 0 1 -14.87 15.06c-1.9 1.62-3.86 3.12-5.91 4.55-.85-4.53-1.88-9.05-3.12-13.51a180.79 180.79 0 0 0 -17.32-42.15l-1-1.85-3.16-5.58z"/><path d="m214.73 152.74a104 104 0 0 1 -15.73 20.77 105.34 105.34 0 0 1 -21 16.49c-.85.53-1.71 1-2.59 1.48a97.69 97.69 0 0 1 -12.3 5.93c0-1.66.07-3.36.07-5 0-4.55-.16-9.11-.52-13.63a170.86 170.86 0 0 0 -2.66-20.42c-.85-4.53-1.88-9.05-3.12-13.51a180.79 180.79 0 0 0 -17.32-42.15l-1-1.85-3.16-5.58h93.44a105.23 105.23 0 0 1 -14.11 57.47z"/></g></g><rect height="14.96" rx="7.48" width="204.3" x="67.39" y="91.24"/><g fill="#fff"><path d="m555.94 276.61c-2.11-2.29-4.43-3.84-7-4.14-34.68 2.27-66.86 20.55-97.85 36.59-25.75 13.34-51.05 27.57-75.64 43-18.34 11.49-36.32 23.63-53.59 36.73-11.78 8.9-23.3 18.28-34.2 28.28-2.14 2-23.67 20.34-19.41 24.8s11-1.58 14.74-3.81 9.49-6.61 13.33-8.66a109.84 109.84 0 0 0 -11.93 27.33c-.93 3.48-2.21 7.29-2 10.92a5.07 5.07 0 0 0 5.27 4.74 5.38 5.38 0 0 0 4.91-3.73l15.75-38.16c-2.11 5.89-6.58 20-8 29.59-.65 4.26 1.07 7.74 5.09 6.79a6.58 6.58 0 0 0 4.41-4.08l14.18-36.72a114.28 114.28 0 0 0 -4.71 30 3.7 3.7 0 0 0 3.7 3.78c4.34 0 5-7.2 6.13-10.21a70 70 0 0 1 14.47-23c4.4-4.67 10.36-7.86 15.92-11a225.39 225.39 0 0 1 34.12-15c26.28-9.47 53.4-16.37 80.29-23.81.35-.09.68-.21 1-.3.8-.21 1.58-.45 2.38-.66 15.81-4.43 31.59-9 47.09-14.41 1-.35 2-.68 2.92-1a.16.16 0 0 1 .12-.06c9.14-4.1 18-9.08 25.19-15.06 0 0 0 0 .06-.06 24.93-23.84 9.9-56.92 3.26-68.68zm-247.32 153.17a12.33 12.33 0 0 1 .8-2z"/><path d="m308.35 430.46s0-.09.06-.12l.21-.56"/><path d="m309.45 427.69-.03.06"/><path d="m308.35 430.46s0-.09.06-.12l.21-.56"/><path d="m670.88 594.75s2 60 49 70.33 43.62 21.85 78.12 27.53-23.41 53-23.41 53l-58.19-12.18 14.39 30.07-24 64.92s-100.44-100.92-135.74-163.42 46.56-83.82 49-83.82 50.83 13.57 50.83 13.57z"/></g><path d="m590.77 659.66c1.37 1.64 2.8 3.25 4.26 4.88 3.58 3.53-4.37 12.36-12.92 16.35-26.35-37.07-51.29-77.14-70.64-117.74-1.34-2.83-2.68-5.69-4-8.55-.3-.62-.6-1.28-.86-1.93-1.73-4-3.73-8.66-5.36-12.65 14.29-11.17 37.63-34.89 51.38-53.56 9.55-13 21.76-15.36 31.52-14.61h.33a51.62 51.62 0 0 1 12.36 2.62c.12 0 .23.09.35.11.39.12.75.24 1.13.39s.72.24 1.08.39a62.45 62.45 0 0 1 9.85 4.49c49.21 39 55.76 87.11 63.53 124.35-21.63 23.93-57.33 67.87-82.01 55.46z" fill="#3fbdf1"/><path d="m611.05 459.05c-2.53 7.88-4.2 12.59-4.2 12.59s-2 5.62-6.37 4.11-30.48-12.83-47.81 10.71c-13.75 18.67-37.09 42.39-51.38 53.56a44.21 44.21 0 0 1 -9.08 5.92c-10.39 4.17-22.27 12.71-22 2.06s-4.94-168.74 3.79-171.18 106.3-19.29 94.84-71.65c0 0-7.5-31.35-19.88-32.69s6.58-.24 6.58-.24 60.37-1.34 76.15 41.77c12.52 34.35-10.69 114.11-20.64 145.04z" fill="#2e2e2e"/><path d="m782.55 200c-3.55-1.16-6.4-18.66-13.07-14-4.26 3 1.4 20 1.78 22.95a46.8 46.8 0 0 1 -1.84 20.31 4.39 4.39 0 0 1 -.66.29 31.29 31.29 0 0 1 -3.76 1.45c-.59.21-1.22.39-1.84.57s-1 .27-1.46.39l-1.64.35c-.77.15-1.52.3-2.29.42a46 46 0 0 1 -7.09.54c-.86 0-1.72 0-2.56-.06-.53 0-1-.09-1.57-.12-.33 0-.69-.06-1-.12a40.29 40.29 0 0 1 -5-.84c-.56-.11-1.1-.23-1.63-.38a13.11 13.11 0 0 1 -1.58-.45c-.9-.27-1.79-.56-2.65-.86-.3-.12-.63-.24-1-.39-.81-.3-1.61-.65-2.39-1a.35.35 0 0 1 -.2-.09 43.85 43.85 0 0 1 -5.39-3 .71.71 0 0 1 -.27-.18 46.42 46.42 0 0 1 31.64-80.4 45.89 45.89 0 0 1 25.19 7.44c.56.53 1.13 1.07 1.67 1.64s1.1 1.16 1.63 1.75c-9.49.42-.06 19.08 1.4 25.13 1.17 4.45 5.03 21.66-4.42 18.66z" fill="#3fbdf1"/><g fill="none" stroke="#000" stroke-linecap="round" stroke-linejoin="round" stroke-width="4.47"><path d="m714.2 732.89c9.49 18.49 18.51 34.39 26.82 47.87 28.25 46 47.84 64.36 47.84 64.36l-23.16 97.35a9.68 9.68 0 0 1 -5.39 6.58 9.38 9.38 0 0 1 -4.11 1 9.82 9.82 0 0 1 -9.79-9.79v-69.62s-19.23-18-47.51-48.17c-32.07-34.21-75.77-84-116.19-140.75-.21-.27-.39-.57-.6-.83-26.35-37.07-51.29-77.14-70.64-117.74-1.34-2.83-2.68-5.69-4-8.55-.3-.62-.6-1.28-.86-1.93-1.88-4.08-3.64-8.16-5.36-12.27"/><path d="m524.45 550.41s23.43 59.06 66.32 109.25c.39.45.75.89 1.13 1.34 1 1.19 2.06 2.35 3.13 3.54 22.54 25.28 50.13 47.69 82.25 58.11 12.24 4 24.59 7.33 36.92 10.24 25.3 6.08 50.54 10.51 74.66 15.66 55.64 11.82 105.23 27.27 135.42 74.37a9 9 0 0 0 16-7.89l-30.06-82.67s-58.92-20-116.28-40.37c-34.15-12.09-67.76-24.26-88.12-32.42-21.55-8.63-27.53-29.32-32.95-55.34-1.64-7.83-3.22-16.16-5.15-24.77-7.27-32.3-19.53-68.76-58.38-99.58"/><path d="m296.36 429.37c-3.86 2.05-9.58 6.43-13.34 8.65s-10.52 8.21-14.74 3.81 17.27-22.83 19.42-24.83c10.88-10 22.39-19.36 34.18-28.28 17.29-13.08 35.25-25.23 53.61-36.73 24.58-15.4 49.89-29.62 75.63-43 39.65-20.54 81.24-44.68 127.52-34.35 16.27 3.63 32.22 11.74 43.42 24.31 17.8 19.94 17.43 48 12.19 72.65-7.37 34.69-19.12 71.63-29.07 105.64"/><path d="m607.68 285.43c32.3 6 67.79 14.29 100.15 4.11 23.84-7.53 53.34-32.9 61.59-60.22a46.8 46.8 0 0 0 1.84-20.32c-.38-2.94-6-19.91-1.78-22.95 6.67-4.67 9.52 12.83 13.07 14 9.46 3 5.59-14.23 4.49-18.66-1.46-6.05-10.89-24.71-1.4-25.13h.18c5.57-.12 11.76 18.85 12.18 20.87 4.49 20.54 3.12 42.06-.15 62.78-8.75 55.23-48.91 111.91-107.59 119.23-18 2.23-36.29 2.74-54.42 3.87"/><path d="m607.67 285.42s-6.21-21.27 15.63-39.42 17.59-51 2.42-60.65-37.45-16.22-54.73-2.58-23.2 25-23.2 25l5.46 5s-21.16 28.23-3.36 35.48 31.56-1.36 31.56-1.36"/><path d="m573.08 186.83s7.46-.91 5.19 10"/><path d="m590.58 175.08s11.79 5.34 9.52 11.73-6.05 4.57-4.62 16.39a23.66 23.66 0 0 1 -1.39 11.93c-.8 1.92-3.28 3.46-2.51 5.79.82 2.5 4.7 3.25 6.87 2.81 2.71-.54 4.11-2.44 6.34-3.74a13.77 13.77 0 0 1 7.29-1.4c4.51.18 9.36 2.49 8.55 7.76-.69 4.51-5.43 6.61-8.7 9-5.6 4.19-9.46 19.21-.63 22.4"/><path d="m296.36 429.37a110.54 110.54 0 0 0 -11.94 27.32c-.92 3.49-2.2 7.28-2 10.92a5 5 0 0 0 5.26 4.72 5.39 5.39 0 0 0 4.93-3.71l15.74-38.17s0-.09 0-.12l.2-.55a18 18 0 0 1 .84-2.09l-.84 2.09-.2.55s0 .09 0 .12c-2.11 5.92-6.57 20-8 29.61-.64 4.24 1.07 7.74 5.1 6.77a6.48 6.48 0 0 0 4.39-4.07l14.16-36.67a114.26 114.26 0 0 0 -4.69 30 3.69 3.69 0 0 0 3.69 3.76c4.35 0 5-7.18 6.14-10.19a70.14 70.14 0 0 1 14.46-23c4.42-4.7 10.35-7.86 15.92-11a223 223 0 0 1 34.12-15c27.38-9.88 55.71-17 83.71-24.76 15.81-4.42 31.6-9 47.11-14.39 73.07-25.48 35.17-80.06 35.17-80.06"/><path d="m572.26 472.32a43.75 43.75 0 0 1 11.93-.47h.33a59.69 59.69 0 0 1 12.36 2.62l.35.11c.39.12.75.24 1.13.39s.72.24 1.08.39a62.45 62.45 0 0 1 9.85 4.49"/></g><ellipse cx="569.44" cy="196.83" rx="4.21" ry="2.73" transform="matrix(.46205821 -.8868496 .8868496 .46205821 131.76 610.89)"/><g fill="none" stroke="#000" stroke-linecap="round" stroke-linejoin="round" stroke-width="4.47"><path d="m563.04 251.11-9.79 21.13"/><path d="m551.88 226.63s12.06 3 15.24-3.64"/><path d="m782.55 200c-3.55-1.16-6.4-18.66-13.07-14-4.26 3 1.4 20 1.78 22.95a46.8 46.8 0 0 1 -1.84 20.31l-.66.26a31.29 31.29 0 0 1 -3.76 1.48c-.59.21-1.22.39-1.84.57s-1 .27-1.46.39l-1.64.35c-.77.15-1.52.3-2.29.42a46 46 0 0 1 -7.09.54c-.86 0-1.72 0-2.56-.06-.53 0-1-.09-1.57-.12-.33 0-.69-.06-1-.12a40.29 40.29 0 0 1 -5-.84c-.56-.11-1.1-.23-1.63-.38a13.11 13.11 0 0 1 -1.58-.45c-.9-.27-1.79-.56-2.65-.86-.3-.12-.63-.24-1-.39-.81-.3-1.61-.65-2.39-1a.35.35 0 0 1 -.2-.09 43.85 43.85 0 0 1 -5.39-3 .71.71 0 0 1 -.27-.18 46.4 46.4 0 1 1 56.61-73.09l.22.13c.56.53 1.13 1.07 1.67 1.64s1.1 1.16 1.63 1.75c-9.49.42-.06 19.08 1.4 25.13 1.17 4.45 5.03 21.66-4.42 18.66z"/><path d="m470.17 378.81.24 177.6"/><path d="m511.47 563.15s-26.05 2.62-34.65-.63a15.24 15.24 0 0 1 -5-2.62 4 4 0 0 1 -1.4-3.48 3.8 3.8 0 0 1 1.07-2c2.56-2.89 6.84-3.28 10.33-4.29a65.91 65.91 0 0 0 19.47-9.71"/></g><path d="m511.47 563.15s-26.05 2.62-34.65-.63a15.24 15.24 0 0 1 -5-2.62 4 4 0 0 1 -1.4-3.48 3.8 3.8 0 0 1 1.07-2c2.56-2.89 6.84-3.28 10.33-4.29a65.91 65.91 0 0 0 19.47-9.71"/></svg>