<svg viewBox="0 0 1000 1000" xmlns="http://www.w3.org/2000/svg"><g fill="none" stroke-miterlimit="10" stroke-width="4.24"><g stroke="#ccdde2"><path d="m782.29 807.08 47.17 51.49v-230.1"/><path d="m829.46 825.94 42.64-37.48"/><path d="m829.46 732.6-29.08-32.55"/><path d="m829.46 703.31 21.32-12.84"/><path d="m829.46 641.82c0-3.9-14.54-31.47-14.54-31.47"/><path d="m783.31 875.34 2.21.1 12.34.22a17.32 17.32 0 0 1 17.06 17.34v65.57"/><path d="m745.16 792.32c2.09-2.4 4.33-4.91 6.76-7.46 82.7-87.51-5-46.94 4.59-76.26s39.36-25.46 45.82-52c4.21-17.29-1.07-35.9.17-53.49.85-11.86 5.74-26.8 13.41-36 9.82-11.76 22.33-3.21 28.82 7.87 11 18.85 6.07 41.93 6 62.61 0 16 4.86 29.79 17.81 39.55 11.61 8.77 25.17 16.69 30 31.37 5.25 16-20.75 11.81-28.13 18.25-13.34 11.66 14 38.53 21.57 46.23 19 19.32 55.83 54.28 30 86.08-16.21 19.92-32.17 15.57-49.81 16.28l-9.5-.12a19.32 19.32 0 0 0 -19.67 19.4"/><path d="m676.22 835.89 36.07 39.38v-175.97"/><path d="m722.45 841.4-10.16 8.92"/><path d="m712.29 778.94-22.24-24.89"/><path d="m712.29 756.54 16.3-9.82"/><path d="m712.29 709.51c0-3-11.12-24.06-11.12-24.06"/><path d="m745.16 792.32c-18.46 21.38-24.16 37.27-22.71 49.08 3.64 28.72 50.14 33.26 60.86 33.94"/><path d="m701.16 951.75v-50.14a13.26 13.26 0 0 0 -13-13.27l-9.45-.15s-89-2.38-25.7-69.29-3.84-35.88 3.52-58.31 30.08-19.46 35-39.72c3.21-13.24-.82-27.48.15-40.92.63-9.06 4.37-20.5 10.23-27.5 7.53-9 17.08-2.45 22.06 6 8.45 14.43 4.64 32.1 4.59 47.89-.05 12.22 3.69 22.79 13.61 30.27 8.89 6.71 19.24 12.76 22.93 24 4 12.22-15.89 9-21.52 13.95-4.86 4.25-2.68 11.1 1.57 17.78"/><path d="m722.67 902.87a14.8 14.8 0 0 1 15-14.8l7.24.12c13.51-.55 25.7 2.77 38.09-12.46l.32-.39"/></g><path d="m950 959.99h-900" stroke="#000"/><g stroke="#ccdde2"><path d="m137.12 954c-6.48-1.3-12.85-2.85-19.06-4.66-25.5-7.46-55.16-20.19-65.3-46.95a44.88 44.88 0 0 1 5.8-41.83 37.88 37.88 0 0 1 18.44-13.73c16.14-5.21 34 2.92 46 14.93s19.67 27.5 29 41.64c-8.48-19-17.08-38.51-18.25-59.27-.92-16.18 3.49-33.72 14.64-45.88 10.27-11.19 34.28-20 48.42-11.73 9.33 5.43 13.05 17 14.65 27.63 4.39 29.19-1.25 58.85-6.86 87.82 3.77-15.49 7.82-31.13 15.5-45.1s19.47-26.33 34.55-31.5c10.57-3.62 23.11-3.23 32 3.59 8.26 6.36 11.95 17.1 13.08 27.47 1.91 17.37-2.19 35-9.22 51-26.28 59.68-99.05 57.42-153.39 46.57z"/><path d="m196.33 924.41s40.45 11.24 54.74-45"/><path d="m178.33 828.44c-11.24 25.49 0 102 0 102"/><path d="m140.84 922.68c-1.69-.29-17.91-2.56-31.74-8.92-10.72-4.92-20-12.29-20-23.09"/><path d="m112.35 890.67s-15.82 18.44-3.25 23.09"/><path d="m101.85 930.54c2.25-3.13 14 3.15 21.6-11.61"/><path d="m173.33 862.18c-4-3-14.49 0-16-24"/><path d="m175.08 884.67s17.5-6.31 17.5-20"/><path d="m212.69 924.73s9.13-23.56 12.88-34.06"/><path d="m241 902.22s10 7.95 22-4.8"/><path d="m241 890.67s-6.47-2.8-3.47-19"/></g></g><path d="m668.35 829c-2.23-5.18-4.52-10.41-6.87-15.59a2.47 2.47 0 0 1 -.17-.42c-5.09-11.26-10.36-22.38-15.59-32.77a.62.62 0 0 1 -.14-.23c-30.34-51.32-74.37-74.44-88-80.67-2.66-1.19-4.16-1.78-4.16-1.78-21.5-9.37-41.59-16.69-58.43-22.21.23-.14.45-.29.71-.43 2.38-1.36 6.85-3.9 12-6.82l2.51-1.44c5.38-3.06 11.27-6.39 16.33-9.28.79-.45 1.59-.91 2.35-1.33 3.68-2.09 6.73-3.85 8.57-4.92 15.06-8.72 30.59-17.89 44-29.12 1.5-1.25 2.94-2.52 4.38-3.82s2.8-2.63 4.16-4a98.67 98.67 0 0 0 17.4-22.92c10.13-18.7 11.92-41.57 6.14-61.94-.19-.68-.39-1.36-.59-2-.4-1.33-.82-2.57-1.27-3.79-.23-.59-.46-1.16-.71-1.72a10.91 10.91 0 0 0 -.48-1.08 9.44 9.44 0 0 0 -.6-1.24 28.09 28.09 0 0 0 -1.75-3.06 22.8 22.8 0 0 1 -15.42 5.18 29.8 29.8 0 0 1 -14.63-4.73c-19.35-11.8-24.93-38.37-25.83-46.54a8.85 8.85 0 0 1 -1.16.05 10.33 10.33 0 0 1 -2.92-.39l-4.27-1.19-.26-.06q-8.22-2.19-16.65-3.74c-2.35-.46-4.76-.85-7.13-1.22-.85-.14-1.7-.26-2.55-.37-3.54-.54-7.1-1-10.67-1.33-.56-.08-1.16-.14-1.75-.2-2.75-.25-5.52-.51-8.29-.68-3.74-.25-7.5-.42-11.26-.56-7.56-.23-15.14-.17-22.75.11-94.79 3.54-190.75 45-230.93 64.83-.42.22-.85.42-1.27.65-10.38 5.15-16.92 8.74-18.51 9.65l-.39.22a209.18 209.18 0 0 0 -37.5 24.71 108.66 108.66 0 0 0 -19.87 21.48l-.22.34c-7.3 10.21 1.64 23.15 14.34 22.92 5.66-.11 12.06-2.83 18.11-9.51 8.75-9.59 16-12.53 21.28-12.82a8.37 8.37 0 0 1 8.43 10.64l-1.38 4.93a9.91 9.91 0 0 0 8.65 12.53 8.72 8.72 0 0 0 .88 0 9.91 9.91 0 0 0 9.34-6.62 57.75 57.75 0 0 1 36.93-36l10.55-3.4a323.85 323.85 0 0 1 119.24-14.91c-1.64 2.69-7.3 13.67 4.64 19.5.2.08.4.19.62.28l-5.4 5.32-2.63 2.63-1.65 1.58c-1.24 1.42-2.49 2.86-3.73 4.31-.34.39-.71.82-1.05 1.24-4.16 5-8.29 10.3-12.33 15.93l-.6-.42s-6 10.83-39.08 11.2a10.79 10.79 0 0 0 -6 2.92 8.7 8.7 0 0 0 -2.23 4.78 7.29 7.29 0 0 0 0 2c0 .17.06.37.08.56a3.49 3.49 0 0 0 .12.54 10.89 10.89 0 0 0 .9 2.38 16.56 16.56 0 0 0 1.25 2c7.81 6.25 22.81 10.86 22.81 10.86.6-1.19 1.25-2.35 1.87-3.51-.73 1.44-1.55 3.19-2.46 5.29 3.34 1.05 7.16 2.06 11.4 3-3.62-.8-7.55-1.67-11.49-2.81a1.87 1.87 0 0 1 -.28-.08.07.07 0 0 1 -.05 0c-7.11-2.06-14.12-5-19.19-9.9a4.74 4.74 0 0 1 -.65-.62l-.17-.17a21.15 21.15 0 0 1 -1.9-2.16c-2.17-1.81-3.76-3.7-4.18-5.68-.26 6.19 1.69 19.61 20.74 29.2-3.51 7.21-6.85 14.77-10.08 22.72-57.18 140.63-207.83 36.13-207.83 36.13l-19.07-14.29-9.06 12.09 7.81-10.08 23.23 14.24-31.8 41.31c18.51 17 182.14 159.84 310.41 13.72.14-.14 10-12.08 10.07-12.22 1.61.59 3.31 1.19 5 1.78 129.42 44.6 130.39 30 179.59 108.43 22.19 35.34 34.58 54.87 41.46 65.65l60.11.54c-4.2-11.03-23.69-61.31-41.13-101.58zm-257.71-176.42c3.67.82 7.24 1.67 10.89 2.54-3.65-.87-7.22-1.69-10.89-2.54zm17-99.09-1.1-.23-1-.2-1.16-.23-.71-.14c6.82.91 13.61 2 20.35 3.43a.74.74 0 0 1 .25 0q7.77 1.49 15.45 3.48l.48.12c-.25.14-.48.28-.73.39-1.76-.36-3.65-.76-5.61-1.19h-.05c-9.47-1.92-20.37-4.19-26.2-5.43zm44.36 114.76c-2-.56-4-1.07-5.83-1.58-5.86-1.59-11-3-15.7-4.22 2.51.6 6.39 1.56 11.37 2.92 3.31.87 7.1 2 11.35 3.17.14.05.28.08.42.14.34.08.71.2 1.05.31-.9-.26-1.8-.48-2.66-.74z" fill="#fff"/><path d="m650.35 930 81.31.76c4 0 24.8 12.67 19.37 20.92-4.56 6.91 0 8.28 0 8.28h-80.42z" fill="#3fbdf1"/><path d="m401.08 575.54-2.63 2.63-2.18 2.12c.65-.73 1.28-1.47 1.93-2.17s1.07-1.22 1.61-1.82a3.6 3.6 0 0 1 1.27-.76z" fill="#353642"/><g fill="none" stroke="#000" stroke-miterlimit="10" stroke-width="4.24"><path d="m807.51 497.67c-.28-.31-.52-.59-.79-.87-6.49-7.14-3.8-15.87 2.33-22.56 4.73-5.19 12.58-10.51 19.92-10.49 7.17 0 15.07 6.22 19.36 11.53 7.34 9.08 10.3 20.65 2.86 30.55a189.5 189.5 0 0 1 -28.57 30.24c-23.8 20.49-54.59 38.35-84.52 50.39-33.1 13.31-72.1 15.86-107.61 11.08-6.68-.9-15.73-4.11-22.11-6.27"/><path d="m815.8 504.23.03.04"/><path d="m835.8 506.22c-3.94 4.56-12.88 9.16-17.73 3-3.06-3.89-.6-8.88 1.88-12.35a29.83 29.83 0 0 1 18.23-12.16"/><path d="m822.62 478.38c-6.66 2.53-14.56 8.83-15.24 16.54-.53 6.05 5.67 10.48 10.46 5.81"/><path d="m637.71 465.57c.95 7.1 7 11.75 13.26 10.72"/></g><path d="m608.38 591.27c-14.83 27.45-43.12 44.34-69.86 59.85-6.82 3.93-33 18.76-42.56 24.22-5.26-1.78-10.22-3.4-14.77-4.87-.14 0-.26-.08-.4-.11-19.32-6.11-31.89-9.25-33.7-9.71l20 6c-47.63-12.82-51.19-13.1-99.35-23.85-4.39-1-8.29-2-11.72-3.11.91-1.76 1.84-3.51 2.78-5.21.05-.11.11-.2.14-.28.14-.26.31-.54.42-.8.29-.51.57-1 .82-1.5l.6-1c.08-.15.17-.29.25-.43s.06-.08.12-.2c1.38-2.49 2.8-4.92 4.24-7.3 4.61-7.75 9.39-15 14.26-21.76q8.12-11.24 16.5-20.85l.08-.09 2.18-2.12 2.63-2.63 23.23-22.89s21.9 4.53 36.05 7.53a88.43 88.43 0 0 0 13.47-8.07c17.21-12.6 33.35-39.09 30.43-61.24-2.57-19.38-23.23-29.12-41-30.13 27.7-1.05 55.29 1.13 81.35 8a.76.76 0 0 1 .25.06l4.28 1.19a11 11 0 0 0 4.07.34c.91 8.18 6.48 34.75 25.84 46.54 12.9 7.84 23.68 4.79 30.07-.45a44.7 44.7 0 0 1 5.41 12.91c5.8 20.37 4.02 43.23-6.11 61.96z" fill="#353642"/><path d="m135.63 711.37-42.32 55s-17.15 4.5-23.69-.57l-6.54-5.08 49.3-63.52z" fill="#3fbdf1"/><g fill="none" stroke="#000" stroke-width="4.24"><g stroke-miterlimit="10"><path d="m232.62 525.55-1.28.65"/><path d="m212.83 535.86-.38.21"/><path d="m424.3 754.18-10.08 12.23c-136.12 155.08-312.13-15.31-312.13-15.31l8-10.85"/><path d="m448.05 661.66s48.12 10.49 106.39 35.89c0 0 1.49.57 4.15 1.78"/><path d="m646.54 780c0 .07.07.11.1.18 5.25 10.39 10.54 21.53 15.61 32.82.07.14.11.28.18.42 2.34 5.18 4.65 10.4 6.88 15.58 19.69 45.51 42 103.79 42 103.79"/><path d="m646.68 780.21a.64.64 0 0 1 -.14-.21c-30.34-51.33-74.36-74.46-87.95-80.67-2.66-1.21-4.15-1.78-4.15-1.78"/><path d="m361.2 630.29s-53.64 83.71 68.11 125.71c129.42 44.6 130.38 30 179.59 108.42 30.61 48.75 42.57 67.44 47.18 74.54l2.91 4.4 11.62 16.64h80.39v-8.28a18.92 18.92 0 0 0 -18.92-18.92h-32.35"/><path d="m132.7 709.42-19.07-14.28-49.63 66.18 8 6a14.57 14.57 0 0 0 20.5-3.06l9.61-13.17"/></g><path d="m608 514.72c16 12.6 39.5 16.19 54.29 18.36 2.21.32 4.45.52 6.68.75a185.2 185.2 0 0 0 61.37-4 172 172 0 0 0 42.06-15.92c11.6-6.28 16.81-17.37 20-30.16l6-26.62a9.92 9.92 0 0 1 19 3.9 10.07 10.07 0 0 1 -.61 3.37l-1.27 3.51" stroke-linejoin="round"/><path d="m212.83 535.86a212.44 212.44 0 0 0 -37.9 24.94 107.24 107.24 0 0 0 -19.86 21.5l-.24.34c-10.53 14.76 12.75 35.14 32.5 13.42 8.73-9.62 15.95-12.55 21.27-12.83a8.37 8.37 0 0 1 8.4 10.64l-1.38 4.93a9.9 9.9 0 0 0 8.64 12.52 9.9 9.9 0 0 0 10.24-6.6 57.76 57.76 0 0 1 36.91-36l10.59-3.38a325 325 0 0 1 206.78 2.73l25.39 8.93" stroke-miterlimit="10"/><path d="m169.2 605.54s-25.86-7.12 16.56-35.06" stroke-miterlimit="10"/><path d="m496.7 674.9c7.38-4.22 34.5-19.53 41.81-23.78 26.75-15.51 55.06-32.4 69.89-59.85 10.11-18.72 11.9-41.59 6.12-62-1.57-5.55-3.15-9.89-6.53-14.59" stroke-linejoin="round"/></g><path d="m703.59 403.7a23.61 23.61 0 0 1 -20.48 18.42 12.44 12.44 0 0 0 -2.69-5.35c-5.6-6.37-7.72 5.83-25.47-2.55-24.59-11.63-33.7-4.5-33.7-4.5-.79.63-.59 6.23-.68 7.22-.53 5.8-1.07 11.57-1.64 17.37-.34 3.54-.68 7.05-1 10.56a16.71 16.71 0 0 0 -1.13-1.7c-2.38-7.81-9-16.95-17.49-12.79a12.18 12.18 0 0 0 -4.32 3.71c-5.52 7.55-1.08 14.65 5 19.86a31 31 0 0 0 5 4.33c-.93 2-4.75 10.13-4.75 10.16-.4.82-14.63-14.66-15.7-16.36a39.68 39.68 0 0 1 -2.73-13.08c-.6-18.42 6.48-40 21.19-50.88 3.65-2.68 4.93-5.23 5.1-8.8a1 1 0 0 1 1.69-.53c4.79 5.29 16.36 4.52 16.36 4.52 40-10.86 53.85 6.74 62 9.74a15.23 15.23 0 0 0 10.29 0 6.18 6.18 0 0 0 4.31 4.73l-.17 1.86a6.2 6.2 0 0 0 1.01 4.06z" fill="#3fbdf1"/><g fill="none" stroke="#000" stroke-miterlimit="10" stroke-width="4.24"><path d="m683.08 422.15a23.61 23.61 0 0 0 20.48-18.42 30.65 30.65 0 0 0 .74-5.63h-.31a4.69 4.69 0 0 1 -1.27-.25 6.15 6.15 0 0 1 -4.3-4.73 5.79 5.79 0 0 1 -.12-1.87l.85-9.11s-7.16 5.55-15.28 2.55-22-20.6-62-9.74c0 0-11.57.77-16.35-4.52a1 1 0 0 0 -1.7.53c-.17 3.57-1.44 6.12-5.09 8.8-14.73 10.81-21.73 32.4-21.17 50.82a43.23 43.23 0 0 0 7 21.53c1.07 1.7 15.3 17.18 15.7 16.36 0 0 3.82-8.12 4.75-10.16l.23-.45-.45-.29a43.82 43.82 0 0 1 -4.79-3.57c-6-5.21-10.47-12.31-5-19.86a12.18 12.18 0 0 1 4.32-3.71c8.49-4.16 15.11 5 17.49 12.79a21.71 21.71 0 0 1 .88 4.58c.08-1 .17-1.89.25-2.85.31-3.51.65-7 1-10.56.57-5.8 1.11-11.57 1.64-17.37.09-1-.11-6.59.68-7.22 0 0 9.11-7.13 33.7 4.5 17.75 8.38 19.87-3.82 25.47 2.55a12.44 12.44 0 0 1 2.69 5.35 13.45 13.45 0 0 1 .28 1.92.77.77 0 0 1 0 .26c.11 1.41.17 2.83.23 4.21.39 13.39-.8 27.39-5.8 39.93-6.09 15.19-22.7 30.39-40.41 23.71-5.52-2.09-10.53-5.55-15.11-9.22"/><path d="m586.58 454.59-29.8 14.77a11.24 11.24 0 0 1 -7.66.59l-4.25-1.17a1.54 1.54 0 0 0 -.27-.07c-115.24-30.4-260.11 31.19-312 56.84l-1.28.65c-10.39 5.17-16.91 8.76-18.51 9.66l-.38.21"/><path d="m553.08 471c-.39 1.27 3.23 33.13 24.48 46.08 13.7 8.34 24.84 3.62 30.44-2.38a23.4 23.4 0 0 0 1.7-2.06v-.07"/><path d="m607.99 514.72 23.24-27.8"/></g><path d="m481.19 670.47c-.14 0-.26-.08-.4-.11l-13.66-3.68c-47.63-12.82-51.19-13.1-99.35-23.85-4.39-1-8.29-2-11.72-3.11-35.9-11.41-22.77-27.72-17.91-27.72 34.67 0 41-11.23 41-11.23l.59.42z" fill="#353642"/><circle cx="643.32" cy="444.59" r="3.68"/><circle cx="671.58" cy="444.59" r="3.68"/><g fill="none" stroke="#000" stroke-miterlimit="10" stroke-width="4.24"><path d="m660.7 443.06s2.85 12.63 3.18 13.9c1.08 4.14-7.11 2.83-7.11 2.83"/><path d="m655.88 427s-12.1-7.64-21.43.69"/><circle cx="644.34" cy="443.23" r="13.11"/><circle cx="677.5" cy="442.13" r="13.11"/></g><path d="m677.51 433.23a8.9 8.9 0 0 1 .29 17.8h-.3a8.91 8.91 0 0 1 -.29-17.81h.3m0-2.12h-.37a11 11 0 0 0 .36 22.05h.37a11 11 0 0 0 -.36-22z" fill="#fff"/><path d="m657.44 442.8 6.96-.23" fill="none" stroke="#000" stroke-miterlimit="10" stroke-width="4.24"/><circle cx="644.34" cy="443.23" fill="#fff" opacity=".53" r="11.1"/><circle cx="677.5" cy="442.13" fill="#fff" opacity=".53" r="11.1"/><path d="m132.7 709.44s150.64 104.49 207.83-36.14q7.31-18 15.48-33.5" fill="none" stroke="#000" stroke-miterlimit="10" stroke-width="4.24"/><path d="m461.21 559.78-36.9-7.13c-.84-.16-4.61 4-5.34 4.63a296.71 296.71 0 0 0 -31 32.83c-6.5 7.88-12.94 14.61-22.88 18a67.66 67.66 0 0 1 -14.57 3c-5.08.55-12.65-.3-16.5 3.78a8.62 8.62 0 0 0 -2.23 6.87 12.16 12.16 0 0 0 2.85 6c7.65 9.39 21.9 12.55 33.11 15.05 52.52 11.73 52 11 113.41 27.66" fill="none" stroke="#000" stroke-miterlimit="10" stroke-width="4.24"/><path d="m398.45 578.17-2.18 2.12c.65-.73 1.28-1.47 1.93-2.17z" fill="#353642"/><path d="m460.15 560.45s-21.39 16.75-46.25 12-12.26-22.65-12.26-22.65a194.59 194.59 0 0 1 53.36 9.26"/><path d="m330.29 617.91s-5.29 19.76 20.32 32.65l6.39-12.56s-31.89-9.8-26.71-20.09z"/><g fill="none" stroke="#000" stroke-miterlimit="10" stroke-width="4.24"><path d="m515.84 396.17h-69.75"/><path d="m451.25 413.15h-39.4"/><path d="m127.49 809.29s49.38 55.18 155.44 55.18"/><path d="m583.9 856.4 24.48 37.78"/><path d="m200.86 514.72c-26.53 10.45-51.57 26.06-65.23 51.95"/><path d="m859.42 522c9.14-9.12 16.75-20.58 17.81-35.45"/></g></svg>