<svg viewBox="0 0 1000 1000" xmlns="http://www.w3.org/2000/svg"><g fill="#d7e8f0"><circle cx="831.52" cy="420.94" r="13.47"/><circle cx="868.73" cy="425.78" r="10.97"/><path d="m661.52 643s-1.92-5.51 3.73-6.55 12.7-6.79 15.87 6.55 20.27 78.17 16.78 87.91-19.76 26.11-20 22.58-2.43-44.81-6.84-61.35-9.54-49.14-9.54-49.14z"/><path d="m639.6 580c.61.47 2.94 11.55 11.48 12.69s15.33-2 9.61-13.16-9.77-27.29-12.83-19.17a17.86 17.86 0 0 1 -10.74 10.39z"/><path d="m623.63 516.59-.23.23c-1 1.15-1.83 2.56-3.12 3.47-3.5 2.47-10.73 2.94-14.17 1.59-.14-.15-.29-.3-.41-.44-1.47-1.65-3-3.29-4.56-5-41-44.15-118.84-101.27-229.87-105v-7.35h1.36c86.15 0 180.92 46.33 244 105.62q2.73 2.55 5.38 5.14c.51.59 1.09 1.15 1.62 1.74z"/></g><path d="m336.7 940.83c-2.59-1.61-5.18-3.32-7.7-5" fill="none" stroke="#000" stroke-miterlimit="10" stroke-width="3.68"/><path d="m938.36 870.8-97 68.26c-.12-.06-.23-.15-.35-.21-6.82-4.17-9.91-11-15.58-16.25-5.41-5-12.52-8.76-20.05-8.76a28.27 28.27 0 0 0 -18.9 7c-4.7 4.29-7.7 10.11-12.35 14.46a28.52 28.52 0 0 1 -19.6 7.91 29.27 29.27 0 0 1 -24.75-13.61l-1.3-2.17a29.31 29.31 0 0 0 -49.5 0l-1.29 2.17a29.3 29.3 0 0 1 -24.69 13.63 28.48 28.48 0 0 1 -19.58-7.91c-4.67-4.35-7.64-10.17-12.38-14.46a28.22 28.22 0 0 0 -18.9-7c-7.49 0-14.61 3.73-20 8.76-5.67 5.26-8.75 12.08-15.57 16.25a28.62 28.62 0 0 1 -30.43 0c-6.82-4.17-9.91-11-15.58-16.25-5.41-5-12.52-8.76-20-8.76a28.29 28.29 0 0 0 -18.9 7c-4.7 4.29-7.7 10.11-12.34 14.46a28.55 28.55 0 0 1 -19.61 7.91 29.27 29.27 0 0 1 -24.75-13.61l-1.29-2.17a29.32 29.32 0 0 0 -49.51 0l-1.29 2.17c-6.22 10.47-19.56 15.32-31.24 12.66-14.3-3.28-18.01-17.51-29.57-24.28-3.23-1.88-6.92-2.82-10.34-4.33-10.72-4.67-17.84-14.55-26.31-22.19l24.82 22.41c-2.35-2.12-3.83-9-5.45-12a90.26 90.26 0 0 0 -8.39-12.67c-6.31-8-13.06-15.46-19.38-23.49-14.36-18.24-28.92-36.32-43.26-54.58-9.69-12.34-19.28-24.76-28.64-37.36-6.74-9.09-22-25.17-12-36.94a12.7 12.7 0 0 1 8.09-4c13.52-1.82 29.34 2.61 42.78 4.25 31.19 3.83 62.35 7.86 93.53 11.74 41.72 5.16 83.49 10.3 125.14 16.39l7.06 1.07 2.47.38c1.24.21 2.18.39 2.79.47l.77.12a.53.53 0 0 0 .15 0l466.11 75.81a15.36 15.36 0 0 1 6.36 27.72z" fill="#3fbdf1"/><g fill="none" stroke="#000" stroke-width="3.68"><path d="m841.42 939.07 96.94-68.26a15.35 15.35 0 0 0 -6.36-27.72l-756.34-123c-13.67-2.2-23.08 13.35-14.73 24.43l89.07 118.38a350.56 350.56 0 0 0 49.89 51.1" stroke-miterlimit="10"/><path d="m885.68 913.85a29.24 29.24 0 0 1 -44.62 25c-6.82-4.18-9.9-11-15.58-16.27-5.41-5-12.5-8.75-20-8.75a28.29 28.29 0 0 0 -18.9 7c-4.71 4.3-7.71 10.11-12.36 14.46a28.54 28.54 0 0 1 -19.6 7.9 29.3 29.3 0 0 1 -24.75-13.61l-1.29-2.17a29.31 29.31 0 0 0 -49.5 0l-1.3 2.17a29.27 29.27 0 0 1 -24.78 13.66 28.54 28.54 0 0 1 -19.59-7.9c-4.66-4.35-7.65-10.16-12.36-14.46a28.29 28.29 0 0 0 -18.9-7c-7.52 0-14.62 3.72-20 8.75-5.68 5.27-8.76 12.09-15.58 16.27a28.71 28.71 0 0 1 -30.45 0c-6.82-4.18-9.9-11-15.57-16.27-5.41-5-12.51-8.75-20-8.75a28.29 28.29 0 0 0 -18.9 7c-4.71 4.3-7.7 10.11-12.36 14.46a28.54 28.54 0 0 1 -19.59 7.9 29.27 29.27 0 0 1 -24.75-13.61l-1.3-2.17a29.31 29.31 0 0 0 -49.5 0l-1.29 2.17a29.3 29.3 0 0 1 -24.75 13.61 28.54 28.54 0 0 1 -19.6-7.9c-4.65-4.35-7.65-10.16-12.36-14.46a28.29 28.29 0 0 0 -18.9-7c-7.52 0-14.61 3.72-20 8.75-5.68 5.27-8.76 12.09-15.58 16.27a29.24 29.24 0 0 1 -44.62-25" stroke-miterlimit="10"/><g stroke-linecap="round" stroke-linejoin="round"><path d="m679.62 637c7.67 29.75 13.11 60.26 19.19 90"/><path d="m50 943.23v-217.94c0-177.37 143.8-321.17 321.17-321.17 86.16 0 180.93 46.33 244 105.62q2.73 2.55 5.38 5.14c.55.56 1.14 1.12 1.67 1.71"/><path d="m646.58 550.27a304.85 304.85 0 0 1 14.11 29.28c.29.74.62 1.44.91 2.18 1 2.41 2 4.82 2.88 7.26"/><path d="m814.26 491.94s-12.71 23.6 17.66 25.56 50.18-22.2 50.18-22.2"/></g></g><g fill="#2e2e2e"><path d="m756.87 691c4.56 1.94 9.2 3.85 13.93 5.64a71.6 71.6 0 0 0 -34.86.15c-1.94.53-17.86 7.24-20 6.92.31-7 3.11-31.87 5-36 8.19 3.92 29.58 20.58 35.93 23.29z"/><path d="m943.47 615-9.38 25.55s-23.16-53-75-32c0 0-8.16 31.37-51.15 22.9-44.32-8.72-69.78-19.65-68.7-25.61 1.17-6.41 7.08-18.44 8.45-17.53a116.81 116.81 0 0 1 9.92-20.86c1.75-2.89 1.86 0 1.95-2 1.38-29.79-25.26-36-25.26-36 22.52-21.25 50.77-34.16 79.61-39s-9.44 19.85 6.43 24.55 33.87 5.67 65.85-20.72c.02.06 88.06 17.9 57.28 120.72z"/><path d="m922.25 661.62c-2.44 12.59-27.25 133.31-87.36 158.3 11.14-53.3-29.25-96.8-29.25-96.8-7.18-11.73-16.14-18.87-25.25-23 39 13.14 81.77 17.35 116.34-10.52a128.82 128.82 0 0 0 25.52-27.98z"/></g><g fill="none" stroke="#000" stroke-width="3.68"><g stroke-miterlimit="10"><path d="m814.75 736.91c-9.7-16-21.78-33.31-43.86-39.69-23.72-6.88-50.82-.7-63.23 17-10.11 14.46-19.49 29.31-29.48 43.89-2.91 4.29-5.91 8.58-9 12.81-3.88 5.41-7.79 10.79-11.67 16.17-2.44 3.38-4.85 6.76-7.29 10.11"/><path d="m714.39 706.89a161.23 161.23 0 0 0 -21.6-10.08"/><path d="m490 771.21c15.52-11.67 31.07-23.34 46.33-35.39 25.92-20.43 51.23-42.63 85.3-47.65a135.68 135.68 0 0 1 49.33 2.06"/><path d="m922.46 660.43s-29.39 161.93-108.55 163.94"/><path d="m784.8 799.02-12.16 18.16"/><path d="m599.26 789c-.36-.06 5.75-3.59 13.17-7.78a37.84 37.84 0 0 1 45.12 5.93"/></g><g stroke-linecap="round" stroke-linejoin="round"><path d="m636 571.17c1.85 4.18 5.31 11.57 7.2 16.19"/><path d="m678.18 758.16c-2.26-42.51-10.18-93.33-18.18-120.93"/><path d="m737.71 605.88a273.83 273.83 0 0 1 23.22-42.34"/><path d="m720.2 666c-2.88 15-5.15 28.24-6.53 38.89"/><path d="m826.45 488.9q-6.3.57-12.55 1.61c-28.84 4.85-57.09 17.76-79.61 39a141.39 141.39 0 0 0 -15.29 16.91c-5.38 6.94-10.38 19.26-20.05 20.87-10.76 1.77-19.49-8.87-25.48-16.22-9.59-11.76-19.26-23.43-28.34-35.6-4.12-5.53-8-12.43-15.29-14.11-5.88-1.35-12.52 2.88-17.1 6.11"/><path d="m642.42 554.54c3.81-1.29 4.67 3.25 4.67 3.25a10.5 10.5 0 0 1 -4.27 9.77c-5.05 4-11.93 5.41-18.25 5.19-3-.1-6.87-.73-8.76-3.28s-2-6.09-1.44-9.2"/><path d="m597.31 514.43a16.44 16.44 0 0 0 -7.85 10.47 7.64 7.64 0 0 0 4.54 9.1 40.29 40.29 0 0 0 28.38 2.07c5-1.49 8.19-4.67 11.63-8.33a8.18 8.18 0 0 0 -.6-11.73 8.32 8.32 0 0 0 -7.22-1.79 7.36 7.36 0 0 0 -2.65 1.26 8.93 8.93 0 0 0 -1.56 1.33 20.1 20.1 0 0 1 -3.11 3.47c-4.34 3.08-14.57 3.05-15.9.27"/><path d="m636.11 523.12a11.38 11.38 0 0 1 6.21 5c4.18 7.77-4.71 15.35-11.07 17.79-7.43 2.84-15.47 2.81-23.27 2-3.66-.37-8.09-.3-10.81-3.19a9 9 0 0 1 -2.21-8.5 6.12 6.12 0 0 1 .63-1.49"/><path d="m642.67 535.74s6.24 2.75 5.62 9.36c-.72 7.67-8 11.58-14.71 13.41a60.11 60.11 0 0 1 -18.47 1.8 21.56 21.56 0 0 1 -4.87-.66c-4.87-1.37-8.8-6.6-7.6-11.74 0-.17.09-.35.14-.52"/><path d="m657.68 572.65a36.21 36.21 0 0 1 15.8-1.66 36.88 36.88 0 0 1 15.85 5.17c5 3.27 9.51 7.63 14.42 11.11 10.43 7.43 21.48 13.59 32.79 19.54 25.52 13.41 68 25.37 81.61 24.92l1.74-.08c10-.56 20-3.35 27.94-9.54a42.68 42.68 0 0 0 13.4-18.22 44.93 44.93 0 0 0 3.24-17.44c-.05-1.89 0-5.76-1.78-7"/><path d="m661.6 581.73c5.29 0 5 6.58 1.23 8.73a11.33 11.33 0 0 1 -1.94.85l-.64.18"/><path d="m882 494.34c3.29.88 6.58 1.88 9.87 3l1.12.36c16.37 5.52 33.3 14.11 43.45 28.66 10.28 14.81 13.84 33.13 13 50.94-1.94 41.92-19.58 85.39-52.74 112.17-19.37 15.63-43.67 21.9-68.29 20.54a169.28 169.28 0 0 1 -35.94-6.28c-12.57-3.5-25.22-7.68-36.92-13.5-3.72-1.85-7.37-3.86-10.91-6-11.91-7.29-22.65-16.28-33-25.64-4.86-4.42-9.84-8.8-14.55-13.36-4-3.85-8.16-7.93-13.53-9.71a18.42 18.42 0 0 0 -6.51-.9c-6.85.32-13.35 3.09-20.28 2.18-19.73-2.56-26.66-21.14-29.37-38.48-.73-4.73-1-11.23 3.94-13.88a16.77 16.77 0 0 1 2.75-1.21 7.4 7.4 0 0 1 8.57 3.39 12 12 0 0 0 13.75 6l3.77-1 .64-.18"/></g><path d="m604.7 521.94-.44-.5c-1.47-1.65-3-3.29-4.56-5-41-44.15-118.85-101.27-229.88-105v-7.38" stroke-miterlimit="10"/></g><path d="m891.31 406.87v-.09a28.44 28.44 0 0 0 -8.4-15.85c-6.86-6.3-16.63-8.23-25.41-8.42a25.66 25.66 0 0 0 -18.79 7.69c-3.83-4.62-1.39-10.67-1.39-10.67 3-6.84 8-9.42 14-9.4 15.28.05 36.5 17.26 43.79 23.66 1.07.93 1.83 1.64 2.24 2 4.36 4.15-1.64 27.21-6.04 11.08z" fill="#3fbdf1"/><path d="m851.29 370.13c5.54-4.5 15.51-9.42 28.67-2.86 14.82 7.4 15.8 19.93 15.12 26.52z" fill="#3fbdf1"/><g fill="none" stroke="#000" stroke-linecap="round" stroke-linejoin="round" stroke-width="3.68"><path d="m860.81 471.59s-38 11.14-34.51-36.1a204.22 204.22 0 0 1 4.81-30c.25-1 .48-2 .73-3.07a26 26 0 0 1 6.76-12.18"/><path d="m891.2 406.78v.09c2.53 12.81-1.41 26.16-1.68 27"/><path d="m889.52 434c4-5.27 12.47-.39 9.65 5.6-2.94 6.25-12 12.23-12 12.23l-5.65 44.58"/></g><path d="m891.2 406.78c-4.45-16-25.43-9.32-42.32-11.78-5.37-.78-8.51-2.63-10.28-4.8a25.66 25.66 0 0 1 18.79-7.69c8.78.19 18.55 2.12 25.41 8.42a28.44 28.44 0 0 1 8.4 15.85z"/><g fill="none" stroke-linecap="round" stroke-linejoin="round" stroke-width="3.68"><g stroke="#000"><path d="m891.22 406.87v-.09a28.44 28.44 0 0 0 -8.4-15.85c-6.86-6.3-16.63-8.23-25.41-8.42a25.66 25.66 0 0 0 -18.79 7.69c-3.83-4.62-1.39-10.67-1.39-10.67 3-6.84 8-9.42 14-9.4 15.28.05 36.5 17.26 43.79 23.66 1.07.93 1.83 1.64 2.24 2 4.36 4.15-1.64 27.21-6.04 11.08z"/><path d="m851.2 370.13c5.54-4.5 15.51-9.42 28.67-2.86 14.82 7.4 15.8 19.93 15.12 26.52"/><circle cx="868.73" cy="425.78" r="15.47"/></g><circle cx="831.52" cy="420.94" r="13.47" stroke="#fff"/><g stroke="#000"><circle cx="831.52" cy="420.94" r="15.47"/><path d="m853.5 423.11-6.57-.86-3.97 18.24 6.84.07"/></g></g><path d="m895.84 412a35.49 35.49 0 0 1 -.84 19.81s-5.79 3.36-4.06-3.09 1-16.5 1-16.5z"/><g fill="none" stroke="#000" stroke-width="3.68"><path d="m834.89 470.08-9.86 29.25" stroke-linecap="round" stroke-linejoin="round"/><path d="m869.62 446.7c1.82-1.91 3.9 6.89 4 7.81.13 2.71-1.54 3.63-4 4.21a27.23 27.23 0 0 1 -19.87-3.23c-1-.6-3-1.68-3.05-3 7.06.43 16.75-.25 22.28-5.12.2-.24.43-.45.64-.67z" stroke-miterlimit="10"/><g stroke-linecap="round" stroke-linejoin="round"><path d="m862.79 425.09a9.32 9.32 0 0 1 7.13 2"/><path d="m834.51 421a9.32 9.32 0 0 1 7.13 2"/></g></g><path d="m780.39 700.07c-3.24-1.08-6.41-2.23-9.59-3.41a58.33 58.33 0 0 1 9.59 3.41z" fill="#2e2e2e"/><g fill="#3fbdf1"><path d="m459.71 766.3 2.47.38c-.7-.09-1.56-.23-2.47-.38z"/><path d="m465.74 767.27-.77-.12z"/></g></svg>