<svg viewBox="0 0 1000 1000" xmlns="http://www.w3.org/2000/svg"><ellipse cx="593.94" cy="436.04" fill="#ccdde2" rx="8.68" ry="8.47"/><ellipse cx="618.3" cy="455.14" fill="#ccdde2" rx="10.45" ry="10.2"/><g fill="none" stroke="#ccdde2" stroke-width="4.03"><g stroke-miterlimit="10"><path d="m804.18 795.42 46.3 50.55v-225.88"/><path d="m850.48 813.94 41.86-36.79"/><path d="m850.48 722.31-28.54-31.95"/><path d="m850.48 693.56 20.93-12.61"/><path d="m850.48 633.2c0-3.83-14.27-30.9-14.27-30.9"/><path d="m805.18 862.44c1.38.07 2.17.09 2.17.09l12.12.22a17 17 0 0 1 16.74 17v64.38"/><path d="m700.05 830.87 35.41 38.66v-172.75"/><path d="m745.43 836.27-9.97 8.76"/><path d="m735.46 774.96-21.83-24.44"/><path d="m735.46 752.97 16.01-9.64"/><path d="m735.46 706.8c0-2.93-10.92-23.62-10.92-23.62"/><path d="m767.73 788.1c-4.17-6.56-6.32-13.28-1.55-17.46 2.93-2.57 9.83-2.88 15.05-4.43"/><path d="m741.28 649.89a26.24 26.24 0 0 1 5.65 6.8c8.3 14.16 4.55 31.5 4.51 47-.05 12 3.62 22.37 13.35 29.71 8.73 6.59 18.89 12.53 22.52 23.54a11.12 11.12 0 0 1 .45 1.89"/><path d="m682 879.76a89.62 89.62 0 0 0 20.46 2.46l9.28.14a13 13 0 0 1 12.78 13v49.23"/><path d="m681.6 748.15c11.14-20.34 28.62-10.3 33.49-30.19 3.15-13-.81-27 .14-40.17a47.37 47.37 0 0 1 1-6.75"/><path d="m745.65 896.62a14.52 14.52 0 0 1 14.71-14.53l7.11.12c13.26-.55 25.24 2.72 37.4-12.23l.31-.39c-10.52-.66-56.17-5.12-59.75-33.32-1-7.66 1.35-15.38 4.58-22.25 9.3-19.79 23.85-37.26 37.13-54.49 5.87-7.62 12.49-14.62 17.4-23 3.15-5.33 8.1-14.36 2.39-19.72-6.73-6.31-26.26-1.93-28.65-12.53a10.81 10.81 0 0 1 .59-5.57c9.45-28.79 38.64-25 45-51 4.13-17-1.05-35.25.17-52.52.84-11.64 5.63-26.31 13.17-35.3 9.63-11.54 21.91-3.15 28.28 7.73 10.86 18.51 6 41.17 5.89 61.46 0 15.7 4.77 29.24 17.49 38.83 11.4 8.61 24.71 16.39 29.43 30.79 5.15 15.7-20.37 11.59-27.62 17.91-13.09 11.45 13.71 37.83 21.18 45.39 18.7 19 54.81 53.28 29.41 84.5-15.91 19.56-31.58 15.29-48.9 16l-9.32-.12a19 19 0 0 0 -19.23 19"/></g><g stroke-linejoin="round"><path d="m74.82 946s-10.93-16.74-10.93-54.42 17-54.41 17-54.41c-18.44 53.72 19.53 108.83 19.53 108.83 1.15-2.07 12.08-17.6 13.23-45.22 0 0 10.35 23.7 1.72 45.22"/><path d="m371.87 946s7.26-8.37 7.26-27.21-11.27-27.21-11.27-27.21c12.22 26.88-13 54.42-13 54.42a37.87 37.87 0 0 1 -8.78-22.61s-6.85 11.83-1.08 22.61"/></g></g><path d="m276.56 827a47.27 47.27 0 0 1 -1.6 19.3c-6.64 22.55-28.12 36.08-48 30.24s-30.54-28.87-23.89-51.42 28.11-36.08 48-30.23a34.18 34.18 0 0 1 5.06 1.95l-20.71 35.87a4.7 4.7 0 0 0 8.13 4.7l20.39-35.41a39 39 0 0 1 11.62 19.64z" fill="#d7e8f0"/><path d="m631.67 827a47.27 47.27 0 0 1 -1.6 19.3c-6.64 22.55-28.12 36.08-48 30.24s-30.54-28.87-23.89-51.42 28.11-36.08 48-30.23a34.18 34.18 0 0 1 5.06 1.95l-20.71 35.87a4.7 4.7 0 0 0 8.13 4.7l20.39-35.41a39 39 0 0 1 11.62 19.64z" fill="#d7e8f0"/><g fill="none" stroke="#ccdde2" stroke-miterlimit="10" stroke-width="4.03"><path d="m214.48 776.78c13.26-7.63 28.71-10.11 43.6-5.72a53.48 53.48 0 0 1 8 3.07l-32.78 56.79a7.5 7.5 0 0 0 -1 3.7 7.45 7.45 0 0 0 13.89 3.72l32.29-55.93a61.79 61.79 0 0 1 18.39 31.1"/><path d="m220 900.28c-31.41-9.26-48.34-45.7-37.8-81.38a15 15 0 0 1 .48-1.48"/><path d="m298.44 821.88a74.51 74.51 0 0 1 -2.54 30.55"/><path d="m569.59 776.78c13.26-7.63 28.71-10.11 43.6-5.72a53.48 53.48 0 0 1 8 3.07l-32.79 56.79a7.5 7.5 0 0 0 -1 3.7 7.44 7.44 0 0 0 13.89 3.72l32.29-55.93"/><path d="m575.07 900.28c-31.41-9.26-48.34-45.7-37.8-81.38a15 15 0 0 1 .48-1.48"/><path d="m653.55 821.88a74.51 74.51 0 0 1 -2.55 30.55"/></g><path d="m631.67 827a47.27 47.27 0 0 1 -1.6 19.3c-6.64 22.55-28.12 36.08-48 30.24s-30.54-28.87-23.89-51.42 28.11-36.08 48-30.23a34.18 34.18 0 0 1 5.06 1.95l-20.71 35.87a4.7 4.7 0 0 0 8.13 4.7l20.39-35.41a39 39 0 0 1 11.62 19.64z" fill="#d7e8f0"/><path d="m310.38 686.43-12.19 21.11-31.89-60.1c10.21 19.2 25.16 31.36 44.08 38.99z"/><path d="m354.07 812.89-13.47-25.43" fill="none"/><g fill="#2e2e2e"><path d="m475.3 543.33c-.33.21-.66.45-1 .69a1.57 1.57 0 0 1 -.17-.21z"/><path d="m334.59 693.56a136.56 136.56 0 0 1 -24.21-7.13z"/><path d="m441.65 786.65-14.31 26.24h-101.77l8.16-13.81 6.87-11.59.47-.81z"/><path d="m405.28 834.23v.12h-40.24l-.07-.12z"/><path d="m405.28 834.23v.12h-10.76v26.12h-15.24l-14.24-26.12-.07-.12z"/><path d="m481.05 860.47h-65.04v-26.24h49.54z"/></g><path d="m459.54 860.47v7.47a14 14 0 0 1 -14 14h-29.54v-21.47z" fill="#3fbdf1"/><path d="m416 823.62v10.69h-10.71-40.29l.07.12a14 14 0 0 1 -14-14v-7.44h54.26a10.73 10.73 0 0 1 10.67 10.63z" fill="#3fbdf1"/><g fill="#2e2e2e"><path d="m416.01 834.31v.02l-10.73-.02-10.76-.03-29.55-.05h40.31v.03l10.71.05z"/><path d="m430.51 834.35h-35.99v-.12l10.76.03 10.71.05h.02z"/><path d="m686.88 696.81v2.38h-1.38z"/><path d="m334.59 693.56-22.83 39.55-8.42 14.59-53.34 92.4a12.27 12.27 0 1 1 -21.25-12.28l54.15-93.82 15.29-26.47 12.19-21.11z"/><path d="m716.51 642.21a12.2 12.2 0 0 1 -1.65 6.13l-3.67 6.4c-9.24 1.46-18.85 4.13-7.45 12.91l-16.83 29.16-1.38 2.38-27.69 48-53.69 92.91a12.28 12.28 0 0 1 -21.26-12.28l54.36-94.16 19.92-34.47h-150.29l18.2-34.34h151.92l16.63-28.79a12.27 12.27 0 0 1 22.9 6.15z"/><path d="m475.3 543.33c-.33.21-.66.45-1 .69a1.57 1.57 0 0 1 -.17-.21z"/></g><path d="m259.58 631.62c-14.19-2.86-32.42-5.51-41-18.69-1.22-1.84-2.75-4-3.08-6.25a4.45 4.45 0 0 1 -.07-.79c-.14-4.41 5.13-4.13 8.51-3.6 8.07 1.24 16 3 23.95 4.89 2.36.55 4.7 1.12 7 1.69a97.9 97.9 0 0 0 4.69 22.75z"/><path d="m684.1 625.54c-6.35 17.13-19.23 17.2-19.44 17.2a606.62 606.62 0 0 1 -72.32-21.94c-64.08-24.28-99-53-118-76.78a11.46 11.46 0 0 1 1-.69l-1.15.48a1.57 1.57 0 0 0 .17.21c-18.36 12.64-28.36 31.72-33.78 49.32a25.9 25.9 0 0 1 -1.17 3.2 1.22 1.22 0 0 1 -.07.17l-1.12 2.36a.14.14 0 0 1 -.05.09c-3.43 6.59-13.76 15.41-20.34 18.54l-120.23-.89-49.71-9.63c-7.89-1.89-15.89-3.65-23.89-4.89-3.39-.53-8.66-.81-8.52 3.6 0-5.75 3-9.68 6.46-13.86q5.55-6.72 11.12-13.42c20.77-24.79 41-50 61.86-74.7 5.13-6.09 10.36-12.05 15.94-17.7 19.53-19.85 42.12-37.28 66.87-50.16 43.65-22.66 76.61-29.62 103-26.07l.86.12c60 8.56 85.89 71.55 126.67 126.12 9.78 13.07 26.72 25.12 43.29 34.78a0 0 0 0 1 0 0l35 17.61a.75.75 0 0 0 0 .21c1.1 15.83.45 28.83-2.45 36.72z" fill="#2e2e2e"/><path d="m475.3 543.33c-.33.21-.66.45-1 .69a1.57 1.57 0 0 1 -.17-.21z" fill="#2e2e2e"/><g fill="none" stroke="#000" stroke-miterlimit="10" stroke-width="4.03"><path d="m50 945.98h886.88"/><path d="m440.93 595.05h53.19c31.21 0 51.2 33.22 36.58 60.79l-69.34 130.8h-119.45l50.57-87.64"/><path d="m458.89 786.65 26.86 47.58h-19.37-49.54"/><path d="m299.02 707.54-32.51-61.27"/><path d="m341.43 787.46-28.84-54.35"/><path d="m452.42 496.46s5 96.19 213.07 146.29c0 0 26.6.75 21-54.1"/><path d="m448.45 699.19h-32.61c-72.34 0-127.14-5-151-56.45a99 99 0 0 1 -4.39-11.12 97.9 97.9 0 0 1 -4.65-22.75"/><path d="m442.48 786.65-14.31 26.24h-101.77l8.16-13.81 6.87-11.62.48-.81z"/><path d="m406.11 834.23v.12h-40.23l-.08-.12z"/><path d="m406.11 834.23v.12h-10.75v26.12h-15.25l-14.23-26.12-.08-.12z"/><path d="m481.88 860.47h-65.04v-26.24h49.54z"/><path d="m460.37 860.47v7.47a14 14 0 0 1 -14 14h-29.53v-21.47z"/><path d="m406.11 812.89a10.72 10.72 0 0 1 10.73 10.73v58.38h-10.75a10.74 10.74 0 0 1 -10.74-10.73v-36.92h10.76"/><path d="m406.11 812.89h-54.26v7.44a14 14 0 0 0 14 14l-.08-.12 51 .1"/><path d="m431.36 834.34 2.38.01h-38.38v-.12z"/><path d="m717.22 640.52a12.13 12.13 0 0 0 -6-8.92 12.27 12.27 0 0 0 -16.77 4.48l-16.62 28.79h-151.89l-18.23 34.34h150.29l-74.27 128.61a12.27 12.27 0 1 0 21.27 12.28l81.35-140.91 1.38-2.38 15.89-27.5"/></g><path d="m687.72 699.19h-1.39l1.39-2.38z" fill="#3fbdf1"/><g fill="none" stroke="#000" stroke-miterlimit="10" stroke-width="4.03"><path d="m335.42 693.56-31.25 54.14-53.35 92.4a12.27 12.27 0 1 1 -21.25-12.28l54.16-93.82 27.48-47.58"/><path d="m333 863.36c-17.37 58.95-73.54 94.35-125.43 79.06s-79.89-75.49-62.5-134.42 73.53-94.4 125.43-79.09a89.19 89.19 0 0 1 13.23 5.1l-54.16 93.81a12.27 12.27 0 1 0 21.25 12.28l53.35-92.4c14.74 13.15 25.26 31.11 30.39 51.38l-8.16 13.81h10.78a123.24 123.24 0 0 1 -4.18 50.47z"/><ellipse cx="594.13" cy="835.66" rx="111.3" ry="97.96" transform="matrix(.2826763 -.95921536 .95921536 .2826763 -375.41 1169.31)"/><path d="m216.25 605.88c-.05-5.74 3-9.67 6.44-13.86l11.13-13.42c20.76-24.78 41.05-50 61.87-74.71 5.11-6.06 10.35-12 15.92-17.68 19.55-19.85 42.12-37.29 66.88-50.16 143.89-74.75 171.73 21.46 230.51 100.17 14.17 18.94 43.36 35.73 64.71 46.25 27.14 13.38 88 31.84 64.09 75-4.91 8.83-29.71 21.8-37.56 8.15-7.35-12.76 17-13.78 17-25.08 0-8.68-6-12.21-13-14.12-12.54-3.43-6.45-2.57-19.3-2.66"/><path d="m260.41 631.62c-14.19-2.86-32.41-5.51-41-18.69-1.22-1.84-2.74-4-3.08-6.25-.81-5.23 4.87-4.94 8.45-4.39 23.77 3.62 46.6 12 70.55 14.14 6.67.6 13.4.88 20.1.88h93.78a33.78 33.78 0 0 0 32.2-24c5.56-17.91 15.81-37.37 34.73-50"/><path d="m566.79 456.97-10.73 2.92"/><path d="m560.76 420.78c-.94 0-54.28-13.15-79.27-10.81"/></g><path d="m628.18 461.16a38.54 38.54 0 0 1 -2.86 3.18.44.44 0 0 1 -.17.16c-1.74 1.77-1.28 1.05-3.38 2.58a.18.18 0 0 1 -.1.09s0 0 0 0a1.66 1.66 0 0 1 -.38.31 97.93 97.93 0 0 0 7-13.18c3.48-6.25 6.23-13.29 2.39-15.34-6.51-3.46-6.73-16.36-4.65-23.47 0 0 0 0 0-.05a15.2 15.2 0 0 1 .88-2.36s0-.07 0-.09a10.5 10.5 0 0 0 .83-2.56c12.04 16.7 11.77 36.85.44 50.73z" fill="#3fbdf1"/><path d="m627.64 402.43c14.51 17.27 15 39.18 2.93 54a40.43 40.43 0 0 1 -2.86 3.18.52.52 0 0 1 -.17.16 45.56 45.56 0 0 1 -5.77 5 .19.19 0 0 1 -.1.1s0 0 0 0a2 2 0 0 1 -.38.31c-1 .74-2.05 1.43-3.15 2.1-1.45.9-3 1.76-4.6 2.55-8.68 4.27-18.77 6.75-28 4-7.6-2.29-13.9-8-18-14.86a49.55 49.55 0 0 1 -5.6-14.67" fill="none" stroke="#000" stroke-miterlimit="10" stroke-width="4.03"/><path d="m626.92 413s0 .07 0 .09c-.26.81-.55 1.6-.88 2.36v.05a24.85 24.85 0 0 1 -14.91 13.67c-.24.09-.5.16-.76.24a20.54 20.54 0 0 1 -5.63.69c-.79 0-1.58-.07-2.36-.17a19.81 19.81 0 0 1 -9.69-4 15.23 15.23 0 0 1 -1.74-1.58 4 4 0 0 1 -.45-.47c-2.29-2.53-4.18-5.94-7.54-6.61-2.36-.45-4.74.67-6.75 2-7 4.7-11.3 12.17-13.33 20.32-1.57-16.88 3.6-33.46 18.58-43a41.32 41.32 0 0 1 14.26-5.59l11.14-.6a40.57 40.57 0 0 1 5.56.84c5.68 1.26 11.33 4 14.74 8.66a17.13 17.13 0 0 1 .81 4.58v.4a22.92 22.92 0 0 1 -1.05 8.12z" fill="#3fbdf1"/><path d="m604.48 385.65a40.2 40.2 0 0 1 5.55.84c6.09 1.36 12.12 4.39 15.41 9.66a14.7 14.7 0 0 1 1.1 2.12.1.1 0 0 0 0 .05c0 .05.05.14.1.26a11.9 11.9 0 0 1 .5 1.34 17.13 17.13 0 0 1 .81 4.58v.4a22.92 22.92 0 0 1 -1.1 8.09s0 .07 0 .09c-.26.81-.55 1.6-.88 2.36v.05a24.85 24.85 0 0 1 -14.91 13.67c-.24.09-.5.16-.76.24a20.54 20.54 0 0 1 -5.63.69c-.79 0-1.58-.07-2.36-.17a19.81 19.81 0 0 1 -9.69-4 15.23 15.23 0 0 1 -1.74-1.58 4 4 0 0 1 -.45-.47c-2.29-2.53-4.18-5.94-7.54-6.61-2.36-.45-4.74.67-6.75 2-7 4.7-11.3 12.17-13.33 20.32a35.73 35.73 0 0 0 -.93 4.58 65.14 65.14 0 0 1 -1.34-8c-2-17.37 3.08-34.59 18.46-44.34a41.44 41.44 0 0 1 14.34-5.63" fill="none" stroke="#000" stroke-linecap="square" stroke-linejoin="bevel" stroke-width="4.03"/><path d="m604.48 385.65c-1-.07-2-.12-2.91-.12-.24-3.12-3.18.15-5.92-2.26 3.25-7.95-4.53-14.6-9.2-17.08-9.28-4.91-20.23-8.63-30.87-7.49-13.5 1.48-19.29 12.09-27.9 21-9.66 10-24.74 12.73-38.64 12.11-8.78-.4-18-2.12-24.69-7.82-.69-.59-1.33-1.22-2-1.86a29.77 29.77 0 0 1 -2.77-12.09 38.24 38.24 0 0 1 7.3-22.33c6-8.58 14.88-15 24.64-18.86a83.13 83.13 0 0 1 30.81-5.42 110.08 110.08 0 0 1 62 19 74.63 74.63 0 0 1 16.29 15.34s0 .07.07.09c5.03 8.86 7.2 18.61 3.79 27.79z" fill="#3fbdf1"/><path d="m625.27 407.21-.02-.02" fill="none"/><path d="m624.15 403s0 0 0 0a32.19 32.19 0 0 1 1.07 4.1z" fill="#3fbdf1"/><g fill="none" stroke="#000" stroke-miterlimit="10" stroke-width="4.03"><path d="m626.54 398.27a.1.1 0 0 0 0 .05 29 29 0 0 1 1.46 6.58 18.19 18.19 0 0 1 -.27 5.53 10.36 10.36 0 0 1 -.83 2.56s0 .07 0 .09a15.2 15.2 0 0 0 -.88 2.36s0 0 0 .05c-2.08 7.11-1.86 20 4.65 23.47 3.84 2.05 1.09 9.09-2.39 15.34a107.89 107.89 0 0 1 -7 10.8"/><path d="m604.48 385.65c-1-.07-2-.12-2.91-.12a42.05 42.05 0 0 0 -8.23.72c3.15-3.1 3.93-6.27 3.24-9.21-1.05-4.43-5.46-8.37-10.13-10.85-9.28-4.91-20.23-8.63-30.87-7.49-13.5 1.48-19.29 12.09-27.9 21-9.66 10-24.74 12.73-38.64 12.11-8.78-.4-18-2.12-24.69-7.82-.69-.59-1.33-1.22-2-1.86a28.88 28.88 0 0 1 -7.54-19.25 38.21 38.21 0 0 1 7.3-22.32c6-8.59 14.88-15 24.64-18.87a83.33 83.33 0 0 1 30.81-5.41 110.07 110.07 0 0 1 62 19c8 5.49 16 13.5 21.06 22.5 0 0 0 .07.07.09 5.03 8.85 7.2 18.6 3.79 27.78z"/><path d="m606.12 445.59s-5 9.29-6.18 10.18-3-2.38-3-2.38"/><path d="m601.15 464.77c-2.8 1.73-6.44 2.11-9.65 2.22-5.15.17-6.83-4.14-6.85-8.72a36.62 36.62 0 0 1 .94-7.35c1.75 3.31 3.55 6.66 6.17 9.34s5.78 3.53 9.39 4.51z"/><path d="m612.12 431.66s-4-12.57-15.73-12.35"/><ellipse cx="593.94" cy="436.04" rx="12.34" ry="12.05"/><ellipse cx="618.3" cy="455.14" rx="12.34" ry="12.05"/></g><path d="m618.31 447a8.44 8.44 0 0 1 5.25 1.81 8 8 0 0 1 1.28 11.38 8.53 8.53 0 0 1 -11.8 1.25 8 8 0 0 1 -1.28-11.39 8.43 8.43 0 0 1 6.55-3.05m0-2a10.43 10.43 0 0 0 -8.1 3.79 10 10 0 0 0 1.59 14.21 10.54 10.54 0 0 0 14.59-1.55 10 10 0 0 0 -1.59-14.25 10.49 10.49 0 0 0 -6.49-2.23z" fill="#fff"/><g fill="none" stroke="#000" stroke-miterlimit="10" stroke-width="4.03"><path d="m603.56 443.58 5.12 4.02"/><path d="m591.3 433 .69.05a7.36 7.36 0 0 1 6.62 5.6"/><path d="m614.64 453.1h.7a7.37 7.37 0 0 1 6.62 5.6"/></g><circle cx="705.44" cy="639.17" fill="#3fbdf1" r="17.29"/><g fill="none" stroke="#000" stroke-miterlimit="10" stroke-width="4.03"><circle cx="705.44" cy="639.17" r="17.29"/><circle cx="705.44" cy="639.17" r="17.29"/><path d="m401.94 407.21s-65 14-116.27 84.34"/><path d="m688.14 755.5s21.66 28.12 19.68 68.12"/><path d="m214.6 638.69h-52.47"/><path d="m199.39 628.21h18.39"/></g></svg>