<svg viewBox="0 0 1000 1000" xmlns="http://www.w3.org/2000/svg"><g fill="#3fbdf1"><path d="m252.15 564a9.72 9.72 0 0 1 6.22 2.78c2.59 2.69 57 59.88 57.77 61.4s-18.24 1.53-20.09 1.53-41.78.52-42.84-1.53-1.06-64.18-1.06-64.18z"/><path d="m215.37 308.82s1-5.6 11-3.47 47.7 11.9 48.84 12.13 14.63-1.13 6.75 7.56l-95.71 105.55s-26.1 21.93-9.94 48.57l33.48 36.84 21.63 22.58s5.18-2.86 4.23 12.8.83 70.6.83 70.6 1 4.81-5.09-.21-88-93.44-88-93.44l-38.54-42.49s-12.1-12.36-6.66-34.19 32.09-45.65 32.09-45.65z"/><path d="m433.81 571.87a462.84 462.84 0 0 0 -46.61 34.37c-25.42-26.72-72.79-77.87-72.79-77.87l-38.52-42.49s-12.13-12.37-6.67-34.2c.1-.38.19-.77.32-1.18 21 27.48 50 69.84 112.49 66.8z"/><path d="m453 325c-5.3 5.87-47.09 51.94-73.65 81.23l-22 24.3a50.49 50.49 0 0 0 -9.4 11.43c-19.86-7.46-39.79-14.79-59.52-22.53a158.49 158.49 0 0 1 12.94-13.42l78.79-90c.86-.1 1.68-.16 2.54-.26a322 322 0 0 0 35.06-5.42c3.37-.73 6.76-1.49 10.12-2.29 12 6.54-4.6 19.93 18.41 9.4.38.06 2 0 3.87.09 3.71.34 8.12 1.64 2.84 7.47z"/></g><g fill="none" stroke="#ccdde2" stroke-miterlimit="10" stroke-width="4.76"><path d="m362.38 629.69h-43.72-61.78-4.73"/><path d="m172.06 304.32-88.62 101.25-22.25 25.43a45.25 45.25 0 0 0 .81 60.5l114.44 123.69a45.31 45.31 0 0 0 33.19 14.5h26"/><path d="m219.56 304-111.12 127a45.25 45.25 0 0 0 .83 60.51l114.42 123.68a45.46 45.46 0 0 0 12 9.2"/><path d="m235.65 543-53.12-55.4a37.81 37.81 0 0 1 -.76-52.08l105-115.78"/><path d="m252.15 629.43a46.37 46.37 0 0 0 4.73.26h61.78l-66.51-69.43"/><path d="m381.42 517.17.13.16 52.26 54.54"/><path d="m382.63 315.8-93.73 103.89"/><path d="m269.13 449.93a45.15 45.15 0 0 0 10.69 41.54l106.68 115.34"/><path d="m347.12 442.66c.16-.25.29-.5.48-.76a36.19 36.19 0 0 1 4.73-6.38l26.9-29.7.26-.25"/><path d="m83.44 405.57s9.07-86.75 88.62-101.25c22.34-4.06 45.35-1.65 67.21 3.9 17.93 4.54 35.66 10.69 54.26 11.8 19.8 1.18 39.88-.73 59.65-1.9 8.92-.54 17.93-1.17 26.91-2.06.86-.1 1.68-.16 2.54-.26a322 322 0 0 0 35.06-5.42c3.37-.73 6.76-1.49 10.12-2.29 1.69-.35 3.37-.76 5.05-1.14"/><path d="m716.76 884.27c45.24-39.27 72.85-104.56 82.69-163.48"/><path d="m480.58 292.86c18.22-5 42.87-13.36 75.81-27.19 97.54-41 132.25-1.72 132.25-1.72a70.55 70.55 0 0 1 14.36 17.62c.47.79.92 1.61 1.33 2.41 33.19 62.22-26 129.9-1.78 193 13.74 35.92 47.85 58.89 64.89 93.1a227.65 227.65 0 0 1 19.45 58"/><path d="m431.53 290.77a1 1 0 0 0 -.29.06"/></g><path d="m647.64 517.46c-8.73 119.9-130.09 120-132.13 118.67 0 0 7.86 8.24-39.95-29.85s-67.44-94.64-67.44-94.64c-20.12 9.36-57.12 4.53-57.12 4.53-23.9-7.2-43.91-22.3-59.2-37.65 21.09-25.89 17-45.69 15.41-50.71 20.06 8.18 43 16.84 52.37 17.85 18.17 1.95 16.53-23.85 16.53-23.85 16.28-99.15 73.79-104.18 73.79-104.18 62.3-7.2 98.41 19.66 128.48 87s69.26 112.83 69.26 112.83z" fill="#2e2e2e"/><path d="m531.41 900h-109.41a10.76 10.76 0 0 1 5-20.31h26.55s-1.06-.77-3-2.26h62.24c9.21 11.33 16.06 19.51 18.62 22.57z" fill="#3fbdf1"/><path d="m927.15 730.88-5.15 57.56c-.05.36-.11.7-.16 1.09-1.43 11.48-7.69 11.61-7.69 11.61l5.62 12.21-.47 5.19v30.27a11.34 11.34 0 0 0 18.91 8.44 11.17 11.17 0 0 0 3.7-7.2c2.39-22.3 7.92-73.67 7.92-73.67 2.17-10.82-16.89-38.98-22.68-45.5z" fill="#3fbdf1"/><g fill="none" stroke="#000" stroke-miterlimit="10" stroke-width="4.76"><path d="m540.68 650.6c-56.26 47-126.38 56.32-119.34 87.58 7.24 32 61.53 102.3 91.48 139.23 9.14 11.36 16 19.52 18.6 22.53.66.86 1 1.27 1 1.27h-105.42a10.43 10.43 0 0 1 -5.05-1.27 10.75 10.75 0 0 1 5.05-20.24h26.56l-3-2.29c-20.28-15.58-137-108.93-125.21-182.32 5.2-32.5 31.88-63.47 61.84-88.85a462.84 462.84 0 0 1 46.61-34.37c2.06-1.33 4.06-2.63 6-3.87"/><path d="m252.14 436.19v466.12a8.25 8.25 0 0 1 -16.5 0v-466.12a8.26 8.26 0 0 1 14.09-5.83 8.14 8.14 0 0 1 2.41 5.83z"/><path d="m292.67 901.22a48.79 48.79 0 1 1 -57-48.07v49.16a8.25 8.25 0 0 0 16.5 0v-49.16a48.75 48.75 0 0 1 40.5 48.07z"/><circle cx="655.92" cy="901.22" r="48.79"/><path d="m496.8 392.05c-7.3 49.15-38.55 106.52-88.44 121.18a87.63 87.63 0 0 1 -11.36 2.54 143.15 143.15 0 0 1 -15 1.53c-62.45 3-91.48-39.32-112.49-66.8-9.39-12.37-17.2-21.7-25.64-22.56"/><path d="m235.65 436.19v3.68a11.43 11.43 0 0 1 -8.85 11.3 11.24 11.24 0 0 1 -13.61-11v-2.82c0-10.22 4.47-20.57 12.5-27 14.47-11.64 33.85-2.44 48.64 3.52 4.67 1.91 9.33 3.75 14 5.59 19.73 7.74 39.66 15.07 59.52 22.53l7.33 2.76a14 14 0 0 0 18.92-11.14c1.27-8.72 2.92-18 5.17-27.35 9.36-39.16 28.75-80 70.54-88.63l.25-.06c52.29-10.57 100.84 24.03 120.94 70.58 17.39 40.33 38.62 79.3 65.08 114.45 49.19 65.34 90.66 92.72 160.28 130.74 48.42 26.46 96.75 59 133.71 100.52 5.81 6.54 22 31.7 19.77 42.52 0 0-5.52 51.37-7.9 73.68a11.34 11.34 0 0 1 -22.62-1.24v-30.27a26.24 26.24 0 0 0 -.73-6.22c-5.08-23.23-37-45.25-53.66-56.45a378 378 0 0 0 -107.93-49.88c-30.9-8.76-61.84-10.57-93.25-15.48q-3.19-.48-6.38-1c-40.14-7-80.25-19.9-116.68-38.87-39.34-20.47-74.44-48-100.84-82.6a240.67 240.67 0 0 1 -31.48-54.77"/><path d="m292.68 901.22h211.57 103.12"/><circle cx="656.16" cy="902.3" r="8.24"/><path d="m704.71 901.22h14.36a63.14 63.14 0 0 0 -126.28 0"/><path d="m180.74 901.22a63.1 63.1 0 0 1 54.9-62.59"/><path d="m252.14 838.63a63.09 63.09 0 0 1 54.86 62.59h-14.33"/></g><path d="m390.92 214.14c4.05 4.21 10.65 4.86 16.16 4.7 7-.19 14.08-1.42 21-2.4l4.17.06h.06a6.1 6.1 0 0 1 5.69 6.5 122.38 122.38 0 0 1 -4.43 26.55l7.69 4.85c1.22-2.82.33-7 2.8-7.18 1.76-2.82 4.22-4.57 7.73-2.15 6.88 4.73 8.88 17.41 1.6 22.68l3.88 8.57c2.79 6.2 14.35 9.15 20.95 7.62-2.28-6.11-8.63-9.9-8.63-9.9 10.48 2.58 18.77-10.16 16.07-18.46-1.83-5.69-1.44-10 1.88-15.2.22-.35-1.75-1-1.55-1.34.36-3.94-.46-8.26-2.23-10.41-3.11-3.83-9.82-4.94-8.08-10.31a23.1 23.1 0 0 0 1.15-7.26 22.66 22.66 0 0 0 -8.56-16.71c-5.34-4-11.81-1.13-17.77-1.62-7.24-.55-12-7-19.61-7.63-3.78-.31-6.92 1-10.26 2.58-2.81 1.37-5.58 2.83-8.29 4.42s-5.1 3-8.19 2.77c-4-.21-7.75-3-11.88-2.1a9.39 9.39 0 0 0 -5.3 3.15c-1.79 6.19.03 14.15 3.95 18.22z" fill="#3fbdf1"/><g fill="none" stroke="#000" stroke-width="4.76"><path d="m441.3 253.52c.17-.48.34-.94.54-1.46v-.06a26.2 26.2 0 0 1 2.15-4.73c1.78-2.82 4.22-4.57 7.75-2.16 6.89 4.74 8.87 17.42 1.61 22.71l3.87 8.55a6.78 6.78 0 0 0 .49.92c2.15 3.73 6.83 6.4 12.14 6.68h.09a17.45 17.45 0 0 0 5.68-.66" stroke-linecap="round" stroke-linejoin="round"/><g stroke-miterlimit="10"><path d="m399 233.31s13.49-2.42 18.62 8"/><path d="m400.88 263.6c-3.65.74-8.52 1.31-11.06-2l6.84-12.26a15.12 15.12 0 0 0 1.68-9.87c-.94-5.69-3.66-14.43.34-21.59"/></g></g><ellipse cx="407.53" cy="244.86" rx="3.54" ry="4.16" transform="matrix(.57157316 -.82055111 .82055111 .57157316 -26.31 439.33)"/><g fill="none" stroke="#000" stroke-width="4.76"><path d="m432.33 323.63-.8-33.33" stroke-miterlimit="10"/><path d="m441.21 254.43c0-.31.07-.62.09-.93s.09-.65.1-1" stroke-linecap="round" stroke-linejoin="round"/><path d="m441.21 254.43-2.64-1.65-5.05-3.2" stroke-linecap="round" stroke-linejoin="round"/><path d="m418.43 265.67s-.85 8.83-11.21 11.81" stroke-miterlimit="10"/><path d="m469.54 274.07c10.48 2.58 18.77-10.16 16.07-18.46-1.83-5.69-1.44-10 1.88-15.2.22-.35.41-.7.6-1a12.4 12.4 0 0 0 -1.09-13.89c-3-4.1-7.82-5.79-6-11.35a23.56 23.56 0 0 0 1.2-7.48 23.32 23.32 0 0 0 -8.84-17.22c-5.49-4.19-12.18-1.16-18.35-1.66-7.43-.6-12.39-7.29-20.19-7.9-3.89-.3-7.15 1-10.59 2.66-2.9 1.43-5.77 2.94-8.53 4.57s-5.29 3.06-8.47 2.86c-4.16-.24-8-3.12-12.23-2.17s-6.93 4.19-8 8.12c-1.74 6.16.08 14.12 4 18.19s10.65 4.86 16.16 4.7c7-.19 14.08-1.42 21-2.4l4.17.06h.06a6.1 6.1 0 0 1 5.61 6.5 122.38 122.38 0 0 1 -4.43 26.55" stroke-miterlimit="10"/><path d="m441 281.94s-17.2 20-30.94 14.33-12.74-31.69-12.74-31.69" stroke-linecap="round" stroke-linejoin="round"/></g><path d="m290.89 477.66.86.86c-.55.72-1.15 1.43-1.78 2.15z" fill="#2e2e2e"/><path d="m307.13 427.81-.72-.29.29-1a9.55 9.55 0 0 1 .43 1.29z" fill="#2e2e2e"/><g fill="none" stroke-width="4.76"><path d="m243.88 950h560.38" stroke="#000" stroke-miterlimit="10"/><path d="m470.93 274.32 23.75 45.51" stroke="#000" stroke-linecap="round" stroke-linejoin="round"/><g stroke-miterlimit="10"><g stroke="#000"><path d="m755.61 595.59s93.58 40.25 112.39 65.15"/><path d="m738.7 899.95h40.19"/><path d="m758.79 888.69h60.29"/></g><g stroke="#ccdde2"><circle cx="643.52" cy="314.44" r="66.76"/><circle cx="643.52" cy="314.44" r="36.67"/><circle cx="643.52" cy="314.44" r="6.29"/><path d="m656.53 293.45-9.7 15.64"/><path d="m643.52 277.77v6.52"/><path d="m680.19 314.44h-6.18"/><path d="m643.52 351.11v-6.34"/><path d="m606.85 314.44h5.57"/></g></g></g></svg>